<?xml version="1.0" encoding="utf-8" standalone="no"?>
<!DOCTYPE svg PUBLIC "-//W3C//DTD SVG 1.1//EN"
  "http://www.w3.org/Graphics/SVG/1.1/DTD/svg11.dtd">
<svg xmlns:xlink="http://www.w3.org/1999/xlink" width="139.342969pt" height="402.48pt" viewBox="0 0 139.342969 402.48" xmlns="http://www.w3.org/2000/svg" version="1.1">
 <metadata>
  <rdf:RDF xmlns:dc="http://purl.org/dc/elements/1.1/" xmlns:cc="http://creativecommons.org/ns#" xmlns:rdf="http://www.w3.org/1999/02/22-rdf-syntax-ns#">
   <cc:Work>
    <dc:type rdf:resource="http://purl.org/dc/dcmitype/StillImage"/>
    <dc:date>2024-12-11T15:16:49.479922</dc:date>
    <dc:format>image/svg+xml</dc:format>
    <dc:creator>
     <cc:Agent>
      <dc:title>Matplotlib v3.8.0, https://matplotlib.org/</dc:title>
     </cc:Agent>
    </dc:creator>
   </cc:Work>
  </rdf:RDF>
 </metadata>
 <defs>
  <style type="text/css">*{stroke-linejoin: round; stroke-linecap: butt}</style>
 </defs>
 <g id="figure_1">
  <g id="patch_1">
   <path d="M 0 402.48 
L 139.342969 402.48 
L 139.342969 -0 
L 0 -0 
z
" style="fill: #ffffff"/>
  </g>
  <g id="axes_1">
   <g id="patch_2">
    <path d="M 104.242969 395.28 
L 132.142969 395.28 
L 132.142969 7.2 
L 104.242969 7.2 
z
" style="fill: #ffffff"/>
   </g>
   <g id="patch_3">
    <path d="M 104.242969 377.64 
L 130.814397 377.64 
L 130.814397 353.721356 
L 104.242969 353.721356 
z
" clip-path="url(#p69bd0c2559)" style="fill: #e69f00"/>
   </g>
   <g id="patch_4">
    <path d="M 104.242969 347.741695 
L 130.814397 347.741695 
L 130.814397 323.823051 
L 104.242969 323.823051 
z
" clip-path="url(#p69bd0c2559)" style="fill: #56b4e9"/>
   </g>
   <g id="patch_5">
    <path d="M 104.242969 317.84339 
L 130.814397 317.84339 
L 130.814397 293.924746 
L 104.242969 293.924746 
z
" clip-path="url(#p69bd0c2559)" style="fill: #009e73"/>
   </g>
   <g id="patch_6">
    <path d="M 104.242969 287.945085 
L 130.814397 287.945085 
L 130.814397 264.026441 
L 104.242969 264.026441 
z
" clip-path="url(#p69bd0c2559)" style="fill: #0072b2"/>
   </g>
   <g id="patch_7">
    <path d="M 104.242969 258.04678 
L 130.814397 258.04678 
L 130.814397 234.128136 
L 104.242969 234.128136 
z
" clip-path="url(#p69bd0c2559)" style="fill: #f0e442"/>
   </g>
   <g id="patch_8">
    <path d="M 104.242969 228.148475 
L 130.814397 228.148475 
L 130.814397 204.229831 
L 104.242969 204.229831 
z
" clip-path="url(#p69bd0c2559)" style="fill: #89ce00"/>
   </g>
   <g id="patch_9">
    <path d="M 104.242969 198.250169 
L 130.814397 198.250169 
L 130.814397 174.331525 
L 104.242969 174.331525 
z
" clip-path="url(#p69bd0c2559)" style="fill: #06ea0d"/>
   </g>
   <g id="patch_10">
    <path d="M 104.242969 168.351864 
L 130.814397 168.351864 
L 130.814397 144.43322 
L 104.242969 144.43322 
z
" clip-path="url(#p69bd0c2559)" style="fill: #19d3f3"/>
   </g>
   <g id="patch_11">
    <path d="M 104.242969 138.453559 
L 130.814397 138.453559 
L 130.814397 114.534915 
L 104.242969 114.534915 
z
" clip-path="url(#p69bd0c2559)" style="fill: #d55e00"/>
   </g>
   <g id="patch_12">
    <path d="M 104.242969 108.555254 
L 130.814397 108.555254 
L 130.814397 84.63661 
L 104.242969 84.63661 
z
" clip-path="url(#p69bd0c2559)" style="fill: #ead506"/>
   </g>
   <g id="patch_13">
    <path d="M 104.242969 78.656949 
L 130.814397 78.656949 
L 130.814397 54.738305 
L 104.242969 54.738305 
z
" clip-path="url(#p69bd0c2559)" style="fill: #a42324"/>
   </g>
   <g id="patch_14">
    <path d="M 104.242969 48.758644 
L 130.814397 48.758644 
L 130.814397 24.84 
L 104.242969 24.84 
z
" clip-path="url(#p69bd0c2559)" style="fill: #55eeff"/>
   </g>
   <g id="matplotlib.axis_1">
    <g id="xtick_1">
     <g id="line2d_1">
      <defs>
       <path id="m043db594b4" d="M 0 0 
L 0 3.5 
" style="stroke: #000000; stroke-width: 0.8"/>
      </defs>
      <g>
       <use xlink:href="#m043db594b4" x="104.242969" y="395.28" style="stroke: #000000; stroke-width: 0.8"/>
      </g>
     </g>
    </g>
    <g id="xtick_2">
     <g id="line2d_2">
      <g>
       <use xlink:href="#m043db594b4" x="130.814397" y="395.28" style="stroke: #000000; stroke-width: 0.8"/>
      </g>
     </g>
    </g>
   </g>
   <g id="matplotlib.axis_2">
    <g id="ytick_1">
     <g id="line2d_3"/>
     <g id="text_1">
      <!-- Bacillariophyta -->
      <g transform="translate(29.208594 369.617475) scale(0.11 -0.11)">
       <defs>
        <path id="ArialMT-42" d="M 469 0 
L 469 4581 
L 2188 4581 
Q 2713 4581 3030 4442 
Q 3347 4303 3526 4014 
Q 3706 3725 3706 3409 
Q 3706 3116 3547 2856 
Q 3388 2597 3066 2438 
Q 3481 2316 3704 2022 
Q 3928 1728 3928 1328 
Q 3928 1006 3792 729 
Q 3656 453 3456 303 
Q 3256 153 2954 76 
Q 2653 0 2216 0 
L 469 0 
z
M 1075 2656 
L 2066 2656 
Q 2469 2656 2644 2709 
Q 2875 2778 2992 2937 
Q 3109 3097 3109 3338 
Q 3109 3566 3000 3739 
Q 2891 3913 2687 3977 
Q 2484 4041 1991 4041 
L 1075 4041 
L 1075 2656 
z
M 1075 541 
L 2216 541 
Q 2509 541 2628 563 
Q 2838 600 2978 687 
Q 3119 775 3209 942 
Q 3300 1109 3300 1328 
Q 3300 1584 3169 1773 
Q 3038 1963 2805 2039 
Q 2572 2116 2134 2116 
L 1075 2116 
L 1075 541 
z
" transform="scale(0.015625)"/>
        <path id="ArialMT-61" d="M 2588 409 
Q 2275 144 1986 34 
Q 1697 -75 1366 -75 
Q 819 -75 525 192 
Q 231 459 231 875 
Q 231 1119 342 1320 
Q 453 1522 633 1644 
Q 813 1766 1038 1828 
Q 1203 1872 1538 1913 
Q 2219 1994 2541 2106 
Q 2544 2222 2544 2253 
Q 2544 2597 2384 2738 
Q 2169 2928 1744 2928 
Q 1347 2928 1158 2789 
Q 969 2650 878 2297 
L 328 2372 
Q 403 2725 575 2942 
Q 747 3159 1072 3276 
Q 1397 3394 1825 3394 
Q 2250 3394 2515 3294 
Q 2781 3194 2906 3042 
Q 3031 2891 3081 2659 
Q 3109 2516 3109 2141 
L 3109 1391 
Q 3109 606 3145 398 
Q 3181 191 3288 0 
L 2700 0 
Q 2613 175 2588 409 
z
M 2541 1666 
Q 2234 1541 1622 1453 
Q 1275 1403 1131 1340 
Q 988 1278 909 1158 
Q 831 1038 831 891 
Q 831 666 1001 516 
Q 1172 366 1500 366 
Q 1825 366 2078 508 
Q 2331 650 2450 897 
Q 2541 1088 2541 1459 
L 2541 1666 
z
" transform="scale(0.015625)"/>
        <path id="ArialMT-63" d="M 2588 1216 
L 3141 1144 
Q 3050 572 2676 248 
Q 2303 -75 1759 -75 
Q 1078 -75 664 370 
Q 250 816 250 1647 
Q 250 2184 428 2587 
Q 606 2991 970 3192 
Q 1334 3394 1763 3394 
Q 2303 3394 2647 3120 
Q 2991 2847 3088 2344 
L 2541 2259 
Q 2463 2594 2264 2762 
Q 2066 2931 1784 2931 
Q 1359 2931 1093 2626 
Q 828 2322 828 1663 
Q 828 994 1084 691 
Q 1341 388 1753 388 
Q 2084 388 2306 591 
Q 2528 794 2588 1216 
z
" transform="scale(0.015625)"/>
        <path id="ArialMT-69" d="M 425 3934 
L 425 4581 
L 988 4581 
L 988 3934 
L 425 3934 
z
M 425 0 
L 425 3319 
L 988 3319 
L 988 0 
L 425 0 
z
" transform="scale(0.015625)"/>
        <path id="ArialMT-6c" d="M 409 0 
L 409 4581 
L 972 4581 
L 972 0 
L 409 0 
z
" transform="scale(0.015625)"/>
        <path id="ArialMT-72" d="M 416 0 
L 416 3319 
L 922 3319 
L 922 2816 
Q 1116 3169 1280 3281 
Q 1444 3394 1641 3394 
Q 1925 3394 2219 3213 
L 2025 2691 
Q 1819 2813 1613 2813 
Q 1428 2813 1281 2702 
Q 1134 2591 1072 2394 
Q 978 2094 978 1738 
L 978 0 
L 416 0 
z
" transform="scale(0.015625)"/>
        <path id="ArialMT-6f" d="M 213 1659 
Q 213 2581 725 3025 
Q 1153 3394 1769 3394 
Q 2453 3394 2887 2945 
Q 3322 2497 3322 1706 
Q 3322 1066 3130 698 
Q 2938 331 2570 128 
Q 2203 -75 1769 -75 
Q 1072 -75 642 372 
Q 213 819 213 1659 
z
M 791 1659 
Q 791 1022 1069 705 
Q 1347 388 1769 388 
Q 2188 388 2466 706 
Q 2744 1025 2744 1678 
Q 2744 2294 2464 2611 
Q 2184 2928 1769 2928 
Q 1347 2928 1069 2612 
Q 791 2297 791 1659 
z
" transform="scale(0.015625)"/>
        <path id="ArialMT-70" d="M 422 -1272 
L 422 3319 
L 934 3319 
L 934 2888 
Q 1116 3141 1344 3267 
Q 1572 3394 1897 3394 
Q 2322 3394 2647 3175 
Q 2972 2956 3137 2557 
Q 3303 2159 3303 1684 
Q 3303 1175 3120 767 
Q 2938 359 2589 142 
Q 2241 -75 1856 -75 
Q 1575 -75 1351 44 
Q 1128 163 984 344 
L 984 -1272 
L 422 -1272 
z
M 931 1641 
Q 931 1000 1190 694 
Q 1450 388 1819 388 
Q 2194 388 2461 705 
Q 2728 1022 2728 1688 
Q 2728 2322 2467 2637 
Q 2206 2953 1844 2953 
Q 1484 2953 1207 2617 
Q 931 2281 931 1641 
z
" transform="scale(0.015625)"/>
        <path id="ArialMT-68" d="M 422 0 
L 422 4581 
L 984 4581 
L 984 2938 
Q 1378 3394 1978 3394 
Q 2347 3394 2619 3248 
Q 2891 3103 3008 2847 
Q 3125 2591 3125 2103 
L 3125 0 
L 2563 0 
L 2563 2103 
Q 2563 2525 2380 2717 
Q 2197 2909 1863 2909 
Q 1613 2909 1392 2779 
Q 1172 2650 1078 2428 
Q 984 2206 984 1816 
L 984 0 
L 422 0 
z
" transform="scale(0.015625)"/>
        <path id="ArialMT-79" d="M 397 -1278 
L 334 -750 
Q 519 -800 656 -800 
Q 844 -800 956 -737 
Q 1069 -675 1141 -563 
Q 1194 -478 1313 -144 
Q 1328 -97 1363 -6 
L 103 3319 
L 709 3319 
L 1400 1397 
Q 1534 1031 1641 628 
Q 1738 1016 1872 1384 
L 2581 3319 
L 3144 3319 
L 1881 -56 
Q 1678 -603 1566 -809 
Q 1416 -1088 1222 -1217 
Q 1028 -1347 759 -1347 
Q 597 -1347 397 -1278 
z
" transform="scale(0.015625)"/>
        <path id="ArialMT-74" d="M 1650 503 
L 1731 6 
Q 1494 -44 1306 -44 
Q 1000 -44 831 53 
Q 663 150 594 308 
Q 525 466 525 972 
L 525 2881 
L 113 2881 
L 113 3319 
L 525 3319 
L 525 4141 
L 1084 4478 
L 1084 3319 
L 1650 3319 
L 1650 2881 
L 1084 2881 
L 1084 941 
Q 1084 700 1114 631 
Q 1144 563 1211 522 
Q 1278 481 1403 481 
Q 1497 481 1650 503 
z
" transform="scale(0.015625)"/>
       </defs>
       <use xlink:href="#ArialMT-42"/>
       <use xlink:href="#ArialMT-61" x="66.699219"/>
       <use xlink:href="#ArialMT-63" x="122.314453"/>
       <use xlink:href="#ArialMT-69" x="172.314453"/>
       <use xlink:href="#ArialMT-6c" x="194.53125"/>
       <use xlink:href="#ArialMT-6c" x="216.748047"/>
       <use xlink:href="#ArialMT-61" x="238.964844"/>
       <use xlink:href="#ArialMT-72" x="294.580078"/>
       <use xlink:href="#ArialMT-69" x="327.880859"/>
       <use xlink:href="#ArialMT-6f" x="350.097656"/>
       <use xlink:href="#ArialMT-70" x="405.712891"/>
       <use xlink:href="#ArialMT-68" x="461.328125"/>
       <use xlink:href="#ArialMT-79" x="516.943359"/>
       <use xlink:href="#ArialMT-74" x="566.943359"/>
       <use xlink:href="#ArialMT-61" x="594.726562"/>
      </g>
     </g>
    </g>
    <g id="ytick_2">
     <g id="line2d_4"/>
     <g id="text_2">
      <!-- Dinophyceae -->
      <g transform="translate(36.535625 339.71917) scale(0.11 -0.11)">
       <defs>
        <path id="ArialMT-44" d="M 494 0 
L 494 4581 
L 2072 4581 
Q 2606 4581 2888 4516 
Q 3281 4425 3559 4188 
Q 3922 3881 4101 3404 
Q 4281 2928 4281 2316 
Q 4281 1794 4159 1391 
Q 4038 988 3847 723 
Q 3656 459 3429 307 
Q 3203 156 2883 78 
Q 2563 0 2147 0 
L 494 0 
z
M 1100 541 
L 2078 541 
Q 2531 541 2789 625 
Q 3047 709 3200 863 
Q 3416 1078 3536 1442 
Q 3656 1806 3656 2325 
Q 3656 3044 3420 3430 
Q 3184 3816 2847 3947 
Q 2603 4041 2063 4041 
L 1100 4041 
L 1100 541 
z
" transform="scale(0.015625)"/>
        <path id="ArialMT-6e" d="M 422 0 
L 422 3319 
L 928 3319 
L 928 2847 
Q 1294 3394 1984 3394 
Q 2284 3394 2536 3286 
Q 2788 3178 2913 3003 
Q 3038 2828 3088 2588 
Q 3119 2431 3119 2041 
L 3119 0 
L 2556 0 
L 2556 2019 
Q 2556 2363 2490 2533 
Q 2425 2703 2258 2804 
Q 2091 2906 1866 2906 
Q 1506 2906 1245 2678 
Q 984 2450 984 1813 
L 984 0 
L 422 0 
z
" transform="scale(0.015625)"/>
        <path id="ArialMT-65" d="M 2694 1069 
L 3275 997 
Q 3138 488 2766 206 
Q 2394 -75 1816 -75 
Q 1088 -75 661 373 
Q 234 822 234 1631 
Q 234 2469 665 2931 
Q 1097 3394 1784 3394 
Q 2450 3394 2872 2941 
Q 3294 2488 3294 1666 
Q 3294 1616 3291 1516 
L 816 1516 
Q 847 969 1125 678 
Q 1403 388 1819 388 
Q 2128 388 2347 550 
Q 2566 713 2694 1069 
z
M 847 1978 
L 2700 1978 
Q 2663 2397 2488 2606 
Q 2219 2931 1791 2931 
Q 1403 2931 1139 2672 
Q 875 2413 847 1978 
z
" transform="scale(0.015625)"/>
       </defs>
       <use xlink:href="#ArialMT-44"/>
       <use xlink:href="#ArialMT-69" x="72.216797"/>
       <use xlink:href="#ArialMT-6e" x="94.433594"/>
       <use xlink:href="#ArialMT-6f" x="150.048828"/>
       <use xlink:href="#ArialMT-70" x="205.664062"/>
       <use xlink:href="#ArialMT-68" x="261.279297"/>
       <use xlink:href="#ArialMT-79" x="316.894531"/>
       <use xlink:href="#ArialMT-63" x="366.894531"/>
       <use xlink:href="#ArialMT-65" x="416.894531"/>
       <use xlink:href="#ArialMT-61" x="472.509766"/>
       <use xlink:href="#ArialMT-65" x="528.125"/>
      </g>
     </g>
    </g>
    <g id="ytick_3">
     <g id="line2d_5"/>
     <g id="text_3">
      <!-- Prymnesiophyceae -->
      <g transform="translate(7.2 309.820865) scale(0.11 -0.11)">
       <defs>
        <path id="ArialMT-50" d="M 494 0 
L 494 4581 
L 2222 4581 
Q 2678 4581 2919 4538 
Q 3256 4481 3484 4323 
Q 3713 4166 3852 3881 
Q 3991 3597 3991 3256 
Q 3991 2672 3619 2267 
Q 3247 1863 2275 1863 
L 1100 1863 
L 1100 0 
L 494 0 
z
M 1100 2403 
L 2284 2403 
Q 2872 2403 3119 2622 
Q 3366 2841 3366 3238 
Q 3366 3525 3220 3729 
Q 3075 3934 2838 4000 
Q 2684 4041 2272 4041 
L 1100 4041 
L 1100 2403 
z
" transform="scale(0.015625)"/>
        <path id="ArialMT-6d" d="M 422 0 
L 422 3319 
L 925 3319 
L 925 2853 
Q 1081 3097 1340 3245 
Q 1600 3394 1931 3394 
Q 2300 3394 2536 3241 
Q 2772 3088 2869 2813 
Q 3263 3394 3894 3394 
Q 4388 3394 4653 3120 
Q 4919 2847 4919 2278 
L 4919 0 
L 4359 0 
L 4359 2091 
Q 4359 2428 4304 2576 
Q 4250 2725 4106 2815 
Q 3963 2906 3769 2906 
Q 3419 2906 3187 2673 
Q 2956 2441 2956 1928 
L 2956 0 
L 2394 0 
L 2394 2156 
Q 2394 2531 2256 2718 
Q 2119 2906 1806 2906 
Q 1569 2906 1367 2781 
Q 1166 2656 1075 2415 
Q 984 2175 984 1722 
L 984 0 
L 422 0 
z
" transform="scale(0.015625)"/>
        <path id="ArialMT-73" d="M 197 991 
L 753 1078 
Q 800 744 1014 566 
Q 1228 388 1613 388 
Q 2000 388 2187 545 
Q 2375 703 2375 916 
Q 2375 1106 2209 1216 
Q 2094 1291 1634 1406 
Q 1016 1563 777 1677 
Q 538 1791 414 1992 
Q 291 2194 291 2438 
Q 291 2659 392 2848 
Q 494 3038 669 3163 
Q 800 3259 1026 3326 
Q 1253 3394 1513 3394 
Q 1903 3394 2198 3281 
Q 2494 3169 2634 2976 
Q 2775 2784 2828 2463 
L 2278 2388 
Q 2241 2644 2061 2787 
Q 1881 2931 1553 2931 
Q 1166 2931 1000 2803 
Q 834 2675 834 2503 
Q 834 2394 903 2306 
Q 972 2216 1119 2156 
Q 1203 2125 1616 2013 
Q 2213 1853 2448 1751 
Q 2684 1650 2818 1456 
Q 2953 1263 2953 975 
Q 2953 694 2789 445 
Q 2625 197 2315 61 
Q 2006 -75 1616 -75 
Q 969 -75 630 194 
Q 291 463 197 991 
z
" transform="scale(0.015625)"/>
       </defs>
       <use xlink:href="#ArialMT-50"/>
       <use xlink:href="#ArialMT-72" x="66.699219"/>
       <use xlink:href="#ArialMT-79" x="100"/>
       <use xlink:href="#ArialMT-6d" x="150"/>
       <use xlink:href="#ArialMT-6e" x="233.300781"/>
       <use xlink:href="#ArialMT-65" x="288.916016"/>
       <use xlink:href="#ArialMT-73" x="344.53125"/>
       <use xlink:href="#ArialMT-69" x="394.53125"/>
       <use xlink:href="#ArialMT-6f" x="416.748047"/>
       <use xlink:href="#ArialMT-70" x="472.363281"/>
       <use xlink:href="#ArialMT-68" x="527.978516"/>
       <use xlink:href="#ArialMT-79" x="583.59375"/>
       <use xlink:href="#ArialMT-63" x="633.59375"/>
       <use xlink:href="#ArialMT-65" x="683.59375"/>
       <use xlink:href="#ArialMT-61" x="739.208984"/>
       <use xlink:href="#ArialMT-65" x="794.824219"/>
      </g>
     </g>
    </g>
    <g id="ytick_4">
     <g id="line2d_6"/>
     <g id="text_4">
      <!-- Arthropoda -->
      <g transform="translate(46.322187 279.92256) scale(0.11 -0.11)">
       <defs>
        <path id="ArialMT-41" d="M -9 0 
L 1750 4581 
L 2403 4581 
L 4278 0 
L 3588 0 
L 3053 1388 
L 1138 1388 
L 634 0 
L -9 0 
z
M 1313 1881 
L 2866 1881 
L 2388 3150 
Q 2169 3728 2063 4100 
Q 1975 3659 1816 3225 
L 1313 1881 
z
" transform="scale(0.015625)"/>
        <path id="ArialMT-64" d="M 2575 0 
L 2575 419 
Q 2259 -75 1647 -75 
Q 1250 -75 917 144 
Q 584 363 401 755 
Q 219 1147 219 1656 
Q 219 2153 384 2558 
Q 550 2963 881 3178 
Q 1213 3394 1622 3394 
Q 1922 3394 2156 3267 
Q 2391 3141 2538 2938 
L 2538 4581 
L 3097 4581 
L 3097 0 
L 2575 0 
z
M 797 1656 
Q 797 1019 1065 703 
Q 1334 388 1700 388 
Q 2069 388 2326 689 
Q 2584 991 2584 1609 
Q 2584 2291 2321 2609 
Q 2059 2928 1675 2928 
Q 1300 2928 1048 2622 
Q 797 2316 797 1656 
z
" transform="scale(0.015625)"/>
       </defs>
       <use xlink:href="#ArialMT-41"/>
       <use xlink:href="#ArialMT-72" x="66.699219"/>
       <use xlink:href="#ArialMT-74" x="100"/>
       <use xlink:href="#ArialMT-68" x="127.783203"/>
       <use xlink:href="#ArialMT-72" x="183.398438"/>
       <use xlink:href="#ArialMT-6f" x="216.699219"/>
       <use xlink:href="#ArialMT-70" x="272.314453"/>
       <use xlink:href="#ArialMT-6f" x="327.929688"/>
       <use xlink:href="#ArialMT-64" x="383.544922"/>
       <use xlink:href="#ArialMT-61" x="439.160156"/>
      </g>
     </g>
    </g>
    <g id="ytick_5">
     <g id="line2d_7"/>
     <g id="text_5">
      <!-- Ciliates -->
      <g transform="translate(64.676719 250.024255) scale(0.11 -0.11)">
       <defs>
        <path id="ArialMT-43" d="M 3763 1606 
L 4369 1453 
Q 4178 706 3683 314 
Q 3188 -78 2472 -78 
Q 1731 -78 1267 223 
Q 803 525 561 1097 
Q 319 1669 319 2325 
Q 319 3041 592 3573 
Q 866 4106 1370 4382 
Q 1875 4659 2481 4659 
Q 3169 4659 3637 4309 
Q 4106 3959 4291 3325 
L 3694 3184 
Q 3534 3684 3231 3912 
Q 2928 4141 2469 4141 
Q 1941 4141 1586 3887 
Q 1231 3634 1087 3207 
Q 944 2781 944 2328 
Q 944 1744 1114 1308 
Q 1284 872 1643 656 
Q 2003 441 2422 441 
Q 2931 441 3284 734 
Q 3638 1028 3763 1606 
z
" transform="scale(0.015625)"/>
       </defs>
       <use xlink:href="#ArialMT-43"/>
       <use xlink:href="#ArialMT-69" x="72.216797"/>
       <use xlink:href="#ArialMT-6c" x="94.433594"/>
       <use xlink:href="#ArialMT-69" x="116.650391"/>
       <use xlink:href="#ArialMT-61" x="138.867188"/>
       <use xlink:href="#ArialMT-74" x="194.482422"/>
       <use xlink:href="#ArialMT-65" x="222.265625"/>
       <use xlink:href="#ArialMT-73" x="277.880859"/>
      </g>
     </g>
    </g>
    <g id="ytick_6">
     <g id="line2d_8"/>
     <g id="text_6">
      <!-- Mollusca -->
      <g transform="translate(57.341094 220.125949) scale(0.11 -0.11)">
       <defs>
        <path id="ArialMT-4d" d="M 475 0 
L 475 4581 
L 1388 4581 
L 2472 1338 
Q 2622 884 2691 659 
Q 2769 909 2934 1394 
L 4031 4581 
L 4847 4581 
L 4847 0 
L 4263 0 
L 4263 3834 
L 2931 0 
L 2384 0 
L 1059 3900 
L 1059 0 
L 475 0 
z
" transform="scale(0.015625)"/>
        <path id="ArialMT-75" d="M 2597 0 
L 2597 488 
Q 2209 -75 1544 -75 
Q 1250 -75 995 37 
Q 741 150 617 320 
Q 494 491 444 738 
Q 409 903 409 1263 
L 409 3319 
L 972 3319 
L 972 1478 
Q 972 1038 1006 884 
Q 1059 663 1231 536 
Q 1403 409 1656 409 
Q 1909 409 2131 539 
Q 2353 669 2445 892 
Q 2538 1116 2538 1541 
L 2538 3319 
L 3100 3319 
L 3100 0 
L 2597 0 
z
" transform="scale(0.015625)"/>
       </defs>
       <use xlink:href="#ArialMT-4d"/>
       <use xlink:href="#ArialMT-6f" x="83.300781"/>
       <use xlink:href="#ArialMT-6c" x="138.916016"/>
       <use xlink:href="#ArialMT-6c" x="161.132812"/>
       <use xlink:href="#ArialMT-75" x="183.349609"/>
       <use xlink:href="#ArialMT-73" x="238.964844"/>
       <use xlink:href="#ArialMT-63" x="288.964844"/>
       <use xlink:href="#ArialMT-61" x="338.964844"/>
      </g>
     </g>
    </g>
    <g id="ytick_7">
     <g id="line2d_9"/>
     <g id="text_7">
      <!-- Radiolaria -->
      <g transform="translate(51.218906 190.227644) scale(0.11 -0.11)">
       <defs>
        <path id="ArialMT-52" d="M 503 0 
L 503 4581 
L 2534 4581 
Q 3147 4581 3465 4457 
Q 3784 4334 3975 4021 
Q 4166 3709 4166 3331 
Q 4166 2844 3850 2509 
Q 3534 2175 2875 2084 
Q 3116 1969 3241 1856 
Q 3506 1613 3744 1247 
L 4541 0 
L 3778 0 
L 3172 953 
Q 2906 1366 2734 1584 
Q 2563 1803 2427 1890 
Q 2291 1978 2150 2013 
Q 2047 2034 1813 2034 
L 1109 2034 
L 1109 0 
L 503 0 
z
M 1109 2559 
L 2413 2559 
Q 2828 2559 3062 2645 
Q 3297 2731 3419 2920 
Q 3541 3109 3541 3331 
Q 3541 3656 3305 3865 
Q 3069 4075 2559 4075 
L 1109 4075 
L 1109 2559 
z
" transform="scale(0.015625)"/>
       </defs>
       <use xlink:href="#ArialMT-52"/>
       <use xlink:href="#ArialMT-61" x="72.216797"/>
       <use xlink:href="#ArialMT-64" x="127.832031"/>
       <use xlink:href="#ArialMT-69" x="183.447266"/>
       <use xlink:href="#ArialMT-6f" x="205.664062"/>
       <use xlink:href="#ArialMT-6c" x="261.279297"/>
       <use xlink:href="#ArialMT-61" x="283.496094"/>
       <use xlink:href="#ArialMT-72" x="339.111328"/>
       <use xlink:href="#ArialMT-69" x="372.412109"/>
       <use xlink:href="#ArialMT-61" x="394.628906"/>
      </g>
     </g>
    </g>
    <g id="ytick_8">
     <g id="line2d_10"/>
     <g id="text_8">
      <!-- Appendicularia -->
      <g transform="translate(27.974531 160.329339) scale(0.11 -0.11)">
       <use xlink:href="#ArialMT-41"/>
       <use xlink:href="#ArialMT-70" x="66.699219"/>
       <use xlink:href="#ArialMT-70" x="122.314453"/>
       <use xlink:href="#ArialMT-65" x="177.929688"/>
       <use xlink:href="#ArialMT-6e" x="233.544922"/>
       <use xlink:href="#ArialMT-64" x="289.160156"/>
       <use xlink:href="#ArialMT-69" x="344.775391"/>
       <use xlink:href="#ArialMT-63" x="366.992188"/>
       <use xlink:href="#ArialMT-75" x="416.992188"/>
       <use xlink:href="#ArialMT-6c" x="472.607422"/>
       <use xlink:href="#ArialMT-61" x="494.824219"/>
       <use xlink:href="#ArialMT-72" x="550.439453"/>
       <use xlink:href="#ArialMT-69" x="583.740234"/>
       <use xlink:href="#ArialMT-61" x="605.957031"/>
      </g>
     </g>
    </g>
    <g id="ytick_9">
     <g id="line2d_11"/>
     <g id="text_9">
      <!-- Annelida -->
      <g transform="translate(57.932344 130.431034) scale(0.11 -0.11)">
       <use xlink:href="#ArialMT-41"/>
       <use xlink:href="#ArialMT-6e" x="66.699219"/>
       <use xlink:href="#ArialMT-6e" x="122.314453"/>
       <use xlink:href="#ArialMT-65" x="177.929688"/>
       <use xlink:href="#ArialMT-6c" x="233.544922"/>
       <use xlink:href="#ArialMT-69" x="255.761719"/>
       <use xlink:href="#ArialMT-64" x="277.978516"/>
       <use xlink:href="#ArialMT-61" x="333.59375"/>
      </g>
     </g>
    </g>
    <g id="ytick_10">
     <g id="line2d_12"/>
     <g id="text_10">
      <!-- Rotifera -->
      <g transform="translate(62.229219 100.532729) scale(0.11 -0.11)">
       <defs>
        <path id="ArialMT-66" d="M 556 0 
L 556 2881 
L 59 2881 
L 59 3319 
L 556 3319 
L 556 3672 
Q 556 4006 616 4169 
Q 697 4388 901 4523 
Q 1106 4659 1475 4659 
Q 1713 4659 2000 4603 
L 1916 4113 
Q 1741 4144 1584 4144 
Q 1328 4144 1222 4034 
Q 1116 3925 1116 3625 
L 1116 3319 
L 1763 3319 
L 1763 2881 
L 1116 2881 
L 1116 0 
L 556 0 
z
" transform="scale(0.015625)"/>
       </defs>
       <use xlink:href="#ArialMT-52"/>
       <use xlink:href="#ArialMT-6f" x="72.216797"/>
       <use xlink:href="#ArialMT-74" x="127.832031"/>
       <use xlink:href="#ArialMT-69" x="155.615234"/>
       <use xlink:href="#ArialMT-66" x="177.832031"/>
       <use xlink:href="#ArialMT-65" x="205.615234"/>
       <use xlink:href="#ArialMT-72" x="261.230469"/>
       <use xlink:href="#ArialMT-61" x="294.53125"/>
      </g>
     </g>
    </g>
    <g id="ytick_11">
     <g id="line2d_13"/>
     <g id="text_11">
      <!-- Cnidaria -->
      <g transform="translate(59.78 70.634424) scale(0.11 -0.11)">
       <use xlink:href="#ArialMT-43"/>
       <use xlink:href="#ArialMT-6e" x="72.216797"/>
       <use xlink:href="#ArialMT-69" x="127.832031"/>
       <use xlink:href="#ArialMT-64" x="150.048828"/>
       <use xlink:href="#ArialMT-61" x="205.664062"/>
       <use xlink:href="#ArialMT-72" x="261.279297"/>
       <use xlink:href="#ArialMT-69" x="294.580078"/>
       <use xlink:href="#ArialMT-61" x="316.796875"/>
      </g>
     </g>
    </g>
    <g id="ytick_12">
     <g id="line2d_14"/>
     <g id="text_12">
      <!-- Echinodermata -->
      <g transform="translate(26.761094 40.736119) scale(0.11 -0.11)">
       <defs>
        <path id="ArialMT-45" d="M 506 0 
L 506 4581 
L 3819 4581 
L 3819 4041 
L 1113 4041 
L 1113 2638 
L 3647 2638 
L 3647 2100 
L 1113 2100 
L 1113 541 
L 3925 541 
L 3925 0 
L 506 0 
z
" transform="scale(0.015625)"/>
       </defs>
       <use xlink:href="#ArialMT-45"/>
       <use xlink:href="#ArialMT-63" x="66.699219"/>
       <use xlink:href="#ArialMT-68" x="116.699219"/>
       <use xlink:href="#ArialMT-69" x="172.314453"/>
       <use xlink:href="#ArialMT-6e" x="194.53125"/>
       <use xlink:href="#ArialMT-6f" x="250.146484"/>
       <use xlink:href="#ArialMT-64" x="305.761719"/>
       <use xlink:href="#ArialMT-65" x="361.376953"/>
       <use xlink:href="#ArialMT-72" x="416.992188"/>
       <use xlink:href="#ArialMT-6d" x="450.292969"/>
       <use xlink:href="#ArialMT-61" x="533.59375"/>
       <use xlink:href="#ArialMT-74" x="589.208984"/>
       <use xlink:href="#ArialMT-61" x="616.992188"/>
      </g>
     </g>
    </g>
   </g>
  </g>
 </g>
 <defs>
  <clipPath id="p69bd0c2559">
   <rect x="104.242969" y="7.2" width="27.9" height="388.08"/>
  </clipPath>
 </defs>
</svg>
