<?xml version="1.0" encoding="utf-8" standalone="no"?>
<!DOCTYPE svg PUBLIC "-//W3C//DTD SVG 1.1//EN"
  "http://www.w3.org/Graphics/SVG/1.1/DTD/svg11.dtd">
<svg xmlns:xlink="http://www.w3.org/1999/xlink" width="352.007151pt" height="279.99625pt" viewBox="0 0 352.007151 279.99625" xmlns="http://www.w3.org/2000/svg" version="1.1">
 <metadata>
  <rdf:RDF xmlns:dc="http://purl.org/dc/elements/1.1/" xmlns:cc="http://creativecommons.org/ns#" xmlns:rdf="http://www.w3.org/1999/02/22-rdf-syntax-ns#">
   <cc:Work>
    <dc:type rdf:resource="http://purl.org/dc/dcmitype/StillImage"/>
    <dc:date>2025-03-14T13:15:24.347055</dc:date>
    <dc:format>image/svg+xml</dc:format>
    <dc:creator>
     <cc:Agent>
      <dc:title>Matplotlib v3.8.3, https://matplotlib.org/</dc:title>
     </cc:Agent>
    </dc:creator>
   </cc:Work>
  </rdf:RDF>
 </metadata>
 <defs>
  <style type="text/css">*{stroke-linejoin: round; stroke-linecap: butt}</style>
 </defs>
 <g id="figure_1">
  <g id="patch_1">
   <path d="M 0 279.99625 
L 352.007151 279.99625 
L 352.007151 0 
L 0 0 
z
" style="fill: #ffffff"/>
  </g>
  <g id="axes_1">
   <g id="patch_2">
    <path d="M 46.965625 242.44 
L 344.807151 242.44 
L 344.807151 7.2 
L 46.965625 7.2 
z
" style="fill: #ffffff"/>
   </g>
   <g id="PolyCollection_1">
    <path d="M 60.503876 86.915754 
L 60.503876 201.440592 
L 63.238876 200.131322 
L 65.973877 198.591799 
L 68.708877 196.886095 
L 71.443877 195.871479 
L 74.178877 194.93017 
L 76.913878 193.590581 
L 79.648878 192.333707 
L 82.383878 191.030721 
L 85.118878 189.486765 
L 87.853879 188.433848 
L 90.588879 187.143594 
L 93.323879 185.756783 
L 96.058879 183.826451 
L 98.79388 182.411124 
L 101.52888 181.013692 
L 104.26388 179.601857 
L 106.99888 178.538964 
L 109.733881 176.801728 
L 112.468881 175.394625 
L 115.203881 173.877514 
L 117.938881 172.311812 
L 120.673882 171.192935 
L 123.408882 169.798742 
L 126.143882 168.558193 
L 128.878882 167.466577 
L 131.613883 166.407322 
L 134.348883 165.358218 
L 137.083883 164.317165 
L 139.818883 163.301999 
L 142.553883 162.210987 
L 145.288884 161.163634 
L 148.023884 160.1076 
L 150.758884 159.173837 
L 153.493884 158.741639 
L 156.228885 158.056428 
L 158.963885 157.421839 
L 161.698885 156.860987 
L 164.433885 156.167503 
L 167.168886 155.743304 
L 169.903886 155.408258 
L 172.638886 154.844659 
L 175.373886 154.065123 
L 178.108887 153.763516 
L 180.843887 153.123748 
L 183.578887 152.583846 
L 186.313887 152.208866 
L 189.048888 151.571839 
L 191.783888 151.128644 
L 194.518888 150.737597 
L 197.253888 150.65134 
L 199.988889 150.563819 
L 202.723889 150.109308 
L 205.458889 150.1628 
L 208.193889 149.980684 
L 210.92889 149.722146 
L 213.66389 149.313724 
L 216.39889 149.034706 
L 219.13389 149.02481 
L 221.86889 149.241114 
L 224.603891 149.406653 
L 227.338891 149.046151 
L 230.073891 148.970276 
L 232.808891 148.890281 
L 235.543892 148.967653 
L 238.278892 148.389122 
L 241.013892 147.987589 
L 243.748892 147.522288 
L 246.483893 147.406522 
L 249.218893 147.928593 
L 251.953893 148.602911 
L 254.688893 149.124777 
L 257.423894 149.10868 
L 260.158894 149.132528 
L 262.893894 149.242914 
L 265.628894 149.353299 
L 268.363895 149.290143 
L 271.098895 149.525398 
L 273.833895 149.724276 
L 276.568895 150.003566 
L 279.303896 150.243916 
L 282.038896 150.487191 
L 284.773896 150.729003 
L 287.508896 151.058401 
L 290.243897 151.597283 
L 292.978897 152.136166 
L 295.713897 152.675048 
L 298.448897 153.213931 
L 301.183898 153.62817 
L 303.918898 154.017851 
L 306.653898 154.407531 
L 309.388898 154.790692 
L 312.123898 155.051162 
L 314.858899 154.987131 
L 317.593899 154.923099 
L 320.328899 154.859067 
L 323.063899 154.957253 
L 325.7989 155.482103 
L 328.5339 156.142236 
L 331.2689 156.820525 
L 331.2689 17.892727 
L 331.2689 17.892727 
L 328.5339 19.465012 
L 325.7989 21.037297 
L 323.063899 22.695009 
L 320.328899 24.409819 
L 317.593899 26.141233 
L 314.858899 28.082028 
L 312.123898 30.022822 
L 309.388898 31.764535 
L 306.653898 33.198245 
L 303.918898 35.191301 
L 301.183898 37.185489 
L 298.448897 39.180119 
L 295.713897 41.186719 
L 292.978897 43.193318 
L 290.243897 44.990517 
L 287.508896 47.016484 
L 284.773896 49.17029 
L 282.038896 51.153306 
L 279.303896 52.753332 
L 276.568895 54.132849 
L 273.833895 55.418678 
L 271.098895 56.544086 
L 268.363895 57.735477 
L 265.628894 58.985303 
L 262.893894 60.315136 
L 260.158894 61.56897 
L 257.423894 63.297045 
L 254.688893 65.030266 
L 251.953893 66.692097 
L 249.218893 68.480103 
L 246.483893 70.20263 
L 243.748892 71.892266 
L 241.013892 72.824337 
L 238.278892 74.254775 
L 235.543892 75.349522 
L 232.808891 76.749106 
L 230.073891 77.650441 
L 227.338891 78.80181 
L 224.603891 79.433369 
L 221.86889 80.796343 
L 219.13389 82.378899 
L 216.39889 83.964113 
L 213.66389 85.346644 
L 210.92889 86.872014 
L 208.193889 88.312194 
L 205.458889 88.853966 
L 202.723889 89.051661 
L 199.988889 90.383457 
L 197.253888 91.712641 
L 194.518888 92.017935 
L 191.783888 93.100147 
L 189.048888 94.166397 
L 186.313887 94.348631 
L 183.578887 94.570044 
L 180.843887 94.840862 
L 178.108887 95.116802 
L 175.373886 95.325464 
L 172.638886 96.228141 
L 169.903886 96.719138 
L 167.168886 96.241166 
L 164.433885 96.525416 
L 161.698885 96.74731 
L 158.963885 97.012242 
L 156.228885 96.533541 
L 153.493884 96.319287 
L 150.758884 95.884767 
L 148.023884 95.83099 
L 145.288884 95.564229 
L 142.553883 95.165937 
L 139.818883 94.518713 
L 137.083883 93.955888 
L 134.348883 93.58389 
L 131.613883 93.559214 
L 128.878882 93.417118 
L 126.143882 93.071422 
L 123.408882 92.870087 
L 120.673882 92.427139 
L 117.938881 92.087309 
L 115.203881 91.915605 
L 112.468881 91.68587 
L 109.733881 91.641141 
L 106.99888 91.519492 
L 104.26388 90.893639 
L 101.52888 90.540715 
L 98.79388 90.195566 
L 96.058879 89.851058 
L 93.323879 89.618475 
L 90.588879 89.565858 
L 87.853879 89.514711 
L 85.118878 89.463563 
L 82.383878 88.906393 
L 79.648878 88.454359 
L 76.913878 88.257699 
L 74.178877 88.065014 
L 71.443877 87.877581 
L 68.708877 87.686964 
L 65.973877 87.30873 
L 63.238876 87.022535 
L 60.503876 86.915754 
z
" clip-path="url(#p095d7786eb)" style="fill: #808080; fill-opacity: 0.15"/>
   </g>
   <g id="PathCollection_1">
    <defs>
     <path id="C0_0_83fbfc6c12" d="M 0 4.472136 
C 1.186024 4.472136 2.323632 4.000923 3.162278 3.162278 
C 4.000923 2.323632 4.472136 1.186024 4.472136 -0 
C 4.472136 -1.186024 4.000923 -2.323632 3.162278 -3.162278 
C 2.323632 -4.000923 1.186024 -4.472136 0 -4.472136 
C -1.186024 -4.472136 -2.323632 -4.000923 -3.162278 -3.162278 
C -4.000923 -2.323632 -4.472136 -1.186024 -4.472136 0 
C -4.472136 1.186024 -4.000923 2.323632 -3.162278 3.162278 
C -2.323632 4.000923 -1.186024 4.472136 0 4.472136 
z
"/>
    </defs>
    <g clip-path="url(#p095d7786eb)">
     <use xlink:href="#C0_0_83fbfc6c12" x="244.479248" y="162.540661" style="fill: #e41a1c; stroke: #000000; stroke-width: 0.715542"/>
    </g>
    <g clip-path="url(#p095d7786eb)">
     <use xlink:href="#C0_0_83fbfc6c12" x="167.501616" y="35.689342" style="fill: #e41a1c; stroke: #000000; stroke-width: 0.715542"/>
    </g>
    <g clip-path="url(#p095d7786eb)">
     <use xlink:href="#C0_0_83fbfc6c12" x="259.547707" y="81.515069" style="fill: #e41a1c; stroke: #000000; stroke-width: 0.715542"/>
    </g>
    <g clip-path="url(#p095d7786eb)">
     <use xlink:href="#C0_0_83fbfc6c12" x="182.102837" y="160.101782" style="fill: #377eb8; stroke: #000000; stroke-width: 0.715542"/>
    </g>
    <g clip-path="url(#p095d7786eb)">
     <use xlink:href="#C0_0_83fbfc6c12" x="91.108033" y="163.110495" style="fill: #377eb8; stroke: #000000; stroke-width: 0.715542"/>
    </g>
    <g clip-path="url(#p095d7786eb)">
     <use xlink:href="#C0_0_83fbfc6c12" x="331.2689" y="163.937371" style="fill: #377eb8; stroke: #000000; stroke-width: 0.715542"/>
    </g>
    <g clip-path="url(#p095d7786eb)">
     <use xlink:href="#C0_0_83fbfc6c12" x="108.629497" y="197.292658" style="fill: #4daf4a; stroke: #000000; stroke-width: 0.715542"/>
    </g>
    <g clip-path="url(#p095d7786eb)">
     <use xlink:href="#C0_0_83fbfc6c12" x="112.951459" y="231.747273" style="fill: #4daf4a; stroke: #000000; stroke-width: 0.715542"/>
    </g>
    <g clip-path="url(#p095d7786eb)">
     <use xlink:href="#C0_0_83fbfc6c12" x="119.609615" y="160.761446" style="fill: #4daf4a; stroke: #000000; stroke-width: 0.715542"/>
    </g>
    <g clip-path="url(#p095d7786eb)">
     <use xlink:href="#C0_0_83fbfc6c12" x="122.06262" y="163.804859" style="fill: #e41a1c; stroke: #000000; stroke-width: 0.715542"/>
    </g>
    <g clip-path="url(#p095d7786eb)">
     <use xlink:href="#C0_0_83fbfc6c12" x="115.988512" y="155.255409" style="fill: #e41a1c; stroke: #000000; stroke-width: 0.715542"/>
    </g>
    <g clip-path="url(#p095d7786eb)">
     <use xlink:href="#C0_0_83fbfc6c12" x="126.150961" y="138.040004" style="fill: #e41a1c; stroke: #000000; stroke-width: 0.715542"/>
    </g>
    <g clip-path="url(#p095d7786eb)">
     <use xlink:href="#C0_0_83fbfc6c12" x="297.744499" y="119.084329" style="fill: #e41a1c; stroke: #000000; stroke-width: 0.715542"/>
    </g>
    <g clip-path="url(#p095d7786eb)">
     <use xlink:href="#C0_0_83fbfc6c12" x="139.233655" y="85.946329" style="fill: #e41a1c; stroke: #000000; stroke-width: 0.715542"/>
    </g>
    <g clip-path="url(#p095d7786eb)">
     <use xlink:href="#C0_0_83fbfc6c12" x="266.673103" y="54.604306" style="fill: #e41a1c; stroke: #000000; stroke-width: 0.715542"/>
    </g>
    <g clip-path="url(#p095d7786eb)">
     <use xlink:href="#C0_0_83fbfc6c12" x="60.503876" y="26.061812" style="fill: #e41a1c; stroke: #000000; stroke-width: 0.715542"/>
    </g>
    <g clip-path="url(#p095d7786eb)">
     <use xlink:href="#C0_0_83fbfc6c12" x="239.456429" y="41.282922" style="fill: #e41a1c; stroke: #000000; stroke-width: 0.715542"/>
    </g>
   </g>
   <g id="matplotlib.axis_1">
    <g id="xtick_1">
     <g id="line2d_1">
      <defs>
       <path id="mf2c23c25c6" d="M 0 0 
L 0 3.5 
" style="stroke: #000000; stroke-width: 0.8"/>
      </defs>
      <g>
       <use xlink:href="#mf2c23c25c6" x="91.886765" y="242.44" style="stroke: #000000; stroke-width: 0.8"/>
      </g>
     </g>
     <g id="text_1">
      <!-- 200 -->
      <g transform="translate(82.343015 257.038438) scale(0.1 -0.1)">
       <defs>
        <path id="DejaVuSans-32" d="M 1228 531 
L 3431 531 
L 3431 0 
L 469 0 
L 469 531 
Q 828 903 1448 1529 
Q 2069 2156 2228 2338 
Q 2531 2678 2651 2914 
Q 2772 3150 2772 3378 
Q 2772 3750 2511 3984 
Q 2250 4219 1831 4219 
Q 1534 4219 1204 4116 
Q 875 4013 500 3803 
L 500 4441 
Q 881 4594 1212 4672 
Q 1544 4750 1819 4750 
Q 2544 4750 2975 4387 
Q 3406 4025 3406 3419 
Q 3406 3131 3298 2873 
Q 3191 2616 2906 2266 
Q 2828 2175 2409 1742 
Q 1991 1309 1228 531 
z
" transform="scale(0.015625)"/>
        <path id="DejaVuSans-30" d="M 2034 4250 
Q 1547 4250 1301 3770 
Q 1056 3291 1056 2328 
Q 1056 1369 1301 889 
Q 1547 409 2034 409 
Q 2525 409 2770 889 
Q 3016 1369 3016 2328 
Q 3016 3291 2770 3770 
Q 2525 4250 2034 4250 
z
M 2034 4750 
Q 2819 4750 3233 4129 
Q 3647 3509 3647 2328 
Q 3647 1150 3233 529 
Q 2819 -91 2034 -91 
Q 1250 -91 836 529 
Q 422 1150 422 2328 
Q 422 3509 836 4129 
Q 1250 4750 2034 4750 
z
" transform="scale(0.015625)"/>
       </defs>
       <use xlink:href="#DejaVuSans-32"/>
       <use xlink:href="#DejaVuSans-30" x="63.623047"/>
       <use xlink:href="#DejaVuSans-30" x="127.246094"/>
      </g>
     </g>
    </g>
    <g id="xtick_2">
     <g id="line2d_2">
      <g>
       <use xlink:href="#mf2c23c25c6" x="140.557498" y="242.44" style="stroke: #000000; stroke-width: 0.8"/>
      </g>
     </g>
     <g id="text_2">
      <!-- 250 -->
      <g transform="translate(131.013748 257.038438) scale(0.1 -0.1)">
       <defs>
        <path id="DejaVuSans-35" d="M 691 4666 
L 3169 4666 
L 3169 4134 
L 1269 4134 
L 1269 2991 
Q 1406 3038 1543 3061 
Q 1681 3084 1819 3084 
Q 2600 3084 3056 2656 
Q 3513 2228 3513 1497 
Q 3513 744 3044 326 
Q 2575 -91 1722 -91 
Q 1428 -91 1123 -41 
Q 819 9 494 109 
L 494 744 
Q 775 591 1075 516 
Q 1375 441 1709 441 
Q 2250 441 2565 725 
Q 2881 1009 2881 1497 
Q 2881 1984 2565 2268 
Q 2250 2553 1709 2553 
Q 1456 2553 1204 2497 
Q 953 2441 691 2322 
L 691 4666 
z
" transform="scale(0.015625)"/>
       </defs>
       <use xlink:href="#DejaVuSans-32"/>
       <use xlink:href="#DejaVuSans-35" x="63.623047"/>
       <use xlink:href="#DejaVuSans-30" x="127.246094"/>
      </g>
     </g>
    </g>
    <g id="xtick_3">
     <g id="line2d_3">
      <g>
       <use xlink:href="#mf2c23c25c6" x="189.228232" y="242.44" style="stroke: #000000; stroke-width: 0.8"/>
      </g>
     </g>
     <g id="text_3">
      <!-- 300 -->
      <g transform="translate(179.684482 257.038438) scale(0.1 -0.1)">
       <defs>
        <path id="DejaVuSans-33" d="M 2597 2516 
Q 3050 2419 3304 2112 
Q 3559 1806 3559 1356 
Q 3559 666 3084 287 
Q 2609 -91 1734 -91 
Q 1441 -91 1130 -33 
Q 819 25 488 141 
L 488 750 
Q 750 597 1062 519 
Q 1375 441 1716 441 
Q 2309 441 2620 675 
Q 2931 909 2931 1356 
Q 2931 1769 2642 2001 
Q 2353 2234 1838 2234 
L 1294 2234 
L 1294 2753 
L 1863 2753 
Q 2328 2753 2575 2939 
Q 2822 3125 2822 3475 
Q 2822 3834 2567 4026 
Q 2313 4219 1838 4219 
Q 1578 4219 1281 4162 
Q 984 4106 628 3988 
L 628 4550 
Q 988 4650 1302 4700 
Q 1616 4750 1894 4750 
Q 2613 4750 3031 4423 
Q 3450 4097 3450 3541 
Q 3450 3153 3228 2886 
Q 3006 2619 2597 2516 
z
" transform="scale(0.015625)"/>
       </defs>
       <use xlink:href="#DejaVuSans-33"/>
       <use xlink:href="#DejaVuSans-30" x="63.623047"/>
       <use xlink:href="#DejaVuSans-30" x="127.246094"/>
      </g>
     </g>
    </g>
    <g id="xtick_4">
     <g id="line2d_4">
      <g>
       <use xlink:href="#mf2c23c25c6" x="237.898965" y="242.44" style="stroke: #000000; stroke-width: 0.8"/>
      </g>
     </g>
     <g id="text_4">
      <!-- 350 -->
      <g transform="translate(228.355215 257.038438) scale(0.1 -0.1)">
       <use xlink:href="#DejaVuSans-33"/>
       <use xlink:href="#DejaVuSans-35" x="63.623047"/>
       <use xlink:href="#DejaVuSans-30" x="127.246094"/>
      </g>
     </g>
    </g>
    <g id="xtick_5">
     <g id="line2d_5">
      <g>
       <use xlink:href="#mf2c23c25c6" x="286.569699" y="242.44" style="stroke: #000000; stroke-width: 0.8"/>
      </g>
     </g>
     <g id="text_5">
      <!-- 400 -->
      <g transform="translate(277.025949 257.038438) scale(0.1 -0.1)">
       <defs>
        <path id="DejaVuSans-34" d="M 2419 4116 
L 825 1625 
L 2419 1625 
L 2419 4116 
z
M 2253 4666 
L 3047 4666 
L 3047 1625 
L 3713 1625 
L 3713 1100 
L 3047 1100 
L 3047 0 
L 2419 0 
L 2419 1100 
L 313 1100 
L 313 1709 
L 2253 4666 
z
" transform="scale(0.015625)"/>
       </defs>
       <use xlink:href="#DejaVuSans-34"/>
       <use xlink:href="#DejaVuSans-30" x="63.623047"/>
       <use xlink:href="#DejaVuSans-30" x="127.246094"/>
      </g>
     </g>
    </g>
    <g id="xtick_6">
     <g id="line2d_6">
      <g>
       <use xlink:href="#mf2c23c25c6" x="335.240432" y="242.44" style="stroke: #000000; stroke-width: 0.8"/>
      </g>
     </g>
     <g id="text_6">
      <!-- 450 -->
      <g transform="translate(325.696682 257.038438) scale(0.1 -0.1)">
       <use xlink:href="#DejaVuSans-34"/>
       <use xlink:href="#DejaVuSans-35" x="63.623047"/>
       <use xlink:href="#DejaVuSans-30" x="127.246094"/>
      </g>
     </g>
    </g>
    <g id="text_7">
     <!-- Primary Production (mg C m−2 h−1) -->
     <g transform="translate(103.802013 270.716563) scale(0.1 -0.1)">
      <defs>
       <path id="DejaVuSans-50" d="M 1259 4147 
L 1259 2394 
L 2053 2394 
Q 2494 2394 2734 2622 
Q 2975 2850 2975 3272 
Q 2975 3691 2734 3919 
Q 2494 4147 2053 4147 
L 1259 4147 
z
M 628 4666 
L 2053 4666 
Q 2838 4666 3239 4311 
Q 3641 3956 3641 3272 
Q 3641 2581 3239 2228 
Q 2838 1875 2053 1875 
L 1259 1875 
L 1259 0 
L 628 0 
L 628 4666 
z
" transform="scale(0.015625)"/>
       <path id="DejaVuSans-72" d="M 2631 2963 
Q 2534 3019 2420 3045 
Q 2306 3072 2169 3072 
Q 1681 3072 1420 2755 
Q 1159 2438 1159 1844 
L 1159 0 
L 581 0 
L 581 3500 
L 1159 3500 
L 1159 2956 
Q 1341 3275 1631 3429 
Q 1922 3584 2338 3584 
Q 2397 3584 2469 3576 
Q 2541 3569 2628 3553 
L 2631 2963 
z
" transform="scale(0.015625)"/>
       <path id="DejaVuSans-69" d="M 603 3500 
L 1178 3500 
L 1178 0 
L 603 0 
L 603 3500 
z
M 603 4863 
L 1178 4863 
L 1178 4134 
L 603 4134 
L 603 4863 
z
" transform="scale(0.015625)"/>
       <path id="DejaVuSans-6d" d="M 3328 2828 
Q 3544 3216 3844 3400 
Q 4144 3584 4550 3584 
Q 5097 3584 5394 3201 
Q 5691 2819 5691 2113 
L 5691 0 
L 5113 0 
L 5113 2094 
Q 5113 2597 4934 2840 
Q 4756 3084 4391 3084 
Q 3944 3084 3684 2787 
Q 3425 2491 3425 1978 
L 3425 0 
L 2847 0 
L 2847 2094 
Q 2847 2600 2669 2842 
Q 2491 3084 2119 3084 
Q 1678 3084 1418 2786 
Q 1159 2488 1159 1978 
L 1159 0 
L 581 0 
L 581 3500 
L 1159 3500 
L 1159 2956 
Q 1356 3278 1631 3431 
Q 1906 3584 2284 3584 
Q 2666 3584 2933 3390 
Q 3200 3197 3328 2828 
z
" transform="scale(0.015625)"/>
       <path id="DejaVuSans-61" d="M 2194 1759 
Q 1497 1759 1228 1600 
Q 959 1441 959 1056 
Q 959 750 1161 570 
Q 1363 391 1709 391 
Q 2188 391 2477 730 
Q 2766 1069 2766 1631 
L 2766 1759 
L 2194 1759 
z
M 3341 1997 
L 3341 0 
L 2766 0 
L 2766 531 
Q 2569 213 2275 61 
Q 1981 -91 1556 -91 
Q 1019 -91 701 211 
Q 384 513 384 1019 
Q 384 1609 779 1909 
Q 1175 2209 1959 2209 
L 2766 2209 
L 2766 2266 
Q 2766 2663 2505 2880 
Q 2244 3097 1772 3097 
Q 1472 3097 1187 3025 
Q 903 2953 641 2809 
L 641 3341 
Q 956 3463 1253 3523 
Q 1550 3584 1831 3584 
Q 2591 3584 2966 3190 
Q 3341 2797 3341 1997 
z
" transform="scale(0.015625)"/>
       <path id="DejaVuSans-79" d="M 2059 -325 
Q 1816 -950 1584 -1140 
Q 1353 -1331 966 -1331 
L 506 -1331 
L 506 -850 
L 844 -850 
Q 1081 -850 1212 -737 
Q 1344 -625 1503 -206 
L 1606 56 
L 191 3500 
L 800 3500 
L 1894 763 
L 2988 3500 
L 3597 3500 
L 2059 -325 
z
" transform="scale(0.015625)"/>
       <path id="DejaVuSans-20" transform="scale(0.015625)"/>
       <path id="DejaVuSans-6f" d="M 1959 3097 
Q 1497 3097 1228 2736 
Q 959 2375 959 1747 
Q 959 1119 1226 758 
Q 1494 397 1959 397 
Q 2419 397 2687 759 
Q 2956 1122 2956 1747 
Q 2956 2369 2687 2733 
Q 2419 3097 1959 3097 
z
M 1959 3584 
Q 2709 3584 3137 3096 
Q 3566 2609 3566 1747 
Q 3566 888 3137 398 
Q 2709 -91 1959 -91 
Q 1206 -91 779 398 
Q 353 888 353 1747 
Q 353 2609 779 3096 
Q 1206 3584 1959 3584 
z
" transform="scale(0.015625)"/>
       <path id="DejaVuSans-64" d="M 2906 2969 
L 2906 4863 
L 3481 4863 
L 3481 0 
L 2906 0 
L 2906 525 
Q 2725 213 2448 61 
Q 2172 -91 1784 -91 
Q 1150 -91 751 415 
Q 353 922 353 1747 
Q 353 2572 751 3078 
Q 1150 3584 1784 3584 
Q 2172 3584 2448 3432 
Q 2725 3281 2906 2969 
z
M 947 1747 
Q 947 1113 1208 752 
Q 1469 391 1925 391 
Q 2381 391 2643 752 
Q 2906 1113 2906 1747 
Q 2906 2381 2643 2742 
Q 2381 3103 1925 3103 
Q 1469 3103 1208 2742 
Q 947 2381 947 1747 
z
" transform="scale(0.015625)"/>
       <path id="DejaVuSans-75" d="M 544 1381 
L 544 3500 
L 1119 3500 
L 1119 1403 
Q 1119 906 1312 657 
Q 1506 409 1894 409 
Q 2359 409 2629 706 
Q 2900 1003 2900 1516 
L 2900 3500 
L 3475 3500 
L 3475 0 
L 2900 0 
L 2900 538 
Q 2691 219 2414 64 
Q 2138 -91 1772 -91 
Q 1169 -91 856 284 
Q 544 659 544 1381 
z
M 1991 3584 
L 1991 3584 
z
" transform="scale(0.015625)"/>
       <path id="DejaVuSans-63" d="M 3122 3366 
L 3122 2828 
Q 2878 2963 2633 3030 
Q 2388 3097 2138 3097 
Q 1578 3097 1268 2742 
Q 959 2388 959 1747 
Q 959 1106 1268 751 
Q 1578 397 2138 397 
Q 2388 397 2633 464 
Q 2878 531 3122 666 
L 3122 134 
Q 2881 22 2623 -34 
Q 2366 -91 2075 -91 
Q 1284 -91 818 406 
Q 353 903 353 1747 
Q 353 2603 823 3093 
Q 1294 3584 2113 3584 
Q 2378 3584 2631 3529 
Q 2884 3475 3122 3366 
z
" transform="scale(0.015625)"/>
       <path id="DejaVuSans-74" d="M 1172 4494 
L 1172 3500 
L 2356 3500 
L 2356 3053 
L 1172 3053 
L 1172 1153 
Q 1172 725 1289 603 
Q 1406 481 1766 481 
L 2356 481 
L 2356 0 
L 1766 0 
Q 1100 0 847 248 
Q 594 497 594 1153 
L 594 3053 
L 172 3053 
L 172 3500 
L 594 3500 
L 594 4494 
L 1172 4494 
z
" transform="scale(0.015625)"/>
       <path id="DejaVuSans-6e" d="M 3513 2113 
L 3513 0 
L 2938 0 
L 2938 2094 
Q 2938 2591 2744 2837 
Q 2550 3084 2163 3084 
Q 1697 3084 1428 2787 
Q 1159 2491 1159 1978 
L 1159 0 
L 581 0 
L 581 3500 
L 1159 3500 
L 1159 2956 
Q 1366 3272 1645 3428 
Q 1925 3584 2291 3584 
Q 2894 3584 3203 3211 
Q 3513 2838 3513 2113 
z
" transform="scale(0.015625)"/>
       <path id="DejaVuSans-28" d="M 1984 4856 
Q 1566 4138 1362 3434 
Q 1159 2731 1159 2009 
Q 1159 1288 1364 580 
Q 1569 -128 1984 -844 
L 1484 -844 
Q 1016 -109 783 600 
Q 550 1309 550 2009 
Q 550 2706 781 3412 
Q 1013 4119 1484 4856 
L 1984 4856 
z
" transform="scale(0.015625)"/>
       <path id="DejaVuSans-67" d="M 2906 1791 
Q 2906 2416 2648 2759 
Q 2391 3103 1925 3103 
Q 1463 3103 1205 2759 
Q 947 2416 947 1791 
Q 947 1169 1205 825 
Q 1463 481 1925 481 
Q 2391 481 2648 825 
Q 2906 1169 2906 1791 
z
M 3481 434 
Q 3481 -459 3084 -895 
Q 2688 -1331 1869 -1331 
Q 1566 -1331 1297 -1286 
Q 1028 -1241 775 -1147 
L 775 -588 
Q 1028 -725 1275 -790 
Q 1522 -856 1778 -856 
Q 2344 -856 2625 -561 
Q 2906 -266 2906 331 
L 2906 616 
Q 2728 306 2450 153 
Q 2172 0 1784 0 
Q 1141 0 747 490 
Q 353 981 353 1791 
Q 353 2603 747 3093 
Q 1141 3584 1784 3584 
Q 2172 3584 2450 3431 
Q 2728 3278 2906 2969 
L 2906 3500 
L 3481 3500 
L 3481 434 
z
" transform="scale(0.015625)"/>
       <path id="DejaVuSans-43" d="M 4122 4306 
L 4122 3641 
Q 3803 3938 3442 4084 
Q 3081 4231 2675 4231 
Q 1875 4231 1450 3742 
Q 1025 3253 1025 2328 
Q 1025 1406 1450 917 
Q 1875 428 2675 428 
Q 3081 428 3442 575 
Q 3803 722 4122 1019 
L 4122 359 
Q 3791 134 3420 21 
Q 3050 -91 2638 -91 
Q 1578 -91 968 557 
Q 359 1206 359 2328 
Q 359 3453 968 4101 
Q 1578 4750 2638 4750 
Q 3056 4750 3426 4639 
Q 3797 4528 4122 4306 
z
" transform="scale(0.015625)"/>
       <path id="DejaVuSans-2212" d="M 678 2272 
L 4684 2272 
L 4684 1741 
L 678 1741 
L 678 2272 
z
" transform="scale(0.015625)"/>
       <path id="DejaVuSans-68" d="M 3513 2113 
L 3513 0 
L 2938 0 
L 2938 2094 
Q 2938 2591 2744 2837 
Q 2550 3084 2163 3084 
Q 1697 3084 1428 2787 
Q 1159 2491 1159 1978 
L 1159 0 
L 581 0 
L 581 4863 
L 1159 4863 
L 1159 2956 
Q 1366 3272 1645 3428 
Q 1925 3584 2291 3584 
Q 2894 3584 3203 3211 
Q 3513 2838 3513 2113 
z
" transform="scale(0.015625)"/>
       <path id="DejaVuSans-31" d="M 794 531 
L 1825 531 
L 1825 4091 
L 703 3866 
L 703 4441 
L 1819 4666 
L 2450 4666 
L 2450 531 
L 3481 531 
L 3481 0 
L 794 0 
L 794 531 
z
" transform="scale(0.015625)"/>
       <path id="DejaVuSans-29" d="M 513 4856 
L 1013 4856 
Q 1481 4119 1714 3412 
Q 1947 2706 1947 2009 
Q 1947 1309 1714 600 
Q 1481 -109 1013 -844 
L 513 -844 
Q 928 -128 1133 580 
Q 1338 1288 1338 2009 
Q 1338 2731 1133 3434 
Q 928 4138 513 4856 
z
" transform="scale(0.015625)"/>
      </defs>
      <use xlink:href="#DejaVuSans-50"/>
      <use xlink:href="#DejaVuSans-72" x="58.552734"/>
      <use xlink:href="#DejaVuSans-69" x="99.666016"/>
      <use xlink:href="#DejaVuSans-6d" x="127.449219"/>
      <use xlink:href="#DejaVuSans-61" x="224.861328"/>
      <use xlink:href="#DejaVuSans-72" x="286.140625"/>
      <use xlink:href="#DejaVuSans-79" x="327.253906"/>
      <use xlink:href="#DejaVuSans-20" x="386.433594"/>
      <use xlink:href="#DejaVuSans-50" x="418.220703"/>
      <use xlink:href="#DejaVuSans-72" x="476.773438"/>
      <use xlink:href="#DejaVuSans-6f" x="515.636719"/>
      <use xlink:href="#DejaVuSans-64" x="576.818359"/>
      <use xlink:href="#DejaVuSans-75" x="640.294922"/>
      <use xlink:href="#DejaVuSans-63" x="703.673828"/>
      <use xlink:href="#DejaVuSans-74" x="758.654297"/>
      <use xlink:href="#DejaVuSans-69" x="797.863281"/>
      <use xlink:href="#DejaVuSans-6f" x="825.646484"/>
      <use xlink:href="#DejaVuSans-6e" x="886.828125"/>
      <use xlink:href="#DejaVuSans-20" x="950.207031"/>
      <use xlink:href="#DejaVuSans-28" x="981.994141"/>
      <use xlink:href="#DejaVuSans-6d" x="1021.007812"/>
      <use xlink:href="#DejaVuSans-67" x="1118.419922"/>
      <use xlink:href="#DejaVuSans-20" x="1181.896484"/>
      <use xlink:href="#DejaVuSans-43" x="1213.683594"/>
      <use xlink:href="#DejaVuSans-20" x="1283.507812"/>
      <use xlink:href="#DejaVuSans-6d" x="1315.294922"/>
      <use xlink:href="#DejaVuSans-2212" x="1412.707031"/>
      <use xlink:href="#DejaVuSans-32" x="1496.496094"/>
      <use xlink:href="#DejaVuSans-20" x="1560.119141"/>
      <use xlink:href="#DejaVuSans-68" x="1591.90625"/>
      <use xlink:href="#DejaVuSans-2212" x="1655.285156"/>
      <use xlink:href="#DejaVuSans-31" x="1739.074219"/>
      <use xlink:href="#DejaVuSans-29" x="1802.697266"/>
     </g>
    </g>
   </g>
   <g id="matplotlib.axis_2">
    <g id="ytick_1">
     <g id="line2d_7">
      <defs>
       <path id="me137d8455b" d="M 0 0 
L -3.5 0 
" style="stroke: #000000; stroke-width: 0.8"/>
      </defs>
      <g>
       <use xlink:href="#me137d8455b" x="46.965625" y="238.00915" style="stroke: #000000; stroke-width: 0.8"/>
      </g>
     </g>
     <g id="text_8">
      <!-- 275 -->
      <g transform="translate(20.878125 241.808369) scale(0.1 -0.1)">
       <defs>
        <path id="DejaVuSans-37" d="M 525 4666 
L 3525 4666 
L 3525 4397 
L 1831 0 
L 1172 0 
L 2766 4134 
L 525 4134 
L 525 4666 
z
" transform="scale(0.015625)"/>
       </defs>
       <use xlink:href="#DejaVuSans-32"/>
       <use xlink:href="#DejaVuSans-37" x="63.623047"/>
       <use xlink:href="#DejaVuSans-35" x="127.246094"/>
      </g>
     </g>
    </g>
    <g id="ytick_2">
     <g id="line2d_8">
      <g>
       <use xlink:href="#me137d8455b" x="46.965625" y="202.702344" style="stroke: #000000; stroke-width: 0.8"/>
      </g>
     </g>
     <g id="text_9">
      <!-- 280 -->
      <g transform="translate(20.878125 206.501563) scale(0.1 -0.1)">
       <defs>
        <path id="DejaVuSans-38" d="M 2034 2216 
Q 1584 2216 1326 1975 
Q 1069 1734 1069 1313 
Q 1069 891 1326 650 
Q 1584 409 2034 409 
Q 2484 409 2743 651 
Q 3003 894 3003 1313 
Q 3003 1734 2745 1975 
Q 2488 2216 2034 2216 
z
M 1403 2484 
Q 997 2584 770 2862 
Q 544 3141 544 3541 
Q 544 4100 942 4425 
Q 1341 4750 2034 4750 
Q 2731 4750 3128 4425 
Q 3525 4100 3525 3541 
Q 3525 3141 3298 2862 
Q 3072 2584 2669 2484 
Q 3125 2378 3379 2068 
Q 3634 1759 3634 1313 
Q 3634 634 3220 271 
Q 2806 -91 2034 -91 
Q 1263 -91 848 271 
Q 434 634 434 1313 
Q 434 1759 690 2068 
Q 947 2378 1403 2484 
z
M 1172 3481 
Q 1172 3119 1398 2916 
Q 1625 2713 2034 2713 
Q 2441 2713 2670 2916 
Q 2900 3119 2900 3481 
Q 2900 3844 2670 4047 
Q 2441 4250 2034 4250 
Q 1625 4250 1398 4047 
Q 1172 3844 1172 3481 
z
" transform="scale(0.015625)"/>
       </defs>
       <use xlink:href="#DejaVuSans-32"/>
       <use xlink:href="#DejaVuSans-38" x="63.623047"/>
       <use xlink:href="#DejaVuSans-30" x="127.246094"/>
      </g>
     </g>
    </g>
    <g id="ytick_3">
     <g id="line2d_9">
      <g>
       <use xlink:href="#me137d8455b" x="46.965625" y="167.395537" style="stroke: #000000; stroke-width: 0.8"/>
      </g>
     </g>
     <g id="text_10">
      <!-- 285 -->
      <g transform="translate(20.878125 171.194756) scale(0.1 -0.1)">
       <use xlink:href="#DejaVuSans-32"/>
       <use xlink:href="#DejaVuSans-38" x="63.623047"/>
       <use xlink:href="#DejaVuSans-35" x="127.246094"/>
      </g>
     </g>
    </g>
    <g id="ytick_4">
     <g id="line2d_10">
      <g>
       <use xlink:href="#me137d8455b" x="46.965625" y="132.088731" style="stroke: #000000; stroke-width: 0.8"/>
      </g>
     </g>
     <g id="text_11">
      <!-- 290 -->
      <g transform="translate(20.878125 135.88795) scale(0.1 -0.1)">
       <defs>
        <path id="DejaVuSans-39" d="M 703 97 
L 703 672 
Q 941 559 1184 500 
Q 1428 441 1663 441 
Q 2288 441 2617 861 
Q 2947 1281 2994 2138 
Q 2813 1869 2534 1725 
Q 2256 1581 1919 1581 
Q 1219 1581 811 2004 
Q 403 2428 403 3163 
Q 403 3881 828 4315 
Q 1253 4750 1959 4750 
Q 2769 4750 3195 4129 
Q 3622 3509 3622 2328 
Q 3622 1225 3098 567 
Q 2575 -91 1691 -91 
Q 1453 -91 1209 -44 
Q 966 3 703 97 
z
M 1959 2075 
Q 2384 2075 2632 2365 
Q 2881 2656 2881 3163 
Q 2881 3666 2632 3958 
Q 2384 4250 1959 4250 
Q 1534 4250 1286 3958 
Q 1038 3666 1038 3163 
Q 1038 2656 1286 2365 
Q 1534 2075 1959 2075 
z
" transform="scale(0.015625)"/>
       </defs>
       <use xlink:href="#DejaVuSans-32"/>
       <use xlink:href="#DejaVuSans-39" x="63.623047"/>
       <use xlink:href="#DejaVuSans-30" x="127.246094"/>
      </g>
     </g>
    </g>
    <g id="ytick_5">
     <g id="line2d_11">
      <g>
       <use xlink:href="#me137d8455b" x="46.965625" y="96.781925" style="stroke: #000000; stroke-width: 0.8"/>
      </g>
     </g>
     <g id="text_12">
      <!-- 295 -->
      <g transform="translate(20.878125 100.581143) scale(0.1 -0.1)">
       <use xlink:href="#DejaVuSans-32"/>
       <use xlink:href="#DejaVuSans-39" x="63.623047"/>
       <use xlink:href="#DejaVuSans-35" x="127.246094"/>
      </g>
     </g>
    </g>
    <g id="ytick_6">
     <g id="line2d_12">
      <g>
       <use xlink:href="#me137d8455b" x="46.965625" y="61.475118" style="stroke: #000000; stroke-width: 0.8"/>
      </g>
     </g>
     <g id="text_13">
      <!-- 300 -->
      <g transform="translate(20.878125 65.274337) scale(0.1 -0.1)">
       <use xlink:href="#DejaVuSans-33"/>
       <use xlink:href="#DejaVuSans-30" x="63.623047"/>
       <use xlink:href="#DejaVuSans-30" x="127.246094"/>
      </g>
     </g>
    </g>
    <g id="ytick_7">
     <g id="line2d_13">
      <g>
       <use xlink:href="#me137d8455b" x="46.965625" y="26.168312" style="stroke: #000000; stroke-width: 0.8"/>
      </g>
     </g>
     <g id="text_14">
      <!-- 305 -->
      <g transform="translate(20.878125 29.967531) scale(0.1 -0.1)">
       <use xlink:href="#DejaVuSans-33"/>
       <use xlink:href="#DejaVuSans-30" x="63.623047"/>
       <use xlink:href="#DejaVuSans-35" x="127.246094"/>
      </g>
     </g>
    </g>
    <g id="text_15">
     <!-- Oxygen -->
     <g transform="translate(14.798437 144.094219) rotate(-90) scale(0.1 -0.1)">
      <defs>
       <path id="DejaVuSans-4f" d="M 2522 4238 
Q 1834 4238 1429 3725 
Q 1025 3213 1025 2328 
Q 1025 1447 1429 934 
Q 1834 422 2522 422 
Q 3209 422 3611 934 
Q 4013 1447 4013 2328 
Q 4013 3213 3611 3725 
Q 3209 4238 2522 4238 
z
M 2522 4750 
Q 3503 4750 4090 4092 
Q 4678 3434 4678 2328 
Q 4678 1225 4090 567 
Q 3503 -91 2522 -91 
Q 1538 -91 948 565 
Q 359 1222 359 2328 
Q 359 3434 948 4092 
Q 1538 4750 2522 4750 
z
" transform="scale(0.015625)"/>
       <path id="DejaVuSans-78" d="M 3513 3500 
L 2247 1797 
L 3578 0 
L 2900 0 
L 1881 1375 
L 863 0 
L 184 0 
L 1544 1831 
L 300 3500 
L 978 3500 
L 1906 2253 
L 2834 3500 
L 3513 3500 
z
" transform="scale(0.015625)"/>
       <path id="DejaVuSans-65" d="M 3597 1894 
L 3597 1613 
L 953 1613 
Q 991 1019 1311 708 
Q 1631 397 2203 397 
Q 2534 397 2845 478 
Q 3156 559 3463 722 
L 3463 178 
Q 3153 47 2828 -22 
Q 2503 -91 2169 -91 
Q 1331 -91 842 396 
Q 353 884 353 1716 
Q 353 2575 817 3079 
Q 1281 3584 2069 3584 
Q 2775 3584 3186 3129 
Q 3597 2675 3597 1894 
z
M 3022 2063 
Q 3016 2534 2758 2815 
Q 2500 3097 2075 3097 
Q 1594 3097 1305 2825 
Q 1016 2553 972 2059 
L 3022 2063 
z
" transform="scale(0.015625)"/>
      </defs>
      <use xlink:href="#DejaVuSans-4f"/>
      <use xlink:href="#DejaVuSans-78" x="78.710938"/>
      <use xlink:href="#DejaVuSans-79" x="137.890625"/>
      <use xlink:href="#DejaVuSans-67" x="197.070312"/>
      <use xlink:href="#DejaVuSans-65" x="260.546875"/>
      <use xlink:href="#DejaVuSans-6e" x="322.070312"/>
     </g>
    </g>
   </g>
   <g id="line2d_14">
    <path d="M 60.503876 142.285268 
L 63.238876 141.896538 
L 65.973877 141.507807 
L 68.708877 141.119076 
L 71.443877 140.730345 
L 74.178877 140.341614 
L 76.913878 139.952884 
L 79.648878 139.564153 
L 82.383878 139.175422 
L 85.118878 138.786691 
L 87.853879 138.39796 
L 90.588879 138.00923 
L 93.323879 137.620499 
L 96.058879 137.231768 
L 98.79388 136.843037 
L 101.52888 136.454306 
L 104.26388 136.065576 
L 106.99888 135.676845 
L 109.733881 135.288114 
L 112.468881 134.899383 
L 115.203881 134.510652 
L 117.938881 134.121922 
L 120.673882 133.733191 
L 123.408882 133.34446 
L 126.143882 132.955729 
L 128.878882 132.566998 
L 131.613883 132.178268 
L 134.348883 131.789537 
L 137.083883 131.400806 
L 139.818883 131.012075 
L 142.553883 130.623344 
L 145.288884 130.234614 
L 148.023884 129.845883 
L 150.758884 129.457152 
L 153.493884 129.068421 
L 156.228885 128.67969 
L 158.963885 128.29096 
L 161.698885 127.902229 
L 164.433885 127.513498 
L 167.168886 127.124767 
L 169.903886 126.736036 
L 172.638886 126.347306 
L 175.373886 125.958575 
L 178.108887 125.569844 
L 180.843887 125.181113 
L 183.578887 124.792382 
L 186.313887 124.403652 
L 189.048888 124.014921 
L 191.783888 123.62619 
L 194.518888 123.237459 
L 197.253888 122.848728 
L 199.988889 122.459998 
L 202.723889 122.071267 
L 205.458889 121.682536 
L 208.193889 121.293805 
L 210.92889 120.905074 
L 213.66389 120.516344 
L 216.39889 120.127613 
L 219.13389 119.738882 
L 221.86889 119.350151 
L 224.603891 118.96142 
L 227.338891 118.57269 
L 230.073891 118.183959 
L 232.808891 117.795228 
L 235.543892 117.406497 
L 238.278892 117.017766 
L 241.013892 116.629036 
L 243.748892 116.240305 
L 246.483893 115.851574 
L 249.218893 115.462843 
L 251.953893 115.074112 
L 254.688893 114.685382 
L 257.423894 114.296651 
L 260.158894 113.90792 
L 262.893894 113.519189 
L 265.628894 113.130458 
L 268.363895 112.741728 
L 271.098895 112.352997 
L 273.833895 111.964266 
L 276.568895 111.575535 
L 279.303896 111.186804 
L 282.038896 110.798074 
L 284.773896 110.409343 
L 287.508896 110.020612 
L 290.243897 109.631881 
L 292.978897 109.24315 
L 295.713897 108.85442 
L 298.448897 108.465689 
L 301.183898 108.076958 
L 303.918898 107.688227 
L 306.653898 107.299496 
L 309.388898 106.910766 
L 312.123898 106.522035 
L 314.858899 106.133304 
L 317.593899 105.744573 
L 320.328899 105.355843 
L 323.063899 104.967112 
L 325.7989 104.578381 
L 328.5339 104.18965 
L 331.2689 103.800919 
" clip-path="url(#p095d7786eb)" style="fill: none; stroke: #808080; stroke-width: 2.25; stroke-linecap: square"/>
   </g>
   <g id="line2d_15"/>
   <g id="line2d_16"/>
   <g id="line2d_17"/>
   <g id="patch_3">
    <path d="M 46.965625 242.44 
L 46.965625 7.2 
" style="fill: none; stroke: #000000; stroke-width: 0.8; stroke-linejoin: miter; stroke-linecap: square"/>
   </g>
   <g id="patch_4">
    <path d="M 344.807151 242.44 
L 344.807151 7.2 
" style="fill: none; stroke: #000000; stroke-width: 0.8; stroke-linejoin: miter; stroke-linecap: square"/>
   </g>
   <g id="patch_5">
    <path d="M 46.965625 242.44 
L 344.807151 242.44 
" style="fill: none; stroke: #000000; stroke-width: 0.8; stroke-linejoin: miter; stroke-linecap: square"/>
   </g>
   <g id="patch_6">
    <path d="M 46.965625 7.2 
L 344.807151 7.2 
" style="fill: none; stroke: #000000; stroke-width: 0.8; stroke-linejoin: miter; stroke-linecap: square"/>
   </g>
   <g id="legend_1">
    <g id="patch_7">
     <path d="M 268.230589 237.44 
L 337.807151 237.44 
Q 339.807151 237.44 339.807151 235.44 
L 339.807151 177.7275 
Q 339.807151 175.7275 337.807151 175.7275 
L 268.230589 175.7275 
Q 266.230589 175.7275 266.230589 177.7275 
L 266.230589 235.44 
Q 266.230589 237.44 268.230589 237.44 
z
" style="fill: #ffffff; opacity: 0.8; stroke: #cccccc; stroke-linejoin: miter"/>
    </g>
    <g id="text_16">
     <!-- Day Moment -->
     <g transform="translate(271.107151 187.325938) scale(0.1 -0.1)">
      <defs>
       <path id="DejaVuSans-44" d="M 1259 4147 
L 1259 519 
L 2022 519 
Q 2988 519 3436 956 
Q 3884 1394 3884 2338 
Q 3884 3275 3436 3711 
Q 2988 4147 2022 4147 
L 1259 4147 
z
M 628 4666 
L 1925 4666 
Q 3281 4666 3915 4102 
Q 4550 3538 4550 2338 
Q 4550 1131 3912 565 
Q 3275 0 1925 0 
L 628 0 
L 628 4666 
z
" transform="scale(0.015625)"/>
       <path id="DejaVuSans-4d" d="M 628 4666 
L 1569 4666 
L 2759 1491 
L 3956 4666 
L 4897 4666 
L 4897 0 
L 4281 0 
L 4281 4097 
L 3078 897 
L 2444 897 
L 1241 4097 
L 1241 0 
L 628 0 
L 628 4666 
z
" transform="scale(0.015625)"/>
      </defs>
      <use xlink:href="#DejaVuSans-44"/>
      <use xlink:href="#DejaVuSans-61" x="77.001953"/>
      <use xlink:href="#DejaVuSans-79" x="138.28125"/>
      <use xlink:href="#DejaVuSans-20" x="197.460938"/>
      <use xlink:href="#DejaVuSans-4d" x="229.248047"/>
      <use xlink:href="#DejaVuSans-6f" x="315.527344"/>
      <use xlink:href="#DejaVuSans-6d" x="376.708984"/>
      <use xlink:href="#DejaVuSans-65" x="474.121094"/>
      <use xlink:href="#DejaVuSans-6e" x="535.644531"/>
      <use xlink:href="#DejaVuSans-74" x="599.023438"/>
     </g>
    </g>
    <g id="line2d_18">
     <defs>
      <path id="m399d0eb4ec" d="M 0 4.472136 
C 1.186024 4.472136 2.323632 4.000923 3.162278 3.162278 
C 4.000923 2.323632 4.472136 1.186024 4.472136 0 
C 4.472136 -1.186024 4.000923 -2.323632 3.162278 -3.162278 
C 2.323632 -4.000923 1.186024 -4.472136 0 -4.472136 
C -1.186024 -4.472136 -2.323632 -4.000923 -3.162278 -3.162278 
C -4.000923 -2.323632 -4.472136 -1.186024 -4.472136 0 
C -4.472136 1.186024 -4.000923 2.323632 -3.162278 3.162278 
C -2.323632 4.000923 -1.186024 4.472136 0 4.472136 
z
" style="stroke: #000000; stroke-width: 0.715542"/>
     </defs>
     <g>
      <use xlink:href="#m399d0eb4ec" x="280.230589" y="198.504063" style="fill: #e41a1c; stroke: #000000; stroke-width: 0.715542"/>
     </g>
    </g>
    <g id="text_17">
     <!-- Day -->
     <g transform="translate(298.230589 202.004063) scale(0.1 -0.1)">
      <use xlink:href="#DejaVuSans-44"/>
      <use xlink:href="#DejaVuSans-61" x="77.001953"/>
      <use xlink:href="#DejaVuSans-79" x="138.28125"/>
     </g>
    </g>
    <g id="line2d_19">
     <defs>
      <path id="m12581a96c2" d="M 0 4.472136 
C 1.186024 4.472136 2.323632 4.000923 3.162278 3.162278 
C 4.000923 2.323632 4.472136 1.186024 4.472136 0 
C 4.472136 -1.186024 4.000923 -2.323632 3.162278 -3.162278 
C 2.323632 -4.000923 1.186024 -4.472136 0 -4.472136 
C -1.186024 -4.472136 -2.323632 -4.000923 -3.162278 -3.162278 
C -4.000923 -2.323632 -4.472136 -1.186024 -4.472136 0 
C -4.472136 1.186024 -4.000923 2.323632 -3.162278 3.162278 
C -2.323632 4.000923 -1.186024 4.472136 0 4.472136 
z
" style="stroke: #000000; stroke-width: 0.715542"/>
     </defs>
     <g>
      <use xlink:href="#m12581a96c2" x="280.230589" y="213.182188" style="fill: #377eb8; stroke: #000000; stroke-width: 0.715542"/>
     </g>
    </g>
    <g id="text_18">
     <!-- Twilight -->
     <g transform="translate(298.230589 216.682188) scale(0.1 -0.1)">
      <defs>
       <path id="DejaVuSans-54" d="M -19 4666 
L 3928 4666 
L 3928 4134 
L 2272 4134 
L 2272 0 
L 1638 0 
L 1638 4134 
L -19 4134 
L -19 4666 
z
" transform="scale(0.015625)"/>
       <path id="DejaVuSans-77" d="M 269 3500 
L 844 3500 
L 1563 769 
L 2278 3500 
L 2956 3500 
L 3675 769 
L 4391 3500 
L 4966 3500 
L 4050 0 
L 3372 0 
L 2619 2869 
L 1863 0 
L 1184 0 
L 269 3500 
z
" transform="scale(0.015625)"/>
       <path id="DejaVuSans-6c" d="M 603 4863 
L 1178 4863 
L 1178 0 
L 603 0 
L 603 4863 
z
" transform="scale(0.015625)"/>
      </defs>
      <use xlink:href="#DejaVuSans-54"/>
      <use xlink:href="#DejaVuSans-77" x="44.583984"/>
      <use xlink:href="#DejaVuSans-69" x="126.371094"/>
      <use xlink:href="#DejaVuSans-6c" x="154.154297"/>
      <use xlink:href="#DejaVuSans-69" x="181.9375"/>
      <use xlink:href="#DejaVuSans-67" x="209.720703"/>
      <use xlink:href="#DejaVuSans-68" x="273.197266"/>
      <use xlink:href="#DejaVuSans-74" x="336.576172"/>
     </g>
    </g>
    <g id="line2d_20">
     <defs>
      <path id="mc021103c0f" d="M 0 4.472136 
C 1.186024 4.472136 2.323632 4.000923 3.162278 3.162278 
C 4.000923 2.323632 4.472136 1.186024 4.472136 0 
C 4.472136 -1.186024 4.000923 -2.323632 3.162278 -3.162278 
C 2.323632 -4.000923 1.186024 -4.472136 0 -4.472136 
C -1.186024 -4.472136 -2.323632 -4.000923 -3.162278 -3.162278 
C -4.000923 -2.323632 -4.472136 -1.186024 -4.472136 0 
C -4.472136 1.186024 -4.000923 2.323632 -3.162278 3.162278 
C -2.323632 4.000923 -1.186024 4.472136 0 4.472136 
z
" style="stroke: #000000; stroke-width: 0.715542"/>
     </defs>
     <g>
      <use xlink:href="#mc021103c0f" x="280.230589" y="227.860313" style="fill: #4daf4a; stroke: #000000; stroke-width: 0.715542"/>
     </g>
    </g>
    <g id="text_19">
     <!-- Night -->
     <g transform="translate(298.230589 231.360313) scale(0.1 -0.1)">
      <defs>
       <path id="DejaVuSans-4e" d="M 628 4666 
L 1478 4666 
L 3547 763 
L 3547 4666 
L 4159 4666 
L 4159 0 
L 3309 0 
L 1241 3903 
L 1241 0 
L 628 0 
L 628 4666 
z
" transform="scale(0.015625)"/>
      </defs>
      <use xlink:href="#DejaVuSans-4e"/>
      <use xlink:href="#DejaVuSans-69" x="74.804688"/>
      <use xlink:href="#DejaVuSans-67" x="102.587891"/>
      <use xlink:href="#DejaVuSans-68" x="166.064453"/>
      <use xlink:href="#DejaVuSans-74" x="229.443359"/>
     </g>
    </g>
   </g>
  </g>
 </g>
 <defs>
  <clipPath id="p095d7786eb">
   <rect x="46.965625" y="7.2" width="297.841526" height="235.24"/>
  </clipPath>
 </defs>
</svg>
