<?xml version="1.0" encoding="utf-8" standalone="no"?>
<!DOCTYPE svg PUBLIC "-//W3C//DTD SVG 1.1//EN"
  "http://www.w3.org/Graphics/SVG/1.1/DTD/svg11.dtd">
<svg xmlns:xlink="http://www.w3.org/1999/xlink" width="352.249039pt" height="279.99625pt" viewBox="0 0 352.249039 279.99625" xmlns="http://www.w3.org/2000/svg" version="1.1">
 <metadata>
  <rdf:RDF xmlns:dc="http://purl.org/dc/elements/1.1/" xmlns:cc="http://creativecommons.org/ns#" xmlns:rdf="http://www.w3.org/1999/02/22-rdf-syntax-ns#">
   <cc:Work>
    <dc:type rdf:resource="http://purl.org/dc/dcmitype/StillImage"/>
    <dc:date>2025-03-14T13:15:12.487484</dc:date>
    <dc:format>image/svg+xml</dc:format>
    <dc:creator>
     <cc:Agent>
      <dc:title>Matplotlib v3.8.3, https://matplotlib.org/</dc:title>
     </cc:Agent>
    </dc:creator>
   </cc:Work>
  </rdf:RDF>
 </metadata>
 <defs>
  <style type="text/css">*{stroke-linejoin: round; stroke-linecap: butt}</style>
 </defs>
 <g id="figure_1">
  <g id="patch_1">
   <path d="M 0 279.99625 
L 352.249039 279.99625 
L 352.249039 0 
L 0 0 
z
" style="fill: #ffffff"/>
  </g>
  <g id="axes_1">
   <g id="patch_2">
    <path d="M 53.328125 242.44 
L 344.869651 242.44 
L 344.869651 7.2 
L 53.328125 7.2 
z
" style="fill: #ffffff"/>
   </g>
   <g id="PolyCollection_1">
    <path d="M 66.580013 157.929584 
L 66.580013 224.325057 
L 69.257162 222.901204 
L 71.934311 221.331502 
L 74.61146 220.120579 
L 77.288609 218.628947 
L 79.965758 217.289337 
L 82.642907 215.812451 
L 85.320056 214.273694 
L 87.997205 212.92808 
L 90.674354 211.644377 
L 93.351503 210.360673 
L 96.028652 209.074767 
L 98.705801 207.784108 
L 101.38295 206.300248 
L 104.060099 205.100294 
L 106.737248 203.763326 
L 109.414397 202.27939 
L 112.091546 200.757084 
L 114.768695 199.415898 
L 117.445844 198.152244 
L 120.122993 197.052165 
L 122.800142 195.874821 
L 125.477291 194.492707 
L 128.15444 192.942679 
L 130.831589 192.047759 
L 133.508738 190.589771 
L 136.185887 189.123512 
L 138.863036 188.049456 
L 141.540185 186.895553 
L 144.217334 185.5864 
L 146.894483 184.315131 
L 149.571632 183.340285 
L 152.248781 182.172806 
L 154.92593 180.925255 
L 157.603079 179.823097 
L 160.280228 179.155563 
L 162.957377 178.632273 
L 165.634526 177.457096 
L 168.311675 176.351262 
L 170.988824 175.352519 
L 173.665973 174.721795 
L 176.343122 174.001947 
L 179.020271 173.27854 
L 181.69742 172.373814 
L 184.374569 171.836461 
L 187.051718 171.099886 
L 189.728867 170.387516 
L 192.406016 169.524743 
L 195.083165 168.949126 
L 197.760314 168.234634 
L 200.437463 167.828121 
L 203.114612 167.563176 
L 205.791761 166.954936 
L 208.46891 166.302755 
L 211.146059 165.422366 
L 213.823208 164.388903 
L 216.500357 164.136937 
L 219.177506 163.677205 
L 221.854655 163.148343 
L 224.531804 162.830541 
L 227.208953 162.231654 
L 229.886102 161.632767 
L 232.563251 161.032783 
L 235.2404 160.428003 
L 237.917549 160.020758 
L 240.594698 159.976096 
L 243.271847 159.761428 
L 245.948996 159.056341 
L 248.626145 158.761678 
L 251.303294 158.245354 
L 253.980443 157.854323 
L 256.657592 157.537007 
L 259.334741 157.434576 
L 262.01189 157.335957 
L 264.689039 157.214529 
L 267.366188 157.056005 
L 270.043337 156.578762 
L 272.720486 156.344161 
L 275.397635 155.912157 
L 278.074784 155.618234 
L 280.751933 155.494621 
L 283.429082 155.081099 
L 286.106231 154.607485 
L 288.78338 154.133871 
L 291.460529 153.904971 
L 294.137678 153.760828 
L 296.814827 153.614481 
L 299.491976 153.463927 
L 302.169125 153.313373 
L 304.846274 153.16282 
L 307.523423 152.814888 
L 310.200572 152.554929 
L 312.877721 152.487001 
L 315.55487 152.275781 
L 318.232019 151.991215 
L 320.909168 151.8452 
L 323.586317 151.6943 
L 326.263466 151.542443 
L 328.940615 151.281894 
L 331.617764 150.844307 
L 331.617764 50.854725 
L 331.617764 50.854725 
L 328.940615 52.423385 
L 326.263466 53.993117 
L 323.586317 55.56285 
L 320.909168 57.132583 
L 318.232019 58.702315 
L 315.55487 60.272048 
L 312.877721 61.841781 
L 310.200572 63.411514 
L 307.523423 64.981246 
L 304.846274 66.551375 
L 302.169125 68.125505 
L 299.491976 69.699635 
L 296.814827 71.273765 
L 294.137678 72.962336 
L 291.460529 74.741877 
L 288.78338 76.521418 
L 286.106231 78.179951 
L 283.429082 79.61631 
L 280.751933 81.058687 
L 278.074784 82.920335 
L 275.397635 84.72041 
L 272.720486 86.103994 
L 270.043337 87.490128 
L 267.366188 88.876262 
L 264.689039 90.262395 
L 262.01189 92.024857 
L 259.334741 93.949324 
L 256.657592 95.741774 
L 253.980443 97.165318 
L 251.303294 98.589719 
L 248.626145 100.01412 
L 245.948996 101.438522 
L 243.271847 102.862923 
L 240.594698 104.283637 
L 237.917549 105.78598 
L 235.2404 107.354617 
L 232.563251 108.922647 
L 229.886102 110.45355 
L 227.208953 111.898451 
L 224.531804 113.381937 
L 221.854655 114.840827 
L 219.177506 116.311915 
L 216.500357 118.106163 
L 213.823208 119.42392 
L 211.146059 120.810568 
L 208.46891 122.145597 
L 205.791761 123.375468 
L 203.114612 124.606714 
L 200.437463 125.864354 
L 197.760314 126.996949 
L 195.083165 128.407836 
L 192.406016 129.385726 
L 189.728867 130.655799 
L 187.051718 132.198306 
L 184.374569 133.859297 
L 181.69742 135.102496 
L 179.020271 136.239755 
L 176.343122 137.230982 
L 173.665973 138.380008 
L 170.988824 139.664198 
L 168.311675 140.399882 
L 165.634526 141.403819 
L 162.957377 142.02868 
L 160.280228 142.870807 
L 157.603079 143.220219 
L 154.92593 143.962721 
L 152.248781 145.051832 
L 149.571632 145.617726 
L 146.894483 146.180789 
L 144.217334 146.613567 
L 141.540185 147.04631 
L 138.863036 147.404365 
L 136.185887 147.946125 
L 133.508738 148.348487 
L 130.831589 148.857846 
L 128.15444 149.253663 
L 125.477291 149.650615 
L 122.800142 150.082965 
L 120.122993 150.502066 
L 117.445844 150.788795 
L 114.768695 151.168309 
L 112.091546 151.543751 
L 109.414397 151.894259 
L 106.737248 152.234628 
L 104.060099 152.58368 
L 101.38295 152.933229 
L 98.705801 153.473369 
L 96.028652 153.857041 
L 93.351503 154.242177 
L 90.674354 154.627313 
L 87.997205 155.01245 
L 85.320056 155.37566 
L 82.642907 155.775073 
L 79.965758 156.159335 
L 77.288609 156.502365 
L 74.61146 156.775062 
L 71.934311 157.110494 
L 69.257162 157.696385 
L 66.580013 157.929584 
z
" clip-path="url(#pef43267d14)" style="fill: #808080; fill-opacity: 0.15"/>
   </g>
   <g id="PathCollection_1">
    <path d="M 246.663903 137.554896 
C 247.308721 137.554896 247.927215 137.298707 248.38317 136.842752 
C 248.839126 136.386797 249.095314 135.768302 249.095314 135.123485 
C 249.095314 134.478667 248.839126 133.860172 248.38317 133.404217 
C 247.927215 132.948262 247.308721 132.692073 246.663903 132.692073 
C 246.019085 132.692073 245.400591 132.948262 244.944636 133.404217 
C 244.488681 133.860172 244.232492 134.478667 244.232492 135.123485 
C 244.232492 135.768302 244.488681 136.386797 244.944636 136.842752 
C 245.400591 137.298707 246.019085 137.554896 246.663903 137.554896 
z
" clip-path="url(#pef43267d14)" style="fill: #1f77b4; stroke: #000000; stroke-width: 0.372336"/>
    <path d="M 171.314517 171.6373 
C 172.071875 171.6373 172.798315 171.336398 173.333848 170.800865 
C 173.869381 170.265332 174.170282 169.538892 174.170282 168.781534 
C 174.170282 168.024176 173.869381 167.297735 173.333848 166.762202 
C 172.798315 166.22667 172.071875 165.925768 171.314517 165.925768 
C 170.557159 165.925768 169.830718 166.22667 169.295185 166.762202 
C 168.759652 167.297735 168.458751 168.024176 168.458751 168.781534 
C 168.458751 169.538892 168.759652 170.265332 169.295185 170.800865 
C 169.830718 171.336398 170.557159 171.6373 171.314517 171.6373 
z
" clip-path="url(#pef43267d14)" style="fill: #1f77b4; stroke: #000000; stroke-width: 0.372336"/>
    <path d="M 261.413631 136.631763 
C 262.056522 136.631763 262.673167 136.37634 263.12776 135.921748 
C 263.582352 135.467155 263.837775 134.85051 263.837775 134.207619 
C 263.837775 133.564729 263.582352 132.948083 263.12776 132.493491 
C 262.673167 132.038899 262.056522 131.783476 261.413631 131.783476 
C 260.770741 131.783476 260.154095 132.038899 259.699503 132.493491 
C 259.244911 132.948083 258.989488 133.564729 258.989488 134.207619 
C 258.989488 134.85051 259.244911 135.467155 259.699503 135.921748 
C 260.154095 136.37634 260.770741 136.631763 261.413631 136.631763 
z
" clip-path="url(#pef43267d14)" style="fill: #1f77b4; stroke: #000000; stroke-width: 0.372336"/>
    <path d="M 185.606889 20.152818 
C 186.206272 20.152818 186.781186 19.914681 187.205014 19.490853 
C 187.628842 19.067025 187.86698 18.49211 187.86698 17.892727 
C 187.86698 17.293344 187.628842 16.71843 187.205014 16.294602 
C 186.781186 15.870774 186.206272 15.632636 185.606889 15.632636 
C 185.007506 15.632636 184.432591 15.870774 184.008763 16.294602 
C 183.584935 16.71843 183.346798 17.293344 183.346798 17.892727 
C 183.346798 18.49211 183.584935 19.067025 184.008763 19.490853 
C 184.432591 19.914681 185.007506 20.152818 185.606889 20.152818 
z
" clip-path="url(#pef43267d14)" style="fill: #1f77b4; stroke: #000000; stroke-width: 0.372336"/>
    <path d="M 96.536825 179.096506 
C 97.20782 179.096506 97.851423 178.829917 98.325888 178.355452 
C 98.800353 177.880987 99.066942 177.237384 99.066942 176.566389 
C 99.066942 175.895394 98.800353 175.251791 98.325888 174.777326 
C 97.851423 174.302861 97.20782 174.036272 96.536825 174.036272 
C 95.86583 174.036272 95.222227 174.302861 94.747762 174.777326 
C 94.273297 175.251791 94.006708 175.895394 94.006708 176.566389 
C 94.006708 177.237384 94.273297 177.880987 94.747762 178.355452 
C 95.222227 178.829917 95.86583 179.096506 96.536825 179.096506 
z
" clip-path="url(#pef43267d14)" style="fill: #1f77b4; stroke: #000000; stroke-width: 0.372336"/>
    <path d="M 331.617764 189.981697 
C 332.382307 189.981697 333.115639 189.677941 333.656252 189.137328 
C 334.196865 188.596715 334.500621 187.863383 334.500621 187.09884 
C 334.500621 186.334297 334.196865 185.600965 333.656252 185.060352 
C 333.115639 184.519738 332.382307 184.215982 331.617764 184.215982 
C 330.853221 184.215982 330.119889 184.519738 329.579276 185.060352 
C 329.038662 185.600965 328.734906 186.334297 328.734906 187.09884 
C 328.734906 187.863383 329.038662 188.596715 329.579276 189.137328 
C 330.119889 189.677941 330.853221 189.981697 331.617764 189.981697 
z
" clip-path="url(#pef43267d14)" style="fill: #1f77b4; stroke: #000000; stroke-width: 0.372336"/>
    <path d="M 113.687672 234.920623 
C 114.529254 234.920623 115.336481 234.586259 115.931569 233.99117 
C 116.526658 233.396082 116.861022 232.588855 116.861022 231.747273 
C 116.861022 230.90569 116.526658 230.098464 115.931569 229.503375 
C 115.336481 228.908286 114.529254 228.573922 113.687672 228.573922 
C 112.846089 228.573922 112.038862 228.908286 111.443774 229.503375 
C 110.848685 230.098464 110.514321 230.90569 110.514321 231.747273 
C 110.514321 232.588855 110.848685 233.396082 111.443774 233.99117 
C 112.038862 234.586259 112.846089 234.920623 113.687672 234.920623 
z
" clip-path="url(#pef43267d14)" style="fill: #1f77b4; stroke: #000000; stroke-width: 0.372336"/>
    <path d="M 117.918214 200.056089 
C 118.864891 200.056089 119.772922 199.67997 120.442323 199.010568 
C 121.111725 198.341167 121.487843 197.433136 121.487843 196.486459 
C 121.487843 195.539782 121.111725 194.631751 120.442323 193.96235 
C 119.772922 193.292948 118.864891 192.916829 117.918214 192.916829 
C 116.971537 192.916829 116.063506 193.292948 115.394104 193.96235 
C 114.724703 194.631751 114.348584 195.539782 114.348584 196.486459 
C 114.348584 197.433136 114.724703 198.341167 115.394104 199.010568 
C 116.063506 199.67997 116.971537 200.056089 117.918214 200.056089 
z
" clip-path="url(#pef43267d14)" style="fill: #1f77b4; stroke: #000000; stroke-width: 0.372336"/>
    <path d="M 124.435535 228.994796 
C 125.527248 228.994796 126.574393 228.561054 127.34635 227.789097 
C 128.118307 227.01714 128.552049 225.969995 128.552049 224.878283 
C 128.552049 223.786571 128.118307 222.739426 127.34635 221.967469 
C 126.574393 221.195512 125.527248 220.76177 124.435535 220.76177 
C 123.343823 220.76177 122.296678 221.195512 121.524721 221.967469 
C 120.752764 222.739426 120.319022 223.786571 120.319022 224.878283 
C 120.319022 225.969995 120.752764 227.01714 121.524721 227.789097 
C 122.296678 228.561054 123.343823 228.994796 124.435535 228.994796 
z
" clip-path="url(#pef43267d14)" style="fill: #1f77b4; stroke: #000000; stroke-width: 0.372336"/>
    <path d="M 191.323838 171.412241 
C 192.446567 171.412241 193.523464 170.966176 194.317354 170.172286 
C 195.111244 169.378396 195.557309 168.301499 195.557309 167.17877 
C 195.557309 166.05604 195.111244 164.979143 194.317354 164.185253 
C 193.523464 163.391364 192.446567 162.945298 191.323838 162.945298 
C 190.201108 162.945298 189.124211 163.391364 188.330321 164.185253 
C 187.536432 164.979143 187.090366 166.05604 187.090366 167.17877 
C 187.090366 168.301499 187.536432 169.378396 188.330321 170.172286 
C 189.124211 170.966176 190.201108 171.412241 191.323838 171.412241 
z
" clip-path="url(#pef43267d14)" style="fill: #1f77b4; stroke: #000000; stroke-width: 0.372336"/>
    <path d="M 266.330207 101.206446 
C 267.415252 101.206446 268.456002 100.775354 269.223244 100.008111 
C 269.990486 99.240869 270.421579 98.200119 270.421579 97.115075 
C 270.421579 96.030031 269.990486 94.989281 269.223244 94.222039 
C 268.456002 93.454796 267.415252 93.023704 266.330207 93.023704 
C 265.245163 93.023704 264.204413 93.454796 263.437171 94.222039 
C 262.669929 94.989281 262.238836 96.030031 262.238836 97.115075 
C 262.238836 98.200119 262.669929 99.240869 263.437171 100.008111 
C 264.204413 100.775354 265.245163 101.206446 266.330207 101.206446 
z
" clip-path="url(#pef43267d14)" style="fill: #1f77b4; stroke: #000000; stroke-width: 0.372336"/>
    <path d="M 126.836654 148.233873 
C 127.581054 148.233873 128.295065 147.93812 128.821435 147.41175 
C 129.347805 146.88538 129.643558 146.171369 129.643558 145.426969 
C 129.643558 144.682569 129.347805 143.968558 128.821435 143.442188 
C 128.295065 142.915818 127.581054 142.620065 126.836654 142.620065 
C 126.092254 142.620065 125.378243 142.915818 124.851873 143.442188 
C 124.325503 143.968558 124.02975 144.682569 124.02975 145.426969 
C 124.02975 146.171369 124.325503 146.88538 124.851873 147.41175 
C 125.378243 147.93812 126.092254 148.233873 126.836654 148.233873 
z
" clip-path="url(#pef43267d14)" style="fill: #1f77b4; stroke: #000000; stroke-width: 0.372336"/>
    <path d="M 142.95845 215.191753 
C 143.972184 215.191753 144.944535 214.788992 145.661353 214.072173 
C 146.378172 213.355355 146.780932 212.383004 146.780932 211.36927 
C 146.780932 210.355536 146.378172 209.383185 145.661353 208.666367 
C 144.944535 207.949548 143.972184 207.546787 142.95845 207.546787 
C 141.944716 207.546787 140.972365 207.949548 140.255547 208.666367 
C 139.538728 209.383185 139.135967 210.355536 139.135967 211.36927 
C 139.135967 212.383004 139.538728 213.355355 140.255547 214.072173 
C 140.972365 214.788992 141.944716 215.191753 142.95845 215.191753 
z
" clip-path="url(#pef43267d14)" style="fill: #1f77b4; stroke: #000000; stroke-width: 0.372336"/>
    <path d="M 177.260143 204.492427 
C 178.168899 204.492427 179.040557 204.131374 179.683145 203.488787 
C 180.325732 202.846199 180.686784 201.974541 180.686784 201.065785 
C 180.686784 200.15703 180.325732 199.285372 179.683145 198.642784 
C 179.040557 198.000197 178.168899 197.639144 177.260143 197.639144 
C 176.351388 197.639144 175.47973 198.000197 174.837142 198.642784 
C 174.194555 199.285372 173.833502 200.15703 173.833502 201.065785 
C 173.833502 201.974541 174.194555 202.846199 174.837142 203.488787 
C 175.47973 204.131374 176.351388 204.492427 177.260143 204.492427 
z
" clip-path="url(#pef43267d14)" style="fill: #1f77b4; stroke: #000000; stroke-width: 0.372336"/>
    <path d="M 103.74018 161.191359 
C 104.520481 161.191359 105.268928 160.881342 105.820683 160.329586 
C 106.372439 159.77783 106.682456 159.029384 106.682456 158.249083 
C 106.682456 157.468783 106.372439 156.720336 105.820683 156.16858 
C 105.268928 155.616824 104.520481 155.306808 103.74018 155.306808 
C 102.95988 155.306808 102.211433 155.616824 101.659678 156.16858 
C 101.107922 156.720336 100.797905 157.468783 100.797905 158.249083 
C 100.797905 159.029384 101.107922 159.77783 101.659678 160.329586 
C 102.211433 160.881342 102.95988 161.191359 103.74018 161.191359 
z
" clip-path="url(#pef43267d14)" style="fill: #1f77b4; stroke: #000000; stroke-width: 0.372336"/>
    <path d="M 194.754007 175.134129 
C 195.406451 175.134129 196.03226 174.87491 196.493608 174.413562 
C 196.954956 173.952215 197.214174 173.326405 197.214174 172.673961 
C 197.214174 172.021517 196.954956 171.395708 196.493608 170.934361 
C 196.03226 170.473013 195.406451 170.213794 194.754007 170.213794 
C 194.101563 170.213794 193.475754 170.473013 193.014406 170.934361 
C 192.553059 171.395708 192.29384 172.021517 192.29384 172.673961 
C 192.29384 173.326405 192.553059 173.952215 193.014406 174.413562 
C 193.475754 174.87491 194.101563 175.134129 194.754007 175.134129 
z
" clip-path="url(#pef43267d14)" style="fill: #1f77b4; stroke: #000000; stroke-width: 0.372336"/>
    <path d="M 289.998376 117.553701 
C 290.560957 117.553701 291.100571 117.330185 291.498376 116.932381 
C 291.89618 116.534576 292.119696 115.994961 292.119696 115.432381 
C 292.119696 114.8698 291.89618 114.330185 291.498376 113.932381 
C 291.100571 113.534576 290.560957 113.31106 289.998376 113.31106 
C 289.435795 113.31106 288.89618 113.534576 288.498376 113.932381 
C 288.100571 114.330185 287.877055 114.8698 287.877055 115.432381 
C 287.877055 115.994961 288.100571 116.534576 288.498376 116.932381 
C 288.89618 117.330185 289.435795 117.553701 289.998376 117.553701 
z
" clip-path="url(#pef43267d14)" style="fill: #1f77b4; stroke: #000000; stroke-width: 0.372336"/>
    <path d="M 311.95146 191.769201 
C 312.522106 191.769201 313.069456 191.542481 313.472964 191.138974 
C 313.876471 190.735466 314.103191 190.188115 314.103191 189.617469 
C 314.103191 189.046823 313.876471 188.499473 313.472964 188.095965 
C 313.069456 187.692458 312.522106 187.465737 311.95146 187.465737 
C 311.380814 187.465737 310.833463 187.692458 310.429955 188.095965 
C 310.026448 188.499473 309.799728 189.046823 309.799728 189.617469 
C 309.799728 190.188115 310.026448 190.735466 310.429955 191.138974 
C 310.833463 191.542481 311.380814 191.769201 311.95146 191.769201 
z
" clip-path="url(#pef43267d14)" style="fill: #1f77b4; stroke: #000000; stroke-width: 0.372336"/>
    <path d="M 120.891027 133.472254 
C 121.72829 133.472254 122.531373 133.139606 123.123408 132.547572 
C 123.715442 131.955538 124.04809 131.152455 124.04809 130.315192 
C 124.04809 129.477929 123.715442 128.674846 123.123408 128.082811 
C 122.531373 127.490777 121.72829 127.158129 120.891027 127.158129 
C 120.053764 127.158129 119.250681 127.490777 118.658647 128.082811 
C 118.066613 128.674846 117.733965 129.477929 117.733965 130.315192 
C 117.733965 131.152455 118.066613 131.955538 118.658647 132.547572 
C 119.250681 133.139606 120.053764 133.472254 120.891027 133.472254 
z
" clip-path="url(#pef43267d14)" style="fill: #1f77b4; stroke: #000000; stroke-width: 0.372336"/>
    <path d="M 130.838518 163.584248 
C 131.828363 163.584248 132.777799 163.190979 133.477724 162.491053 
C 134.17765 161.791128 134.570919 160.841692 134.570919 159.851847 
C 134.570919 158.862003 134.17765 157.912567 133.477724 157.212641 
C 132.777799 156.512716 131.828363 156.119446 130.838518 156.119446 
C 129.848674 156.119446 128.899238 156.512716 128.199312 157.212641 
C 127.499387 157.912567 127.106117 158.862003 127.106117 159.851847 
C 127.106117 160.841692 127.499387 161.791128 128.199312 162.491053 
C 128.899238 163.190979 129.848674 163.584248 130.838518 163.584248 
z
" clip-path="url(#pef43267d14)" style="fill: #1f77b4; stroke: #000000; stroke-width: 0.372336"/>
    <path d="M 298.802477 85.521588 
C 299.917706 85.521588 300.987409 85.078503 301.775995 84.289916 
C 302.564581 83.50133 303.007666 82.431628 303.007666 81.316399 
C 303.007666 80.201169 302.564581 79.131467 301.775995 78.342881 
C 300.987409 77.554295 299.917706 77.111209 298.802477 77.111209 
C 297.687248 77.111209 296.617545 77.554295 295.828959 78.342881 
C 295.040373 79.131467 294.597288 80.201169 294.597288 81.316399 
C 294.597288 82.431628 295.040373 83.50133 295.828959 84.289916 
C 296.617545 85.078503 297.687248 85.521588 298.802477 85.521588 
z
" clip-path="url(#pef43267d14)" style="fill: #1f77b4; stroke: #000000; stroke-width: 0.372336"/>
    <path d="M 143.644484 152.302722 
C 144.769645 152.302722 145.848875 151.855691 146.644484 151.060082 
C 147.440093 150.264472 147.887124 149.185243 147.887124 148.060082 
C 147.887124 146.93492 147.440093 145.855691 146.644484 145.060082 
C 145.848875 144.264472 144.769645 143.817441 143.644484 143.817441 
C 142.519322 143.817441 141.440093 144.264472 140.644484 145.060082 
C 139.848875 145.855691 139.401843 146.93492 139.401843 148.060082 
C 139.401843 149.185243 139.848875 150.264472 140.644484 151.060082 
C 141.440093 151.855691 142.519322 152.302722 143.644484 152.302722 
z
" clip-path="url(#pef43267d14)" style="fill: #1f77b4; stroke: #000000; stroke-width: 0.372336"/>
    <path d="M 268.388309 39.634727 
C 269.478716 39.634727 270.52461 39.201504 271.295644 38.430469 
C 272.066678 37.659435 272.499902 36.613541 272.499902 35.523134 
C 272.499902 34.432727 272.066678 33.386833 271.295644 32.615799 
C 270.52461 31.844765 269.478716 31.411541 268.388309 31.411541 
C 267.297902 31.411541 266.252008 31.844765 265.480974 32.615799 
C 264.709939 33.386833 264.276716 34.432727 264.276716 35.523134 
C 264.276716 36.613541 264.709939 37.659435 265.480974 38.430469 
C 266.252008 39.201504 267.297902 39.634727 268.388309 39.634727 
z
" clip-path="url(#pef43267d14)" style="fill: #1f77b4; stroke: #000000; stroke-width: 0.372336"/>
    <path d="M 66.580013 223.408805 
C 67.586922 223.408805 68.552726 223.008756 69.264718 222.296763 
C 69.97671 221.584771 70.37676 220.618967 70.37676 219.612058 
C 70.37676 218.605149 69.97671 217.639344 69.264718 216.927352 
C 68.552726 216.21536 67.586922 215.81531 66.580013 215.81531 
C 65.573103 215.81531 64.607299 216.21536 63.895307 216.927352 
C 63.183315 217.639344 62.783265 218.605149 62.783265 219.612058 
C 62.783265 220.618967 63.183315 221.584771 63.895307 222.296763 
C 64.607299 223.008756 65.573103 223.408805 66.580013 223.408805 
z
" clip-path="url(#pef43267d14)" style="fill: #1f77b4; stroke: #000000; stroke-width: 0.372336"/>
    <path d="M 241.747327 116.958426 
C 242.63782 116.958426 243.49196 116.60463 244.121633 115.974956 
C 244.751307 115.345283 245.105103 114.491143 245.105103 113.60065 
C 245.105103 112.710158 244.751307 111.856017 244.121633 111.226344 
C 243.49196 110.596671 242.63782 110.242874 241.747327 110.242874 
C 240.856834 110.242874 240.002694 110.596671 239.373021 111.226344 
C 238.743347 111.856017 238.389551 112.710158 238.389551 113.60065 
C 238.389551 114.491143 238.743347 115.345283 239.373021 115.974956 
C 240.002694 116.60463 240.856834 116.958426 241.747327 116.958426 
z
" clip-path="url(#pef43267d14)" style="fill: #1f77b4; stroke: #000000; stroke-width: 0.372336"/>
   </g>
   <g id="matplotlib.axis_1">
    <g id="xtick_1">
     <g id="line2d_1">
      <defs>
       <path id="m1a54b170bd" d="M 0 0 
L 0 3.5 
" style="stroke: #000000; stroke-width: 0.8"/>
      </defs>
      <g>
       <use xlink:href="#m1a54b170bd" x="97.299085" y="242.44" style="stroke: #000000; stroke-width: 0.8"/>
      </g>
     </g>
     <g id="text_1">
      <!-- 200 -->
      <g transform="translate(87.755335 257.038437) scale(0.1 -0.1)">
       <defs>
        <path id="DejaVuSans-32" d="M 1228 531 
L 3431 531 
L 3431 0 
L 469 0 
L 469 531 
Q 828 903 1448 1529 
Q 2069 2156 2228 2338 
Q 2531 2678 2651 2914 
Q 2772 3150 2772 3378 
Q 2772 3750 2511 3984 
Q 2250 4219 1831 4219 
Q 1534 4219 1204 4116 
Q 875 4013 500 3803 
L 500 4441 
Q 881 4594 1212 4672 
Q 1544 4750 1819 4750 
Q 2544 4750 2975 4387 
Q 3406 4025 3406 3419 
Q 3406 3131 3298 2873 
Q 3191 2616 2906 2266 
Q 2828 2175 2409 1742 
Q 1991 1309 1228 531 
z
" transform="scale(0.015625)"/>
        <path id="DejaVuSans-30" d="M 2034 4250 
Q 1547 4250 1301 3770 
Q 1056 3291 1056 2328 
Q 1056 1369 1301 889 
Q 1547 409 2034 409 
Q 2525 409 2770 889 
Q 3016 1369 3016 2328 
Q 3016 3291 2770 3770 
Q 2525 4250 2034 4250 
z
M 2034 4750 
Q 2819 4750 3233 4129 
Q 3647 3509 3647 2328 
Q 3647 1150 3233 529 
Q 2819 -91 2034 -91 
Q 1250 -91 836 529 
Q 422 1150 422 2328 
Q 422 3509 836 4129 
Q 1250 4750 2034 4750 
z
" transform="scale(0.015625)"/>
       </defs>
       <use xlink:href="#DejaVuSans-32"/>
       <use xlink:href="#DejaVuSans-30" x="63.623047"/>
       <use xlink:href="#DejaVuSans-30" x="127.246094"/>
      </g>
     </g>
    </g>
    <g id="xtick_2">
     <g id="line2d_2">
      <g>
       <use xlink:href="#m1a54b170bd" x="144.940326" y="242.44" style="stroke: #000000; stroke-width: 0.8"/>
      </g>
     </g>
     <g id="text_2">
      <!-- 250 -->
      <g transform="translate(135.396576 257.038437) scale(0.1 -0.1)">
       <defs>
        <path id="DejaVuSans-35" d="M 691 4666 
L 3169 4666 
L 3169 4134 
L 1269 4134 
L 1269 2991 
Q 1406 3038 1543 3061 
Q 1681 3084 1819 3084 
Q 2600 3084 3056 2656 
Q 3513 2228 3513 1497 
Q 3513 744 3044 326 
Q 2575 -91 1722 -91 
Q 1428 -91 1123 -41 
Q 819 9 494 109 
L 494 744 
Q 775 591 1075 516 
Q 1375 441 1709 441 
Q 2250 441 2565 725 
Q 2881 1009 2881 1497 
Q 2881 1984 2565 2268 
Q 2250 2553 1709 2553 
Q 1456 2553 1204 2497 
Q 953 2441 691 2322 
L 691 4666 
z
" transform="scale(0.015625)"/>
       </defs>
       <use xlink:href="#DejaVuSans-32"/>
       <use xlink:href="#DejaVuSans-35" x="63.623047"/>
       <use xlink:href="#DejaVuSans-30" x="127.246094"/>
      </g>
     </g>
    </g>
    <g id="xtick_3">
     <g id="line2d_3">
      <g>
       <use xlink:href="#m1a54b170bd" x="192.581566" y="242.44" style="stroke: #000000; stroke-width: 0.8"/>
      </g>
     </g>
     <g id="text_3">
      <!-- 300 -->
      <g transform="translate(183.037816 257.038437) scale(0.1 -0.1)">
       <defs>
        <path id="DejaVuSans-33" d="M 2597 2516 
Q 3050 2419 3304 2112 
Q 3559 1806 3559 1356 
Q 3559 666 3084 287 
Q 2609 -91 1734 -91 
Q 1441 -91 1130 -33 
Q 819 25 488 141 
L 488 750 
Q 750 597 1062 519 
Q 1375 441 1716 441 
Q 2309 441 2620 675 
Q 2931 909 2931 1356 
Q 2931 1769 2642 2001 
Q 2353 2234 1838 2234 
L 1294 2234 
L 1294 2753 
L 1863 2753 
Q 2328 2753 2575 2939 
Q 2822 3125 2822 3475 
Q 2822 3834 2567 4026 
Q 2313 4219 1838 4219 
Q 1578 4219 1281 4162 
Q 984 4106 628 3988 
L 628 4550 
Q 988 4650 1302 4700 
Q 1616 4750 1894 4750 
Q 2613 4750 3031 4423 
Q 3450 4097 3450 3541 
Q 3450 3153 3228 2886 
Q 3006 2619 2597 2516 
z
" transform="scale(0.015625)"/>
       </defs>
       <use xlink:href="#DejaVuSans-33"/>
       <use xlink:href="#DejaVuSans-30" x="63.623047"/>
       <use xlink:href="#DejaVuSans-30" x="127.246094"/>
      </g>
     </g>
    </g>
    <g id="xtick_4">
     <g id="line2d_4">
      <g>
       <use xlink:href="#m1a54b170bd" x="240.222807" y="242.44" style="stroke: #000000; stroke-width: 0.8"/>
      </g>
     </g>
     <g id="text_4">
      <!-- 350 -->
      <g transform="translate(230.679057 257.038437) scale(0.1 -0.1)">
       <use xlink:href="#DejaVuSans-33"/>
       <use xlink:href="#DejaVuSans-35" x="63.623047"/>
       <use xlink:href="#DejaVuSans-30" x="127.246094"/>
      </g>
     </g>
    </g>
    <g id="xtick_5">
     <g id="line2d_5">
      <g>
       <use xlink:href="#m1a54b170bd" x="287.864048" y="242.44" style="stroke: #000000; stroke-width: 0.8"/>
      </g>
     </g>
     <g id="text_5">
      <!-- 400 -->
      <g transform="translate(278.320298 257.038437) scale(0.1 -0.1)">
       <defs>
        <path id="DejaVuSans-34" d="M 2419 4116 
L 825 1625 
L 2419 1625 
L 2419 4116 
z
M 2253 4666 
L 3047 4666 
L 3047 1625 
L 3713 1625 
L 3713 1100 
L 3047 1100 
L 3047 0 
L 2419 0 
L 2419 1100 
L 313 1100 
L 313 1709 
L 2253 4666 
z
" transform="scale(0.015625)"/>
       </defs>
       <use xlink:href="#DejaVuSans-34"/>
       <use xlink:href="#DejaVuSans-30" x="63.623047"/>
       <use xlink:href="#DejaVuSans-30" x="127.246094"/>
      </g>
     </g>
    </g>
    <g id="xtick_6">
     <g id="line2d_6">
      <g>
       <use xlink:href="#m1a54b170bd" x="335.505289" y="242.44" style="stroke: #000000; stroke-width: 0.8"/>
      </g>
     </g>
     <g id="text_6">
      <!-- 450 -->
      <g transform="translate(325.961539 257.038437) scale(0.1 -0.1)">
       <use xlink:href="#DejaVuSans-34"/>
       <use xlink:href="#DejaVuSans-35" x="63.623047"/>
       <use xlink:href="#DejaVuSans-30" x="127.246094"/>
      </g>
     </g>
    </g>
    <g id="text_7">
     <!-- Primary Production (mg C m−2 h−1) -->
     <g transform="translate(107.014513 270.716562) scale(0.1 -0.1)">
      <defs>
       <path id="DejaVuSans-50" d="M 1259 4147 
L 1259 2394 
L 2053 2394 
Q 2494 2394 2734 2622 
Q 2975 2850 2975 3272 
Q 2975 3691 2734 3919 
Q 2494 4147 2053 4147 
L 1259 4147 
z
M 628 4666 
L 2053 4666 
Q 2838 4666 3239 4311 
Q 3641 3956 3641 3272 
Q 3641 2581 3239 2228 
Q 2838 1875 2053 1875 
L 1259 1875 
L 1259 0 
L 628 0 
L 628 4666 
z
" transform="scale(0.015625)"/>
       <path id="DejaVuSans-72" d="M 2631 2963 
Q 2534 3019 2420 3045 
Q 2306 3072 2169 3072 
Q 1681 3072 1420 2755 
Q 1159 2438 1159 1844 
L 1159 0 
L 581 0 
L 581 3500 
L 1159 3500 
L 1159 2956 
Q 1341 3275 1631 3429 
Q 1922 3584 2338 3584 
Q 2397 3584 2469 3576 
Q 2541 3569 2628 3553 
L 2631 2963 
z
" transform="scale(0.015625)"/>
       <path id="DejaVuSans-69" d="M 603 3500 
L 1178 3500 
L 1178 0 
L 603 0 
L 603 3500 
z
M 603 4863 
L 1178 4863 
L 1178 4134 
L 603 4134 
L 603 4863 
z
" transform="scale(0.015625)"/>
       <path id="DejaVuSans-6d" d="M 3328 2828 
Q 3544 3216 3844 3400 
Q 4144 3584 4550 3584 
Q 5097 3584 5394 3201 
Q 5691 2819 5691 2113 
L 5691 0 
L 5113 0 
L 5113 2094 
Q 5113 2597 4934 2840 
Q 4756 3084 4391 3084 
Q 3944 3084 3684 2787 
Q 3425 2491 3425 1978 
L 3425 0 
L 2847 0 
L 2847 2094 
Q 2847 2600 2669 2842 
Q 2491 3084 2119 3084 
Q 1678 3084 1418 2786 
Q 1159 2488 1159 1978 
L 1159 0 
L 581 0 
L 581 3500 
L 1159 3500 
L 1159 2956 
Q 1356 3278 1631 3431 
Q 1906 3584 2284 3584 
Q 2666 3584 2933 3390 
Q 3200 3197 3328 2828 
z
" transform="scale(0.015625)"/>
       <path id="DejaVuSans-61" d="M 2194 1759 
Q 1497 1759 1228 1600 
Q 959 1441 959 1056 
Q 959 750 1161 570 
Q 1363 391 1709 391 
Q 2188 391 2477 730 
Q 2766 1069 2766 1631 
L 2766 1759 
L 2194 1759 
z
M 3341 1997 
L 3341 0 
L 2766 0 
L 2766 531 
Q 2569 213 2275 61 
Q 1981 -91 1556 -91 
Q 1019 -91 701 211 
Q 384 513 384 1019 
Q 384 1609 779 1909 
Q 1175 2209 1959 2209 
L 2766 2209 
L 2766 2266 
Q 2766 2663 2505 2880 
Q 2244 3097 1772 3097 
Q 1472 3097 1187 3025 
Q 903 2953 641 2809 
L 641 3341 
Q 956 3463 1253 3523 
Q 1550 3584 1831 3584 
Q 2591 3584 2966 3190 
Q 3341 2797 3341 1997 
z
" transform="scale(0.015625)"/>
       <path id="DejaVuSans-79" d="M 2059 -325 
Q 1816 -950 1584 -1140 
Q 1353 -1331 966 -1331 
L 506 -1331 
L 506 -850 
L 844 -850 
Q 1081 -850 1212 -737 
Q 1344 -625 1503 -206 
L 1606 56 
L 191 3500 
L 800 3500 
L 1894 763 
L 2988 3500 
L 3597 3500 
L 2059 -325 
z
" transform="scale(0.015625)"/>
       <path id="DejaVuSans-20" transform="scale(0.015625)"/>
       <path id="DejaVuSans-6f" d="M 1959 3097 
Q 1497 3097 1228 2736 
Q 959 2375 959 1747 
Q 959 1119 1226 758 
Q 1494 397 1959 397 
Q 2419 397 2687 759 
Q 2956 1122 2956 1747 
Q 2956 2369 2687 2733 
Q 2419 3097 1959 3097 
z
M 1959 3584 
Q 2709 3584 3137 3096 
Q 3566 2609 3566 1747 
Q 3566 888 3137 398 
Q 2709 -91 1959 -91 
Q 1206 -91 779 398 
Q 353 888 353 1747 
Q 353 2609 779 3096 
Q 1206 3584 1959 3584 
z
" transform="scale(0.015625)"/>
       <path id="DejaVuSans-64" d="M 2906 2969 
L 2906 4863 
L 3481 4863 
L 3481 0 
L 2906 0 
L 2906 525 
Q 2725 213 2448 61 
Q 2172 -91 1784 -91 
Q 1150 -91 751 415 
Q 353 922 353 1747 
Q 353 2572 751 3078 
Q 1150 3584 1784 3584 
Q 2172 3584 2448 3432 
Q 2725 3281 2906 2969 
z
M 947 1747 
Q 947 1113 1208 752 
Q 1469 391 1925 391 
Q 2381 391 2643 752 
Q 2906 1113 2906 1747 
Q 2906 2381 2643 2742 
Q 2381 3103 1925 3103 
Q 1469 3103 1208 2742 
Q 947 2381 947 1747 
z
" transform="scale(0.015625)"/>
       <path id="DejaVuSans-75" d="M 544 1381 
L 544 3500 
L 1119 3500 
L 1119 1403 
Q 1119 906 1312 657 
Q 1506 409 1894 409 
Q 2359 409 2629 706 
Q 2900 1003 2900 1516 
L 2900 3500 
L 3475 3500 
L 3475 0 
L 2900 0 
L 2900 538 
Q 2691 219 2414 64 
Q 2138 -91 1772 -91 
Q 1169 -91 856 284 
Q 544 659 544 1381 
z
M 1991 3584 
L 1991 3584 
z
" transform="scale(0.015625)"/>
       <path id="DejaVuSans-63" d="M 3122 3366 
L 3122 2828 
Q 2878 2963 2633 3030 
Q 2388 3097 2138 3097 
Q 1578 3097 1268 2742 
Q 959 2388 959 1747 
Q 959 1106 1268 751 
Q 1578 397 2138 397 
Q 2388 397 2633 464 
Q 2878 531 3122 666 
L 3122 134 
Q 2881 22 2623 -34 
Q 2366 -91 2075 -91 
Q 1284 -91 818 406 
Q 353 903 353 1747 
Q 353 2603 823 3093 
Q 1294 3584 2113 3584 
Q 2378 3584 2631 3529 
Q 2884 3475 3122 3366 
z
" transform="scale(0.015625)"/>
       <path id="DejaVuSans-74" d="M 1172 4494 
L 1172 3500 
L 2356 3500 
L 2356 3053 
L 1172 3053 
L 1172 1153 
Q 1172 725 1289 603 
Q 1406 481 1766 481 
L 2356 481 
L 2356 0 
L 1766 0 
Q 1100 0 847 248 
Q 594 497 594 1153 
L 594 3053 
L 172 3053 
L 172 3500 
L 594 3500 
L 594 4494 
L 1172 4494 
z
" transform="scale(0.015625)"/>
       <path id="DejaVuSans-6e" d="M 3513 2113 
L 3513 0 
L 2938 0 
L 2938 2094 
Q 2938 2591 2744 2837 
Q 2550 3084 2163 3084 
Q 1697 3084 1428 2787 
Q 1159 2491 1159 1978 
L 1159 0 
L 581 0 
L 581 3500 
L 1159 3500 
L 1159 2956 
Q 1366 3272 1645 3428 
Q 1925 3584 2291 3584 
Q 2894 3584 3203 3211 
Q 3513 2838 3513 2113 
z
" transform="scale(0.015625)"/>
       <path id="DejaVuSans-28" d="M 1984 4856 
Q 1566 4138 1362 3434 
Q 1159 2731 1159 2009 
Q 1159 1288 1364 580 
Q 1569 -128 1984 -844 
L 1484 -844 
Q 1016 -109 783 600 
Q 550 1309 550 2009 
Q 550 2706 781 3412 
Q 1013 4119 1484 4856 
L 1984 4856 
z
" transform="scale(0.015625)"/>
       <path id="DejaVuSans-67" d="M 2906 1791 
Q 2906 2416 2648 2759 
Q 2391 3103 1925 3103 
Q 1463 3103 1205 2759 
Q 947 2416 947 1791 
Q 947 1169 1205 825 
Q 1463 481 1925 481 
Q 2391 481 2648 825 
Q 2906 1169 2906 1791 
z
M 3481 434 
Q 3481 -459 3084 -895 
Q 2688 -1331 1869 -1331 
Q 1566 -1331 1297 -1286 
Q 1028 -1241 775 -1147 
L 775 -588 
Q 1028 -725 1275 -790 
Q 1522 -856 1778 -856 
Q 2344 -856 2625 -561 
Q 2906 -266 2906 331 
L 2906 616 
Q 2728 306 2450 153 
Q 2172 0 1784 0 
Q 1141 0 747 490 
Q 353 981 353 1791 
Q 353 2603 747 3093 
Q 1141 3584 1784 3584 
Q 2172 3584 2450 3431 
Q 2728 3278 2906 2969 
L 2906 3500 
L 3481 3500 
L 3481 434 
z
" transform="scale(0.015625)"/>
       <path id="DejaVuSans-43" d="M 4122 4306 
L 4122 3641 
Q 3803 3938 3442 4084 
Q 3081 4231 2675 4231 
Q 1875 4231 1450 3742 
Q 1025 3253 1025 2328 
Q 1025 1406 1450 917 
Q 1875 428 2675 428 
Q 3081 428 3442 575 
Q 3803 722 4122 1019 
L 4122 359 
Q 3791 134 3420 21 
Q 3050 -91 2638 -91 
Q 1578 -91 968 557 
Q 359 1206 359 2328 
Q 359 3453 968 4101 
Q 1578 4750 2638 4750 
Q 3056 4750 3426 4639 
Q 3797 4528 4122 4306 
z
" transform="scale(0.015625)"/>
       <path id="DejaVuSans-2212" d="M 678 2272 
L 4684 2272 
L 4684 1741 
L 678 1741 
L 678 2272 
z
" transform="scale(0.015625)"/>
       <path id="DejaVuSans-68" d="M 3513 2113 
L 3513 0 
L 2938 0 
L 2938 2094 
Q 2938 2591 2744 2837 
Q 2550 3084 2163 3084 
Q 1697 3084 1428 2787 
Q 1159 2491 1159 1978 
L 1159 0 
L 581 0 
L 581 4863 
L 1159 4863 
L 1159 2956 
Q 1366 3272 1645 3428 
Q 1925 3584 2291 3584 
Q 2894 3584 3203 3211 
Q 3513 2838 3513 2113 
z
" transform="scale(0.015625)"/>
       <path id="DejaVuSans-31" d="M 794 531 
L 1825 531 
L 1825 4091 
L 703 3866 
L 703 4441 
L 1819 4666 
L 2450 4666 
L 2450 531 
L 3481 531 
L 3481 0 
L 794 0 
L 794 531 
z
" transform="scale(0.015625)"/>
       <path id="DejaVuSans-29" d="M 513 4856 
L 1013 4856 
Q 1481 4119 1714 3412 
Q 1947 2706 1947 2009 
Q 1947 1309 1714 600 
Q 1481 -109 1013 -844 
L 513 -844 
Q 928 -128 1133 580 
Q 1338 1288 1338 2009 
Q 1338 2731 1133 3434 
Q 928 4138 513 4856 
z
" transform="scale(0.015625)"/>
      </defs>
      <use xlink:href="#DejaVuSans-50"/>
      <use xlink:href="#DejaVuSans-72" x="58.552734"/>
      <use xlink:href="#DejaVuSans-69" x="99.666016"/>
      <use xlink:href="#DejaVuSans-6d" x="127.449219"/>
      <use xlink:href="#DejaVuSans-61" x="224.861328"/>
      <use xlink:href="#DejaVuSans-72" x="286.140625"/>
      <use xlink:href="#DejaVuSans-79" x="327.253906"/>
      <use xlink:href="#DejaVuSans-20" x="386.433594"/>
      <use xlink:href="#DejaVuSans-50" x="418.220703"/>
      <use xlink:href="#DejaVuSans-72" x="476.773438"/>
      <use xlink:href="#DejaVuSans-6f" x="515.636719"/>
      <use xlink:href="#DejaVuSans-64" x="576.818359"/>
      <use xlink:href="#DejaVuSans-75" x="640.294922"/>
      <use xlink:href="#DejaVuSans-63" x="703.673828"/>
      <use xlink:href="#DejaVuSans-74" x="758.654297"/>
      <use xlink:href="#DejaVuSans-69" x="797.863281"/>
      <use xlink:href="#DejaVuSans-6f" x="825.646484"/>
      <use xlink:href="#DejaVuSans-6e" x="886.828125"/>
      <use xlink:href="#DejaVuSans-20" x="950.207031"/>
      <use xlink:href="#DejaVuSans-28" x="981.994141"/>
      <use xlink:href="#DejaVuSans-6d" x="1021.007812"/>
      <use xlink:href="#DejaVuSans-67" x="1118.419922"/>
      <use xlink:href="#DejaVuSans-20" x="1181.896484"/>
      <use xlink:href="#DejaVuSans-43" x="1213.683594"/>
      <use xlink:href="#DejaVuSans-20" x="1283.507812"/>
      <use xlink:href="#DejaVuSans-6d" x="1315.294922"/>
      <use xlink:href="#DejaVuSans-2212" x="1412.707031"/>
      <use xlink:href="#DejaVuSans-32" x="1496.496094"/>
      <use xlink:href="#DejaVuSans-20" x="1560.119141"/>
      <use xlink:href="#DejaVuSans-68" x="1591.90625"/>
      <use xlink:href="#DejaVuSans-2212" x="1655.285156"/>
      <use xlink:href="#DejaVuSans-31" x="1739.074219"/>
      <use xlink:href="#DejaVuSans-29" x="1802.697266"/>
     </g>
    </g>
   </g>
   <g id="matplotlib.axis_2">
    <g id="ytick_1">
     <g id="line2d_7">
      <defs>
       <path id="m91f302364b" d="M 0 0 
L -3.5 0 
" style="stroke: #000000; stroke-width: 0.8"/>
      </defs>
      <g>
       <use xlink:href="#m91f302364b" x="53.328125" y="230.884308" style="stroke: #000000; stroke-width: 0.8"/>
      </g>
     </g>
     <g id="text_8">
      <!-- 500 -->
      <g transform="translate(27.240625 234.683527) scale(0.1 -0.1)">
       <use xlink:href="#DejaVuSans-35"/>
       <use xlink:href="#DejaVuSans-30" x="63.623047"/>
       <use xlink:href="#DejaVuSans-30" x="127.246094"/>
      </g>
     </g>
    </g>
    <g id="ytick_2">
     <g id="line2d_8">
      <g>
       <use xlink:href="#m91f302364b" x="53.328125" y="200.458238" style="stroke: #000000; stroke-width: 0.8"/>
      </g>
     </g>
     <g id="text_9">
      <!-- 750 -->
      <g transform="translate(27.240625 204.257456) scale(0.1 -0.1)">
       <defs>
        <path id="DejaVuSans-37" d="M 525 4666 
L 3525 4666 
L 3525 4397 
L 1831 0 
L 1172 0 
L 2766 4134 
L 525 4134 
L 525 4666 
z
" transform="scale(0.015625)"/>
       </defs>
       <use xlink:href="#DejaVuSans-37"/>
       <use xlink:href="#DejaVuSans-35" x="63.623047"/>
       <use xlink:href="#DejaVuSans-30" x="127.246094"/>
      </g>
     </g>
    </g>
    <g id="ytick_3">
     <g id="line2d_9">
      <g>
       <use xlink:href="#m91f302364b" x="53.328125" y="170.032167" style="stroke: #000000; stroke-width: 0.8"/>
      </g>
     </g>
     <g id="text_10">
      <!-- 1000 -->
      <g transform="translate(20.878125 173.831386) scale(0.1 -0.1)">
       <use xlink:href="#DejaVuSans-31"/>
       <use xlink:href="#DejaVuSans-30" x="63.623047"/>
       <use xlink:href="#DejaVuSans-30" x="127.246094"/>
       <use xlink:href="#DejaVuSans-30" x="190.869141"/>
      </g>
     </g>
    </g>
    <g id="ytick_4">
     <g id="line2d_10">
      <g>
       <use xlink:href="#m91f302364b" x="53.328125" y="139.606097" style="stroke: #000000; stroke-width: 0.8"/>
      </g>
     </g>
     <g id="text_11">
      <!-- 1250 -->
      <g transform="translate(20.878125 143.405315) scale(0.1 -0.1)">
       <use xlink:href="#DejaVuSans-31"/>
       <use xlink:href="#DejaVuSans-32" x="63.623047"/>
       <use xlink:href="#DejaVuSans-35" x="127.246094"/>
       <use xlink:href="#DejaVuSans-30" x="190.869141"/>
      </g>
     </g>
    </g>
    <g id="ytick_5">
     <g id="line2d_11">
      <g>
       <use xlink:href="#m91f302364b" x="53.328125" y="109.180026" style="stroke: #000000; stroke-width: 0.8"/>
      </g>
     </g>
     <g id="text_12">
      <!-- 1500 -->
      <g transform="translate(20.878125 112.979245) scale(0.1 -0.1)">
       <use xlink:href="#DejaVuSans-31"/>
       <use xlink:href="#DejaVuSans-35" x="63.623047"/>
       <use xlink:href="#DejaVuSans-30" x="127.246094"/>
       <use xlink:href="#DejaVuSans-30" x="190.869141"/>
      </g>
     </g>
    </g>
    <g id="ytick_6">
     <g id="line2d_12">
      <g>
       <use xlink:href="#m91f302364b" x="53.328125" y="78.753956" style="stroke: #000000; stroke-width: 0.8"/>
      </g>
     </g>
     <g id="text_13">
      <!-- 1750 -->
      <g transform="translate(20.878125 82.553174) scale(0.1 -0.1)">
       <use xlink:href="#DejaVuSans-31"/>
       <use xlink:href="#DejaVuSans-37" x="63.623047"/>
       <use xlink:href="#DejaVuSans-35" x="127.246094"/>
       <use xlink:href="#DejaVuSans-30" x="190.869141"/>
      </g>
     </g>
    </g>
    <g id="ytick_7">
     <g id="line2d_13">
      <g>
       <use xlink:href="#m91f302364b" x="53.328125" y="48.327885" style="stroke: #000000; stroke-width: 0.8"/>
      </g>
     </g>
     <g id="text_14">
      <!-- 2000 -->
      <g transform="translate(20.878125 52.127104) scale(0.1 -0.1)">
       <use xlink:href="#DejaVuSans-32"/>
       <use xlink:href="#DejaVuSans-30" x="63.623047"/>
       <use xlink:href="#DejaVuSans-30" x="127.246094"/>
       <use xlink:href="#DejaVuSans-30" x="190.869141"/>
      </g>
     </g>
    </g>
    <g id="ytick_8">
     <g id="line2d_14">
      <g>
       <use xlink:href="#m91f302364b" x="53.328125" y="17.901815" style="stroke: #000000; stroke-width: 0.8"/>
      </g>
     </g>
     <g id="text_15">
      <!-- 2250 -->
      <g transform="translate(20.878125 21.701033) scale(0.1 -0.1)">
       <use xlink:href="#DejaVuSans-32"/>
       <use xlink:href="#DejaVuSans-32" x="63.623047"/>
       <use xlink:href="#DejaVuSans-35" x="127.246094"/>
       <use xlink:href="#DejaVuSans-30" x="190.869141"/>
      </g>
     </g>
    </g>
    <g id="text_16">
     <!-- TEP concentration (µg XG eq. L-1) -->
     <g transform="translate(14.798438 209.702031) rotate(-90) scale(0.1 -0.1)">
      <defs>
       <path id="DejaVuSans-54" d="M -19 4666 
L 3928 4666 
L 3928 4134 
L 2272 4134 
L 2272 0 
L 1638 0 
L 1638 4134 
L -19 4134 
L -19 4666 
z
" transform="scale(0.015625)"/>
       <path id="DejaVuSans-45" d="M 628 4666 
L 3578 4666 
L 3578 4134 
L 1259 4134 
L 1259 2753 
L 3481 2753 
L 3481 2222 
L 1259 2222 
L 1259 531 
L 3634 531 
L 3634 0 
L 628 0 
L 628 4666 
z
" transform="scale(0.015625)"/>
       <path id="DejaVuSans-65" d="M 3597 1894 
L 3597 1613 
L 953 1613 
Q 991 1019 1311 708 
Q 1631 397 2203 397 
Q 2534 397 2845 478 
Q 3156 559 3463 722 
L 3463 178 
Q 3153 47 2828 -22 
Q 2503 -91 2169 -91 
Q 1331 -91 842 396 
Q 353 884 353 1716 
Q 353 2575 817 3079 
Q 1281 3584 2069 3584 
Q 2775 3584 3186 3129 
Q 3597 2675 3597 1894 
z
M 3022 2063 
Q 3016 2534 2758 2815 
Q 2500 3097 2075 3097 
Q 1594 3097 1305 2825 
Q 1016 2553 972 2059 
L 3022 2063 
z
" transform="scale(0.015625)"/>
       <path id="DejaVuSans-b5" d="M 544 -1331 
L 544 3500 
L 1119 3500 
L 1119 1325 
Q 1119 872 1334 640 
Q 1550 409 1972 409 
Q 2434 409 2667 671 
Q 2900 934 2900 1459 
L 2900 3500 
L 3475 3500 
L 3475 806 
Q 3475 619 3529 530 
Q 3584 441 3700 441 
Q 3728 441 3778 458 
Q 3828 475 3916 513 
L 3916 50 
Q 3788 -22 3673 -56 
Q 3559 -91 3450 -91 
Q 3234 -91 3106 31 
Q 2978 153 2931 403 
Q 2775 156 2548 32 
Q 2322 -91 2016 -91 
Q 1697 -91 1473 31 
Q 1250 153 1119 397 
L 1119 -1331 
L 544 -1331 
z
" transform="scale(0.015625)"/>
       <path id="DejaVuSans-58" d="M 403 4666 
L 1081 4666 
L 2241 2931 
L 3406 4666 
L 4084 4666 
L 2584 2425 
L 4184 0 
L 3506 0 
L 2194 1984 
L 872 0 
L 191 0 
L 1856 2491 
L 403 4666 
z
" transform="scale(0.015625)"/>
       <path id="DejaVuSans-47" d="M 3809 666 
L 3809 1919 
L 2778 1919 
L 2778 2438 
L 4434 2438 
L 4434 434 
Q 4069 175 3628 42 
Q 3188 -91 2688 -91 
Q 1594 -91 976 548 
Q 359 1188 359 2328 
Q 359 3472 976 4111 
Q 1594 4750 2688 4750 
Q 3144 4750 3555 4637 
Q 3966 4525 4313 4306 
L 4313 3634 
Q 3963 3931 3569 4081 
Q 3175 4231 2741 4231 
Q 1884 4231 1454 3753 
Q 1025 3275 1025 2328 
Q 1025 1384 1454 906 
Q 1884 428 2741 428 
Q 3075 428 3337 486 
Q 3600 544 3809 666 
z
" transform="scale(0.015625)"/>
       <path id="DejaVuSans-71" d="M 947 1747 
Q 947 1113 1208 752 
Q 1469 391 1925 391 
Q 2381 391 2643 752 
Q 2906 1113 2906 1747 
Q 2906 2381 2643 2742 
Q 2381 3103 1925 3103 
Q 1469 3103 1208 2742 
Q 947 2381 947 1747 
z
M 2906 525 
Q 2725 213 2448 61 
Q 2172 -91 1784 -91 
Q 1150 -91 751 415 
Q 353 922 353 1747 
Q 353 2572 751 3078 
Q 1150 3584 1784 3584 
Q 2172 3584 2448 3432 
Q 2725 3281 2906 2969 
L 2906 3500 
L 3481 3500 
L 3481 -1331 
L 2906 -1331 
L 2906 525 
z
" transform="scale(0.015625)"/>
       <path id="DejaVuSans-2e" d="M 684 794 
L 1344 794 
L 1344 0 
L 684 0 
L 684 794 
z
" transform="scale(0.015625)"/>
       <path id="DejaVuSans-4c" d="M 628 4666 
L 1259 4666 
L 1259 531 
L 3531 531 
L 3531 0 
L 628 0 
L 628 4666 
z
" transform="scale(0.015625)"/>
       <path id="DejaVuSans-2d" d="M 313 2009 
L 1997 2009 
L 1997 1497 
L 313 1497 
L 313 2009 
z
" transform="scale(0.015625)"/>
      </defs>
      <use xlink:href="#DejaVuSans-54"/>
      <use xlink:href="#DejaVuSans-45" x="61.083984"/>
      <use xlink:href="#DejaVuSans-50" x="124.267578"/>
      <use xlink:href="#DejaVuSans-20" x="184.570312"/>
      <use xlink:href="#DejaVuSans-63" x="216.357422"/>
      <use xlink:href="#DejaVuSans-6f" x="271.337891"/>
      <use xlink:href="#DejaVuSans-6e" x="332.519531"/>
      <use xlink:href="#DejaVuSans-63" x="395.898438"/>
      <use xlink:href="#DejaVuSans-65" x="450.878906"/>
      <use xlink:href="#DejaVuSans-6e" x="512.402344"/>
      <use xlink:href="#DejaVuSans-74" x="575.78125"/>
      <use xlink:href="#DejaVuSans-72" x="614.990234"/>
      <use xlink:href="#DejaVuSans-61" x="656.103516"/>
      <use xlink:href="#DejaVuSans-74" x="717.382812"/>
      <use xlink:href="#DejaVuSans-69" x="756.591797"/>
      <use xlink:href="#DejaVuSans-6f" x="784.375"/>
      <use xlink:href="#DejaVuSans-6e" x="845.556641"/>
      <use xlink:href="#DejaVuSans-20" x="908.935547"/>
      <use xlink:href="#DejaVuSans-28" x="940.722656"/>
      <use xlink:href="#DejaVuSans-b5" x="979.736328"/>
      <use xlink:href="#DejaVuSans-67" x="1043.359375"/>
      <use xlink:href="#DejaVuSans-20" x="1106.835938"/>
      <use xlink:href="#DejaVuSans-58" x="1138.623047"/>
      <use xlink:href="#DejaVuSans-47" x="1207.128906"/>
      <use xlink:href="#DejaVuSans-20" x="1284.619141"/>
      <use xlink:href="#DejaVuSans-65" x="1316.40625"/>
      <use xlink:href="#DejaVuSans-71" x="1377.929688"/>
      <use xlink:href="#DejaVuSans-2e" x="1441.40625"/>
      <use xlink:href="#DejaVuSans-20" x="1473.193359"/>
      <use xlink:href="#DejaVuSans-4c" x="1504.980469"/>
      <use xlink:href="#DejaVuSans-2d" x="1558.943359"/>
      <use xlink:href="#DejaVuSans-31" x="1595.027344"/>
      <use xlink:href="#DejaVuSans-29" x="1658.650391"/>
     </g>
    </g>
   </g>
   <g id="line2d_15">
    <path d="M 66.580013 191.937628 
L 69.257162 191.081103 
L 71.934311 190.224579 
L 74.61146 189.368055 
L 77.288609 188.511531 
L 79.965758 187.655006 
L 82.642907 186.798482 
L 85.320056 185.941958 
L 87.997205 185.085434 
L 90.674354 184.22891 
L 93.351503 183.372385 
L 96.028652 182.515861 
L 98.705801 181.659337 
L 101.38295 180.802813 
L 104.060099 179.946288 
L 106.737248 179.089764 
L 109.414397 178.23324 
L 112.091546 177.376716 
L 114.768695 176.520192 
L 117.445844 175.663667 
L 120.122993 174.807143 
L 122.800142 173.950619 
L 125.477291 173.094095 
L 128.15444 172.23757 
L 130.831589 171.381046 
L 133.508738 170.524522 
L 136.185887 169.667998 
L 138.863036 168.811474 
L 141.540185 167.954949 
L 144.217334 167.098425 
L 146.894483 166.241901 
L 149.571632 165.385377 
L 152.248781 164.528852 
L 154.92593 163.672328 
L 157.603079 162.815804 
L 160.280228 161.95928 
L 162.957377 161.102756 
L 165.634526 160.246231 
L 168.311675 159.389707 
L 170.988824 158.533183 
L 173.665973 157.676659 
L 176.343122 156.820134 
L 179.020271 155.96361 
L 181.69742 155.107086 
L 184.374569 154.250562 
L 187.051718 153.394038 
L 189.728867 152.537513 
L 192.406016 151.680989 
L 195.083165 150.824465 
L 197.760314 149.967941 
L 200.437463 149.111416 
L 203.114612 148.254892 
L 205.791761 147.398368 
L 208.46891 146.541844 
L 211.146059 145.68532 
L 213.823208 144.828795 
L 216.500357 143.972271 
L 219.177506 143.115747 
L 221.854655 142.259223 
L 224.531804 141.402698 
L 227.208953 140.546174 
L 229.886102 139.68965 
L 232.563251 138.833126 
L 235.2404 137.976601 
L 237.917549 137.120077 
L 240.594698 136.263553 
L 243.271847 135.407029 
L 245.948996 134.550505 
L 248.626145 133.69398 
L 251.303294 132.837456 
L 253.980443 131.980932 
L 256.657592 131.124408 
L 259.334741 130.267883 
L 262.01189 129.411359 
L 264.689039 128.554835 
L 267.366188 127.698311 
L 270.043337 126.841787 
L 272.720486 125.985262 
L 275.397635 125.128738 
L 278.074784 124.272214 
L 280.751933 123.41569 
L 283.429082 122.559165 
L 286.106231 121.702641 
L 288.78338 120.846117 
L 291.460529 119.989593 
L 294.137678 119.133069 
L 296.814827 118.276544 
L 299.491976 117.42002 
L 302.169125 116.563496 
L 304.846274 115.706972 
L 307.523423 114.850447 
L 310.200572 113.993923 
L 312.877721 113.137399 
L 315.55487 112.280875 
L 318.232019 111.424351 
L 320.909168 110.567826 
L 323.586317 109.711302 
L 326.263466 108.854778 
L 328.940615 107.998254 
L 331.617764 107.141729 
" clip-path="url(#pef43267d14)" style="fill: none; stroke: #808080; stroke-width: 2.25; stroke-linecap: square"/>
   </g>
   <g id="line2d_16"/>
   <g id="line2d_17"/>
   <g id="line2d_18"/>
   <g id="line2d_19"/>
   <g id="line2d_20"/>
   <g id="patch_3">
    <path d="M 53.328125 242.44 
L 53.328125 7.2 
" style="fill: none; stroke: #000000; stroke-width: 0.8; stroke-linejoin: miter; stroke-linecap: square"/>
   </g>
   <g id="patch_4">
    <path d="M 344.869651 242.44 
L 344.869651 7.2 
" style="fill: none; stroke: #000000; stroke-width: 0.8; stroke-linejoin: miter; stroke-linecap: square"/>
   </g>
   <g id="patch_5">
    <path d="M 53.328125 242.44 
L 344.869651 242.44 
" style="fill: none; stroke: #000000; stroke-width: 0.8; stroke-linejoin: miter; stroke-linecap: square"/>
   </g>
   <g id="patch_6">
    <path d="M 53.328125 7.2 
L 344.869651 7.2 
" style="fill: none; stroke: #000000; stroke-width: 0.8; stroke-linejoin: miter; stroke-linecap: square"/>
   </g>
   <g id="legend_1">
    <g id="patch_7">
     <path d="M 60.328125 103.26875 
L 121.639063 103.26875 
Q 123.639063 103.26875 123.639063 101.26875 
L 123.639063 14.2 
Q 123.639063 12.2 121.639063 12.2 
L 60.328125 12.2 
Q 58.328125 12.2 58.328125 14.2 
L 58.328125 101.26875 
Q 58.328125 103.26875 60.328125 103.26875 
z
" style="fill: #ffffff; opacity: 0.8; stroke: #cccccc; stroke-linejoin: miter"/>
    </g>
    <g id="text_17">
     <!-- Tide Height -->
     <g transform="translate(62.328125 23.798437) scale(0.1 -0.1)">
      <defs>
       <path id="DejaVuSans-48" d="M 628 4666 
L 1259 4666 
L 1259 2753 
L 3553 2753 
L 3553 4666 
L 4184 4666 
L 4184 0 
L 3553 0 
L 3553 2222 
L 1259 2222 
L 1259 0 
L 628 0 
L 628 4666 
z
" transform="scale(0.015625)"/>
      </defs>
      <use xlink:href="#DejaVuSans-54"/>
      <use xlink:href="#DejaVuSans-69" x="57.958984"/>
      <use xlink:href="#DejaVuSans-64" x="85.742188"/>
      <use xlink:href="#DejaVuSans-65" x="149.21875"/>
      <use xlink:href="#DejaVuSans-20" x="210.742188"/>
      <use xlink:href="#DejaVuSans-48" x="242.529297"/>
      <use xlink:href="#DejaVuSans-65" x="317.724609"/>
      <use xlink:href="#DejaVuSans-69" x="379.248047"/>
      <use xlink:href="#DejaVuSans-67" x="407.03125"/>
      <use xlink:href="#DejaVuSans-68" x="470.507812"/>
      <use xlink:href="#DejaVuSans-74" x="533.886719"/>
     </g>
    </g>
    <g id="line2d_21">
     <defs>
      <path id="m25311565a4" d="M 0 2.320231 
C 0.615332 2.320231 1.205545 2.075757 1.640651 1.640651 
C 2.075757 1.205545 2.320231 0.615332 2.320231 0 
C 2.320231 -0.615332 2.075757 -1.205545 1.640651 -1.640651 
C 1.205545 -2.075757 0.615332 -2.320231 0 -2.320231 
C -0.615332 -2.320231 -1.205545 -2.075757 -1.640651 -1.640651 
C -2.075757 -1.205545 -2.320231 -0.615332 -2.320231 0 
C -2.320231 0.615332 -2.075757 1.205545 -1.640651 1.640651 
C -1.205545 2.075757 -0.615332 2.320231 0 2.320231 
z
" style="stroke: #000000; stroke-width: 0.372336"/>
     </defs>
     <g>
      <use xlink:href="#m25311565a4" x="79.6125" y="34.976562" style="fill: #1f77b4; stroke: #000000; stroke-width: 0.372336"/>
     </g>
    </g>
    <g id="text_18">
     <!-- −2 -->
     <g transform="translate(97.6125 38.476562) scale(0.1 -0.1)">
      <use xlink:href="#DejaVuSans-2212"/>
      <use xlink:href="#DejaVuSans-32" x="83.789062"/>
     </g>
    </g>
    <g id="line2d_22">
     <defs>
      <path id="mebcfcea38a" d="M 0 2.839854 
C 0.753138 2.839854 1.475531 2.540629 2.00808 2.00808 
C 2.540629 1.475531 2.839854 0.753138 2.839854 0 
C 2.839854 -0.753138 2.540629 -1.475531 2.00808 -2.00808 
C 1.475531 -2.540629 0.753138 -2.839854 0 -2.839854 
C -0.753138 -2.839854 -1.475531 -2.540629 -2.00808 -2.00808 
C -2.540629 -1.475531 -2.839854 -0.753138 -2.839854 0 
C -2.839854 0.753138 -2.540629 1.475531 -2.00808 2.00808 
C -1.475531 2.540629 -0.753138 2.839854 0 2.839854 
z
" style="stroke: #000000; stroke-width: 0.372336"/>
     </defs>
     <g>
      <use xlink:href="#mebcfcea38a" x="79.6125" y="49.654687" style="fill: #1f77b4; stroke: #000000; stroke-width: 0.372336"/>
     </g>
    </g>
    <g id="text_19">
     <!-- −1 -->
     <g transform="translate(97.6125 53.154687) scale(0.1 -0.1)">
      <use xlink:href="#DejaVuSans-2212"/>
      <use xlink:href="#DejaVuSans-31" x="83.789062"/>
     </g>
    </g>
    <g id="line2d_23">
     <defs>
      <path id="me585906a1c" d="M 0 3.27812 
C 0.869368 3.27812 1.703245 2.932717 2.317981 2.317981 
C 2.932717 1.703245 3.27812 0.869368 3.27812 0 
C 3.27812 -0.869368 2.932717 -1.703245 2.317981 -2.317981 
C 1.703245 -2.932717 0.869368 -3.27812 0 -3.27812 
C -0.869368 -3.27812 -1.703245 -2.932717 -2.317981 -2.317981 
C -2.932717 -1.703245 -3.27812 -0.869368 -3.27812 0 
C -3.27812 0.869368 -2.932717 1.703245 -2.317981 2.317981 
C -1.703245 2.932717 -0.869368 3.27812 0 3.27812 
z
" style="stroke: #000000; stroke-width: 0.372336"/>
     </defs>
     <g>
      <use xlink:href="#me585906a1c" x="79.6125" y="64.332812" style="fill: #1f77b4; stroke: #000000; stroke-width: 0.372336"/>
     </g>
    </g>
    <g id="text_20">
     <!-- 0 -->
     <g transform="translate(97.6125 67.832812) scale(0.1 -0.1)">
      <use xlink:href="#DejaVuSans-30"/>
     </g>
    </g>
    <g id="line2d_24">
     <defs>
      <path id="m14fef9af44" d="M 0 3.664338 
C 0.971794 3.664338 1.903916 3.27824 2.591078 2.591078 
C 3.27824 1.903916 3.664338 0.971794 3.664338 0 
C 3.664338 -0.971794 3.27824 -1.903916 2.591078 -2.591078 
C 1.903916 -3.27824 0.971794 -3.664338 0 -3.664338 
C -0.971794 -3.664338 -1.903916 -3.27824 -2.591078 -2.591078 
C -3.27824 -1.903916 -3.664338 -0.971794 -3.664338 0 
C -3.664338 0.971794 -3.27824 1.903916 -2.591078 2.591078 
C -1.903916 3.27824 -0.971794 3.664338 0 3.664338 
z
" style="stroke: #000000; stroke-width: 0.372336"/>
     </defs>
     <g>
      <use xlink:href="#m14fef9af44" x="79.6125" y="79.010937" style="fill: #1f77b4; stroke: #000000; stroke-width: 0.372336"/>
     </g>
    </g>
    <g id="text_21">
     <!-- 1 -->
     <g transform="translate(97.6125 82.510937) scale(0.1 -0.1)">
      <use xlink:href="#DejaVuSans-31"/>
     </g>
    </g>
    <g id="line2d_25">
     <defs>
      <path id="m676aac5efe" d="M 0 4.013561 
C 1.064409 4.013561 2.085366 3.590667 2.838016 2.838016 
C 3.590667 2.085366 4.013561 1.064409 4.013561 0 
C 4.013561 -1.064409 3.590667 -2.085366 2.838016 -2.838016 
C 2.085366 -3.590667 1.064409 -4.013561 0 -4.013561 
C -1.064409 -4.013561 -2.085366 -3.590667 -2.838016 -2.838016 
C -3.590667 -2.085366 -4.013561 -1.064409 -4.013561 0 
C -4.013561 1.064409 -3.590667 2.085366 -2.838016 2.838016 
C -2.085366 3.590667 -1.064409 4.013561 0 4.013561 
z
" style="stroke: #000000; stroke-width: 0.372336"/>
     </defs>
     <g>
      <use xlink:href="#m676aac5efe" x="79.6125" y="93.689062" style="fill: #1f77b4; stroke: #000000; stroke-width: 0.372336"/>
     </g>
    </g>
    <g id="text_22">
     <!-- 2 -->
     <g transform="translate(97.6125 97.189062) scale(0.1 -0.1)">
      <use xlink:href="#DejaVuSans-32"/>
     </g>
    </g>
   </g>
  </g>
 </g>
 <defs>
  <clipPath id="pef43267d14">
   <rect x="53.328125" y="7.2" width="291.541526" height="235.24"/>
  </clipPath>
 </defs>
</svg>
