<?xml version="1.0" encoding="utf-8" standalone="no"?>
<!DOCTYPE svg PUBLIC "-//W3C//DTD SVG 1.1//EN"
  "http://www.w3.org/Graphics/SVG/1.1/DTD/svg11.dtd">
<svg xmlns:xlink="http://www.w3.org/1999/xlink" width="352.249039pt" height="279.99625pt" viewBox="0 0 352.249039 279.99625" xmlns="http://www.w3.org/2000/svg" version="1.1">
 <metadata>
  <rdf:RDF xmlns:dc="http://purl.org/dc/elements/1.1/" xmlns:cc="http://creativecommons.org/ns#" xmlns:rdf="http://www.w3.org/1999/02/22-rdf-syntax-ns#">
   <cc:Work>
    <dc:type rdf:resource="http://purl.org/dc/dcmitype/StillImage"/>
    <dc:date>2025-03-14T13:15:16.044720</dc:date>
    <dc:format>image/svg+xml</dc:format>
    <dc:creator>
     <cc:Agent>
      <dc:title>Matplotlib v3.8.3, https://matplotlib.org/</dc:title>
     </cc:Agent>
    </dc:creator>
   </cc:Work>
  </rdf:RDF>
 </metadata>
 <defs>
  <style type="text/css">*{stroke-linejoin: round; stroke-linecap: butt}</style>
 </defs>
 <g id="figure_1">
  <g id="patch_1">
   <path d="M 0 279.99625 
L 352.249039 279.99625 
L 352.249039 0 
L 0 0 
z
" style="fill: #ffffff"/>
  </g>
  <g id="axes_1">
   <g id="patch_2">
    <path d="M 53.328125 242.44 
L 344.869651 242.44 
L 344.869651 7.2 
L 53.328125 7.2 
z
" style="fill: #ffffff"/>
   </g>
   <g id="PolyCollection_1">
    <path d="M 66.580013 158.457767 
L 66.580013 220.886344 
L 69.257162 219.130971 
L 71.934311 217.721863 
L 74.61146 216.405722 
L 77.288609 215.015893 
L 79.965758 213.609326 
L 82.642907 212.146881 
L 85.320056 210.757725 
L 87.997205 209.366814 
L 90.674354 207.806891 
L 93.351503 206.585438 
L 96.028652 205.272364 
L 98.705801 203.705393 
L 101.38295 202.584977 
L 104.060099 201.343973 
L 106.737248 199.992992 
L 109.414397 198.816074 
L 112.091546 197.65501 
L 114.768695 196.451436 
L 117.445844 195.327871 
L 120.122993 194.143207 
L 122.800142 192.838203 
L 125.477291 191.745835 
L 128.15444 190.270804 
L 130.831589 189.117105 
L 133.508738 187.894529 
L 136.185887 186.939737 
L 138.863036 185.850243 
L 141.540185 184.62567 
L 144.217334 183.315868 
L 146.894483 182.337719 
L 149.571632 181.489686 
L 152.248781 180.396154 
L 154.92593 179.594653 
L 157.603079 178.489667 
L 160.280228 177.924916 
L 162.957377 177.286526 
L 165.634526 176.392076 
L 168.311675 175.670926 
L 170.988824 175.040217 
L 173.665973 174.613409 
L 176.343122 173.418111 
L 179.020271 172.408471 
L 181.69742 171.791064 
L 184.374569 171.118436 
L 187.051718 170.544086 
L 189.728867 169.988361 
L 192.406016 169.528637 
L 195.083165 168.546077 
L 197.760314 167.913161 
L 200.437463 167.454272 
L 203.114612 166.992845 
L 205.791761 166.531664 
L 208.46891 166.07913 
L 211.146059 165.62226 
L 213.823208 165.017672 
L 216.500357 164.516582 
L 219.177506 164.118118 
L 221.854655 163.801729 
L 224.531804 163.375738 
L 227.208953 162.894934 
L 229.886102 162.442738 
L 232.563251 161.983191 
L 235.2404 161.284772 
L 237.917549 161.07229 
L 240.594698 160.850733 
L 243.271847 160.424812 
L 245.948996 159.941415 
L 248.626145 159.458017 
L 251.303294 158.97462 
L 253.980443 158.490425 
L 256.657592 158.172675 
L 259.334741 157.630033 
L 262.01189 157.259663 
L 264.689039 156.820509 
L 267.366188 156.278766 
L 270.043337 155.856346 
L 272.720486 155.378772 
L 275.397635 154.896711 
L 278.074784 154.688847 
L 280.751933 154.382255 
L 283.429082 153.933271 
L 286.106231 153.687944 
L 288.78338 153.518016 
L 291.460529 153.348088 
L 294.137678 153.173579 
L 296.814827 152.942491 
L 299.491976 152.564101 
L 302.169125 152.465446 
L 304.846274 152.011075 
L 307.523423 151.438002 
L 310.200572 150.856958 
L 312.877721 150.274455 
L 315.55487 149.984418 
L 318.232019 149.838939 
L 320.909168 149.693461 
L 323.586317 149.403533 
L 326.263466 148.925674 
L 328.940615 148.440503 
L 331.617764 147.955332 
L 331.617764 56.55272 
L 331.617764 56.55272 
L 328.940615 58.225958 
L 326.263466 59.939532 
L 323.586317 61.566695 
L 320.909168 63.235257 
L 318.232019 64.903819 
L 315.55487 66.572382 
L 312.877721 68.160009 
L 310.200572 69.733881 
L 307.523423 71.012919 
L 304.846274 72.584513 
L 302.169125 74.156107 
L 299.491976 75.727702 
L 296.814827 77.303862 
L 294.137678 78.720138 
L 291.460529 80.061133 
L 288.78338 81.402128 
L 286.106231 82.743123 
L 283.429082 84.084119 
L 280.751933 85.426676 
L 278.074784 86.914752 
L 275.397635 88.603259 
L 272.720486 90.294907 
L 270.043337 92.131403 
L 267.366188 93.671907 
L 264.689039 95.357289 
L 262.01189 96.873554 
L 259.334741 98.527333 
L 256.657592 100.197956 
L 253.980443 101.373673 
L 251.303294 102.862107 
L 248.626145 104.366004 
L 245.948996 105.652651 
L 243.271847 107.184879 
L 240.594698 108.502956 
L 237.917549 110.256631 
L 235.2404 111.661887 
L 232.563251 113.102545 
L 229.886102 114.747659 
L 227.208953 116.226947 
L 224.531804 117.75587 
L 221.854655 118.906281 
L 219.177506 120.030691 
L 216.500357 121.302638 
L 213.823208 122.576779 
L 211.146059 123.853536 
L 208.46891 124.938039 
L 205.791761 125.800773 
L 203.114612 126.770333 
L 200.437463 127.687069 
L 197.760314 129.199091 
L 195.083165 130.151361 
L 192.406016 131.383104 
L 189.728867 132.656107 
L 187.051718 133.480196 
L 184.374569 134.279618 
L 181.69742 135.193051 
L 179.020271 136.180111 
L 176.343122 137.499412 
L 173.665973 138.432627 
L 170.988824 138.984091 
L 168.311675 139.966709 
L 165.634526 140.377641 
L 162.957377 141.007984 
L 160.280228 142.14359 
L 157.603079 142.804274 
L 154.92593 143.453494 
L 152.248781 144.102714 
L 149.571632 145.10926 
L 146.894483 145.694235 
L 144.217334 146.466043 
L 141.540185 147.031217 
L 138.863036 147.329436 
L 136.185887 147.727704 
L 133.508738 147.989739 
L 130.831589 148.220533 
L 128.15444 149.276441 
L 125.477291 149.743302 
L 122.800142 150.495047 
L 120.122993 151.349703 
L 117.445844 151.887764 
L 114.768695 152.336351 
L 112.091546 152.840803 
L 109.414397 153.345255 
L 106.737248 153.849707 
L 104.060099 154.287905 
L 101.38295 154.399094 
L 98.705801 154.708189 
L 96.028652 155.240064 
L 93.351503 155.414358 
L 90.674354 155.605129 
L 87.997205 156.167957 
L 85.320056 156.283567 
L 82.642907 156.476368 
L 79.965758 157.044288 
L 77.288609 157.562163 
L 74.61146 157.705305 
L 71.934311 157.850006 
L 69.257162 158.002435 
L 66.580013 158.457767 
z
" clip-path="url(#pb73c38f7c9)" style="fill: #808080; fill-opacity: 0.15"/>
   </g>
   <g id="PathCollection_1">
    <path d="M 246.663903 138.13053 
C 247.461381 138.13053 248.226303 137.813688 248.790205 137.249787 
C 249.354107 136.685885 249.670948 135.920962 249.670948 135.123485 
C 249.670948 134.326007 249.354107 133.561084 248.790205 132.997183 
C 248.226303 132.433281 247.461381 132.116439 246.663903 132.116439 
C 245.866425 132.116439 245.101503 132.433281 244.537601 132.997183 
C 243.973699 133.561084 243.656858 134.326007 243.656858 135.123485 
C 243.656858 135.920962 243.973699 136.685885 244.537601 137.249787 
C 245.101503 137.813688 245.866425 138.13053 246.663903 138.13053 
z
" clip-path="url(#pb73c38f7c9)" style="fill: #1f77b4; stroke: #000000; stroke-width: 0.454663"/>
    <path d="M 171.314517 172.94904 
C 172.419752 172.94904 173.479869 172.509925 174.261388 171.728406 
C 175.042908 170.946886 175.482022 169.886769 175.482022 168.781534 
C 175.482022 167.676299 175.042908 166.616182 174.261388 165.834662 
C 173.479869 165.053143 172.419752 164.614028 171.314517 164.614028 
C 170.209281 164.614028 169.149164 165.053143 168.367645 165.834662 
C 167.586125 166.616182 167.147011 167.676299 167.147011 168.781534 
C 167.147011 169.886769 167.586125 170.946886 168.367645 171.728406 
C 169.149164 172.509925 170.209281 172.94904 171.314517 172.94904 
z
" clip-path="url(#pb73c38f7c9)" style="fill: #1f77b4; stroke: #000000; stroke-width: 0.454663"/>
    <path d="M 261.413631 137.997127 
C 262.418621 137.997127 263.382583 137.597841 264.093218 136.887206 
C 264.803853 136.176571 265.203139 135.212608 265.203139 134.207619 
C 265.203139 133.20263 264.803853 132.238667 264.093218 131.528033 
C 263.382583 130.817398 262.418621 130.418111 261.413631 130.418111 
C 260.408642 130.418111 259.444679 130.817398 258.734045 131.528033 
C 258.02341 132.238667 257.624123 133.20263 257.624123 134.207619 
C 257.624123 135.212608 258.02341 136.176571 258.734045 136.887206 
C 259.444679 137.597841 260.408642 137.997127 261.413631 137.997127 
z
" clip-path="url(#pb73c38f7c9)" style="fill: #1f77b4; stroke: #000000; stroke-width: 0.454663"/>
    <path d="M 185.606889 20.926272 
C 186.411394 20.926272 187.183058 20.606639 187.751929 20.037767 
C 188.3208 19.468896 188.640434 18.697233 188.640434 17.892727 
C 188.640434 17.088222 188.3208 16.316558 187.751929 15.747687 
C 187.183058 15.178816 186.411394 14.859182 185.606889 14.859182 
C 184.802383 14.859182 184.03072 15.178816 183.461849 15.747687 
C 182.892977 16.316558 182.573344 17.088222 182.573344 17.892727 
C 182.573344 18.697233 182.892977 19.468896 183.461849 20.037767 
C 184.03072 20.606639 184.802383 20.926272 185.606889 20.926272 
z
" clip-path="url(#pb73c38f7c9)" style="fill: #1f77b4; stroke: #000000; stroke-width: 0.454663"/>
    <path d="M 96.536825 179.567209 
C 97.332652 179.567209 98.09599 179.251023 98.658725 178.688289 
C 99.221459 178.125555 99.537645 177.362216 99.537645 176.566389 
C 99.537645 175.770562 99.221459 175.007223 98.658725 174.444489 
C 98.09599 173.881754 97.332652 173.565569 96.536825 173.565569 
C 95.740998 173.565569 94.977659 173.881754 94.414925 174.444489 
C 93.85219 175.007223 93.536005 175.770562 93.536005 176.566389 
C 93.536005 177.362216 93.85219 178.125555 94.414925 178.688289 
C 94.977659 179.251023 95.740998 179.567209 96.536825 179.567209 
z
" clip-path="url(#pb73c38f7c9)" style="fill: #1f77b4; stroke: #000000; stroke-width: 0.454663"/>
    <path d="M 331.617764 190.090603 
C 332.411189 190.090603 333.172224 189.775372 333.73326 189.214336 
C 334.294296 188.6533 334.609527 187.892265 334.609527 187.09884 
C 334.609527 186.305415 334.294296 185.54438 333.73326 184.983344 
C 333.172224 184.422307 332.411189 184.107076 331.617764 184.107076 
C 330.824339 184.107076 330.063304 184.422307 329.502268 184.983344 
C 328.941231 185.54438 328.626 186.305415 328.626 187.09884 
C 328.626 187.892265 328.941231 188.6533 329.502268 189.214336 
C 330.063304 189.775372 330.824339 190.090603 331.617764 190.090603 
z
" clip-path="url(#pb73c38f7c9)" style="fill: #1f77b4; stroke: #000000; stroke-width: 0.454663"/>
    <path d="M 113.687672 234.347542 
C 114.377271 234.347542 115.038719 234.073561 115.52634 233.585941 
C 116.01396 233.09832 116.287941 232.436872 116.287941 231.747273 
C 116.287941 231.057673 116.01396 230.396225 115.52634 229.908605 
C 115.038719 229.420984 114.377271 229.147003 113.687672 229.147003 
C 112.998072 229.147003 112.336624 229.420984 111.849003 229.908605 
C 111.361383 230.396225 111.087402 231.057673 111.087402 231.747273 
C 111.087402 232.436872 111.361383 233.09832 111.849003 233.585941 
C 112.336624 234.073561 112.998072 234.347542 113.687672 234.347542 
z
" clip-path="url(#pb73c38f7c9)" style="fill: #1f77b4; stroke: #000000; stroke-width: 0.454663"/>
    <path d="M 117.918214 198.607779 
C 118.480794 198.607779 119.020409 198.384264 119.418214 197.986459 
C 119.816018 197.588654 120.039534 197.04904 120.039534 196.486459 
C 120.039534 195.923878 119.816018 195.384264 119.418214 194.986459 
C 119.020409 194.588654 118.480794 194.365139 117.918214 194.365139 
C 117.355633 194.365139 116.816018 194.588654 116.418214 194.986459 
C 116.020409 195.384264 115.796893 195.923878 115.796893 196.486459 
C 115.796893 197.04904 116.020409 197.588654 116.418214 197.986459 
C 116.816018 198.384264 117.355633 198.607779 117.918214 198.607779 
z
" clip-path="url(#pb73c38f7c9)" style="fill: #1f77b4; stroke: #000000; stroke-width: 0.454663"/>
    <path d="M 124.435535 227.904683 
C 125.238146 227.904683 126.007992 227.585803 126.575524 227.018271 
C 127.143055 226.45074 127.461936 225.680894 127.461936 224.878283 
C 127.461936 224.075672 127.143055 223.305826 126.575524 222.738295 
C 126.007992 222.170764 125.238146 221.851883 124.435535 221.851883 
C 123.632925 221.851883 122.863079 222.170764 122.295547 222.738295 
C 121.728016 223.305826 121.409135 224.075672 121.409135 224.878283 
C 121.409135 225.680894 121.728016 226.45074 122.295547 227.018271 
C 122.863079 227.585803 123.632925 227.904683 124.435535 227.904683 
z
" clip-path="url(#pb73c38f7c9)" style="fill: #1f77b4; stroke: #000000; stroke-width: 0.454663"/>
    <path d="M 126.836654 148.420186 
C 127.630464 148.420186 128.391869 148.104801 128.953178 147.543493 
C 129.514486 146.982184 129.829871 146.220779 129.829871 145.426969 
C 129.829871 144.633159 129.514486 143.871754 128.953178 143.310445 
C 128.391869 142.749137 127.630464 142.433752 126.836654 142.433752 
C 126.042844 142.433752 125.281439 142.749137 124.72013 143.310445 
C 124.158822 143.871754 123.843437 144.633159 123.843437 145.426969 
C 123.843437 146.220779 124.158822 146.982184 124.72013 147.543493 
C 125.281439 148.104801 126.042844 148.420186 126.836654 148.420186 
z
" clip-path="url(#pb73c38f7c9)" style="fill: #1f77b4; stroke: #000000; stroke-width: 0.454663"/>
    <path d="M 120.891027 133.40072 
C 121.709319 133.40072 122.494205 133.075609 123.072825 132.496989 
C 123.651444 131.91837 123.976555 131.133483 123.976555 130.315192 
C 123.976555 129.4969 123.651444 128.712014 123.072825 128.133394 
C 122.494205 127.554775 121.709319 127.229664 120.891027 127.229664 
C 120.072736 127.229664 119.287849 127.554775 118.70923 128.133394 
C 118.13061 128.712014 117.805499 129.4969 117.805499 130.315192 
C 117.805499 131.133483 118.13061 131.91837 118.70923 132.496989 
C 119.287849 133.075609 120.072736 133.40072 120.891027 133.40072 
z
" clip-path="url(#pb73c38f7c9)" style="fill: #1f77b4; stroke: #000000; stroke-width: 0.454663"/>
    <path d="M 130.838518 163.115343 
C 131.704007 163.115343 132.534165 162.77148 133.146158 162.159487 
C 133.758151 161.547494 134.102014 160.717336 134.102014 159.851847 
C 134.102014 158.986358 133.758151 158.156201 133.146158 157.544208 
C 132.534165 156.932215 131.704007 156.588352 130.838518 156.588352 
C 129.973029 156.588352 129.142872 156.932215 128.530879 157.544208 
C 127.918885 158.156201 127.575023 158.986358 127.575023 159.851847 
C 127.575023 160.717336 127.918885 161.547494 128.530879 162.159487 
C 129.142872 162.77148 129.973029 163.115343 130.838518 163.115343 
z
" clip-path="url(#pb73c38f7c9)" style="fill: #1f77b4; stroke: #000000; stroke-width: 0.454663"/>
    <path d="M 298.802477 84.765245 
C 299.717122 84.765245 300.594428 84.401853 301.24118 83.755101 
C 301.887931 83.10835 302.251324 82.231043 302.251324 81.316399 
C 302.251324 80.401754 301.887931 79.524447 301.24118 78.877696 
C 300.594428 78.230944 299.717122 77.867552 298.802477 77.867552 
C 297.887832 77.867552 297.010526 78.230944 296.363774 78.877696 
C 295.717023 79.524447 295.353631 80.401754 295.353631 81.316399 
C 295.353631 82.231043 295.717023 83.10835 296.363774 83.755101 
C 297.010526 84.401853 297.887832 84.765245 298.802477 84.765245 
z
" clip-path="url(#pb73c38f7c9)" style="fill: #1f77b4; stroke: #000000; stroke-width: 0.454663"/>
    <path d="M 143.644484 151.811019 
C 144.639244 151.811019 145.593395 151.415796 146.296797 150.712395 
C 147.000198 150.008993 147.395421 149.054842 147.395421 148.060082 
C 147.395421 147.065322 147.000198 146.11117 146.296797 145.407769 
C 145.593395 144.704367 144.639244 144.309145 143.644484 144.309145 
C 142.649724 144.309145 141.695572 144.704367 140.992171 145.407769 
C 140.288769 146.11117 139.893547 147.065322 139.893547 148.060082 
C 139.893547 149.054842 140.288769 150.008993 140.992171 150.712395 
C 141.695572 151.415796 142.649724 151.811019 143.644484 151.811019 
z
" clip-path="url(#pb73c38f7c9)" style="fill: #1f77b4; stroke: #000000; stroke-width: 0.454663"/>
    <path d="M 268.388309 39.538932 
C 269.453311 39.538932 270.474837 39.115803 271.227907 38.362732 
C 271.980977 37.609662 272.404107 36.588136 272.404107 35.523134 
C 272.404107 34.458132 271.980977 33.436606 271.227907 32.683536 
C 270.474837 31.930466 269.453311 31.507336 268.388309 31.507336 
C 267.323307 31.507336 266.301781 31.930466 265.548711 32.683536 
C 264.79564 33.436606 264.372511 34.458132 264.372511 35.523134 
C 264.372511 36.588136 264.79564 37.609662 265.548711 38.362732 
C 266.301781 39.115803 267.323307 39.538932 268.388309 39.538932 
z
" clip-path="url(#pb73c38f7c9)" style="fill: #1f77b4; stroke: #000000; stroke-width: 0.454663"/>
    <path d="M 66.580013 223.854698 
C 67.705174 223.854698 68.784403 223.407667 69.580013 222.612058 
C 70.375622 221.816448 70.822653 220.737219 70.822653 219.612058 
C 70.822653 218.486896 70.375622 217.407667 69.580013 216.612058 
C 68.784403 215.816448 67.705174 215.369417 66.580013 215.369417 
C 65.454851 215.369417 64.375622 215.816448 63.580013 216.612058 
C 62.784403 217.407667 62.337372 218.486896 62.337372 219.612058 
C 62.337372 220.737219 62.784403 221.816448 63.580013 222.612058 
C 64.375622 223.407667 65.454851 223.854698 66.580013 223.854698 
z
" clip-path="url(#pb73c38f7c9)" style="fill: #1f77b4; stroke: #000000; stroke-width: 0.454663"/>
    <path d="M 241.747327 117.723874 
C 242.840819 117.723874 243.889671 117.289425 244.662887 116.51621 
C 245.436102 115.742994 245.870551 114.694142 245.870551 113.60065 
C 245.870551 112.507158 245.436102 111.458306 244.662887 110.685091 
C 243.889671 109.911875 242.840819 109.477426 241.747327 109.477426 
C 240.653835 109.477426 239.604983 109.911875 238.831768 110.685091 
C 238.058552 111.458306 237.624103 112.507158 237.624103 113.60065 
C 237.624103 114.694142 238.058552 115.742994 238.831768 116.51621 
C 239.604983 117.289425 240.653835 117.723874 241.747327 117.723874 
z
" clip-path="url(#pb73c38f7c9)" style="fill: #1f77b4; stroke: #000000; stroke-width: 0.454663"/>
   </g>
   <g id="matplotlib.axis_1">
    <g id="xtick_1">
     <g id="line2d_1">
      <defs>
       <path id="mc472ce6ffb" d="M 0 0 
L 0 3.5 
" style="stroke: #000000; stroke-width: 0.8"/>
      </defs>
      <g>
       <use xlink:href="#mc472ce6ffb" x="97.299085" y="242.44" style="stroke: #000000; stroke-width: 0.8"/>
      </g>
     </g>
     <g id="text_1">
      <!-- 200 -->
      <g transform="translate(87.755335 257.038437) scale(0.1 -0.1)">
       <defs>
        <path id="DejaVuSans-32" d="M 1228 531 
L 3431 531 
L 3431 0 
L 469 0 
L 469 531 
Q 828 903 1448 1529 
Q 2069 2156 2228 2338 
Q 2531 2678 2651 2914 
Q 2772 3150 2772 3378 
Q 2772 3750 2511 3984 
Q 2250 4219 1831 4219 
Q 1534 4219 1204 4116 
Q 875 4013 500 3803 
L 500 4441 
Q 881 4594 1212 4672 
Q 1544 4750 1819 4750 
Q 2544 4750 2975 4387 
Q 3406 4025 3406 3419 
Q 3406 3131 3298 2873 
Q 3191 2616 2906 2266 
Q 2828 2175 2409 1742 
Q 1991 1309 1228 531 
z
" transform="scale(0.015625)"/>
        <path id="DejaVuSans-30" d="M 2034 4250 
Q 1547 4250 1301 3770 
Q 1056 3291 1056 2328 
Q 1056 1369 1301 889 
Q 1547 409 2034 409 
Q 2525 409 2770 889 
Q 3016 1369 3016 2328 
Q 3016 3291 2770 3770 
Q 2525 4250 2034 4250 
z
M 2034 4750 
Q 2819 4750 3233 4129 
Q 3647 3509 3647 2328 
Q 3647 1150 3233 529 
Q 2819 -91 2034 -91 
Q 1250 -91 836 529 
Q 422 1150 422 2328 
Q 422 3509 836 4129 
Q 1250 4750 2034 4750 
z
" transform="scale(0.015625)"/>
       </defs>
       <use xlink:href="#DejaVuSans-32"/>
       <use xlink:href="#DejaVuSans-30" x="63.623047"/>
       <use xlink:href="#DejaVuSans-30" x="127.246094"/>
      </g>
     </g>
    </g>
    <g id="xtick_2">
     <g id="line2d_2">
      <g>
       <use xlink:href="#mc472ce6ffb" x="144.940326" y="242.44" style="stroke: #000000; stroke-width: 0.8"/>
      </g>
     </g>
     <g id="text_2">
      <!-- 250 -->
      <g transform="translate(135.396576 257.038437) scale(0.1 -0.1)">
       <defs>
        <path id="DejaVuSans-35" d="M 691 4666 
L 3169 4666 
L 3169 4134 
L 1269 4134 
L 1269 2991 
Q 1406 3038 1543 3061 
Q 1681 3084 1819 3084 
Q 2600 3084 3056 2656 
Q 3513 2228 3513 1497 
Q 3513 744 3044 326 
Q 2575 -91 1722 -91 
Q 1428 -91 1123 -41 
Q 819 9 494 109 
L 494 744 
Q 775 591 1075 516 
Q 1375 441 1709 441 
Q 2250 441 2565 725 
Q 2881 1009 2881 1497 
Q 2881 1984 2565 2268 
Q 2250 2553 1709 2553 
Q 1456 2553 1204 2497 
Q 953 2441 691 2322 
L 691 4666 
z
" transform="scale(0.015625)"/>
       </defs>
       <use xlink:href="#DejaVuSans-32"/>
       <use xlink:href="#DejaVuSans-35" x="63.623047"/>
       <use xlink:href="#DejaVuSans-30" x="127.246094"/>
      </g>
     </g>
    </g>
    <g id="xtick_3">
     <g id="line2d_3">
      <g>
       <use xlink:href="#mc472ce6ffb" x="192.581566" y="242.44" style="stroke: #000000; stroke-width: 0.8"/>
      </g>
     </g>
     <g id="text_3">
      <!-- 300 -->
      <g transform="translate(183.037816 257.038437) scale(0.1 -0.1)">
       <defs>
        <path id="DejaVuSans-33" d="M 2597 2516 
Q 3050 2419 3304 2112 
Q 3559 1806 3559 1356 
Q 3559 666 3084 287 
Q 2609 -91 1734 -91 
Q 1441 -91 1130 -33 
Q 819 25 488 141 
L 488 750 
Q 750 597 1062 519 
Q 1375 441 1716 441 
Q 2309 441 2620 675 
Q 2931 909 2931 1356 
Q 2931 1769 2642 2001 
Q 2353 2234 1838 2234 
L 1294 2234 
L 1294 2753 
L 1863 2753 
Q 2328 2753 2575 2939 
Q 2822 3125 2822 3475 
Q 2822 3834 2567 4026 
Q 2313 4219 1838 4219 
Q 1578 4219 1281 4162 
Q 984 4106 628 3988 
L 628 4550 
Q 988 4650 1302 4700 
Q 1616 4750 1894 4750 
Q 2613 4750 3031 4423 
Q 3450 4097 3450 3541 
Q 3450 3153 3228 2886 
Q 3006 2619 2597 2516 
z
" transform="scale(0.015625)"/>
       </defs>
       <use xlink:href="#DejaVuSans-33"/>
       <use xlink:href="#DejaVuSans-30" x="63.623047"/>
       <use xlink:href="#DejaVuSans-30" x="127.246094"/>
      </g>
     </g>
    </g>
    <g id="xtick_4">
     <g id="line2d_4">
      <g>
       <use xlink:href="#mc472ce6ffb" x="240.222807" y="242.44" style="stroke: #000000; stroke-width: 0.8"/>
      </g>
     </g>
     <g id="text_4">
      <!-- 350 -->
      <g transform="translate(230.679057 257.038437) scale(0.1 -0.1)">
       <use xlink:href="#DejaVuSans-33"/>
       <use xlink:href="#DejaVuSans-35" x="63.623047"/>
       <use xlink:href="#DejaVuSans-30" x="127.246094"/>
      </g>
     </g>
    </g>
    <g id="xtick_5">
     <g id="line2d_5">
      <g>
       <use xlink:href="#mc472ce6ffb" x="287.864048" y="242.44" style="stroke: #000000; stroke-width: 0.8"/>
      </g>
     </g>
     <g id="text_5">
      <!-- 400 -->
      <g transform="translate(278.320298 257.038437) scale(0.1 -0.1)">
       <defs>
        <path id="DejaVuSans-34" d="M 2419 4116 
L 825 1625 
L 2419 1625 
L 2419 4116 
z
M 2253 4666 
L 3047 4666 
L 3047 1625 
L 3713 1625 
L 3713 1100 
L 3047 1100 
L 3047 0 
L 2419 0 
L 2419 1100 
L 313 1100 
L 313 1709 
L 2253 4666 
z
" transform="scale(0.015625)"/>
       </defs>
       <use xlink:href="#DejaVuSans-34"/>
       <use xlink:href="#DejaVuSans-30" x="63.623047"/>
       <use xlink:href="#DejaVuSans-30" x="127.246094"/>
      </g>
     </g>
    </g>
    <g id="xtick_6">
     <g id="line2d_6">
      <g>
       <use xlink:href="#mc472ce6ffb" x="335.505289" y="242.44" style="stroke: #000000; stroke-width: 0.8"/>
      </g>
     </g>
     <g id="text_6">
      <!-- 450 -->
      <g transform="translate(325.961539 257.038437) scale(0.1 -0.1)">
       <use xlink:href="#DejaVuSans-34"/>
       <use xlink:href="#DejaVuSans-35" x="63.623047"/>
       <use xlink:href="#DejaVuSans-30" x="127.246094"/>
      </g>
     </g>
    </g>
    <g id="text_7">
     <!-- Primary Production (mg C m−2 h−1) -->
     <g transform="translate(107.014513 270.716562) scale(0.1 -0.1)">
      <defs>
       <path id="DejaVuSans-50" d="M 1259 4147 
L 1259 2394 
L 2053 2394 
Q 2494 2394 2734 2622 
Q 2975 2850 2975 3272 
Q 2975 3691 2734 3919 
Q 2494 4147 2053 4147 
L 1259 4147 
z
M 628 4666 
L 2053 4666 
Q 2838 4666 3239 4311 
Q 3641 3956 3641 3272 
Q 3641 2581 3239 2228 
Q 2838 1875 2053 1875 
L 1259 1875 
L 1259 0 
L 628 0 
L 628 4666 
z
" transform="scale(0.015625)"/>
       <path id="DejaVuSans-72" d="M 2631 2963 
Q 2534 3019 2420 3045 
Q 2306 3072 2169 3072 
Q 1681 3072 1420 2755 
Q 1159 2438 1159 1844 
L 1159 0 
L 581 0 
L 581 3500 
L 1159 3500 
L 1159 2956 
Q 1341 3275 1631 3429 
Q 1922 3584 2338 3584 
Q 2397 3584 2469 3576 
Q 2541 3569 2628 3553 
L 2631 2963 
z
" transform="scale(0.015625)"/>
       <path id="DejaVuSans-69" d="M 603 3500 
L 1178 3500 
L 1178 0 
L 603 0 
L 603 3500 
z
M 603 4863 
L 1178 4863 
L 1178 4134 
L 603 4134 
L 603 4863 
z
" transform="scale(0.015625)"/>
       <path id="DejaVuSans-6d" d="M 3328 2828 
Q 3544 3216 3844 3400 
Q 4144 3584 4550 3584 
Q 5097 3584 5394 3201 
Q 5691 2819 5691 2113 
L 5691 0 
L 5113 0 
L 5113 2094 
Q 5113 2597 4934 2840 
Q 4756 3084 4391 3084 
Q 3944 3084 3684 2787 
Q 3425 2491 3425 1978 
L 3425 0 
L 2847 0 
L 2847 2094 
Q 2847 2600 2669 2842 
Q 2491 3084 2119 3084 
Q 1678 3084 1418 2786 
Q 1159 2488 1159 1978 
L 1159 0 
L 581 0 
L 581 3500 
L 1159 3500 
L 1159 2956 
Q 1356 3278 1631 3431 
Q 1906 3584 2284 3584 
Q 2666 3584 2933 3390 
Q 3200 3197 3328 2828 
z
" transform="scale(0.015625)"/>
       <path id="DejaVuSans-61" d="M 2194 1759 
Q 1497 1759 1228 1600 
Q 959 1441 959 1056 
Q 959 750 1161 570 
Q 1363 391 1709 391 
Q 2188 391 2477 730 
Q 2766 1069 2766 1631 
L 2766 1759 
L 2194 1759 
z
M 3341 1997 
L 3341 0 
L 2766 0 
L 2766 531 
Q 2569 213 2275 61 
Q 1981 -91 1556 -91 
Q 1019 -91 701 211 
Q 384 513 384 1019 
Q 384 1609 779 1909 
Q 1175 2209 1959 2209 
L 2766 2209 
L 2766 2266 
Q 2766 2663 2505 2880 
Q 2244 3097 1772 3097 
Q 1472 3097 1187 3025 
Q 903 2953 641 2809 
L 641 3341 
Q 956 3463 1253 3523 
Q 1550 3584 1831 3584 
Q 2591 3584 2966 3190 
Q 3341 2797 3341 1997 
z
" transform="scale(0.015625)"/>
       <path id="DejaVuSans-79" d="M 2059 -325 
Q 1816 -950 1584 -1140 
Q 1353 -1331 966 -1331 
L 506 -1331 
L 506 -850 
L 844 -850 
Q 1081 -850 1212 -737 
Q 1344 -625 1503 -206 
L 1606 56 
L 191 3500 
L 800 3500 
L 1894 763 
L 2988 3500 
L 3597 3500 
L 2059 -325 
z
" transform="scale(0.015625)"/>
       <path id="DejaVuSans-20" transform="scale(0.015625)"/>
       <path id="DejaVuSans-6f" d="M 1959 3097 
Q 1497 3097 1228 2736 
Q 959 2375 959 1747 
Q 959 1119 1226 758 
Q 1494 397 1959 397 
Q 2419 397 2687 759 
Q 2956 1122 2956 1747 
Q 2956 2369 2687 2733 
Q 2419 3097 1959 3097 
z
M 1959 3584 
Q 2709 3584 3137 3096 
Q 3566 2609 3566 1747 
Q 3566 888 3137 398 
Q 2709 -91 1959 -91 
Q 1206 -91 779 398 
Q 353 888 353 1747 
Q 353 2609 779 3096 
Q 1206 3584 1959 3584 
z
" transform="scale(0.015625)"/>
       <path id="DejaVuSans-64" d="M 2906 2969 
L 2906 4863 
L 3481 4863 
L 3481 0 
L 2906 0 
L 2906 525 
Q 2725 213 2448 61 
Q 2172 -91 1784 -91 
Q 1150 -91 751 415 
Q 353 922 353 1747 
Q 353 2572 751 3078 
Q 1150 3584 1784 3584 
Q 2172 3584 2448 3432 
Q 2725 3281 2906 2969 
z
M 947 1747 
Q 947 1113 1208 752 
Q 1469 391 1925 391 
Q 2381 391 2643 752 
Q 2906 1113 2906 1747 
Q 2906 2381 2643 2742 
Q 2381 3103 1925 3103 
Q 1469 3103 1208 2742 
Q 947 2381 947 1747 
z
" transform="scale(0.015625)"/>
       <path id="DejaVuSans-75" d="M 544 1381 
L 544 3500 
L 1119 3500 
L 1119 1403 
Q 1119 906 1312 657 
Q 1506 409 1894 409 
Q 2359 409 2629 706 
Q 2900 1003 2900 1516 
L 2900 3500 
L 3475 3500 
L 3475 0 
L 2900 0 
L 2900 538 
Q 2691 219 2414 64 
Q 2138 -91 1772 -91 
Q 1169 -91 856 284 
Q 544 659 544 1381 
z
M 1991 3584 
L 1991 3584 
z
" transform="scale(0.015625)"/>
       <path id="DejaVuSans-63" d="M 3122 3366 
L 3122 2828 
Q 2878 2963 2633 3030 
Q 2388 3097 2138 3097 
Q 1578 3097 1268 2742 
Q 959 2388 959 1747 
Q 959 1106 1268 751 
Q 1578 397 2138 397 
Q 2388 397 2633 464 
Q 2878 531 3122 666 
L 3122 134 
Q 2881 22 2623 -34 
Q 2366 -91 2075 -91 
Q 1284 -91 818 406 
Q 353 903 353 1747 
Q 353 2603 823 3093 
Q 1294 3584 2113 3584 
Q 2378 3584 2631 3529 
Q 2884 3475 3122 3366 
z
" transform="scale(0.015625)"/>
       <path id="DejaVuSans-74" d="M 1172 4494 
L 1172 3500 
L 2356 3500 
L 2356 3053 
L 1172 3053 
L 1172 1153 
Q 1172 725 1289 603 
Q 1406 481 1766 481 
L 2356 481 
L 2356 0 
L 1766 0 
Q 1100 0 847 248 
Q 594 497 594 1153 
L 594 3053 
L 172 3053 
L 172 3500 
L 594 3500 
L 594 4494 
L 1172 4494 
z
" transform="scale(0.015625)"/>
       <path id="DejaVuSans-6e" d="M 3513 2113 
L 3513 0 
L 2938 0 
L 2938 2094 
Q 2938 2591 2744 2837 
Q 2550 3084 2163 3084 
Q 1697 3084 1428 2787 
Q 1159 2491 1159 1978 
L 1159 0 
L 581 0 
L 581 3500 
L 1159 3500 
L 1159 2956 
Q 1366 3272 1645 3428 
Q 1925 3584 2291 3584 
Q 2894 3584 3203 3211 
Q 3513 2838 3513 2113 
z
" transform="scale(0.015625)"/>
       <path id="DejaVuSans-28" d="M 1984 4856 
Q 1566 4138 1362 3434 
Q 1159 2731 1159 2009 
Q 1159 1288 1364 580 
Q 1569 -128 1984 -844 
L 1484 -844 
Q 1016 -109 783 600 
Q 550 1309 550 2009 
Q 550 2706 781 3412 
Q 1013 4119 1484 4856 
L 1984 4856 
z
" transform="scale(0.015625)"/>
       <path id="DejaVuSans-67" d="M 2906 1791 
Q 2906 2416 2648 2759 
Q 2391 3103 1925 3103 
Q 1463 3103 1205 2759 
Q 947 2416 947 1791 
Q 947 1169 1205 825 
Q 1463 481 1925 481 
Q 2391 481 2648 825 
Q 2906 1169 2906 1791 
z
M 3481 434 
Q 3481 -459 3084 -895 
Q 2688 -1331 1869 -1331 
Q 1566 -1331 1297 -1286 
Q 1028 -1241 775 -1147 
L 775 -588 
Q 1028 -725 1275 -790 
Q 1522 -856 1778 -856 
Q 2344 -856 2625 -561 
Q 2906 -266 2906 331 
L 2906 616 
Q 2728 306 2450 153 
Q 2172 0 1784 0 
Q 1141 0 747 490 
Q 353 981 353 1791 
Q 353 2603 747 3093 
Q 1141 3584 1784 3584 
Q 2172 3584 2450 3431 
Q 2728 3278 2906 2969 
L 2906 3500 
L 3481 3500 
L 3481 434 
z
" transform="scale(0.015625)"/>
       <path id="DejaVuSans-43" d="M 4122 4306 
L 4122 3641 
Q 3803 3938 3442 4084 
Q 3081 4231 2675 4231 
Q 1875 4231 1450 3742 
Q 1025 3253 1025 2328 
Q 1025 1406 1450 917 
Q 1875 428 2675 428 
Q 3081 428 3442 575 
Q 3803 722 4122 1019 
L 4122 359 
Q 3791 134 3420 21 
Q 3050 -91 2638 -91 
Q 1578 -91 968 557 
Q 359 1206 359 2328 
Q 359 3453 968 4101 
Q 1578 4750 2638 4750 
Q 3056 4750 3426 4639 
Q 3797 4528 4122 4306 
z
" transform="scale(0.015625)"/>
       <path id="DejaVuSans-2212" d="M 678 2272 
L 4684 2272 
L 4684 1741 
L 678 1741 
L 678 2272 
z
" transform="scale(0.015625)"/>
       <path id="DejaVuSans-68" d="M 3513 2113 
L 3513 0 
L 2938 0 
L 2938 2094 
Q 2938 2591 2744 2837 
Q 2550 3084 2163 3084 
Q 1697 3084 1428 2787 
Q 1159 2491 1159 1978 
L 1159 0 
L 581 0 
L 581 4863 
L 1159 4863 
L 1159 2956 
Q 1366 3272 1645 3428 
Q 1925 3584 2291 3584 
Q 2894 3584 3203 3211 
Q 3513 2838 3513 2113 
z
" transform="scale(0.015625)"/>
       <path id="DejaVuSans-31" d="M 794 531 
L 1825 531 
L 1825 4091 
L 703 3866 
L 703 4441 
L 1819 4666 
L 2450 4666 
L 2450 531 
L 3481 531 
L 3481 0 
L 794 0 
L 794 531 
z
" transform="scale(0.015625)"/>
       <path id="DejaVuSans-29" d="M 513 4856 
L 1013 4856 
Q 1481 4119 1714 3412 
Q 1947 2706 1947 2009 
Q 1947 1309 1714 600 
Q 1481 -109 1013 -844 
L 513 -844 
Q 928 -128 1133 580 
Q 1338 1288 1338 2009 
Q 1338 2731 1133 3434 
Q 928 4138 513 4856 
z
" transform="scale(0.015625)"/>
      </defs>
      <use xlink:href="#DejaVuSans-50"/>
      <use xlink:href="#DejaVuSans-72" x="58.552734"/>
      <use xlink:href="#DejaVuSans-69" x="99.666016"/>
      <use xlink:href="#DejaVuSans-6d" x="127.449219"/>
      <use xlink:href="#DejaVuSans-61" x="224.861328"/>
      <use xlink:href="#DejaVuSans-72" x="286.140625"/>
      <use xlink:href="#DejaVuSans-79" x="327.253906"/>
      <use xlink:href="#DejaVuSans-20" x="386.433594"/>
      <use xlink:href="#DejaVuSans-50" x="418.220703"/>
      <use xlink:href="#DejaVuSans-72" x="476.773438"/>
      <use xlink:href="#DejaVuSans-6f" x="515.636719"/>
      <use xlink:href="#DejaVuSans-64" x="576.818359"/>
      <use xlink:href="#DejaVuSans-75" x="640.294922"/>
      <use xlink:href="#DejaVuSans-63" x="703.673828"/>
      <use xlink:href="#DejaVuSans-74" x="758.654297"/>
      <use xlink:href="#DejaVuSans-69" x="797.863281"/>
      <use xlink:href="#DejaVuSans-6f" x="825.646484"/>
      <use xlink:href="#DejaVuSans-6e" x="886.828125"/>
      <use xlink:href="#DejaVuSans-20" x="950.207031"/>
      <use xlink:href="#DejaVuSans-28" x="981.994141"/>
      <use xlink:href="#DejaVuSans-6d" x="1021.007812"/>
      <use xlink:href="#DejaVuSans-67" x="1118.419922"/>
      <use xlink:href="#DejaVuSans-20" x="1181.896484"/>
      <use xlink:href="#DejaVuSans-43" x="1213.683594"/>
      <use xlink:href="#DejaVuSans-20" x="1283.507812"/>
      <use xlink:href="#DejaVuSans-6d" x="1315.294922"/>
      <use xlink:href="#DejaVuSans-2212" x="1412.707031"/>
      <use xlink:href="#DejaVuSans-32" x="1496.496094"/>
      <use xlink:href="#DejaVuSans-20" x="1560.119141"/>
      <use xlink:href="#DejaVuSans-68" x="1591.90625"/>
      <use xlink:href="#DejaVuSans-2212" x="1655.285156"/>
      <use xlink:href="#DejaVuSans-31" x="1739.074219"/>
      <use xlink:href="#DejaVuSans-29" x="1802.697266"/>
     </g>
    </g>
   </g>
   <g id="matplotlib.axis_2">
    <g id="ytick_1">
     <g id="line2d_7">
      <defs>
       <path id="m0860482814" d="M 0 0 
L -3.5 0 
" style="stroke: #000000; stroke-width: 0.8"/>
      </defs>
      <g>
       <use xlink:href="#m0860482814" x="53.328125" y="230.884308" style="stroke: #000000; stroke-width: 0.8"/>
      </g>
     </g>
     <g id="text_8">
      <!-- 500 -->
      <g transform="translate(27.240625 234.683527) scale(0.1 -0.1)">
       <use xlink:href="#DejaVuSans-35"/>
       <use xlink:href="#DejaVuSans-30" x="63.623047"/>
       <use xlink:href="#DejaVuSans-30" x="127.246094"/>
      </g>
     </g>
    </g>
    <g id="ytick_2">
     <g id="line2d_8">
      <g>
       <use xlink:href="#m0860482814" x="53.328125" y="200.458238" style="stroke: #000000; stroke-width: 0.8"/>
      </g>
     </g>
     <g id="text_9">
      <!-- 750 -->
      <g transform="translate(27.240625 204.257456) scale(0.1 -0.1)">
       <defs>
        <path id="DejaVuSans-37" d="M 525 4666 
L 3525 4666 
L 3525 4397 
L 1831 0 
L 1172 0 
L 2766 4134 
L 525 4134 
L 525 4666 
z
" transform="scale(0.015625)"/>
       </defs>
       <use xlink:href="#DejaVuSans-37"/>
       <use xlink:href="#DejaVuSans-35" x="63.623047"/>
       <use xlink:href="#DejaVuSans-30" x="127.246094"/>
      </g>
     </g>
    </g>
    <g id="ytick_3">
     <g id="line2d_9">
      <g>
       <use xlink:href="#m0860482814" x="53.328125" y="170.032167" style="stroke: #000000; stroke-width: 0.8"/>
      </g>
     </g>
     <g id="text_10">
      <!-- 1000 -->
      <g transform="translate(20.878125 173.831386) scale(0.1 -0.1)">
       <use xlink:href="#DejaVuSans-31"/>
       <use xlink:href="#DejaVuSans-30" x="63.623047"/>
       <use xlink:href="#DejaVuSans-30" x="127.246094"/>
       <use xlink:href="#DejaVuSans-30" x="190.869141"/>
      </g>
     </g>
    </g>
    <g id="ytick_4">
     <g id="line2d_10">
      <g>
       <use xlink:href="#m0860482814" x="53.328125" y="139.606097" style="stroke: #000000; stroke-width: 0.8"/>
      </g>
     </g>
     <g id="text_11">
      <!-- 1250 -->
      <g transform="translate(20.878125 143.405315) scale(0.1 -0.1)">
       <use xlink:href="#DejaVuSans-31"/>
       <use xlink:href="#DejaVuSans-32" x="63.623047"/>
       <use xlink:href="#DejaVuSans-35" x="127.246094"/>
       <use xlink:href="#DejaVuSans-30" x="190.869141"/>
      </g>
     </g>
    </g>
    <g id="ytick_5">
     <g id="line2d_11">
      <g>
       <use xlink:href="#m0860482814" x="53.328125" y="109.180026" style="stroke: #000000; stroke-width: 0.8"/>
      </g>
     </g>
     <g id="text_12">
      <!-- 1500 -->
      <g transform="translate(20.878125 112.979245) scale(0.1 -0.1)">
       <use xlink:href="#DejaVuSans-31"/>
       <use xlink:href="#DejaVuSans-35" x="63.623047"/>
       <use xlink:href="#DejaVuSans-30" x="127.246094"/>
       <use xlink:href="#DejaVuSans-30" x="190.869141"/>
      </g>
     </g>
    </g>
    <g id="ytick_6">
     <g id="line2d_12">
      <g>
       <use xlink:href="#m0860482814" x="53.328125" y="78.753956" style="stroke: #000000; stroke-width: 0.8"/>
      </g>
     </g>
     <g id="text_13">
      <!-- 1750 -->
      <g transform="translate(20.878125 82.553174) scale(0.1 -0.1)">
       <use xlink:href="#DejaVuSans-31"/>
       <use xlink:href="#DejaVuSans-37" x="63.623047"/>
       <use xlink:href="#DejaVuSans-35" x="127.246094"/>
       <use xlink:href="#DejaVuSans-30" x="190.869141"/>
      </g>
     </g>
    </g>
    <g id="ytick_7">
     <g id="line2d_13">
      <g>
       <use xlink:href="#m0860482814" x="53.328125" y="48.327885" style="stroke: #000000; stroke-width: 0.8"/>
      </g>
     </g>
     <g id="text_14">
      <!-- 2000 -->
      <g transform="translate(20.878125 52.127104) scale(0.1 -0.1)">
       <use xlink:href="#DejaVuSans-32"/>
       <use xlink:href="#DejaVuSans-30" x="63.623047"/>
       <use xlink:href="#DejaVuSans-30" x="127.246094"/>
       <use xlink:href="#DejaVuSans-30" x="190.869141"/>
      </g>
     </g>
    </g>
    <g id="ytick_8">
     <g id="line2d_14">
      <g>
       <use xlink:href="#m0860482814" x="53.328125" y="17.901815" style="stroke: #000000; stroke-width: 0.8"/>
      </g>
     </g>
     <g id="text_15">
      <!-- 2250 -->
      <g transform="translate(20.878125 21.701033) scale(0.1 -0.1)">
       <use xlink:href="#DejaVuSans-32"/>
       <use xlink:href="#DejaVuSans-32" x="63.623047"/>
       <use xlink:href="#DejaVuSans-35" x="127.246094"/>
       <use xlink:href="#DejaVuSans-30" x="190.869141"/>
      </g>
     </g>
    </g>
    <g id="text_16">
     <!-- TEP concentration (µg XG eq. L-1) -->
     <g transform="translate(14.798438 209.702031) rotate(-90) scale(0.1 -0.1)">
      <defs>
       <path id="DejaVuSans-54" d="M -19 4666 
L 3928 4666 
L 3928 4134 
L 2272 4134 
L 2272 0 
L 1638 0 
L 1638 4134 
L -19 4134 
L -19 4666 
z
" transform="scale(0.015625)"/>
       <path id="DejaVuSans-45" d="M 628 4666 
L 3578 4666 
L 3578 4134 
L 1259 4134 
L 1259 2753 
L 3481 2753 
L 3481 2222 
L 1259 2222 
L 1259 531 
L 3634 531 
L 3634 0 
L 628 0 
L 628 4666 
z
" transform="scale(0.015625)"/>
       <path id="DejaVuSans-65" d="M 3597 1894 
L 3597 1613 
L 953 1613 
Q 991 1019 1311 708 
Q 1631 397 2203 397 
Q 2534 397 2845 478 
Q 3156 559 3463 722 
L 3463 178 
Q 3153 47 2828 -22 
Q 2503 -91 2169 -91 
Q 1331 -91 842 396 
Q 353 884 353 1716 
Q 353 2575 817 3079 
Q 1281 3584 2069 3584 
Q 2775 3584 3186 3129 
Q 3597 2675 3597 1894 
z
M 3022 2063 
Q 3016 2534 2758 2815 
Q 2500 3097 2075 3097 
Q 1594 3097 1305 2825 
Q 1016 2553 972 2059 
L 3022 2063 
z
" transform="scale(0.015625)"/>
       <path id="DejaVuSans-b5" d="M 544 -1331 
L 544 3500 
L 1119 3500 
L 1119 1325 
Q 1119 872 1334 640 
Q 1550 409 1972 409 
Q 2434 409 2667 671 
Q 2900 934 2900 1459 
L 2900 3500 
L 3475 3500 
L 3475 806 
Q 3475 619 3529 530 
Q 3584 441 3700 441 
Q 3728 441 3778 458 
Q 3828 475 3916 513 
L 3916 50 
Q 3788 -22 3673 -56 
Q 3559 -91 3450 -91 
Q 3234 -91 3106 31 
Q 2978 153 2931 403 
Q 2775 156 2548 32 
Q 2322 -91 2016 -91 
Q 1697 -91 1473 31 
Q 1250 153 1119 397 
L 1119 -1331 
L 544 -1331 
z
" transform="scale(0.015625)"/>
       <path id="DejaVuSans-58" d="M 403 4666 
L 1081 4666 
L 2241 2931 
L 3406 4666 
L 4084 4666 
L 2584 2425 
L 4184 0 
L 3506 0 
L 2194 1984 
L 872 0 
L 191 0 
L 1856 2491 
L 403 4666 
z
" transform="scale(0.015625)"/>
       <path id="DejaVuSans-47" d="M 3809 666 
L 3809 1919 
L 2778 1919 
L 2778 2438 
L 4434 2438 
L 4434 434 
Q 4069 175 3628 42 
Q 3188 -91 2688 -91 
Q 1594 -91 976 548 
Q 359 1188 359 2328 
Q 359 3472 976 4111 
Q 1594 4750 2688 4750 
Q 3144 4750 3555 4637 
Q 3966 4525 4313 4306 
L 4313 3634 
Q 3963 3931 3569 4081 
Q 3175 4231 2741 4231 
Q 1884 4231 1454 3753 
Q 1025 3275 1025 2328 
Q 1025 1384 1454 906 
Q 1884 428 2741 428 
Q 3075 428 3337 486 
Q 3600 544 3809 666 
z
" transform="scale(0.015625)"/>
       <path id="DejaVuSans-71" d="M 947 1747 
Q 947 1113 1208 752 
Q 1469 391 1925 391 
Q 2381 391 2643 752 
Q 2906 1113 2906 1747 
Q 2906 2381 2643 2742 
Q 2381 3103 1925 3103 
Q 1469 3103 1208 2742 
Q 947 2381 947 1747 
z
M 2906 525 
Q 2725 213 2448 61 
Q 2172 -91 1784 -91 
Q 1150 -91 751 415 
Q 353 922 353 1747 
Q 353 2572 751 3078 
Q 1150 3584 1784 3584 
Q 2172 3584 2448 3432 
Q 2725 3281 2906 2969 
L 2906 3500 
L 3481 3500 
L 3481 -1331 
L 2906 -1331 
L 2906 525 
z
" transform="scale(0.015625)"/>
       <path id="DejaVuSans-2e" d="M 684 794 
L 1344 794 
L 1344 0 
L 684 0 
L 684 794 
z
" transform="scale(0.015625)"/>
       <path id="DejaVuSans-4c" d="M 628 4666 
L 1259 4666 
L 1259 531 
L 3531 531 
L 3531 0 
L 628 0 
L 628 4666 
z
" transform="scale(0.015625)"/>
       <path id="DejaVuSans-2d" d="M 313 2009 
L 1997 2009 
L 1997 1497 
L 313 1497 
L 313 2009 
z
" transform="scale(0.015625)"/>
      </defs>
      <use xlink:href="#DejaVuSans-54"/>
      <use xlink:href="#DejaVuSans-45" x="61.083984"/>
      <use xlink:href="#DejaVuSans-50" x="124.267578"/>
      <use xlink:href="#DejaVuSans-20" x="184.570312"/>
      <use xlink:href="#DejaVuSans-63" x="216.357422"/>
      <use xlink:href="#DejaVuSans-6f" x="271.337891"/>
      <use xlink:href="#DejaVuSans-6e" x="332.519531"/>
      <use xlink:href="#DejaVuSans-63" x="395.898438"/>
      <use xlink:href="#DejaVuSans-65" x="450.878906"/>
      <use xlink:href="#DejaVuSans-6e" x="512.402344"/>
      <use xlink:href="#DejaVuSans-74" x="575.78125"/>
      <use xlink:href="#DejaVuSans-72" x="614.990234"/>
      <use xlink:href="#DejaVuSans-61" x="656.103516"/>
      <use xlink:href="#DejaVuSans-74" x="717.382812"/>
      <use xlink:href="#DejaVuSans-69" x="756.591797"/>
      <use xlink:href="#DejaVuSans-6f" x="784.375"/>
      <use xlink:href="#DejaVuSans-6e" x="845.556641"/>
      <use xlink:href="#DejaVuSans-20" x="908.935547"/>
      <use xlink:href="#DejaVuSans-28" x="940.722656"/>
      <use xlink:href="#DejaVuSans-b5" x="979.736328"/>
      <use xlink:href="#DejaVuSans-67" x="1043.359375"/>
      <use xlink:href="#DejaVuSans-20" x="1106.835938"/>
      <use xlink:href="#DejaVuSans-58" x="1138.623047"/>
      <use xlink:href="#DejaVuSans-47" x="1207.128906"/>
      <use xlink:href="#DejaVuSans-20" x="1284.619141"/>
      <use xlink:href="#DejaVuSans-65" x="1316.40625"/>
      <use xlink:href="#DejaVuSans-71" x="1377.929688"/>
      <use xlink:href="#DejaVuSans-2e" x="1441.40625"/>
      <use xlink:href="#DejaVuSans-20" x="1473.193359"/>
      <use xlink:href="#DejaVuSans-4c" x="1504.980469"/>
      <use xlink:href="#DejaVuSans-2d" x="1558.943359"/>
      <use xlink:href="#DejaVuSans-31" x="1595.027344"/>
      <use xlink:href="#DejaVuSans-29" x="1658.650391"/>
     </g>
    </g>
   </g>
   <g id="line2d_15">
    <path d="M 66.580013 191.937628 
L 69.257162 191.081103 
L 71.934311 190.224579 
L 74.61146 189.368055 
L 77.288609 188.511531 
L 79.965758 187.655006 
L 82.642907 186.798482 
L 85.320056 185.941958 
L 87.997205 185.085434 
L 90.674354 184.22891 
L 93.351503 183.372385 
L 96.028652 182.515861 
L 98.705801 181.659337 
L 101.38295 180.802813 
L 104.060099 179.946288 
L 106.737248 179.089764 
L 109.414397 178.23324 
L 112.091546 177.376716 
L 114.768695 176.520192 
L 117.445844 175.663667 
L 120.122993 174.807143 
L 122.800142 173.950619 
L 125.477291 173.094095 
L 128.15444 172.23757 
L 130.831589 171.381046 
L 133.508738 170.524522 
L 136.185887 169.667998 
L 138.863036 168.811474 
L 141.540185 167.954949 
L 144.217334 167.098425 
L 146.894483 166.241901 
L 149.571632 165.385377 
L 152.248781 164.528852 
L 154.92593 163.672328 
L 157.603079 162.815804 
L 160.280228 161.95928 
L 162.957377 161.102756 
L 165.634526 160.246231 
L 168.311675 159.389707 
L 170.988824 158.533183 
L 173.665973 157.676659 
L 176.343122 156.820134 
L 179.020271 155.96361 
L 181.69742 155.107086 
L 184.374569 154.250562 
L 187.051718 153.394038 
L 189.728867 152.537513 
L 192.406016 151.680989 
L 195.083165 150.824465 
L 197.760314 149.967941 
L 200.437463 149.111416 
L 203.114612 148.254892 
L 205.791761 147.398368 
L 208.46891 146.541844 
L 211.146059 145.68532 
L 213.823208 144.828795 
L 216.500357 143.972271 
L 219.177506 143.115747 
L 221.854655 142.259223 
L 224.531804 141.402698 
L 227.208953 140.546174 
L 229.886102 139.68965 
L 232.563251 138.833126 
L 235.2404 137.976601 
L 237.917549 137.120077 
L 240.594698 136.263553 
L 243.271847 135.407029 
L 245.948996 134.550505 
L 248.626145 133.69398 
L 251.303294 132.837456 
L 253.980443 131.980932 
L 256.657592 131.124408 
L 259.334741 130.267883 
L 262.01189 129.411359 
L 264.689039 128.554835 
L 267.366188 127.698311 
L 270.043337 126.841787 
L 272.720486 125.985262 
L 275.397635 125.128738 
L 278.074784 124.272214 
L 280.751933 123.41569 
L 283.429082 122.559165 
L 286.106231 121.702641 
L 288.78338 120.846117 
L 291.460529 119.989593 
L 294.137678 119.133069 
L 296.814827 118.276544 
L 299.491976 117.42002 
L 302.169125 116.563496 
L 304.846274 115.706972 
L 307.523423 114.850447 
L 310.200572 113.993923 
L 312.877721 113.137399 
L 315.55487 112.280875 
L 318.232019 111.424351 
L 320.909168 110.567826 
L 323.586317 109.711302 
L 326.263466 108.854778 
L 328.940615 107.998254 
L 331.617764 107.141729 
" clip-path="url(#pb73c38f7c9)" style="fill: none; stroke: #808080; stroke-width: 2.25; stroke-linecap: square"/>
   </g>
   <g id="line2d_16"/>
   <g id="line2d_17"/>
   <g id="line2d_18"/>
   <g id="line2d_19"/>
   <g id="line2d_20"/>
   <g id="line2d_21"/>
   <g id="patch_3">
    <path d="M 53.328125 242.44 
L 53.328125 7.2 
" style="fill: none; stroke: #000000; stroke-width: 0.8; stroke-linejoin: miter; stroke-linecap: square"/>
   </g>
   <g id="patch_4">
    <path d="M 344.869651 242.44 
L 344.869651 7.2 
" style="fill: none; stroke: #000000; stroke-width: 0.8; stroke-linejoin: miter; stroke-linecap: square"/>
   </g>
   <g id="patch_5">
    <path d="M 53.328125 242.44 
L 344.869651 242.44 
" style="fill: none; stroke: #000000; stroke-width: 0.8; stroke-linejoin: miter; stroke-linecap: square"/>
   </g>
   <g id="patch_6">
    <path d="M 53.328125 7.2 
L 344.869651 7.2 
" style="fill: none; stroke: #000000; stroke-width: 0.8; stroke-linejoin: miter; stroke-linecap: square"/>
   </g>
   <g id="legend_1">
    <g id="patch_7">
     <path d="M 60.328125 117.946875 
L 137.664062 117.946875 
Q 139.664062 117.946875 139.664062 115.946875 
L 139.664062 14.2 
Q 139.664062 12.2 137.664062 12.2 
L 60.328125 12.2 
Q 58.328125 12.2 58.328125 14.2 
L 58.328125 115.946875 
Q 58.328125 117.946875 60.328125 117.946875 
z
" style="fill: #ffffff; opacity: 0.8; stroke: #cccccc; stroke-linejoin: miter"/>
    </g>
    <g id="text_17">
     <!-- Oxygen Levels -->
     <g transform="translate(62.328125 23.798437) scale(0.1 -0.1)">
      <defs>
       <path id="DejaVuSans-4f" d="M 2522 4238 
Q 1834 4238 1429 3725 
Q 1025 3213 1025 2328 
Q 1025 1447 1429 934 
Q 1834 422 2522 422 
Q 3209 422 3611 934 
Q 4013 1447 4013 2328 
Q 4013 3213 3611 3725 
Q 3209 4238 2522 4238 
z
M 2522 4750 
Q 3503 4750 4090 4092 
Q 4678 3434 4678 2328 
Q 4678 1225 4090 567 
Q 3503 -91 2522 -91 
Q 1538 -91 948 565 
Q 359 1222 359 2328 
Q 359 3434 948 4092 
Q 1538 4750 2522 4750 
z
" transform="scale(0.015625)"/>
       <path id="DejaVuSans-78" d="M 3513 3500 
L 2247 1797 
L 3578 0 
L 2900 0 
L 1881 1375 
L 863 0 
L 184 0 
L 1544 1831 
L 300 3500 
L 978 3500 
L 1906 2253 
L 2834 3500 
L 3513 3500 
z
" transform="scale(0.015625)"/>
       <path id="DejaVuSans-76" d="M 191 3500 
L 800 3500 
L 1894 563 
L 2988 3500 
L 3597 3500 
L 2284 0 
L 1503 0 
L 191 3500 
z
" transform="scale(0.015625)"/>
       <path id="DejaVuSans-6c" d="M 603 4863 
L 1178 4863 
L 1178 0 
L 603 0 
L 603 4863 
z
" transform="scale(0.015625)"/>
       <path id="DejaVuSans-73" d="M 2834 3397 
L 2834 2853 
Q 2591 2978 2328 3040 
Q 2066 3103 1784 3103 
Q 1356 3103 1142 2972 
Q 928 2841 928 2578 
Q 928 2378 1081 2264 
Q 1234 2150 1697 2047 
L 1894 2003 
Q 2506 1872 2764 1633 
Q 3022 1394 3022 966 
Q 3022 478 2636 193 
Q 2250 -91 1575 -91 
Q 1294 -91 989 -36 
Q 684 19 347 128 
L 347 722 
Q 666 556 975 473 
Q 1284 391 1588 391 
Q 1994 391 2212 530 
Q 2431 669 2431 922 
Q 2431 1156 2273 1281 
Q 2116 1406 1581 1522 
L 1381 1569 
Q 847 1681 609 1914 
Q 372 2147 372 2553 
Q 372 3047 722 3315 
Q 1072 3584 1716 3584 
Q 2034 3584 2315 3537 
Q 2597 3491 2834 3397 
z
" transform="scale(0.015625)"/>
      </defs>
      <use xlink:href="#DejaVuSans-4f"/>
      <use xlink:href="#DejaVuSans-78" x="78.710938"/>
      <use xlink:href="#DejaVuSans-79" x="137.890625"/>
      <use xlink:href="#DejaVuSans-67" x="197.070312"/>
      <use xlink:href="#DejaVuSans-65" x="260.546875"/>
      <use xlink:href="#DejaVuSans-6e" x="322.070312"/>
      <use xlink:href="#DejaVuSans-20" x="385.449219"/>
      <use xlink:href="#DejaVuSans-4c" x="417.236328"/>
      <use xlink:href="#DejaVuSans-65" x="471.199219"/>
      <use xlink:href="#DejaVuSans-76" x="532.722656"/>
      <use xlink:href="#DejaVuSans-65" x="591.902344"/>
      <use xlink:href="#DejaVuSans-6c" x="653.425781"/>
      <use xlink:href="#DejaVuSans-73" x="681.208984"/>
     </g>
    </g>
    <g id="line2d_22">
     <defs>
      <path id="m45475fa623" d="M 0 2.531075 
C 0.671249 2.531075 1.315096 2.264385 1.78974 1.78974 
C 2.264385 1.315096 2.531075 0.671249 2.531075 0 
C 2.531075 -0.671249 2.264385 -1.315096 1.78974 -1.78974 
C 1.315096 -2.264385 0.671249 -2.531075 0 -2.531075 
C -0.671249 -2.531075 -1.315096 -2.264385 -1.78974 -1.78974 
C -2.264385 -1.315096 -2.531075 -0.671249 -2.531075 0 
C -2.531075 0.671249 -2.264385 1.315096 -1.78974 1.78974 
C -1.315096 2.264385 -0.671249 2.531075 0 2.531075 
z
" style="stroke: #000000; stroke-width: 0.454663"/>
     </defs>
     <g>
      <use xlink:href="#m45475fa623" x="85.452344" y="34.976562" style="fill: #1f77b4; stroke: #000000; stroke-width: 0.454663"/>
     </g>
    </g>
    <g id="text_18">
     <!-- 280 -->
     <g transform="translate(103.452344 38.476562) scale(0.1 -0.1)">
      <defs>
       <path id="DejaVuSans-38" d="M 2034 2216 
Q 1584 2216 1326 1975 
Q 1069 1734 1069 1313 
Q 1069 891 1326 650 
Q 1584 409 2034 409 
Q 2484 409 2743 651 
Q 3003 894 3003 1313 
Q 3003 1734 2745 1975 
Q 2488 2216 2034 2216 
z
M 1403 2484 
Q 997 2584 770 2862 
Q 544 3141 544 3541 
Q 544 4100 942 4425 
Q 1341 4750 2034 4750 
Q 2731 4750 3128 4425 
Q 3525 4100 3525 3541 
Q 3525 3141 3298 2862 
Q 3072 2584 2669 2484 
Q 3125 2378 3379 2068 
Q 3634 1759 3634 1313 
Q 3634 634 3220 271 
Q 2806 -91 2034 -91 
Q 1263 -91 848 271 
Q 434 634 434 1313 
Q 434 1759 690 2068 
Q 947 2378 1403 2484 
z
M 1172 3481 
Q 1172 3119 1398 2916 
Q 1625 2713 2034 2713 
Q 2441 2713 2670 2916 
Q 2900 3119 2900 3481 
Q 2900 3844 2670 4047 
Q 2441 4250 2034 4250 
Q 1625 4250 1398 4047 
Q 1172 3844 1172 3481 
z
" transform="scale(0.015625)"/>
      </defs>
      <use xlink:href="#DejaVuSans-32"/>
      <use xlink:href="#DejaVuSans-38" x="63.623047"/>
      <use xlink:href="#DejaVuSans-30" x="127.246094"/>
     </g>
    </g>
    <g id="line2d_23">
     <defs>
      <path id="m79c944c664" d="M 0 2.953587 
C 0.7833 2.953587 1.534624 2.642378 2.088501 2.088501 
C 2.642378 1.534624 2.953587 0.7833 2.953587 0 
C 2.953587 -0.7833 2.642378 -1.534624 2.088501 -2.088501 
C 1.534624 -2.642378 0.7833 -2.953587 0 -2.953587 
C -0.7833 -2.953587 -1.534624 -2.642378 -2.088501 -2.088501 
C -2.642378 -1.534624 -2.953587 -0.7833 -2.953587 0 
C -2.953587 0.7833 -2.642378 1.534624 -2.088501 2.088501 
C -1.534624 2.642378 -0.7833 2.953587 0 2.953587 
z
" style="stroke: #000000; stroke-width: 0.454663"/>
     </defs>
     <g>
      <use xlink:href="#m79c944c664" x="85.452344" y="49.654687" style="fill: #1f77b4; stroke: #000000; stroke-width: 0.454663"/>
     </g>
    </g>
    <g id="text_19">
     <!-- 285 -->
     <g transform="translate(103.452344 53.154687) scale(0.1 -0.1)">
      <use xlink:href="#DejaVuSans-32"/>
      <use xlink:href="#DejaVuSans-38" x="63.623047"/>
      <use xlink:href="#DejaVuSans-35" x="127.246094"/>
     </g>
    </g>
    <g id="line2d_24">
     <defs>
      <path id="m024ad2d976" d="M 0 3.322801 
C 0.881217 3.322801 1.726461 2.97269 2.349575 2.349575 
C 2.97269 1.726461 3.322801 0.881217 3.322801 0 
C 3.322801 -0.881217 2.97269 -1.726461 2.349575 -2.349575 
C 1.726461 -2.97269 0.881217 -3.322801 0 -3.322801 
C -0.881217 -3.322801 -1.726461 -2.97269 -2.349575 -2.349575 
C -2.97269 -1.726461 -3.322801 -0.881217 -3.322801 0 
C -3.322801 0.881217 -2.97269 1.726461 -2.349575 2.349575 
C -1.726461 2.97269 -0.881217 3.322801 0 3.322801 
z
" style="stroke: #000000; stroke-width: 0.454663"/>
     </defs>
     <g>
      <use xlink:href="#m024ad2d976" x="85.452344" y="64.332812" style="fill: #1f77b4; stroke: #000000; stroke-width: 0.454663"/>
     </g>
    </g>
    <g id="text_20">
     <!-- 290 -->
     <g transform="translate(103.452344 67.832812) scale(0.1 -0.1)">
      <defs>
       <path id="DejaVuSans-39" d="M 703 97 
L 703 672 
Q 941 559 1184 500 
Q 1428 441 1663 441 
Q 2288 441 2617 861 
Q 2947 1281 2994 2138 
Q 2813 1869 2534 1725 
Q 2256 1581 1919 1581 
Q 1219 1581 811 2004 
Q 403 2428 403 3163 
Q 403 3881 828 4315 
Q 1253 4750 1959 4750 
Q 2769 4750 3195 4129 
Q 3622 3509 3622 2328 
Q 3622 1225 3098 567 
Q 2575 -91 1691 -91 
Q 1453 -91 1209 -44 
Q 966 3 703 97 
z
M 1959 2075 
Q 2384 2075 2632 2365 
Q 2881 2656 2881 3163 
Q 2881 3666 2632 3958 
Q 2384 4250 1959 4250 
Q 1534 4250 1286 3958 
Q 1038 3666 1038 3163 
Q 1038 2656 1286 2365 
Q 1534 2075 1959 2075 
z
" transform="scale(0.015625)"/>
      </defs>
      <use xlink:href="#DejaVuSans-32"/>
      <use xlink:href="#DejaVuSans-39" x="63.623047"/>
      <use xlink:href="#DejaVuSans-30" x="127.246094"/>
     </g>
    </g>
    <g id="line2d_25">
     <defs>
      <path id="m3176a4de6a" d="M 0 3.654907 
C 0.969293 3.654907 1.899016 3.269803 2.584409 2.584409 
C 3.269803 1.899016 3.654907 0.969293 3.654907 0 
C 3.654907 -0.969293 3.269803 -1.899016 2.584409 -2.584409 
C 1.899016 -3.269803 0.969293 -3.654907 0 -3.654907 
C -0.969293 -3.654907 -1.899016 -3.269803 -2.584409 -2.584409 
C -3.269803 -1.899016 -3.654907 -0.969293 -3.654907 0 
C -3.654907 0.969293 -3.269803 1.899016 -2.584409 2.584409 
C -1.899016 3.269803 -0.969293 3.654907 0 3.654907 
z
" style="stroke: #000000; stroke-width: 0.454663"/>
     </defs>
     <g>
      <use xlink:href="#m3176a4de6a" x="85.452344" y="79.010938" style="fill: #1f77b4; stroke: #000000; stroke-width: 0.454663"/>
     </g>
    </g>
    <g id="text_21">
     <!-- 295 -->
     <g transform="translate(103.452344 82.510938) scale(0.1 -0.1)">
      <use xlink:href="#DejaVuSans-32"/>
      <use xlink:href="#DejaVuSans-39" x="63.623047"/>
      <use xlink:href="#DejaVuSans-35" x="127.246094"/>
     </g>
    </g>
    <g id="line2d_26">
     <defs>
      <path id="m173c571d01" d="M 0 3.959252 
C 1.050006 3.959252 2.057148 3.54208 2.799614 2.799614 
C 3.54208 2.057148 3.959252 1.050006 3.959252 0 
C 3.959252 -1.050006 3.54208 -2.057148 2.799614 -2.799614 
C 2.057148 -3.54208 1.050006 -3.959252 0 -3.959252 
C -1.050006 -3.959252 -2.057148 -3.54208 -2.799614 -2.799614 
C -3.54208 -2.057148 -3.959252 -1.050006 -3.959252 0 
C -3.959252 1.050006 -3.54208 2.057148 -2.799614 2.799614 
C -2.057148 3.54208 -1.050006 3.959252 0 3.959252 
z
" style="stroke: #000000; stroke-width: 0.454663"/>
     </defs>
     <g>
      <use xlink:href="#m173c571d01" x="85.452344" y="93.689063" style="fill: #1f77b4; stroke: #000000; stroke-width: 0.454663"/>
     </g>
    </g>
    <g id="text_22">
     <!-- 300 -->
     <g transform="translate(103.452344 97.189063) scale(0.1 -0.1)">
      <use xlink:href="#DejaVuSans-33"/>
      <use xlink:href="#DejaVuSans-30" x="63.623047"/>
      <use xlink:href="#DejaVuSans-30" x="127.246094"/>
     </g>
    </g>
    <g id="line2d_27">
     <defs>
      <path id="m7afb2cad11" d="M 0 4.241817 
C 1.124943 4.241817 2.203963 3.794872 2.999417 2.999417 
C 3.794872 2.203963 4.241817 1.124943 4.241817 0 
C 4.241817 -1.124943 3.794872 -2.203963 2.999417 -2.999417 
C 2.203963 -3.794872 1.124943 -4.241817 0 -4.241817 
C -1.124943 -4.241817 -2.203963 -3.794872 -2.999417 -2.999417 
C -3.794872 -2.203963 -4.241817 -1.124943 -4.241817 0 
C -4.241817 1.124943 -3.794872 2.203963 -2.999417 2.999417 
C -2.203963 3.794872 -1.124943 4.241817 0 4.241817 
z
" style="stroke: #000000; stroke-width: 0.454663"/>
     </defs>
     <g>
      <use xlink:href="#m7afb2cad11" x="85.452344" y="108.367188" style="fill: #1f77b4; stroke: #000000; stroke-width: 0.454663"/>
     </g>
    </g>
    <g id="text_23">
     <!-- 305 -->
     <g transform="translate(103.452344 111.867188) scale(0.1 -0.1)">
      <use xlink:href="#DejaVuSans-33"/>
      <use xlink:href="#DejaVuSans-30" x="63.623047"/>
      <use xlink:href="#DejaVuSans-35" x="127.246094"/>
     </g>
    </g>
   </g>
  </g>
 </g>
 <defs>
  <clipPath id="pb73c38f7c9">
   <rect x="53.328125" y="7.2" width="291.541526" height="235.24"/>
  </clipPath>
 </defs>
</svg>
