<?xml version="1.0" encoding="utf-8" standalone="no"?>
<!DOCTYPE svg PUBLIC "-//W3C//DTD SVG 1.1//EN"
  "http://www.w3.org/Graphics/SVG/1.1/DTD/svg11.dtd">
<svg xmlns:xlink="http://www.w3.org/1999/xlink" width="352.558125pt" height="279.99625pt" viewBox="0 0 352.558125 279.99625" xmlns="http://www.w3.org/2000/svg" version="1.1">
 <metadata>
  <rdf:RDF xmlns:dc="http://purl.org/dc/elements/1.1/" xmlns:cc="http://creativecommons.org/ns#" xmlns:rdf="http://www.w3.org/1999/02/22-rdf-syntax-ns#">
   <cc:Work>
    <dc:type rdf:resource="http://purl.org/dc/dcmitype/StillImage"/>
    <dc:date>2025-03-14T13:15:06.238424</dc:date>
    <dc:format>image/svg+xml</dc:format>
    <dc:creator>
     <cc:Agent>
      <dc:title>Matplotlib v3.8.3, https://matplotlib.org/</dc:title>
     </cc:Agent>
    </dc:creator>
   </cc:Work>
  </rdf:RDF>
 </metadata>
 <defs>
  <style type="text/css">*{stroke-linejoin: round; stroke-linecap: butt}</style>
 </defs>
 <g id="figure_1">
  <g id="patch_1">
   <path d="M 0 279.99625 
L 352.558125 279.99625 
L 352.558125 0 
L 0 0 
z
" style="fill: #ffffff"/>
  </g>
  <g id="axes_1">
   <g id="patch_2">
    <path d="M 53.328125 242.44 
L 345.358125 242.44 
L 345.358125 7.2 
L 53.328125 7.2 
z
" style="fill: #ffffff"/>
   </g>
   <g id="PolyCollection_1">
    <path d="M 66.602216 209.584348 
L 66.602216 228.386133 
L 69.28385 226.824007 
L 71.965485 225.12095 
L 74.647119 223.592487 
L 77.328754 221.978188 
L 80.010389 220.241338 
L 82.692023 218.680989 
L 85.373658 217.172712 
L 88.055292 215.518729 
L 90.736927 213.844099 
L 93.418561 212.266198 
L 96.100196 210.790119 
L 98.78183 209.286708 
L 101.463465 207.731794 
L 104.145099 206.22455 
L 106.826734 204.681789 
L 109.508368 203.116773 
L 112.190003 201.585684 
L 114.871637 200.228604 
L 117.553272 198.915014 
L 120.234906 197.403723 
L 122.916541 195.954125 
L 125.598176 194.460321 
L 128.27981 192.97458 
L 130.961445 191.664959 
L 133.643079 190.3048 
L 136.324714 189.161671 
L 139.006348 187.869069 
L 141.687983 186.62263 
L 144.369617 185.384697 
L 147.051252 184.192118 
L 149.732886 182.999383 
L 152.414521 181.796786 
L 155.096155 180.563482 
L 157.77779 179.386485 
L 160.459424 178.195659 
L 163.141059 177.028977 
L 165.822693 175.83507 
L 168.504328 174.641608 
L 171.185962 173.408234 
L 173.867597 172.255124 
L 176.549232 171.095486 
L 179.230866 169.878651 
L 181.912501 168.724522 
L 184.594135 167.510047 
L 187.27577 166.500274 
L 189.957404 165.391211 
L 192.639039 164.386669 
L 195.320673 163.224942 
L 198.002308 162.200545 
L 200.683942 161.092225 
L 203.365577 159.93329 
L 206.047211 158.846435 
L 208.728846 157.864523 
L 211.41048 156.88261 
L 214.092115 155.800337 
L 216.773749 154.666232 
L 219.455384 153.578754 
L 222.137018 152.408409 
L 224.818653 151.217952 
L 227.500288 150.027496 
L 230.181922 148.841401 
L 232.863557 147.692239 
L 235.545191 146.673693 
L 238.226826 145.49579 
L 240.90846 144.432915 
L 243.590095 143.461689 
L 246.271729 142.410873 
L 248.953364 141.2154 
L 251.634998 140.072903 
L 254.316633 138.998699 
L 256.998267 137.945021 
L 259.679902 136.904029 
L 262.361536 135.809247 
L 265.043171 134.705083 
L 267.724805 133.632664 
L 270.40644 132.560246 
L 273.088074 131.487827 
L 275.769709 130.415409 
L 278.451344 129.341982 
L 281.132978 128.268187 
L 283.814613 127.19333 
L 286.496247 126.118137 
L 289.177882 125.042945 
L 291.859516 123.941147 
L 294.541151 122.896729 
L 297.222785 121.824879 
L 299.90442 120.751619 
L 302.586054 119.677823 
L 305.267689 118.604028 
L 307.949323 117.530232 
L 310.630958 116.456437 
L 313.312592 115.363655 
L 315.994227 114.269303 
L 318.675861 113.164746 
L 321.357496 112.043726 
L 324.039131 110.922706 
L 326.720765 109.801687 
L 329.4024 108.680667 
L 332.084034 107.559648 
L 332.084034 53.595266 
L 332.084034 53.595266 
L 329.4024 55.422022 
L 326.720765 57.249534 
L 324.039131 59.077045 
L 321.357496 60.904557 
L 318.675861 62.732069 
L 315.994227 64.559887 
L 313.312592 66.365223 
L 310.630958 68.078999 
L 307.949323 69.792775 
L 305.267689 71.506551 
L 302.586054 73.220326 
L 299.90442 74.931111 
L 297.222785 76.632248 
L 294.541151 78.333385 
L 291.859516 80.034522 
L 289.177882 81.73566 
L 286.496247 83.441879 
L 283.814613 85.134321 
L 281.132978 86.832217 
L 278.451344 88.524175 
L 275.769709 90.199666 
L 273.088074 91.924366 
L 270.40644 93.626393 
L 267.724805 95.325485 
L 265.043171 97.066676 
L 262.361536 98.862912 
L 259.679902 100.615496 
L 256.998267 102.326799 
L 254.316633 104.038102 
L 251.634998 105.749405 
L 248.953364 107.460709 
L 246.271729 109.172012 
L 243.590095 110.883315 
L 240.90846 112.594618 
L 238.226826 114.2765 
L 235.545191 115.896119 
L 232.863557 117.675947 
L 230.181922 119.441058 
L 227.500288 121.153229 
L 224.818653 122.8654 
L 222.137018 124.577571 
L 219.455384 126.289743 
L 216.773749 128.001914 
L 214.092115 129.714085 
L 211.41048 131.426257 
L 208.728846 133.138428 
L 206.047211 134.825445 
L 203.365577 136.508506 
L 200.683942 138.2238 
L 198.002308 139.955901 
L 195.320673 141.552671 
L 192.639039 143.232521 
L 189.957404 144.915978 
L 187.27577 146.599435 
L 184.594135 148.342662 
L 181.912501 149.962892 
L 179.230866 151.642179 
L 176.549232 153.323567 
L 173.867597 154.99879 
L 171.185962 156.689894 
L 168.504328 158.236894 
L 165.822693 159.931521 
L 163.141059 161.574564 
L 160.459424 163.113473 
L 157.77779 164.648028 
L 155.096155 166.173953 
L 152.414521 167.700932 
L 149.732886 169.255208 
L 147.051252 170.759342 
L 144.369617 172.286446 
L 141.687983 173.749882 
L 139.006348 175.13091 
L 136.324714 176.540268 
L 133.643079 177.929603 
L 130.961445 179.385519 
L 128.27981 180.77894 
L 125.598176 182.210314 
L 122.916541 183.69134 
L 120.234906 185.028976 
L 117.553272 186.25771 
L 114.871637 187.570568 
L 112.190003 188.866925 
L 109.508368 190.139758 
L 106.826734 191.568461 
L 104.145099 192.892017 
L 101.463465 194.189419 
L 98.78183 195.4023 
L 96.100196 196.628516 
L 93.418561 197.843301 
L 90.736927 199.156516 
L 88.055292 200.386128 
L 85.373658 201.628251 
L 82.692023 202.710018 
L 80.010389 203.993479 
L 77.328754 205.162899 
L 74.647119 206.337765 
L 71.965485 207.426027 
L 69.28385 208.484863 
L 66.602216 209.584348 
z
" clip-path="url(#p645be63809)" style="fill: #808080; fill-opacity: 0.15"/>
   </g>
   <g id="PathCollection_1">
    <path d="M 279.001959 114.633809 
C 279.646777 114.633809 280.265271 114.37762 280.721226 113.921665 
C 281.177181 113.46571 281.43337 112.847215 281.43337 112.202398 
C 281.43337 111.55758 281.177181 110.939085 280.721226 110.48313 
C 280.265271 110.027175 279.646777 109.770986 279.001959 109.770986 
C 278.357141 109.770986 277.738647 110.027175 277.282692 110.48313 
C 276.826737 110.939085 276.570548 111.55758 276.570548 112.202398 
C 276.570548 112.847215 276.826737 113.46571 277.282692 113.921665 
C 277.738647 114.37762 278.357141 114.633809 279.001959 114.633809 
z
" clip-path="url(#p645be63809)" style="fill: #1f77b4; stroke: #000000; stroke-width: 0.388445"/>
    <path d="M 231.921088 142.135354 
C 232.678446 142.135354 233.404886 141.834453 233.940419 141.29892 
C 234.475952 140.763387 234.776854 140.036946 234.776854 139.279588 
C 234.776854 138.52223 234.475952 137.79579 233.940419 137.260257 
C 233.404886 136.724724 232.678446 136.423822 231.921088 136.423822 
C 231.16373 136.423822 230.437289 136.724724 229.901756 137.260257 
C 229.366223 137.79579 229.065322 138.52223 229.065322 139.279588 
C 229.065322 140.036946 229.366223 140.763387 229.901756 141.29892 
C 230.437289 141.834453 231.16373 142.135354 231.921088 142.135354 
z
" clip-path="url(#p645be63809)" style="fill: #1f77b4; stroke: #000000; stroke-width: 0.388445"/>
    <path d="M 288.218093 113.889747 
C 288.860984 113.889747 289.477629 113.634324 289.932222 113.179732 
C 290.386814 112.72514 290.642237 112.108494 290.642237 111.465603 
C 290.642237 110.822713 290.386814 110.206067 289.932222 109.751475 
C 289.477629 109.296883 288.860984 109.04146 288.218093 109.04146 
C 287.575203 109.04146 286.958557 109.296883 286.503965 109.751475 
C 286.049373 110.206067 285.79395 110.822713 285.79395 111.465603 
C 285.79395 112.108494 286.049373 112.72514 286.503965 113.179732 
C 286.958557 113.634324 287.575203 113.889747 288.218093 113.889747 
z
" clip-path="url(#p645be63809)" style="fill: #1f77b4; stroke: #000000; stroke-width: 0.388445"/>
    <path d="M 240.85145 20.152818 
C 241.450833 20.152818 242.025748 19.914681 242.449576 19.490853 
C 242.873404 19.067025 243.111541 18.49211 243.111541 17.892727 
C 243.111541 17.293344 242.873404 16.71843 242.449576 16.294602 
C 242.025748 15.870774 241.450833 15.632636 240.85145 15.632636 
C 240.252067 15.632636 239.677153 15.870774 239.253325 16.294602 
C 238.829497 16.71843 238.591359 17.293344 238.591359 17.892727 
C 238.591359 18.49211 238.829497 19.067025 239.253325 19.490853 
C 239.677153 19.914681 240.252067 20.152818 240.85145 20.152818 
z
" clip-path="url(#p645be63809)" style="fill: #1f77b4; stroke: #000000; stroke-width: 0.388445"/>
    <path d="M 185.197431 148.072457 
C 185.868426 148.072457 186.512029 147.805868 186.986494 147.331403 
C 187.460959 146.856938 187.727548 146.213335 187.727548 145.54234 
C 187.727548 144.871345 187.460959 144.227742 186.986494 143.753277 
C 186.512029 143.278812 185.868426 143.012223 185.197431 143.012223 
C 184.526436 143.012223 183.882833 143.278812 183.408368 143.753277 
C 182.933903 144.227742 182.667314 144.871345 182.667314 145.54234 
C 182.667314 146.213335 182.933903 146.856938 183.408368 147.331403 
C 183.882833 147.805868 184.526436 148.072457 185.197431 148.072457 
z
" clip-path="url(#p645be63809)" style="fill: #1f77b4; stroke: #000000; stroke-width: 0.388445"/>
    <path d="M 332.084034 156.898332 
C 332.848577 156.898332 333.581909 156.594576 334.122522 156.053962 
C 334.663136 155.513349 334.966892 154.780017 334.966892 154.015474 
C 334.966892 153.250931 334.663136 152.517599 334.122522 151.976986 
C 333.581909 151.436373 332.848577 151.132616 332.084034 151.132616 
C 331.319491 151.132616 330.586159 151.436373 330.045546 151.976986 
C 329.504933 152.517599 329.201176 153.250931 329.201176 154.015474 
C 329.201176 154.780017 329.504933 155.513349 330.045546 156.053962 
C 330.586159 156.594576 331.319491 156.898332 332.084034 156.898332 
z
" clip-path="url(#p645be63809)" style="fill: #1f77b4; stroke: #000000; stroke-width: 0.388445"/>
    <path d="M 195.913866 193.107547 
C 196.755448 193.107547 197.562675 192.773183 198.157763 192.178094 
C 198.752852 191.583005 199.087216 190.775779 199.087216 189.934196 
C 199.087216 189.092614 198.752852 188.285387 198.157763 187.690299 
C 197.562675 187.09521 196.755448 186.760846 195.913866 186.760846 
C 195.072283 186.760846 194.265057 187.09521 193.669968 187.690299 
C 193.074879 188.285387 192.740515 189.092614 192.740515 189.934196 
C 192.740515 190.775779 193.074879 191.583005 193.669968 192.178094 
C 194.265057 192.773183 195.072283 193.107547 195.913866 193.107547 
z
" clip-path="url(#p645be63809)" style="fill: #1f77b4; stroke: #000000; stroke-width: 0.388445"/>
    <path d="M 198.557253 165.137245 
C 199.50393 165.137245 200.411961 164.761127 201.081362 164.091725 
C 201.750764 163.422323 202.126883 162.514293 202.126883 161.567616 
C 202.126883 160.620939 201.750764 159.712908 201.081362 159.043506 
C 200.411961 158.374105 199.50393 157.997986 198.557253 157.997986 
C 197.610576 157.997986 196.702545 158.374105 196.033144 159.043506 
C 195.363742 159.712908 194.987623 160.620939 194.987623 161.567616 
C 194.987623 162.514293 195.363742 163.422323 196.033144 164.091725 
C 196.702545 164.761127 197.610576 165.137245 198.557253 165.137245 
z
" clip-path="url(#p645be63809)" style="fill: #1f77b4; stroke: #000000; stroke-width: 0.388445"/>
    <path d="M 202.629498 188.524752 
C 203.72121 188.524752 204.768356 188.09101 205.540313 187.319053 
C 206.31227 186.547096 206.746012 185.499951 206.746012 184.408239 
C 206.746012 183.316527 206.31227 182.269382 205.540313 181.497425 
C 204.768356 180.725468 203.72121 180.291726 202.629498 180.291726 
C 201.537786 180.291726 200.490641 180.725468 199.718684 181.497425 
C 198.946727 182.269382 198.512985 183.316527 198.512985 184.408239 
C 198.512985 185.499951 198.946727 186.547096 199.718684 187.319053 
C 200.490641 188.09101 201.537786 188.524752 202.629498 188.524752 
z
" clip-path="url(#p645be63809)" style="fill: #1f77b4; stroke: #000000; stroke-width: 0.388445"/>
    <path d="M 244.423595 142.223669 
C 245.546325 142.223669 246.623222 141.777604 247.417112 140.983714 
C 248.211001 140.189825 248.657067 139.112928 248.657067 137.990198 
C 248.657067 136.867468 248.211001 135.790572 247.417112 134.996682 
C 246.623222 134.202792 245.546325 133.756727 244.423595 133.756727 
C 243.300865 133.756727 242.223969 134.202792 241.430079 134.996682 
C 240.636189 135.790572 240.190124 136.867468 240.190124 137.990198 
C 240.190124 139.112928 240.636189 140.189825 241.430079 140.983714 
C 242.223969 141.777604 243.300865 142.223669 244.423595 142.223669 
z
" clip-path="url(#p645be63809)" style="fill: #1f77b4; stroke: #000000; stroke-width: 0.388445"/>
    <path d="M 291.290138 85.716806 
C 292.375182 85.716806 293.415932 85.285713 294.183174 84.518471 
C 294.950417 83.751228 295.381509 82.710479 295.381509 81.625434 
C 295.381509 80.54039 294.950417 79.49964 294.183174 78.732398 
C 293.415932 77.965156 292.375182 77.534063 291.290138 77.534063 
C 290.205094 77.534063 289.164344 77.965156 288.397101 78.732398 
C 287.629859 79.49964 287.198767 80.54039 287.198767 81.625434 
C 287.198767 82.710479 287.629859 83.751228 288.397101 84.518471 
C 289.164344 85.285713 290.205094 85.716806 291.290138 85.716806 
z
" clip-path="url(#p645be63809)" style="fill: #1f77b4; stroke: #000000; stroke-width: 0.388445"/>
    <path d="M 204.129799 123.298237 
C 204.874199 123.298237 205.58821 123.002484 206.11458 122.476114 
C 206.64095 121.949744 206.936703 121.235733 206.936703 120.491333 
C 206.936703 119.746934 206.64095 119.032923 206.11458 118.506553 
C 205.58821 117.980183 204.874199 117.68443 204.129799 117.68443 
C 203.3854 117.68443 202.671389 117.980183 202.145019 118.506553 
C 201.618649 119.032923 201.322896 119.746934 201.322896 120.491333 
C 201.322896 121.235733 201.618649 121.949744 202.145019 122.476114 
C 202.671389 123.002484 203.3854 123.298237 204.129799 123.298237 
z
" clip-path="url(#p645be63809)" style="fill: #1f77b4; stroke: #000000; stroke-width: 0.388445"/>
    <path d="M 214.203248 177.363006 
C 215.216983 177.363006 216.189333 176.960245 216.906152 176.243426 
C 217.62297 175.526608 218.025731 174.554257 218.025731 173.540523 
C 218.025731 172.526789 217.62297 171.554438 216.906152 170.83762 
C 216.189333 170.120801 215.216983 169.718041 214.203248 169.718041 
C 213.189514 169.718041 212.217163 170.120801 211.500345 170.83762 
C 210.783527 171.554438 210.380766 172.526789 210.380766 173.540523 
C 210.380766 174.554257 210.783527 175.526608 211.500345 176.243426 
C 212.217163 176.960245 213.189514 177.363006 214.203248 177.363006 
z
" clip-path="url(#p645be63809)" style="fill: #1f77b4; stroke: #000000; stroke-width: 0.388445"/>
    <path d="M 235.636118 168.678228 
C 236.544874 168.678228 237.416532 168.317176 238.05912 167.674588 
C 238.701707 167.032001 239.06276 166.160343 239.06276 165.251587 
C 239.06276 164.342831 238.701707 163.471173 238.05912 162.828586 
C 237.416532 162.185999 236.544874 161.824946 235.636118 161.824946 
C 234.727363 161.824946 233.855705 162.185999 233.213117 162.828586 
C 232.57053 163.471173 232.209477 164.342831 232.209477 165.251587 
C 232.209477 166.160343 232.57053 167.032001 233.213117 167.674588 
C 233.855705 168.317176 234.727363 168.678228 235.636118 168.678228 
z
" clip-path="url(#p645be63809)" style="fill: #1f77b4; stroke: #000000; stroke-width: 0.388445"/>
    <path d="M 189.698333 133.748729 
C 190.478634 133.748729 191.227081 133.438712 191.778836 132.886957 
C 192.330592 132.335201 192.640609 131.586754 192.640609 130.806454 
C 192.640609 130.026153 192.330592 129.277707 191.778836 128.725951 
C 191.227081 128.174195 190.478634 127.864178 189.698333 127.864178 
C 188.918033 127.864178 188.169586 128.174195 187.617831 128.725951 
C 187.066075 129.277707 186.756058 130.026153 186.756058 130.806454 
C 186.756058 131.586754 187.066075 132.335201 187.617831 132.886957 
C 188.169586 133.438712 188.918033 133.748729 189.698333 133.748729 
z
" clip-path="url(#p645be63809)" style="fill: #1f77b4; stroke: #000000; stroke-width: 0.388445"/>
    <path d="M 246.566882 144.871131 
C 247.219326 144.871131 247.845136 144.611912 248.306483 144.150565 
C 248.767831 143.689217 249.027049 143.063408 249.027049 142.410964 
C 249.027049 141.75852 248.767831 141.132711 248.306483 140.671363 
C 247.845136 140.210015 247.219326 139.950797 246.566882 139.950797 
C 245.914438 139.950797 245.288629 140.210015 244.827281 140.671363 
C 244.365934 141.132711 244.106715 141.75852 244.106715 142.410964 
C 244.106715 143.063408 244.365934 143.689217 244.827281 144.150565 
C 245.288629 144.611912 245.914438 144.871131 246.566882 144.871131 
z
" clip-path="url(#p645be63809)" style="fill: #1f77b4; stroke: #000000; stroke-width: 0.388445"/>
    <path d="M 306.078818 98.482641 
C 306.641399 98.482641 307.181014 98.259125 307.578818 97.86132 
C 307.976623 97.463516 308.200139 96.923901 308.200139 96.36132 
C 308.200139 95.798739 307.976623 95.259125 307.578818 94.86132 
C 307.181014 94.463516 306.641399 94.24 306.078818 94.24 
C 305.516238 94.24 304.976623 94.463516 304.578818 94.86132 
C 304.181014 95.259125 303.957498 95.798739 303.957498 96.36132 
C 303.957498 96.923901 304.181014 97.463516 304.578818 97.86132 
C 304.976623 98.259125 305.516238 98.482641 306.078818 98.482641 
z
" clip-path="url(#p645be63809)" style="fill: #1f77b4; stroke: #000000; stroke-width: 0.388445"/>
    <path d="M 319.795855 158.19339 
C 320.366501 158.19339 320.913852 157.96667 321.317359 157.563163 
C 321.720867 157.159655 321.947587 156.612304 321.947587 156.041658 
C 321.947587 155.471012 321.720867 154.923662 321.317359 154.520154 
C 320.913852 154.116647 320.366501 153.889927 319.795855 153.889927 
C 319.225209 153.889927 318.677859 154.116647 318.274351 154.520154 
C 317.870843 154.923662 317.644123 155.471012 317.644123 156.041658 
C 317.644123 156.612304 317.870843 157.159655 318.274351 157.563163 
C 318.677859 157.96667 319.225209 158.19339 319.795855 158.19339 
z
" clip-path="url(#p645be63809)" style="fill: #1f77b4; stroke: #000000; stroke-width: 0.388445"/>
    <path d="M 200.414769 111.49129 
C 201.252031 111.49129 202.055115 111.158642 202.647149 110.566608 
C 203.239183 109.974574 203.571831 109.17149 203.571831 108.334228 
C 203.571831 107.496965 203.239183 106.693881 202.647149 106.101847 
C 202.055115 105.509813 201.252031 105.177165 200.414769 105.177165 
C 199.577506 105.177165 198.774422 105.509813 198.182388 106.101847 
C 197.590354 106.693881 197.257706 107.496965 197.257706 108.334228 
C 197.257706 109.17149 197.590354 109.974574 198.182388 110.566608 
C 198.774422 111.158642 199.577506 111.49129 200.414769 111.49129 
z
" clip-path="url(#p645be63809)" style="fill: #1f77b4; stroke: #000000; stroke-width: 0.388445"/>
    <path d="M 206.630301 135.828245 
C 207.620145 135.828245 208.569581 135.434975 209.269507 134.73505 
C 209.969433 134.035124 210.362702 133.085688 210.362702 132.095844 
C 210.362702 131.105999 209.969433 130.156563 209.269507 129.456638 
C 208.569581 128.756712 207.620145 128.363443 206.630301 128.363443 
C 205.640457 128.363443 204.69102 128.756712 203.991095 129.456638 
C 203.291169 130.156563 202.8979 131.105999 202.8979 132.095844 
C 202.8979 133.085688 203.291169 134.035124 203.991095 134.73505 
C 204.69102 135.434975 205.640457 135.828245 206.630301 135.828245 
z
" clip-path="url(#p645be63809)" style="fill: #1f77b4; stroke: #000000; stroke-width: 0.388445"/>
    <path d="M 311.579922 73.120922 
C 312.695151 73.120922 313.764853 72.677836 314.553439 71.88925 
C 315.342026 71.100664 315.785111 70.030962 315.785111 68.915733 
C 315.785111 67.800503 315.342026 66.730801 314.553439 65.942215 
C 313.764853 65.153629 312.695151 64.710543 311.579922 64.710543 
C 310.464692 64.710543 309.39499 65.153629 308.606404 65.942215 
C 307.817818 66.730801 307.374732 67.800503 307.374732 68.915733 
C 307.374732 70.030962 307.817818 71.100664 308.606404 71.88925 
C 309.39499 72.677836 310.464692 73.120922 311.579922 73.120922 
z
" clip-path="url(#p645be63809)" style="fill: #1f77b4; stroke: #000000; stroke-width: 0.388445"/>
    <path d="M 214.631906 126.852258 
C 215.757067 126.852258 216.836296 126.405226 217.631906 125.609617 
C 218.427515 124.814008 218.874546 123.734779 218.874546 122.609617 
C 218.874546 121.484456 218.427515 120.405226 217.631906 119.609617 
C 216.836296 118.814008 215.757067 118.366976 214.631906 118.366976 
C 213.506744 118.366976 212.427515 118.814008 211.631906 119.609617 
C 210.836296 120.405226 210.389265 121.484456 210.389265 122.609617 
C 210.389265 123.734779 210.836296 124.814008 211.631906 125.609617 
C 212.427515 126.405226 213.506744 126.852258 214.631906 126.852258 
z
" clip-path="url(#p645be63809)" style="fill: #1f77b4; stroke: #000000; stroke-width: 0.388445"/>
    <path d="M 292.57611 36.18761 
C 293.666517 36.18761 294.712411 35.754387 295.483445 34.983353 
C 296.25448 34.212318 296.687703 33.166425 296.687703 32.076018 
C 296.687703 30.98561 296.25448 29.939717 295.483445 29.168682 
C 294.712411 28.397648 293.666517 27.964425 292.57611 27.964425 
C 291.485703 27.964425 290.439809 28.397648 289.668775 29.168682 
C 288.897741 29.939717 288.464517 30.98561 288.464517 32.076018 
C 288.464517 33.166425 288.897741 34.212318 289.668775 34.983353 
C 290.439809 35.754387 291.485703 36.18761 292.57611 36.18761 
z
" clip-path="url(#p645be63809)" style="fill: #1f77b4; stroke: #000000; stroke-width: 0.388445"/>
    <path d="M 166.479391 183.968419 
C 167.4863 183.968419 168.452104 183.56837 169.164096 182.856377 
C 169.876089 182.144385 170.276138 181.178581 170.276138 180.171672 
C 170.276138 179.164763 169.876089 178.198958 169.164096 177.486966 
C 168.452104 176.774974 167.4863 176.374925 166.479391 176.374925 
C 165.472482 176.374925 164.506677 176.774974 163.794685 177.486966 
C 163.082693 178.198958 162.682644 179.164763 162.682644 180.171672 
C 162.682644 181.178581 163.082693 182.144385 163.794685 182.856377 
C 164.506677 183.56837 165.472482 183.968419 166.479391 183.968419 
z
" clip-path="url(#p645be63809)" style="fill: #1f77b4; stroke: #000000; stroke-width: 0.388445"/>
    <path d="M 275.929914 98.245508 
C 276.820407 98.245508 277.674547 97.891711 278.304221 97.262038 
C 278.933894 96.632364 279.28769 95.778224 279.28769 94.887732 
C 279.28769 93.997239 278.933894 93.143099 278.304221 92.513425 
C 277.674547 91.883752 276.820407 91.529956 275.929914 91.529956 
C 275.039422 91.529956 274.185281 91.883752 273.555608 92.513425 
C 272.925935 93.143099 272.572138 93.997239 272.572138 94.887732 
C 272.572138 95.778224 272.925935 96.632364 273.555608 97.262038 
C 274.185281 97.891711 275.039422 98.245508 275.929914 98.245508 
z
" clip-path="url(#p645be63809)" style="fill: #1f77b4; stroke: #000000; stroke-width: 0.388445"/>
    <path d="M 103.331011 235.699247 
C 104.379087 235.699247 105.384377 235.282842 106.125479 234.541741 
C 106.86658 233.800639 107.282985 232.795349 107.282985 231.747273 
C 107.282985 230.699197 106.86658 229.693906 106.125479 228.952805 
C 105.384377 228.211703 104.379087 227.795298 103.331011 227.795298 
C 102.282935 227.795298 101.277645 228.211703 100.536543 228.952805 
C 99.795442 229.693906 99.379037 230.699197 99.379037 231.747273 
C 99.379037 232.795349 99.795442 233.800639 100.536543 234.541741 
C 101.277645 235.282842 102.282935 235.699247 103.331011 235.699247 
z
" clip-path="url(#p645be63809)" style="fill: #1f77b4; stroke: #000000; stroke-width: 0.388445"/>
    <path d="M 85.405987 220.383228 
C 86.20251 220.383228 86.966517 220.066767 87.529743 219.50354 
C 88.09297 218.940313 88.409432 218.176307 88.409432 217.379784 
C 88.409432 216.583261 88.09297 215.819255 87.529743 215.256028 
C 86.966517 214.692801 86.20251 214.376339 85.405987 214.376339 
C 84.609465 214.376339 83.845458 214.692801 83.282231 215.256028 
C 82.719005 215.819255 82.402543 216.583261 82.402543 217.379784 
C 82.402543 218.176307 82.719005 218.940313 83.282231 219.50354 
C 83.845458 220.066767 84.609465 220.383228 85.405987 220.383228 
z
" clip-path="url(#p645be63809)" style="fill: #1f77b4; stroke: #000000; stroke-width: 0.388445"/>
    <path d="M 86.934865 227.192235 
C 87.778557 227.192235 88.587806 226.857033 89.184386 226.260453 
C 89.780966 225.663873 90.116168 224.854624 90.116168 224.010933 
C 90.116168 223.167241 89.780966 222.357992 89.184386 221.761412 
C 88.587806 221.164832 87.778557 220.82963 86.934865 220.82963 
C 86.091174 220.82963 85.281925 221.164832 84.685345 221.761412 
C 84.088765 222.357992 83.753563 223.167241 83.753563 224.010933 
C 83.753563 224.854624 84.088765 225.663873 84.685345 226.260453 
C 85.281925 226.857033 86.091174 227.192235 86.934865 227.192235 
z
" clip-path="url(#p645be63809)" style="fill: #1f77b4; stroke: #000000; stroke-width: 0.388445"/>
    <path d="M 91.750117 214.336945 
C 92.652898 214.336945 93.518824 213.978266 94.157187 213.339904 
C 94.795549 212.701541 95.154228 211.835615 95.154228 210.932834 
C 95.154228 210.030053 94.795549 209.164126 94.157187 208.525764 
C 93.518824 207.887402 92.652898 207.528723 91.750117 207.528723 
C 90.847336 207.528723 89.981409 207.887402 89.343047 208.525764 
C 88.704685 209.164126 88.346006 210.030053 88.346006 210.932834 
C 88.346006 211.835615 88.704685 212.701541 89.343047 213.339904 
C 89.981409 213.978266 90.847336 214.336945 91.750117 214.336945 
z
" clip-path="url(#p645be63809)" style="fill: #1f77b4; stroke: #000000; stroke-width: 0.388445"/>
    <path d="M 84.820156 208.614271 
C 85.817317 208.614271 86.773771 208.218095 87.47887 207.512996 
C 88.18397 206.807896 88.580146 205.851442 88.580146 204.854281 
C 88.580146 203.85712 88.18397 202.900665 87.47887 202.195566 
C 86.773771 201.490467 85.817317 201.09429 84.820156 201.09429 
C 83.822994 201.09429 82.86654 201.490467 82.161441 202.195566 
C 81.456341 202.900665 81.060165 203.85712 81.060165 204.854281 
C 81.060165 205.851442 81.456341 206.807896 82.161441 207.512996 
C 82.86654 208.218095 83.822994 208.614271 84.820156 208.614271 
z
" clip-path="url(#p645be63809)" style="fill: #1f77b4; stroke: #000000; stroke-width: 0.388445"/>
    <path d="M 66.602216 215.996445 
C 67.652001 215.996445 68.658931 215.579361 69.401241 214.837051 
C 70.143552 214.09474 70.560636 213.08781 70.560636 212.038025 
C 70.560636 210.98824 70.143552 209.98131 69.401241 209.239 
C 68.658931 208.49669 67.652001 208.079606 66.602216 208.079606 
C 65.552431 208.079606 64.545501 208.49669 63.80319 209.239 
C 63.06088 209.98131 62.643796 210.98824 62.643796 212.038025 
C 62.643796 213.08781 63.06088 214.09474 63.80319 214.837051 
C 64.545501 215.579361 65.552431 215.996445 66.602216 215.996445 
z
" clip-path="url(#p645be63809)" style="fill: #1f77b4; stroke: #000000; stroke-width: 0.388445"/>
    <path d="M 89.742571 218.322776 
C 90.774256 218.322776 91.763825 217.912884 92.493337 217.183372 
C 93.222848 216.453861 93.632741 215.464292 93.632741 214.432607 
C 93.632741 213.400922 93.222848 212.411353 92.493337 211.681841 
C 91.763825 210.95233 90.774256 210.542437 89.742571 210.542437 
C 88.710886 210.542437 87.721317 210.95233 86.991806 211.681841 
C 86.262294 212.411353 85.852402 213.400922 85.852402 214.432607 
C 85.852402 215.464292 86.262294 216.453861 86.991806 217.183372 
C 87.721317 217.912884 88.710886 218.322776 89.742571 218.322776 
z
" clip-path="url(#p645be63809)" style="fill: #1f77b4; stroke: #000000; stroke-width: 0.388445"/>
    <path d="M 86.163282 221.631461 
C 87.14429 221.631461 88.08525 221.241703 88.778928 220.548025 
C 89.472605 219.854348 89.862364 218.913387 89.862364 217.93238 
C 89.862364 216.951372 89.472605 216.010411 88.778928 215.316734 
C 88.08525 214.623057 87.14429 214.233298 86.163282 214.233298 
C 85.182274 214.233298 84.241314 214.623057 83.547636 215.316734 
C 82.853959 216.010411 82.464201 216.951372 82.464201 217.93238 
C 82.464201 218.913387 82.853959 219.854348 83.547636 220.548025 
C 84.241314 221.241703 85.182274 221.631461 86.163282 221.631461 
z
" clip-path="url(#p645be63809)" style="fill: #1f77b4; stroke: #000000; stroke-width: 0.388445"/>
    <path d="M 87.749314 176.576627 
C 88.652199 176.576627 89.518225 176.217907 90.15666 175.579471 
C 90.795096 174.941036 91.153815 174.07501 91.153815 173.172126 
C 91.153815 172.269242 90.795096 171.403216 90.15666 170.76478 
C 89.518225 170.126345 88.652199 169.767625 87.749314 169.767625 
C 86.84643 169.767625 85.980404 170.126345 85.341969 170.76478 
C 84.703533 171.403216 84.344814 172.269242 84.344814 173.172126 
C 84.344814 174.07501 84.703533 174.941036 85.341969 175.579471 
C 85.980404 176.217907 86.84643 176.576627 87.749314 176.576627 
z
" clip-path="url(#p645be63809)" style="fill: #1f77b4; stroke: #000000; stroke-width: 0.388445"/>
    <path d="M 92.57171 196.982276 
C 93.366182 196.982276 94.128222 196.666629 94.689998 196.104853 
C 95.251775 195.543076 95.567422 194.781037 95.567422 193.986565 
C 95.567422 193.192093 95.251775 192.430053 94.689998 191.868277 
C 94.128222 191.3065 93.366182 190.990853 92.57171 190.990853 
C 91.777238 190.990853 91.015199 191.3065 90.453422 191.868277 
C 89.891646 192.430053 89.575999 193.192093 89.575999 193.986565 
C 89.575999 194.781037 89.891646 195.543076 90.453422 196.104853 
C 91.015199 196.666629 91.777238 196.982276 92.57171 196.982276 
z
" clip-path="url(#p645be63809)" style="fill: #1f77b4; stroke: #000000; stroke-width: 0.388445"/>
    <path d="M 105.124228 206.14789 
C 105.809247 206.14789 106.466302 205.875729 106.950684 205.391347 
C 107.435066 204.906965 107.707227 204.24991 107.707227 203.564891 
C 107.707227 202.879871 107.435066 202.222816 106.950684 201.738434 
C 106.466302 201.254053 105.809247 200.981891 105.124228 200.981891 
C 104.439208 200.981891 103.782153 201.254053 103.297772 201.738434 
C 102.81339 202.222816 102.541229 202.879871 102.541229 203.564891 
C 102.541229 204.24991 102.81339 204.906965 103.297772 205.391347 
C 103.782153 205.875729 104.439208 206.14789 105.124228 206.14789 
z
" clip-path="url(#p645be63809)" style="fill: #1f77b4; stroke: #000000; stroke-width: 0.388445"/>
    <path d="M 66.602216 225.85713 
C 67.678034 225.85713 68.709934 225.429703 69.470652 224.668985 
C 70.23137 223.908267 70.658797 222.876367 70.658797 221.80055 
C 70.658797 220.724732 70.23137 219.692832 69.470652 218.932114 
C 68.709934 218.171396 67.678034 217.743969 66.602216 217.743969 
C 65.526398 217.743969 64.494498 218.171396 63.73378 218.932114 
C 62.973062 219.692832 62.545635 220.724732 62.545635 221.80055 
C 62.545635 222.876367 62.973062 223.908267 63.73378 224.668985 
C 64.494498 225.429703 65.526398 225.85713 66.602216 225.85713 
z
" clip-path="url(#p645be63809)" style="fill: #1f77b4; stroke: #000000; stroke-width: 0.388445"/>
    <path d="M 100.358986 172.584088 
C 100.984637 172.584088 101.584747 172.335514 102.02715 171.893112 
C 102.469552 171.45071 102.718125 170.8506 102.718125 170.224949 
C 102.718125 169.599298 102.469552 168.999188 102.02715 168.556786 
C 101.584747 168.114384 100.984637 167.86581 100.358986 167.86581 
C 99.733335 167.86581 99.133225 168.114384 98.690823 168.556786 
C 98.248421 168.999188 97.999847 169.599298 97.999847 170.224949 
C 97.999847 170.8506 98.248421 171.45071 98.690823 171.893112 
C 99.133225 172.335514 99.733335 172.584088 100.358986 172.584088 
z
" clip-path="url(#p645be63809)" style="fill: #1f77b4; stroke: #000000; stroke-width: 0.388445"/>
    <path d="M 95.357983 178.06448 
C 96.0204 178.06448 96.655775 177.801298 97.124175 177.332899 
C 97.592574 176.8645 97.855755 176.229124 97.855755 175.566707 
C 97.855755 174.90429 97.592574 174.268915 97.124175 173.800516 
C 96.655775 173.332116 96.0204 173.068935 95.357983 173.068935 
C 94.695566 173.068935 94.060191 173.332116 93.591792 173.800516 
C 93.123392 174.268915 92.860211 174.90429 92.860211 175.566707 
C 92.860211 176.229124 93.123392 176.8645 93.591792 177.332899 
C 94.060191 177.801298 94.695566 178.06448 95.357983 178.06448 
z
" clip-path="url(#p645be63809)" style="fill: #1f77b4; stroke: #000000; stroke-width: 0.388445"/>
    <path d="M 96.222442 221.52782 
C 97.273665 221.52782 98.281973 221.110165 99.025299 220.366839 
C 99.768625 219.623513 100.18628 218.615205 100.18628 217.563982 
C 100.18628 216.51276 99.768625 215.504452 99.025299 214.761126 
C 98.281973 214.0178 97.273665 213.600145 96.222442 213.600145 
C 95.17122 213.600145 94.162912 214.0178 93.419586 214.761126 
C 92.67626 215.504452 92.258605 216.51276 92.258605 217.563982 
C 92.258605 218.615205 92.67626 219.623513 93.419586 220.366839 
C 94.162912 221.110165 95.17122 221.52782 96.222442 221.52782 
z
" clip-path="url(#p645be63809)" style="fill: #1f77b4; stroke: #000000; stroke-width: 0.388445"/>
    <path d="M 101.644959 216.883874 
C 102.636992 216.883874 103.588529 216.489735 104.290003 215.788261 
C 104.991477 215.086787 105.385616 214.135251 105.385616 213.143217 
C 105.385616 212.151183 104.991477 211.199646 104.290003 210.498173 
C 103.588529 209.796699 102.636992 209.402559 101.644959 209.402559 
C 100.652925 209.402559 99.701388 209.796699 98.999915 210.498173 
C 98.298441 211.199646 97.904301 212.151183 97.904301 213.143217 
C 97.904301 214.135251 98.298441 215.086787 98.999915 215.788261 
C 99.701388 216.489735 100.652925 216.883874 101.644959 216.883874 
z
" clip-path="url(#p645be63809)" style="fill: #1f77b4; stroke: #000000; stroke-width: 0.388445"/>
    <path d="M 91.407191 219.687549 
C 92.312318 219.687549 93.180495 219.327939 93.820516 218.687917 
C 94.460537 218.047896 94.820148 217.179719 94.820148 216.274592 
C 94.820148 215.369466 94.460537 214.501289 93.820516 213.861268 
C 93.180495 213.221246 92.312318 212.861636 91.407191 212.861636 
C 90.502064 212.861636 89.633887 213.221246 88.993866 213.861268 
C 88.353845 214.501289 87.994234 215.369466 87.994234 216.274592 
C 87.994234 217.179719 88.353845 218.047896 88.993866 218.687917 
C 89.633887 219.327939 90.502064 219.687549 91.407191 219.687549 
z
" clip-path="url(#p645be63809)" style="fill: #1f77b4; stroke: #000000; stroke-width: 0.388445"/>
    <path d="M 92.700307 213.376164 
C 93.494836 213.376164 94.25693 213.060494 94.818747 212.498678 
C 95.380564 211.936861 95.696233 211.174767 95.696233 210.380238 
C 95.696233 209.585709 95.380564 208.823615 94.818747 208.261798 
C 94.25693 207.699982 93.494836 207.384312 92.700307 207.384312 
C 91.905779 207.384312 91.143685 207.699982 90.581868 208.261798 
C 90.020051 208.823615 89.704382 209.585709 89.704382 210.380238 
C 89.704382 211.174767 90.020051 211.936861 90.581868 212.498678 
C 91.143685 213.060494 91.905779 213.376164 92.700307 213.376164 
z
" clip-path="url(#p645be63809)" style="fill: #1f77b4; stroke: #000000; stroke-width: 0.388445"/>
    <path d="M 66.602216 221.164867 
C 67.312931 221.164867 67.994634 220.882496 68.497185 220.379945 
C 68.999737 219.877393 69.282107 219.195691 69.282107 218.484975 
C 69.282107 217.77426 68.999737 217.092558 68.497185 216.590006 
C 67.994634 216.087454 67.312931 215.805084 66.602216 215.805084 
C 65.8915 215.805084 65.209798 216.087454 64.707247 216.590006 
C 64.204695 217.092558 63.922325 217.77426 63.922325 218.484975 
C 63.922325 219.195691 64.204695 219.877393 64.707247 220.379945 
C 65.209798 220.882496 65.8915 221.164867 66.602216 221.164867 
z
" clip-path="url(#p645be63809)" style="fill: #1f77b4; stroke: #000000; stroke-width: 0.388445"/>
    <path d="M 97.544136 224.997731 
C 98.245488 224.997731 98.918209 224.71908 99.41414 224.22315 
C 99.910071 223.727219 100.188721 223.054498 100.188721 222.353145 
C 100.188721 221.651793 99.910071 220.979072 99.41414 220.483141 
C 98.918209 219.98721 98.245488 219.70856 97.544136 219.70856 
C 96.842784 219.70856 96.170063 219.98721 95.674132 220.483141 
C 95.178201 220.979072 94.899551 221.651793 94.899551 222.353145 
C 94.899551 223.054498 95.178201 223.727219 95.674132 224.22315 
C 96.170063 224.71908 96.842784 224.997731 97.544136 224.997731 
z
" clip-path="url(#p645be63809)" style="fill: #1f77b4; stroke: #000000; stroke-width: 0.388445"/>
    <path d="M 96.215298 219.829349 
C 96.96263 219.829349 97.679455 219.532431 98.207898 219.003987 
C 98.736342 218.475543 99.03326 217.758719 99.03326 217.011387 
C 99.03326 216.264054 98.736342 215.54723 98.207898 215.018787 
C 97.679455 214.490343 96.96263 214.193425 96.215298 214.193425 
C 95.467966 214.193425 94.751142 214.490343 94.222698 215.018787 
C 93.694254 215.54723 93.397336 216.264054 93.397336 217.011387 
C 93.397336 217.758719 93.694254 218.475543 94.222698 219.003987 
C 94.751142 219.532431 95.467966 219.829349 96.215298 219.829349 
z
" clip-path="url(#p645be63809)" style="fill: #1f77b4; stroke: #000000; stroke-width: 0.388445"/>
   </g>
   <g id="matplotlib.axis_1">
    <g id="xtick_1">
     <g id="line2d_1">
      <defs>
       <path id="me1aa463ffb" d="M 0 0 
L 0 3.5 
" style="stroke: #000000; stroke-width: 0.8"/>
      </defs>
      <g>
       <use xlink:href="#me1aa463ffb" x="66.602216" y="242.44" style="stroke: #000000; stroke-width: 0.8"/>
      </g>
     </g>
     <g id="text_1">
      <!-- 0 -->
      <g transform="translate(63.420966 257.038437) scale(0.1 -0.1)">
       <defs>
        <path id="DejaVuSans-30" d="M 2034 4250 
Q 1547 4250 1301 3770 
Q 1056 3291 1056 2328 
Q 1056 1369 1301 889 
Q 1547 409 2034 409 
Q 2525 409 2770 889 
Q 3016 1369 3016 2328 
Q 3016 3291 2770 3770 
Q 2525 4250 2034 4250 
z
M 2034 4750 
Q 2819 4750 3233 4129 
Q 3647 3509 3647 2328 
Q 3647 1150 3233 529 
Q 2819 -91 2034 -91 
Q 1250 -91 836 529 
Q 422 1150 422 2328 
Q 422 3509 836 4129 
Q 1250 4750 2034 4750 
z
" transform="scale(0.015625)"/>
       </defs>
       <use xlink:href="#DejaVuSans-30"/>
      </g>
     </g>
    </g>
    <g id="xtick_2">
     <g id="line2d_2">
      <g>
       <use xlink:href="#me1aa463ffb" x="126.137966" y="242.44" style="stroke: #000000; stroke-width: 0.8"/>
      </g>
     </g>
     <g id="text_2">
      <!-- 100 -->
      <g transform="translate(116.594216 257.038437) scale(0.1 -0.1)">
       <defs>
        <path id="DejaVuSans-31" d="M 794 531 
L 1825 531 
L 1825 4091 
L 703 3866 
L 703 4441 
L 1819 4666 
L 2450 4666 
L 2450 531 
L 3481 531 
L 3481 0 
L 794 0 
L 794 531 
z
" transform="scale(0.015625)"/>
       </defs>
       <use xlink:href="#DejaVuSans-31"/>
       <use xlink:href="#DejaVuSans-30" x="63.623047"/>
       <use xlink:href="#DejaVuSans-30" x="127.246094"/>
      </g>
     </g>
    </g>
    <g id="xtick_3">
     <g id="line2d_3">
      <g>
       <use xlink:href="#me1aa463ffb" x="185.673717" y="242.44" style="stroke: #000000; stroke-width: 0.8"/>
      </g>
     </g>
     <g id="text_3">
      <!-- 200 -->
      <g transform="translate(176.129967 257.038437) scale(0.1 -0.1)">
       <defs>
        <path id="DejaVuSans-32" d="M 1228 531 
L 3431 531 
L 3431 0 
L 469 0 
L 469 531 
Q 828 903 1448 1529 
Q 2069 2156 2228 2338 
Q 2531 2678 2651 2914 
Q 2772 3150 2772 3378 
Q 2772 3750 2511 3984 
Q 2250 4219 1831 4219 
Q 1534 4219 1204 4116 
Q 875 4013 500 3803 
L 500 4441 
Q 881 4594 1212 4672 
Q 1544 4750 1819 4750 
Q 2544 4750 2975 4387 
Q 3406 4025 3406 3419 
Q 3406 3131 3298 2873 
Q 3191 2616 2906 2266 
Q 2828 2175 2409 1742 
Q 1991 1309 1228 531 
z
" transform="scale(0.015625)"/>
       </defs>
       <use xlink:href="#DejaVuSans-32"/>
       <use xlink:href="#DejaVuSans-30" x="63.623047"/>
       <use xlink:href="#DejaVuSans-30" x="127.246094"/>
      </g>
     </g>
    </g>
    <g id="xtick_4">
     <g id="line2d_4">
      <g>
       <use xlink:href="#me1aa463ffb" x="245.209467" y="242.44" style="stroke: #000000; stroke-width: 0.8"/>
      </g>
     </g>
     <g id="text_4">
      <!-- 300 -->
      <g transform="translate(235.665717 257.038437) scale(0.1 -0.1)">
       <defs>
        <path id="DejaVuSans-33" d="M 2597 2516 
Q 3050 2419 3304 2112 
Q 3559 1806 3559 1356 
Q 3559 666 3084 287 
Q 2609 -91 1734 -91 
Q 1441 -91 1130 -33 
Q 819 25 488 141 
L 488 750 
Q 750 597 1062 519 
Q 1375 441 1716 441 
Q 2309 441 2620 675 
Q 2931 909 2931 1356 
Q 2931 1769 2642 2001 
Q 2353 2234 1838 2234 
L 1294 2234 
L 1294 2753 
L 1863 2753 
Q 2328 2753 2575 2939 
Q 2822 3125 2822 3475 
Q 2822 3834 2567 4026 
Q 2313 4219 1838 4219 
Q 1578 4219 1281 4162 
Q 984 4106 628 3988 
L 628 4550 
Q 988 4650 1302 4700 
Q 1616 4750 1894 4750 
Q 2613 4750 3031 4423 
Q 3450 4097 3450 3541 
Q 3450 3153 3228 2886 
Q 3006 2619 2597 2516 
z
" transform="scale(0.015625)"/>
       </defs>
       <use xlink:href="#DejaVuSans-33"/>
       <use xlink:href="#DejaVuSans-30" x="63.623047"/>
       <use xlink:href="#DejaVuSans-30" x="127.246094"/>
      </g>
     </g>
    </g>
    <g id="xtick_5">
     <g id="line2d_5">
      <g>
       <use xlink:href="#me1aa463ffb" x="304.745218" y="242.44" style="stroke: #000000; stroke-width: 0.8"/>
      </g>
     </g>
     <g id="text_5">
      <!-- 400 -->
      <g transform="translate(295.201468 257.038437) scale(0.1 -0.1)">
       <defs>
        <path id="DejaVuSans-34" d="M 2419 4116 
L 825 1625 
L 2419 1625 
L 2419 4116 
z
M 2253 4666 
L 3047 4666 
L 3047 1625 
L 3713 1625 
L 3713 1100 
L 3047 1100 
L 3047 0 
L 2419 0 
L 2419 1100 
L 313 1100 
L 313 1709 
L 2253 4666 
z
" transform="scale(0.015625)"/>
       </defs>
       <use xlink:href="#DejaVuSans-34"/>
       <use xlink:href="#DejaVuSans-30" x="63.623047"/>
       <use xlink:href="#DejaVuSans-30" x="127.246094"/>
      </g>
     </g>
    </g>
    <g id="text_6">
     <!-- Primary Production (mg C m−2 h−1) -->
     <g transform="translate(107.25875 270.716562) scale(0.1 -0.1)">
      <defs>
       <path id="DejaVuSans-50" d="M 1259 4147 
L 1259 2394 
L 2053 2394 
Q 2494 2394 2734 2622 
Q 2975 2850 2975 3272 
Q 2975 3691 2734 3919 
Q 2494 4147 2053 4147 
L 1259 4147 
z
M 628 4666 
L 2053 4666 
Q 2838 4666 3239 4311 
Q 3641 3956 3641 3272 
Q 3641 2581 3239 2228 
Q 2838 1875 2053 1875 
L 1259 1875 
L 1259 0 
L 628 0 
L 628 4666 
z
" transform="scale(0.015625)"/>
       <path id="DejaVuSans-72" d="M 2631 2963 
Q 2534 3019 2420 3045 
Q 2306 3072 2169 3072 
Q 1681 3072 1420 2755 
Q 1159 2438 1159 1844 
L 1159 0 
L 581 0 
L 581 3500 
L 1159 3500 
L 1159 2956 
Q 1341 3275 1631 3429 
Q 1922 3584 2338 3584 
Q 2397 3584 2469 3576 
Q 2541 3569 2628 3553 
L 2631 2963 
z
" transform="scale(0.015625)"/>
       <path id="DejaVuSans-69" d="M 603 3500 
L 1178 3500 
L 1178 0 
L 603 0 
L 603 3500 
z
M 603 4863 
L 1178 4863 
L 1178 4134 
L 603 4134 
L 603 4863 
z
" transform="scale(0.015625)"/>
       <path id="DejaVuSans-6d" d="M 3328 2828 
Q 3544 3216 3844 3400 
Q 4144 3584 4550 3584 
Q 5097 3584 5394 3201 
Q 5691 2819 5691 2113 
L 5691 0 
L 5113 0 
L 5113 2094 
Q 5113 2597 4934 2840 
Q 4756 3084 4391 3084 
Q 3944 3084 3684 2787 
Q 3425 2491 3425 1978 
L 3425 0 
L 2847 0 
L 2847 2094 
Q 2847 2600 2669 2842 
Q 2491 3084 2119 3084 
Q 1678 3084 1418 2786 
Q 1159 2488 1159 1978 
L 1159 0 
L 581 0 
L 581 3500 
L 1159 3500 
L 1159 2956 
Q 1356 3278 1631 3431 
Q 1906 3584 2284 3584 
Q 2666 3584 2933 3390 
Q 3200 3197 3328 2828 
z
" transform="scale(0.015625)"/>
       <path id="DejaVuSans-61" d="M 2194 1759 
Q 1497 1759 1228 1600 
Q 959 1441 959 1056 
Q 959 750 1161 570 
Q 1363 391 1709 391 
Q 2188 391 2477 730 
Q 2766 1069 2766 1631 
L 2766 1759 
L 2194 1759 
z
M 3341 1997 
L 3341 0 
L 2766 0 
L 2766 531 
Q 2569 213 2275 61 
Q 1981 -91 1556 -91 
Q 1019 -91 701 211 
Q 384 513 384 1019 
Q 384 1609 779 1909 
Q 1175 2209 1959 2209 
L 2766 2209 
L 2766 2266 
Q 2766 2663 2505 2880 
Q 2244 3097 1772 3097 
Q 1472 3097 1187 3025 
Q 903 2953 641 2809 
L 641 3341 
Q 956 3463 1253 3523 
Q 1550 3584 1831 3584 
Q 2591 3584 2966 3190 
Q 3341 2797 3341 1997 
z
" transform="scale(0.015625)"/>
       <path id="DejaVuSans-79" d="M 2059 -325 
Q 1816 -950 1584 -1140 
Q 1353 -1331 966 -1331 
L 506 -1331 
L 506 -850 
L 844 -850 
Q 1081 -850 1212 -737 
Q 1344 -625 1503 -206 
L 1606 56 
L 191 3500 
L 800 3500 
L 1894 763 
L 2988 3500 
L 3597 3500 
L 2059 -325 
z
" transform="scale(0.015625)"/>
       <path id="DejaVuSans-20" transform="scale(0.015625)"/>
       <path id="DejaVuSans-6f" d="M 1959 3097 
Q 1497 3097 1228 2736 
Q 959 2375 959 1747 
Q 959 1119 1226 758 
Q 1494 397 1959 397 
Q 2419 397 2687 759 
Q 2956 1122 2956 1747 
Q 2956 2369 2687 2733 
Q 2419 3097 1959 3097 
z
M 1959 3584 
Q 2709 3584 3137 3096 
Q 3566 2609 3566 1747 
Q 3566 888 3137 398 
Q 2709 -91 1959 -91 
Q 1206 -91 779 398 
Q 353 888 353 1747 
Q 353 2609 779 3096 
Q 1206 3584 1959 3584 
z
" transform="scale(0.015625)"/>
       <path id="DejaVuSans-64" d="M 2906 2969 
L 2906 4863 
L 3481 4863 
L 3481 0 
L 2906 0 
L 2906 525 
Q 2725 213 2448 61 
Q 2172 -91 1784 -91 
Q 1150 -91 751 415 
Q 353 922 353 1747 
Q 353 2572 751 3078 
Q 1150 3584 1784 3584 
Q 2172 3584 2448 3432 
Q 2725 3281 2906 2969 
z
M 947 1747 
Q 947 1113 1208 752 
Q 1469 391 1925 391 
Q 2381 391 2643 752 
Q 2906 1113 2906 1747 
Q 2906 2381 2643 2742 
Q 2381 3103 1925 3103 
Q 1469 3103 1208 2742 
Q 947 2381 947 1747 
z
" transform="scale(0.015625)"/>
       <path id="DejaVuSans-75" d="M 544 1381 
L 544 3500 
L 1119 3500 
L 1119 1403 
Q 1119 906 1312 657 
Q 1506 409 1894 409 
Q 2359 409 2629 706 
Q 2900 1003 2900 1516 
L 2900 3500 
L 3475 3500 
L 3475 0 
L 2900 0 
L 2900 538 
Q 2691 219 2414 64 
Q 2138 -91 1772 -91 
Q 1169 -91 856 284 
Q 544 659 544 1381 
z
M 1991 3584 
L 1991 3584 
z
" transform="scale(0.015625)"/>
       <path id="DejaVuSans-63" d="M 3122 3366 
L 3122 2828 
Q 2878 2963 2633 3030 
Q 2388 3097 2138 3097 
Q 1578 3097 1268 2742 
Q 959 2388 959 1747 
Q 959 1106 1268 751 
Q 1578 397 2138 397 
Q 2388 397 2633 464 
Q 2878 531 3122 666 
L 3122 134 
Q 2881 22 2623 -34 
Q 2366 -91 2075 -91 
Q 1284 -91 818 406 
Q 353 903 353 1747 
Q 353 2603 823 3093 
Q 1294 3584 2113 3584 
Q 2378 3584 2631 3529 
Q 2884 3475 3122 3366 
z
" transform="scale(0.015625)"/>
       <path id="DejaVuSans-74" d="M 1172 4494 
L 1172 3500 
L 2356 3500 
L 2356 3053 
L 1172 3053 
L 1172 1153 
Q 1172 725 1289 603 
Q 1406 481 1766 481 
L 2356 481 
L 2356 0 
L 1766 0 
Q 1100 0 847 248 
Q 594 497 594 1153 
L 594 3053 
L 172 3053 
L 172 3500 
L 594 3500 
L 594 4494 
L 1172 4494 
z
" transform="scale(0.015625)"/>
       <path id="DejaVuSans-6e" d="M 3513 2113 
L 3513 0 
L 2938 0 
L 2938 2094 
Q 2938 2591 2744 2837 
Q 2550 3084 2163 3084 
Q 1697 3084 1428 2787 
Q 1159 2491 1159 1978 
L 1159 0 
L 581 0 
L 581 3500 
L 1159 3500 
L 1159 2956 
Q 1366 3272 1645 3428 
Q 1925 3584 2291 3584 
Q 2894 3584 3203 3211 
Q 3513 2838 3513 2113 
z
" transform="scale(0.015625)"/>
       <path id="DejaVuSans-28" d="M 1984 4856 
Q 1566 4138 1362 3434 
Q 1159 2731 1159 2009 
Q 1159 1288 1364 580 
Q 1569 -128 1984 -844 
L 1484 -844 
Q 1016 -109 783 600 
Q 550 1309 550 2009 
Q 550 2706 781 3412 
Q 1013 4119 1484 4856 
L 1984 4856 
z
" transform="scale(0.015625)"/>
       <path id="DejaVuSans-67" d="M 2906 1791 
Q 2906 2416 2648 2759 
Q 2391 3103 1925 3103 
Q 1463 3103 1205 2759 
Q 947 2416 947 1791 
Q 947 1169 1205 825 
Q 1463 481 1925 481 
Q 2391 481 2648 825 
Q 2906 1169 2906 1791 
z
M 3481 434 
Q 3481 -459 3084 -895 
Q 2688 -1331 1869 -1331 
Q 1566 -1331 1297 -1286 
Q 1028 -1241 775 -1147 
L 775 -588 
Q 1028 -725 1275 -790 
Q 1522 -856 1778 -856 
Q 2344 -856 2625 -561 
Q 2906 -266 2906 331 
L 2906 616 
Q 2728 306 2450 153 
Q 2172 0 1784 0 
Q 1141 0 747 490 
Q 353 981 353 1791 
Q 353 2603 747 3093 
Q 1141 3584 1784 3584 
Q 2172 3584 2450 3431 
Q 2728 3278 2906 2969 
L 2906 3500 
L 3481 3500 
L 3481 434 
z
" transform="scale(0.015625)"/>
       <path id="DejaVuSans-43" d="M 4122 4306 
L 4122 3641 
Q 3803 3938 3442 4084 
Q 3081 4231 2675 4231 
Q 1875 4231 1450 3742 
Q 1025 3253 1025 2328 
Q 1025 1406 1450 917 
Q 1875 428 2675 428 
Q 3081 428 3442 575 
Q 3803 722 4122 1019 
L 4122 359 
Q 3791 134 3420 21 
Q 3050 -91 2638 -91 
Q 1578 -91 968 557 
Q 359 1206 359 2328 
Q 359 3453 968 4101 
Q 1578 4750 2638 4750 
Q 3056 4750 3426 4639 
Q 3797 4528 4122 4306 
z
" transform="scale(0.015625)"/>
       <path id="DejaVuSans-2212" d="M 678 2272 
L 4684 2272 
L 4684 1741 
L 678 1741 
L 678 2272 
z
" transform="scale(0.015625)"/>
       <path id="DejaVuSans-68" d="M 3513 2113 
L 3513 0 
L 2938 0 
L 2938 2094 
Q 2938 2591 2744 2837 
Q 2550 3084 2163 3084 
Q 1697 3084 1428 2787 
Q 1159 2491 1159 1978 
L 1159 0 
L 581 0 
L 581 4863 
L 1159 4863 
L 1159 2956 
Q 1366 3272 1645 3428 
Q 1925 3584 2291 3584 
Q 2894 3584 3203 3211 
Q 3513 2838 3513 2113 
z
" transform="scale(0.015625)"/>
       <path id="DejaVuSans-29" d="M 513 4856 
L 1013 4856 
Q 1481 4119 1714 3412 
Q 1947 2706 1947 2009 
Q 1947 1309 1714 600 
Q 1481 -109 1013 -844 
L 513 -844 
Q 928 -128 1133 580 
Q 1338 1288 1338 2009 
Q 1338 2731 1133 3434 
Q 928 4138 513 4856 
z
" transform="scale(0.015625)"/>
      </defs>
      <use xlink:href="#DejaVuSans-50"/>
      <use xlink:href="#DejaVuSans-72" x="58.552734"/>
      <use xlink:href="#DejaVuSans-69" x="99.666016"/>
      <use xlink:href="#DejaVuSans-6d" x="127.449219"/>
      <use xlink:href="#DejaVuSans-61" x="224.861328"/>
      <use xlink:href="#DejaVuSans-72" x="286.140625"/>
      <use xlink:href="#DejaVuSans-79" x="327.253906"/>
      <use xlink:href="#DejaVuSans-20" x="386.433594"/>
      <use xlink:href="#DejaVuSans-50" x="418.220703"/>
      <use xlink:href="#DejaVuSans-72" x="476.773438"/>
      <use xlink:href="#DejaVuSans-6f" x="515.636719"/>
      <use xlink:href="#DejaVuSans-64" x="576.818359"/>
      <use xlink:href="#DejaVuSans-75" x="640.294922"/>
      <use xlink:href="#DejaVuSans-63" x="703.673828"/>
      <use xlink:href="#DejaVuSans-74" x="758.654297"/>
      <use xlink:href="#DejaVuSans-69" x="797.863281"/>
      <use xlink:href="#DejaVuSans-6f" x="825.646484"/>
      <use xlink:href="#DejaVuSans-6e" x="886.828125"/>
      <use xlink:href="#DejaVuSans-20" x="950.207031"/>
      <use xlink:href="#DejaVuSans-28" x="981.994141"/>
      <use xlink:href="#DejaVuSans-6d" x="1021.007812"/>
      <use xlink:href="#DejaVuSans-67" x="1118.419922"/>
      <use xlink:href="#DejaVuSans-20" x="1181.896484"/>
      <use xlink:href="#DejaVuSans-43" x="1213.683594"/>
      <use xlink:href="#DejaVuSans-20" x="1283.507812"/>
      <use xlink:href="#DejaVuSans-6d" x="1315.294922"/>
      <use xlink:href="#DejaVuSans-2212" x="1412.707031"/>
      <use xlink:href="#DejaVuSans-32" x="1496.496094"/>
      <use xlink:href="#DejaVuSans-20" x="1560.119141"/>
      <use xlink:href="#DejaVuSans-68" x="1591.90625"/>
      <use xlink:href="#DejaVuSans-2212" x="1655.285156"/>
      <use xlink:href="#DejaVuSans-31" x="1739.074219"/>
      <use xlink:href="#DejaVuSans-29" x="1802.697266"/>
     </g>
    </g>
   </g>
   <g id="matplotlib.axis_2">
    <g id="ytick_1">
     <g id="line2d_6">
      <defs>
       <path id="m254e9e3c58" d="M 0 0 
L -3.5 0 
" style="stroke: #000000; stroke-width: 0.8"/>
      </defs>
      <g>
       <use xlink:href="#m254e9e3c58" x="53.328125" y="238.194223" style="stroke: #000000; stroke-width: 0.8"/>
      </g>
     </g>
     <g id="text_7">
      <!-- 0 -->
      <g transform="translate(39.965625 241.993442) scale(0.1 -0.1)">
       <use xlink:href="#DejaVuSans-30"/>
      </g>
     </g>
    </g>
    <g id="ytick_2">
     <g id="line2d_7">
      <g>
       <use xlink:href="#m254e9e3c58" x="53.328125" y="189.239959" style="stroke: #000000; stroke-width: 0.8"/>
      </g>
     </g>
     <g id="text_8">
      <!-- 500 -->
      <g transform="translate(27.240625 193.039178) scale(0.1 -0.1)">
       <defs>
        <path id="DejaVuSans-35" d="M 691 4666 
L 3169 4666 
L 3169 4134 
L 1269 4134 
L 1269 2991 
Q 1406 3038 1543 3061 
Q 1681 3084 1819 3084 
Q 2600 3084 3056 2656 
Q 3513 2228 3513 1497 
Q 3513 744 3044 326 
Q 2575 -91 1722 -91 
Q 1428 -91 1123 -41 
Q 819 9 494 109 
L 494 744 
Q 775 591 1075 516 
Q 1375 441 1709 441 
Q 2250 441 2565 725 
Q 2881 1009 2881 1497 
Q 2881 1984 2565 2268 
Q 2250 2553 1709 2553 
Q 1456 2553 1204 2497 
Q 953 2441 691 2322 
L 691 4666 
z
" transform="scale(0.015625)"/>
       </defs>
       <use xlink:href="#DejaVuSans-35"/>
       <use xlink:href="#DejaVuSans-30" x="63.623047"/>
       <use xlink:href="#DejaVuSans-30" x="127.246094"/>
      </g>
     </g>
    </g>
    <g id="ytick_3">
     <g id="line2d_8">
      <g>
       <use xlink:href="#m254e9e3c58" x="53.328125" y="140.285696" style="stroke: #000000; stroke-width: 0.8"/>
      </g>
     </g>
     <g id="text_9">
      <!-- 1000 -->
      <g transform="translate(20.878125 144.084915) scale(0.1 -0.1)">
       <use xlink:href="#DejaVuSans-31"/>
       <use xlink:href="#DejaVuSans-30" x="63.623047"/>
       <use xlink:href="#DejaVuSans-30" x="127.246094"/>
       <use xlink:href="#DejaVuSans-30" x="190.869141"/>
      </g>
     </g>
    </g>
    <g id="ytick_4">
     <g id="line2d_9">
      <g>
       <use xlink:href="#m254e9e3c58" x="53.328125" y="91.331433" style="stroke: #000000; stroke-width: 0.8"/>
      </g>
     </g>
     <g id="text_10">
      <!-- 1500 -->
      <g transform="translate(20.878125 95.130652) scale(0.1 -0.1)">
       <use xlink:href="#DejaVuSans-31"/>
       <use xlink:href="#DejaVuSans-35" x="63.623047"/>
       <use xlink:href="#DejaVuSans-30" x="127.246094"/>
       <use xlink:href="#DejaVuSans-30" x="190.869141"/>
      </g>
     </g>
    </g>
    <g id="ytick_5">
     <g id="line2d_10">
      <g>
       <use xlink:href="#m254e9e3c58" x="53.328125" y="42.377169" style="stroke: #000000; stroke-width: 0.8"/>
      </g>
     </g>
     <g id="text_11">
      <!-- 2000 -->
      <g transform="translate(20.878125 46.176388) scale(0.1 -0.1)">
       <use xlink:href="#DejaVuSans-32"/>
       <use xlink:href="#DejaVuSans-30" x="63.623047"/>
       <use xlink:href="#DejaVuSans-30" x="127.246094"/>
       <use xlink:href="#DejaVuSans-30" x="190.869141"/>
      </g>
     </g>
    </g>
    <g id="text_12">
     <!-- TEP concentration (µg XG eq. L-1) -->
     <g transform="translate(14.798438 209.702031) rotate(-90) scale(0.1 -0.1)">
      <defs>
       <path id="DejaVuSans-54" d="M -19 4666 
L 3928 4666 
L 3928 4134 
L 2272 4134 
L 2272 0 
L 1638 0 
L 1638 4134 
L -19 4134 
L -19 4666 
z
" transform="scale(0.015625)"/>
       <path id="DejaVuSans-45" d="M 628 4666 
L 3578 4666 
L 3578 4134 
L 1259 4134 
L 1259 2753 
L 3481 2753 
L 3481 2222 
L 1259 2222 
L 1259 531 
L 3634 531 
L 3634 0 
L 628 0 
L 628 4666 
z
" transform="scale(0.015625)"/>
       <path id="DejaVuSans-65" d="M 3597 1894 
L 3597 1613 
L 953 1613 
Q 991 1019 1311 708 
Q 1631 397 2203 397 
Q 2534 397 2845 478 
Q 3156 559 3463 722 
L 3463 178 
Q 3153 47 2828 -22 
Q 2503 -91 2169 -91 
Q 1331 -91 842 396 
Q 353 884 353 1716 
Q 353 2575 817 3079 
Q 1281 3584 2069 3584 
Q 2775 3584 3186 3129 
Q 3597 2675 3597 1894 
z
M 3022 2063 
Q 3016 2534 2758 2815 
Q 2500 3097 2075 3097 
Q 1594 3097 1305 2825 
Q 1016 2553 972 2059 
L 3022 2063 
z
" transform="scale(0.015625)"/>
       <path id="DejaVuSans-b5" d="M 544 -1331 
L 544 3500 
L 1119 3500 
L 1119 1325 
Q 1119 872 1334 640 
Q 1550 409 1972 409 
Q 2434 409 2667 671 
Q 2900 934 2900 1459 
L 2900 3500 
L 3475 3500 
L 3475 806 
Q 3475 619 3529 530 
Q 3584 441 3700 441 
Q 3728 441 3778 458 
Q 3828 475 3916 513 
L 3916 50 
Q 3788 -22 3673 -56 
Q 3559 -91 3450 -91 
Q 3234 -91 3106 31 
Q 2978 153 2931 403 
Q 2775 156 2548 32 
Q 2322 -91 2016 -91 
Q 1697 -91 1473 31 
Q 1250 153 1119 397 
L 1119 -1331 
L 544 -1331 
z
" transform="scale(0.015625)"/>
       <path id="DejaVuSans-58" d="M 403 4666 
L 1081 4666 
L 2241 2931 
L 3406 4666 
L 4084 4666 
L 2584 2425 
L 4184 0 
L 3506 0 
L 2194 1984 
L 872 0 
L 191 0 
L 1856 2491 
L 403 4666 
z
" transform="scale(0.015625)"/>
       <path id="DejaVuSans-47" d="M 3809 666 
L 3809 1919 
L 2778 1919 
L 2778 2438 
L 4434 2438 
L 4434 434 
Q 4069 175 3628 42 
Q 3188 -91 2688 -91 
Q 1594 -91 976 548 
Q 359 1188 359 2328 
Q 359 3472 976 4111 
Q 1594 4750 2688 4750 
Q 3144 4750 3555 4637 
Q 3966 4525 4313 4306 
L 4313 3634 
Q 3963 3931 3569 4081 
Q 3175 4231 2741 4231 
Q 1884 4231 1454 3753 
Q 1025 3275 1025 2328 
Q 1025 1384 1454 906 
Q 1884 428 2741 428 
Q 3075 428 3337 486 
Q 3600 544 3809 666 
z
" transform="scale(0.015625)"/>
       <path id="DejaVuSans-71" d="M 947 1747 
Q 947 1113 1208 752 
Q 1469 391 1925 391 
Q 2381 391 2643 752 
Q 2906 1113 2906 1747 
Q 2906 2381 2643 2742 
Q 2381 3103 1925 3103 
Q 1469 3103 1208 2742 
Q 947 2381 947 1747 
z
M 2906 525 
Q 2725 213 2448 61 
Q 2172 -91 1784 -91 
Q 1150 -91 751 415 
Q 353 922 353 1747 
Q 353 2572 751 3078 
Q 1150 3584 1784 3584 
Q 2172 3584 2448 3432 
Q 2725 3281 2906 2969 
L 2906 3500 
L 3481 3500 
L 3481 -1331 
L 2906 -1331 
L 2906 525 
z
" transform="scale(0.015625)"/>
       <path id="DejaVuSans-2e" d="M 684 794 
L 1344 794 
L 1344 0 
L 684 0 
L 684 794 
z
" transform="scale(0.015625)"/>
       <path id="DejaVuSans-4c" d="M 628 4666 
L 1259 4666 
L 1259 531 
L 3531 531 
L 3531 0 
L 628 0 
L 628 4666 
z
" transform="scale(0.015625)"/>
       <path id="DejaVuSans-2d" d="M 313 2009 
L 1997 2009 
L 1997 1497 
L 313 1497 
L 313 2009 
z
" transform="scale(0.015625)"/>
      </defs>
      <use xlink:href="#DejaVuSans-54"/>
      <use xlink:href="#DejaVuSans-45" x="61.083984"/>
      <use xlink:href="#DejaVuSans-50" x="124.267578"/>
      <use xlink:href="#DejaVuSans-20" x="184.570312"/>
      <use xlink:href="#DejaVuSans-63" x="216.357422"/>
      <use xlink:href="#DejaVuSans-6f" x="271.337891"/>
      <use xlink:href="#DejaVuSans-6e" x="332.519531"/>
      <use xlink:href="#DejaVuSans-63" x="395.898438"/>
      <use xlink:href="#DejaVuSans-65" x="450.878906"/>
      <use xlink:href="#DejaVuSans-6e" x="512.402344"/>
      <use xlink:href="#DejaVuSans-74" x="575.78125"/>
      <use xlink:href="#DejaVuSans-72" x="614.990234"/>
      <use xlink:href="#DejaVuSans-61" x="656.103516"/>
      <use xlink:href="#DejaVuSans-74" x="717.382812"/>
      <use xlink:href="#DejaVuSans-69" x="756.591797"/>
      <use xlink:href="#DejaVuSans-6f" x="784.375"/>
      <use xlink:href="#DejaVuSans-6e" x="845.556641"/>
      <use xlink:href="#DejaVuSans-20" x="908.935547"/>
      <use xlink:href="#DejaVuSans-28" x="940.722656"/>
      <use xlink:href="#DejaVuSans-b5" x="979.736328"/>
      <use xlink:href="#DejaVuSans-67" x="1043.359375"/>
      <use xlink:href="#DejaVuSans-20" x="1106.835938"/>
      <use xlink:href="#DejaVuSans-58" x="1138.623047"/>
      <use xlink:href="#DejaVuSans-47" x="1207.128906"/>
      <use xlink:href="#DejaVuSans-20" x="1284.619141"/>
      <use xlink:href="#DejaVuSans-65" x="1316.40625"/>
      <use xlink:href="#DejaVuSans-71" x="1377.929688"/>
      <use xlink:href="#DejaVuSans-2e" x="1441.40625"/>
      <use xlink:href="#DejaVuSans-20" x="1473.193359"/>
      <use xlink:href="#DejaVuSans-4c" x="1504.980469"/>
      <use xlink:href="#DejaVuSans-2d" x="1558.943359"/>
      <use xlink:href="#DejaVuSans-31" x="1595.027344"/>
      <use xlink:href="#DejaVuSans-29" x="1658.650391"/>
     </g>
    </g>
   </g>
   <g id="line2d_11">
    <path d="M 66.602216 218.846223 
L 69.28385 217.465771 
L 71.965485 216.085318 
L 74.647119 214.704866 
L 77.328754 213.324413 
L 80.010389 211.943961 
L 82.692023 210.563509 
L 85.373658 209.183056 
L 88.055292 207.802604 
L 90.736927 206.422152 
L 93.418561 205.041699 
L 96.100196 203.661247 
L 98.78183 202.280795 
L 101.463465 200.900342 
L 104.145099 199.51989 
L 106.826734 198.139437 
L 109.508368 196.758985 
L 112.190003 195.378533 
L 114.871637 193.99808 
L 117.553272 192.617628 
L 120.234906 191.237176 
L 122.916541 189.856723 
L 125.598176 188.476271 
L 128.27981 187.095818 
L 130.961445 185.715366 
L 133.643079 184.334914 
L 136.324714 182.954461 
L 139.006348 181.574009 
L 141.687983 180.193557 
L 144.369617 178.813104 
L 147.051252 177.432652 
L 149.732886 176.0522 
L 152.414521 174.671747 
L 155.096155 173.291295 
L 157.77779 171.910842 
L 160.459424 170.53039 
L 163.141059 169.149938 
L 165.822693 167.769485 
L 168.504328 166.389033 
L 171.185962 165.008581 
L 173.867597 163.628128 
L 176.549232 162.247676 
L 179.230866 160.867223 
L 181.912501 159.486771 
L 184.594135 158.106319 
L 187.27577 156.725866 
L 189.957404 155.345414 
L 192.639039 153.964962 
L 195.320673 152.584509 
L 198.002308 151.204057 
L 200.683942 149.823605 
L 203.365577 148.443152 
L 206.047211 147.0627 
L 208.728846 145.682247 
L 211.41048 144.301795 
L 214.092115 142.921343 
L 216.773749 141.54089 
L 219.455384 140.160438 
L 222.137018 138.779986 
L 224.818653 137.399533 
L 227.500288 136.019081 
L 230.181922 134.638628 
L 232.863557 133.258176 
L 235.545191 131.877724 
L 238.226826 130.497271 
L 240.90846 129.116819 
L 243.590095 127.736367 
L 246.271729 126.355914 
L 248.953364 124.975462 
L 251.634998 123.59501 
L 254.316633 122.214557 
L 256.998267 120.834105 
L 259.679902 119.453652 
L 262.361536 118.0732 
L 265.043171 116.692748 
L 267.724805 115.312295 
L 270.40644 113.931843 
L 273.088074 112.551391 
L 275.769709 111.170938 
L 278.451344 109.790486 
L 281.132978 108.410033 
L 283.814613 107.029581 
L 286.496247 105.649129 
L 289.177882 104.268676 
L 291.859516 102.888224 
L 294.541151 101.507772 
L 297.222785 100.127319 
L 299.90442 98.746867 
L 302.586054 97.366415 
L 305.267689 95.985962 
L 307.949323 94.60551 
L 310.630958 93.225057 
L 313.312592 91.844605 
L 315.994227 90.464153 
L 318.675861 89.0837 
L 321.357496 87.703248 
L 324.039131 86.322796 
L 326.720765 84.942343 
L 329.4024 83.561891 
L 332.084034 82.181438 
" clip-path="url(#p645be63809)" style="fill: none; stroke: #808080; stroke-width: 2.25; stroke-linecap: square"/>
   </g>
   <g id="line2d_12"/>
   <g id="line2d_13"/>
   <g id="line2d_14"/>
   <g id="line2d_15"/>
   <g id="line2d_16"/>
   <g id="patch_3">
    <path d="M 53.328125 242.44 
L 53.328125 7.2 
" style="fill: none; stroke: #000000; stroke-width: 0.8; stroke-linejoin: miter; stroke-linecap: square"/>
   </g>
   <g id="patch_4">
    <path d="M 345.358125 242.44 
L 345.358125 7.2 
" style="fill: none; stroke: #000000; stroke-width: 0.8; stroke-linejoin: miter; stroke-linecap: square"/>
   </g>
   <g id="patch_5">
    <path d="M 53.328125 242.44 
L 345.358125 242.44 
" style="fill: none; stroke: #000000; stroke-width: 0.8; stroke-linejoin: miter; stroke-linecap: square"/>
   </g>
   <g id="patch_6">
    <path d="M 53.328125 7.2 
L 345.358125 7.2 
" style="fill: none; stroke: #000000; stroke-width: 0.8; stroke-linejoin: miter; stroke-linecap: square"/>
   </g>
   <g id="legend_1">
    <g id="patch_7">
     <path d="M 60.328125 103.26875 
L 121.639063 103.26875 
Q 123.639063 103.26875 123.639063 101.26875 
L 123.639063 14.2 
Q 123.639063 12.2 121.639063 12.2 
L 60.328125 12.2 
Q 58.328125 12.2 58.328125 14.2 
L 58.328125 101.26875 
Q 58.328125 103.26875 60.328125 103.26875 
z
" style="fill: #ffffff; opacity: 0.8; stroke: #cccccc; stroke-linejoin: miter"/>
    </g>
    <g id="text_13">
     <!-- Tide Height -->
     <g transform="translate(62.328125 23.798437) scale(0.1 -0.1)">
      <defs>
       <path id="DejaVuSans-48" d="M 628 4666 
L 1259 4666 
L 1259 2753 
L 3553 2753 
L 3553 4666 
L 4184 4666 
L 4184 0 
L 3553 0 
L 3553 2222 
L 1259 2222 
L 1259 0 
L 628 0 
L 628 4666 
z
" transform="scale(0.015625)"/>
      </defs>
      <use xlink:href="#DejaVuSans-54"/>
      <use xlink:href="#DejaVuSans-69" x="57.958984"/>
      <use xlink:href="#DejaVuSans-64" x="85.742188"/>
      <use xlink:href="#DejaVuSans-65" x="149.21875"/>
      <use xlink:href="#DejaVuSans-20" x="210.742188"/>
      <use xlink:href="#DejaVuSans-48" x="242.529297"/>
      <use xlink:href="#DejaVuSans-65" x="317.724609"/>
      <use xlink:href="#DejaVuSans-69" x="379.248047"/>
      <use xlink:href="#DejaVuSans-67" x="407.03125"/>
      <use xlink:href="#DejaVuSans-68" x="470.507812"/>
      <use xlink:href="#DejaVuSans-74" x="533.886719"/>
     </g>
    </g>
    <g id="line2d_17">
     <defs>
      <path id="m96273dbfdc" d="M 0 2.320231 
C 0.615332 2.320231 1.205545 2.075757 1.640651 1.640651 
C 2.075757 1.205545 2.320231 0.615332 2.320231 0 
C 2.320231 -0.615332 2.075757 -1.205545 1.640651 -1.640651 
C 1.205545 -2.075757 0.615332 -2.320231 0 -2.320231 
C -0.615332 -2.320231 -1.205545 -2.075757 -1.640651 -1.640651 
C -2.075757 -1.205545 -2.320231 -0.615332 -2.320231 0 
C -2.320231 0.615332 -2.075757 1.205545 -1.640651 1.640651 
C -1.205545 2.075757 -0.615332 2.320231 0 2.320231 
z
" style="stroke: #000000; stroke-width: 0.388445"/>
     </defs>
     <g>
      <use xlink:href="#m96273dbfdc" x="79.6125" y="34.976562" style="fill: #1f77b4; stroke: #000000; stroke-width: 0.388445"/>
     </g>
    </g>
    <g id="text_14">
     <!-- −2 -->
     <g transform="translate(97.6125 38.476562) scale(0.1 -0.1)">
      <use xlink:href="#DejaVuSans-2212"/>
      <use xlink:href="#DejaVuSans-32" x="83.789062"/>
     </g>
    </g>
    <g id="line2d_18">
     <defs>
      <path id="mc6dd2fee86" d="M 0 2.839854 
C 0.753138 2.839854 1.475531 2.540629 2.00808 2.00808 
C 2.540629 1.475531 2.839854 0.753138 2.839854 0 
C 2.839854 -0.753138 2.540629 -1.475531 2.00808 -2.00808 
C 1.475531 -2.540629 0.753138 -2.839854 0 -2.839854 
C -0.753138 -2.839854 -1.475531 -2.540629 -2.00808 -2.00808 
C -2.540629 -1.475531 -2.839854 -0.753138 -2.839854 0 
C -2.839854 0.753138 -2.540629 1.475531 -2.00808 2.00808 
C -1.475531 2.540629 -0.753138 2.839854 0 2.839854 
z
" style="stroke: #000000; stroke-width: 0.388445"/>
     </defs>
     <g>
      <use xlink:href="#mc6dd2fee86" x="79.6125" y="49.654687" style="fill: #1f77b4; stroke: #000000; stroke-width: 0.388445"/>
     </g>
    </g>
    <g id="text_15">
     <!-- −1 -->
     <g transform="translate(97.6125 53.154687) scale(0.1 -0.1)">
      <use xlink:href="#DejaVuSans-2212"/>
      <use xlink:href="#DejaVuSans-31" x="83.789062"/>
     </g>
    </g>
    <g id="line2d_19">
     <defs>
      <path id="mb2461317a9" d="M 0 3.27812 
C 0.869368 3.27812 1.703245 2.932717 2.317981 2.317981 
C 2.932717 1.703245 3.27812 0.869368 3.27812 0 
C 3.27812 -0.869368 2.932717 -1.703245 2.317981 -2.317981 
C 1.703245 -2.932717 0.869368 -3.27812 0 -3.27812 
C -0.869368 -3.27812 -1.703245 -2.932717 -2.317981 -2.317981 
C -2.932717 -1.703245 -3.27812 -0.869368 -3.27812 0 
C -3.27812 0.869368 -2.932717 1.703245 -2.317981 2.317981 
C -1.703245 2.932717 -0.869368 3.27812 0 3.27812 
z
" style="stroke: #000000; stroke-width: 0.388445"/>
     </defs>
     <g>
      <use xlink:href="#mb2461317a9" x="79.6125" y="64.332812" style="fill: #1f77b4; stroke: #000000; stroke-width: 0.388445"/>
     </g>
    </g>
    <g id="text_16">
     <!-- 0 -->
     <g transform="translate(97.6125 67.832812) scale(0.1 -0.1)">
      <use xlink:href="#DejaVuSans-30"/>
     </g>
    </g>
    <g id="line2d_20">
     <defs>
      <path id="ma16400c03c" d="M 0 3.664338 
C 0.971794 3.664338 1.903916 3.27824 2.591078 2.591078 
C 3.27824 1.903916 3.664338 0.971794 3.664338 0 
C 3.664338 -0.971794 3.27824 -1.903916 2.591078 -2.591078 
C 1.903916 -3.27824 0.971794 -3.664338 0 -3.664338 
C -0.971794 -3.664338 -1.903916 -3.27824 -2.591078 -2.591078 
C -3.27824 -1.903916 -3.664338 -0.971794 -3.664338 0 
C -3.664338 0.971794 -3.27824 1.903916 -2.591078 2.591078 
C -1.903916 3.27824 -0.971794 3.664338 0 3.664338 
z
" style="stroke: #000000; stroke-width: 0.388445"/>
     </defs>
     <g>
      <use xlink:href="#ma16400c03c" x="79.6125" y="79.010937" style="fill: #1f77b4; stroke: #000000; stroke-width: 0.388445"/>
     </g>
    </g>
    <g id="text_17">
     <!-- 1 -->
     <g transform="translate(97.6125 82.510937) scale(0.1 -0.1)">
      <use xlink:href="#DejaVuSans-31"/>
     </g>
    </g>
    <g id="line2d_21">
     <defs>
      <path id="ma455bd599a" d="M 0 4.013561 
C 1.064409 4.013561 2.085366 3.590667 2.838016 2.838016 
C 3.590667 2.085366 4.013561 1.064409 4.013561 0 
C 4.013561 -1.064409 3.590667 -2.085366 2.838016 -2.838016 
C 2.085366 -3.590667 1.064409 -4.013561 0 -4.013561 
C -1.064409 -4.013561 -2.085366 -3.590667 -2.838016 -2.838016 
C -3.590667 -2.085366 -4.013561 -1.064409 -4.013561 0 
C -4.013561 1.064409 -3.590667 2.085366 -2.838016 2.838016 
C -2.085366 3.590667 -1.064409 4.013561 0 4.013561 
z
" style="stroke: #000000; stroke-width: 0.388445"/>
     </defs>
     <g>
      <use xlink:href="#ma455bd599a" x="79.6125" y="93.689062" style="fill: #1f77b4; stroke: #000000; stroke-width: 0.388445"/>
     </g>
    </g>
    <g id="text_18">
     <!-- 2 -->
     <g transform="translate(97.6125 97.189062) scale(0.1 -0.1)">
      <use xlink:href="#DejaVuSans-32"/>
     </g>
    </g>
   </g>
  </g>
 </g>
 <defs>
  <clipPath id="p645be63809">
   <rect x="53.328125" y="7.2" width="292.03" height="235.24"/>
  </clipPath>
 </defs>
</svg>
