<?xml version="1.0" encoding="utf-8" standalone="no"?>
<!DOCTYPE svg PUBLIC "-//W3C//DTD SVG 1.1//EN"
  "http://www.w3.org/Graphics/SVG/1.1/DTD/svg11.dtd">
<svg xmlns:xlink="http://www.w3.org/1999/xlink" width="352.558125pt" height="279.99625pt" viewBox="0 0 352.558125 279.99625" xmlns="http://www.w3.org/2000/svg" version="1.1">
 <metadata>
  <rdf:RDF xmlns:dc="http://purl.org/dc/elements/1.1/" xmlns:cc="http://creativecommons.org/ns#" xmlns:rdf="http://www.w3.org/1999/02/22-rdf-syntax-ns#">
   <cc:Work>
    <dc:type rdf:resource="http://purl.org/dc/dcmitype/StillImage"/>
    <dc:date>2025-03-14T13:12:23.510076</dc:date>
    <dc:format>image/svg+xml</dc:format>
    <dc:creator>
     <cc:Agent>
      <dc:title>Matplotlib v3.8.3, https://matplotlib.org/</dc:title>
     </cc:Agent>
    </dc:creator>
   </cc:Work>
  </rdf:RDF>
 </metadata>
 <defs>
  <style type="text/css">*{stroke-linejoin: round; stroke-linecap: butt}</style>
 </defs>
 <g id="figure_1">
  <g id="patch_1">
   <path d="M 0 279.99625 
L 352.558125 279.99625 
L 352.558125 0 
L 0 0 
z
" style="fill: #ffffff"/>
  </g>
  <g id="axes_1">
   <g id="patch_2">
    <path d="M 53.328125 242.44 
L 345.358125 242.44 
L 345.358125 7.2 
L 53.328125 7.2 
z
" style="fill: #ffffff"/>
   </g>
   <g id="PolyCollection_1">
    <path d="M 66.602216 173.764826 
L 66.602216 206.010521 
L 69.28385 204.496866 
L 71.965485 203.0442 
L 74.647119 201.490029 
L 77.328754 199.863557 
L 80.010389 198.479448 
L 82.692023 197.114767 
L 85.373658 195.709158 
L 88.055292 194.439992 
L 90.736927 193.115503 
L 93.418561 191.937948 
L 96.100196 190.767978 
L 98.78183 189.58046 
L 101.463465 188.34169 
L 104.145099 187.259146 
L 106.826734 186.346816 
L 109.508368 185.411314 
L 112.190003 184.159048 
L 114.871637 182.98293 
L 117.553272 181.984973 
L 120.234906 180.66234 
L 122.916541 179.639579 
L 125.598176 178.779123 
L 128.27981 177.740933 
L 130.961445 176.728679 
L 133.643079 175.724564 
L 136.324714 174.560945 
L 139.006348 173.710004 
L 141.687983 172.71483 
L 144.369617 171.816728 
L 147.051252 170.912485 
L 149.732886 170.129365 
L 152.414521 169.349073 
L 155.096155 168.568889 
L 157.77779 167.79287 
L 160.459424 167.067729 
L 163.141059 166.378987 
L 165.822693 165.567168 
L 168.504328 164.878913 
L 171.185962 163.934863 
L 173.867597 163.11871 
L 176.549232 162.335848 
L 179.230866 161.587624 
L 181.912501 160.963339 
L 184.594135 160.325841 
L 187.27577 159.674178 
L 189.957404 158.783924 
L 192.639039 158.047408 
L 195.320673 157.539328 
L 198.002308 156.825339 
L 200.683942 156.049722 
L 203.365577 155.279798 
L 206.047211 154.587086 
L 208.728846 153.748639 
L 211.41048 153.214081 
L 214.092115 152.632527 
L 216.773749 152.128063 
L 219.455384 151.556916 
L 222.137018 150.701043 
L 224.818653 150.084178 
L 227.500288 149.453511 
L 230.181922 148.727322 
L 232.863557 147.841089 
L 235.545191 147.139188 
L 238.226826 146.621315 
L 240.90846 146.103443 
L 243.590095 145.585571 
L 246.271729 145.067698 
L 248.953364 144.549286 
L 251.634998 144.034695 
L 254.316633 143.458662 
L 256.998267 142.813317 
L 259.679902 142.241116 
L 262.361536 141.757404 
L 265.043171 141.261415 
L 267.724805 140.634972 
L 270.40644 140.083559 
L 273.088074 139.497062 
L 275.769709 138.910565 
L 278.451344 138.323814 
L 281.132978 137.729931 
L 283.814613 137.136047 
L 286.496247 136.528513 
L 289.177882 135.778977 
L 291.859516 135.029441 
L 294.541151 134.279906 
L 297.222785 133.535069 
L 299.90442 132.922821 
L 302.586054 132.310573 
L 305.267689 131.698326 
L 307.949323 131.086078 
L 310.630958 130.47383 
L 313.312592 129.861582 
L 315.994227 129.249335 
L 318.675861 128.637087 
L 321.357496 128.024839 
L 324.039131 127.569134 
L 326.720765 127.145521 
L 329.4024 126.721908 
L 332.084034 126.296936 
L 332.084034 27.56638 
L 332.084034 27.56638 
L 329.4024 29.205928 
L 326.720765 30.943424 
L 324.039131 32.682215 
L 321.357496 34.422673 
L 318.675861 36.16313 
L 315.994227 37.903588 
L 313.312592 39.644045 
L 310.630958 41.384503 
L 307.949323 43.12496 
L 305.267689 44.865418 
L 302.586054 46.605876 
L 299.90442 48.346333 
L 297.222785 50.086791 
L 294.541151 51.827248 
L 291.859516 53.567706 
L 289.177882 55.308163 
L 286.496247 57.048621 
L 283.814613 58.789079 
L 281.132978 60.43061 
L 278.451344 62.067111 
L 275.769709 63.857346 
L 273.088074 65.649657 
L 270.40644 67.441968 
L 267.724805 69.231824 
L 265.043171 70.972282 
L 262.361536 72.712739 
L 259.679902 74.31134 
L 256.998267 75.856242 
L 254.316633 77.591327 
L 251.634998 79.327171 
L 248.953364 81.063016 
L 246.271729 82.690092 
L 243.590095 84.274441 
L 240.90846 85.943337 
L 238.226826 87.697688 
L 235.545191 89.465867 
L 232.863557 91.227161 
L 230.181922 92.922557 
L 227.500288 94.662038 
L 224.818653 96.40152 
L 222.137018 97.960896 
L 219.455384 99.412995 
L 216.773749 101.044525 
L 214.092115 102.676056 
L 211.41048 104.316785 
L 208.728846 105.959769 
L 206.047211 107.701652 
L 203.365577 109.236235 
L 200.683942 110.870474 
L 198.002308 112.504713 
L 195.320673 114.138951 
L 192.639039 115.609464 
L 189.957404 117.407429 
L 187.27577 119.017454 
L 184.594135 120.41815 
L 181.912501 121.983003 
L 179.230866 123.797975 
L 176.549232 125.603982 
L 173.867597 127.437375 
L 171.185962 129.126591 
L 168.504328 130.655628 
L 165.822693 132.187417 
L 163.141059 133.791165 
L 160.459424 135.427568 
L 157.77779 137.056387 
L 155.096155 138.499846 
L 152.414521 139.928522 
L 149.732886 141.519892 
L 147.051252 143.279207 
L 144.369617 144.626099 
L 141.687983 146.153425 
L 139.006348 147.428323 
L 136.324714 148.556071 
L 133.643079 149.916121 
L 130.961445 150.964422 
L 128.27981 152.164401 
L 125.598176 153.365948 
L 122.916541 154.438329 
L 120.234906 155.639568 
L 117.553272 156.890667 
L 114.871637 157.922537 
L 112.190003 159.122129 
L 109.508368 160.039249 
L 106.826734 160.956136 
L 104.145099 161.875484 
L 101.463465 162.66207 
L 98.78183 163.53987 
L 96.100196 164.580369 
L 93.418561 165.536014 
L 90.736927 166.225685 
L 88.055292 167.238965 
L 85.373658 168.242823 
L 82.692023 169.000357 
L 80.010389 169.832997 
L 77.328754 170.574641 
L 74.647119 171.128669 
L 71.965485 172.045423 
L 69.28385 172.888034 
L 66.602216 173.764826 
z
" clip-path="url(#p51c1f6e4ac)" style="fill: #808080; fill-opacity: 0.15"/>
   </g>
   <g id="PathCollection_1">
    <defs>
     <path id="C0_0_de66688a8d" d="M 0 4.472136 
C 1.186024 4.472136 2.323632 4.000923 3.162278 3.162278 
C 4.000923 2.323632 4.472136 1.186024 4.472136 -0 
C 4.472136 -1.186024 4.000923 -2.323632 3.162278 -3.162278 
C 2.323632 -4.000923 1.186024 -4.472136 0 -4.472136 
C -1.186024 -4.472136 -2.323632 -4.000923 -3.162278 -3.162278 
C -4.000923 -2.323632 -4.472136 -1.186024 -4.472136 0 
C -4.472136 1.186024 -4.000923 2.323632 -3.162278 3.162278 
C -2.323632 4.000923 -1.186024 4.472136 0 4.472136 
z
"/>
    </defs>
    <g clip-path="url(#p51c1f6e4ac)">
     <use xlink:href="#C0_0_de66688a8d" x="84.071078" y="231.747273" style="fill: #e41a1c; stroke: #000000; stroke-width: 0.715542"/>
    </g>
    <g clip-path="url(#p51c1f6e4ac)">
     <use xlink:href="#C0_0_de66688a8d" x="79.518341" y="221.80055" style="fill: #e41a1c; stroke: #000000; stroke-width: 0.715542"/>
    </g>
    <g clip-path="url(#p51c1f6e4ac)">
     <use xlink:href="#C0_0_de66688a8d" x="73.650529" y="217.563982" style="fill: #e41a1c; stroke: #000000; stroke-width: 0.715542"/>
    </g>
    <g clip-path="url(#p51c1f6e4ac)">
     <use xlink:href="#C0_0_de66688a8d" x="68.599504" y="213.143217" style="fill: #e41a1c; stroke: #000000; stroke-width: 0.715542"/>
    </g>
    <g clip-path="url(#p51c1f6e4ac)">
     <use xlink:href="#C0_0_de66688a8d" x="66.875947" y="216.274592" style="fill: #e41a1c; stroke: #000000; stroke-width: 0.715542"/>
    </g>
    <g clip-path="url(#p51c1f6e4ac)">
     <use xlink:href="#C0_0_de66688a8d" x="68.232116" y="210.380238" style="fill: #e41a1c; stroke: #000000; stroke-width: 0.715542"/>
    </g>
    <g clip-path="url(#p51c1f6e4ac)">
     <use xlink:href="#C0_0_de66688a8d" x="68.106457" y="218.484975" style="fill: #e41a1c; stroke: #000000; stroke-width: 0.715542"/>
    </g>
    <g clip-path="url(#p51c1f6e4ac)">
     <use xlink:href="#C0_0_de66688a8d" x="77.318823" y="222.353145" style="fill: #e41a1c; stroke: #000000; stroke-width: 0.715542"/>
    </g>
    <g clip-path="url(#p51c1f6e4ac)">
     <use xlink:href="#C0_0_de66688a8d" x="66.905649" y="217.011387" style="fill: #e41a1c; stroke: #000000; stroke-width: 0.715542"/>
    </g>
    <g clip-path="url(#p51c1f6e4ac)">
     <use xlink:href="#C0_0_de66688a8d" x="84.642863" y="217.379784" style="fill: #e41a1c; stroke: #000000; stroke-width: 0.715542"/>
    </g>
    <g clip-path="url(#p51c1f6e4ac)">
     <use xlink:href="#C0_0_de66688a8d" x="68.182765" y="224.010933" style="fill: #e41a1c; stroke: #000000; stroke-width: 0.715542"/>
    </g>
    <g clip-path="url(#p51c1f6e4ac)">
     <use xlink:href="#C0_0_de66688a8d" x="72.846257" y="210.932834" style="fill: #e41a1c; stroke: #000000; stroke-width: 0.715542"/>
    </g>
    <g clip-path="url(#p51c1f6e4ac)">
     <use xlink:href="#C0_0_de66688a8d" x="69.728567" y="204.854281" style="fill: #e41a1c; stroke: #000000; stroke-width: 0.715542"/>
    </g>
    <g clip-path="url(#p51c1f6e4ac)">
     <use xlink:href="#C0_0_de66688a8d" x="88.206051" y="212.038025" style="fill: #e41a1c; stroke: #000000; stroke-width: 0.715542"/>
    </g>
    <g clip-path="url(#p51c1f6e4ac)">
     <use xlink:href="#C0_0_de66688a8d" x="194.931678" y="214.432607" style="fill: #e41a1c; stroke: #000000; stroke-width: 0.715542"/>
    </g>
    <g clip-path="url(#p51c1f6e4ac)">
     <use xlink:href="#C0_0_de66688a8d" x="91.409144" y="217.93238" style="fill: #e41a1c; stroke: #000000; stroke-width: 0.715542"/>
    </g>
    <g clip-path="url(#p51c1f6e4ac)">
     <use xlink:href="#C0_0_de66688a8d" x="66.602216" y="173.172126" style="fill: #e41a1c; stroke: #000000; stroke-width: 0.715542"/>
    </g>
    <g clip-path="url(#p51c1f6e4ac)">
     <use xlink:href="#C0_0_de66688a8d" x="67.089369" y="193.986565" style="fill: #e41a1c; stroke: #000000; stroke-width: 0.715542"/>
    </g>
    <g clip-path="url(#p51c1f6e4ac)">
     <use xlink:href="#C0_0_de66688a8d" x="70.851904" y="203.564891" style="fill: #e41a1c; stroke: #000000; stroke-width: 0.715542"/>
    </g>
    <g clip-path="url(#p51c1f6e4ac)">
     <use xlink:href="#C0_0_de66688a8d" x="67.289581" y="170.224949" style="fill: #e41a1c; stroke: #000000; stroke-width: 0.715542"/>
    </g>
    <g clip-path="url(#p51c1f6e4ac)">
     <use xlink:href="#C0_0_de66688a8d" x="67.214106" y="175.566707" style="fill: #e41a1c; stroke: #000000; stroke-width: 0.715542"/>
    </g>
    <g clip-path="url(#p51c1f6e4ac)">
     <use xlink:href="#C0_0_de66688a8d" x="102.640615" y="112.202398" style="fill: #377eb8; stroke: #000000; stroke-width: 0.715542"/>
    </g>
    <g clip-path="url(#p51c1f6e4ac)">
     <use xlink:href="#C0_0_de66688a8d" x="150.521014" y="120.491333" style="fill: #377eb8; stroke: #000000; stroke-width: 0.715542"/>
    </g>
    <g clip-path="url(#p51c1f6e4ac)">
     <use xlink:href="#C0_0_de66688a8d" x="143.705626" y="108.334228" style="fill: #377eb8; stroke: #000000; stroke-width: 0.715542"/>
    </g>
    <g clip-path="url(#p51c1f6e4ac)">
     <use xlink:href="#C0_0_de66688a8d" x="144.300948" y="132.095844" style="fill: #377eb8; stroke: #000000; stroke-width: 0.715542"/>
    </g>
    <g clip-path="url(#p51c1f6e4ac)">
     <use xlink:href="#C0_0_de66688a8d" x="273.718308" y="68.915733" style="fill: #377eb8; stroke: #000000; stroke-width: 0.715542"/>
    </g>
    <g clip-path="url(#p51c1f6e4ac)">
     <use xlink:href="#C0_0_de66688a8d" x="287.901175" y="122.609617" style="fill: #377eb8; stroke: #000000; stroke-width: 0.715542"/>
    </g>
    <g clip-path="url(#p51c1f6e4ac)">
     <use xlink:href="#C0_0_de66688a8d" x="312.069432" y="32.076018" style="fill: #377eb8; stroke: #000000; stroke-width: 0.715542"/>
    </g>
    <g clip-path="url(#p51c1f6e4ac)">
     <use xlink:href="#C0_0_de66688a8d" x="225.08511" y="180.171672" style="fill: #377eb8; stroke: #000000; stroke-width: 0.715542"/>
    </g>
    <g clip-path="url(#p51c1f6e4ac)">
     <use xlink:href="#C0_0_de66688a8d" x="160.984319" y="94.887732" style="fill: #377eb8; stroke: #000000; stroke-width: 0.715542"/>
    </g>
    <g clip-path="url(#p51c1f6e4ac)">
     <use xlink:href="#C0_0_de66688a8d" x="165.785371" y="139.279588" style="fill: #377eb8; stroke: #000000; stroke-width: 0.715542"/>
    </g>
    <g clip-path="url(#p51c1f6e4ac)">
     <use xlink:href="#C0_0_de66688a8d" x="160.603939" y="111.465603" style="fill: #377eb8; stroke: #000000; stroke-width: 0.715542"/>
    </g>
    <g clip-path="url(#p51c1f6e4ac)">
     <use xlink:href="#C0_0_de66688a8d" x="94.887562" y="17.892727" style="fill: #377eb8; stroke: #000000; stroke-width: 0.715542"/>
    </g>
    <g clip-path="url(#p51c1f6e4ac)">
     <use xlink:href="#C0_0_de66688a8d" x="193.945699" y="145.54234" style="fill: #377eb8; stroke: #000000; stroke-width: 0.715542"/>
    </g>
    <g clip-path="url(#p51c1f6e4ac)">
     <use xlink:href="#C0_0_de66688a8d" x="87.503896" y="154.015474" style="fill: #377eb8; stroke: #000000; stroke-width: 0.715542"/>
    </g>
    <g clip-path="url(#p51c1f6e4ac)">
     <use xlink:href="#C0_0_de66688a8d" x="131.860795" y="189.934196" style="fill: #377eb8; stroke: #000000; stroke-width: 0.715542"/>
    </g>
    <g clip-path="url(#p51c1f6e4ac)">
     <use xlink:href="#C0_0_de66688a8d" x="91.256307" y="161.567616" style="fill: #377eb8; stroke: #000000; stroke-width: 0.715542"/>
    </g>
    <g clip-path="url(#p51c1f6e4ac)">
     <use xlink:href="#C0_0_de66688a8d" x="129.237932" y="184.408239" style="fill: #377eb8; stroke: #000000; stroke-width: 0.715542"/>
    </g>
    <g clip-path="url(#p51c1f6e4ac)">
     <use xlink:href="#C0_0_de66688a8d" x="117.330939" y="137.990198" style="fill: #377eb8; stroke: #000000; stroke-width: 0.715542"/>
    </g>
    <g clip-path="url(#p51c1f6e4ac)">
     <use xlink:href="#C0_0_de66688a8d" x="192.093358" y="81.625434" style="fill: #377eb8; stroke: #000000; stroke-width: 0.715542"/>
    </g>
    <g clip-path="url(#p51c1f6e4ac)">
     <use xlink:href="#C0_0_de66688a8d" x="332.084034" y="173.540523" style="fill: #377eb8; stroke: #000000; stroke-width: 0.715542"/>
    </g>
    <g clip-path="url(#p51c1f6e4ac)">
     <use xlink:href="#C0_0_de66688a8d" x="185.435557" y="165.251587" style="fill: #377eb8; stroke: #000000; stroke-width: 0.715542"/>
    </g>
    <g clip-path="url(#p51c1f6e4ac)">
     <use xlink:href="#C0_0_de66688a8d" x="100.627777" y="130.806454" style="fill: #377eb8; stroke: #000000; stroke-width: 0.715542"/>
    </g>
    <g clip-path="url(#p51c1f6e4ac)">
     <use xlink:href="#C0_0_de66688a8d" x="163.279922" y="142.410964" style="fill: #377eb8; stroke: #000000; stroke-width: 0.715542"/>
    </g>
    <g clip-path="url(#p51c1f6e4ac)">
     <use xlink:href="#C0_0_de66688a8d" x="228.98224" y="96.36132" style="fill: #377eb8; stroke: #000000; stroke-width: 0.715542"/>
    </g>
    <g clip-path="url(#p51c1f6e4ac)">
     <use xlink:href="#C0_0_de66688a8d" x="215.027353" y="156.041658" style="fill: #377eb8; stroke: #000000; stroke-width: 0.715542"/>
    </g>
   </g>
   <g id="matplotlib.axis_1">
    <g id="xtick_1">
     <g id="line2d_1">
      <defs>
       <path id="m70c43e0fe5" d="M 0 0 
L 0 3.5 
" style="stroke: #000000; stroke-width: 0.8"/>
      </defs>
      <g>
       <use xlink:href="#m70c43e0fe5" x="66.601505" y="242.44" style="stroke: #000000; stroke-width: 0.8"/>
      </g>
     </g>
     <g id="text_1">
      <!-- 0 -->
      <g transform="translate(63.420255 257.038437) scale(0.1 -0.1)">
       <defs>
        <path id="DejaVuSans-30" d="M 2034 4250 
Q 1547 4250 1301 3770 
Q 1056 3291 1056 2328 
Q 1056 1369 1301 889 
Q 1547 409 2034 409 
Q 2525 409 2770 889 
Q 3016 1369 3016 2328 
Q 3016 3291 2770 3770 
Q 2525 4250 2034 4250 
z
M 2034 4750 
Q 2819 4750 3233 4129 
Q 3647 3509 3647 2328 
Q 3647 1150 3233 529 
Q 2819 -91 2034 -91 
Q 1250 -91 836 529 
Q 422 1150 422 2328 
Q 422 3509 836 4129 
Q 1250 4750 2034 4750 
z
" transform="scale(0.015625)"/>
       </defs>
       <use xlink:href="#DejaVuSans-30"/>
      </g>
     </g>
    </g>
    <g id="xtick_2">
     <g id="line2d_2">
      <g>
       <use xlink:href="#m70c43e0fe5" x="107.568778" y="242.44" style="stroke: #000000; stroke-width: 0.8"/>
      </g>
     </g>
     <g id="text_2">
      <!-- 1 -->
      <g transform="translate(104.387528 257.038437) scale(0.1 -0.1)">
       <defs>
        <path id="DejaVuSans-31" d="M 794 531 
L 1825 531 
L 1825 4091 
L 703 3866 
L 703 4441 
L 1819 4666 
L 2450 4666 
L 2450 531 
L 3481 531 
L 3481 0 
L 794 0 
L 794 531 
z
" transform="scale(0.015625)"/>
       </defs>
       <use xlink:href="#DejaVuSans-31"/>
      </g>
     </g>
    </g>
    <g id="xtick_3">
     <g id="line2d_3">
      <g>
       <use xlink:href="#m70c43e0fe5" x="148.536052" y="242.44" style="stroke: #000000; stroke-width: 0.8"/>
      </g>
     </g>
     <g id="text_3">
      <!-- 2 -->
      <g transform="translate(145.354802 257.038437) scale(0.1 -0.1)">
       <defs>
        <path id="DejaVuSans-32" d="M 1228 531 
L 3431 531 
L 3431 0 
L 469 0 
L 469 531 
Q 828 903 1448 1529 
Q 2069 2156 2228 2338 
Q 2531 2678 2651 2914 
Q 2772 3150 2772 3378 
Q 2772 3750 2511 3984 
Q 2250 4219 1831 4219 
Q 1534 4219 1204 4116 
Q 875 4013 500 3803 
L 500 4441 
Q 881 4594 1212 4672 
Q 1544 4750 1819 4750 
Q 2544 4750 2975 4387 
Q 3406 4025 3406 3419 
Q 3406 3131 3298 2873 
Q 3191 2616 2906 2266 
Q 2828 2175 2409 1742 
Q 1991 1309 1228 531 
z
" transform="scale(0.015625)"/>
       </defs>
       <use xlink:href="#DejaVuSans-32"/>
      </g>
     </g>
    </g>
    <g id="xtick_4">
     <g id="line2d_4">
      <g>
       <use xlink:href="#m70c43e0fe5" x="189.503325" y="242.44" style="stroke: #000000; stroke-width: 0.8"/>
      </g>
     </g>
     <g id="text_4">
      <!-- 3 -->
      <g transform="translate(186.322075 257.038437) scale(0.1 -0.1)">
       <defs>
        <path id="DejaVuSans-33" d="M 2597 2516 
Q 3050 2419 3304 2112 
Q 3559 1806 3559 1356 
Q 3559 666 3084 287 
Q 2609 -91 1734 -91 
Q 1441 -91 1130 -33 
Q 819 25 488 141 
L 488 750 
Q 750 597 1062 519 
Q 1375 441 1716 441 
Q 2309 441 2620 675 
Q 2931 909 2931 1356 
Q 2931 1769 2642 2001 
Q 2353 2234 1838 2234 
L 1294 2234 
L 1294 2753 
L 1863 2753 
Q 2328 2753 2575 2939 
Q 2822 3125 2822 3475 
Q 2822 3834 2567 4026 
Q 2313 4219 1838 4219 
Q 1578 4219 1281 4162 
Q 984 4106 628 3988 
L 628 4550 
Q 988 4650 1302 4700 
Q 1616 4750 1894 4750 
Q 2613 4750 3031 4423 
Q 3450 4097 3450 3541 
Q 3450 3153 3228 2886 
Q 3006 2619 2597 2516 
z
" transform="scale(0.015625)"/>
       </defs>
       <use xlink:href="#DejaVuSans-33"/>
      </g>
     </g>
    </g>
    <g id="xtick_5">
     <g id="line2d_5">
      <g>
       <use xlink:href="#m70c43e0fe5" x="230.470599" y="242.44" style="stroke: #000000; stroke-width: 0.8"/>
      </g>
     </g>
     <g id="text_5">
      <!-- 4 -->
      <g transform="translate(227.289349 257.038437) scale(0.1 -0.1)">
       <defs>
        <path id="DejaVuSans-34" d="M 2419 4116 
L 825 1625 
L 2419 1625 
L 2419 4116 
z
M 2253 4666 
L 3047 4666 
L 3047 1625 
L 3713 1625 
L 3713 1100 
L 3047 1100 
L 3047 0 
L 2419 0 
L 2419 1100 
L 313 1100 
L 313 1709 
L 2253 4666 
z
" transform="scale(0.015625)"/>
       </defs>
       <use xlink:href="#DejaVuSans-34"/>
      </g>
     </g>
    </g>
    <g id="xtick_6">
     <g id="line2d_6">
      <g>
       <use xlink:href="#m70c43e0fe5" x="271.437872" y="242.44" style="stroke: #000000; stroke-width: 0.8"/>
      </g>
     </g>
     <g id="text_6">
      <!-- 5 -->
      <g transform="translate(268.256622 257.038437) scale(0.1 -0.1)">
       <defs>
        <path id="DejaVuSans-35" d="M 691 4666 
L 3169 4666 
L 3169 4134 
L 1269 4134 
L 1269 2991 
Q 1406 3038 1543 3061 
Q 1681 3084 1819 3084 
Q 2600 3084 3056 2656 
Q 3513 2228 3513 1497 
Q 3513 744 3044 326 
Q 2575 -91 1722 -91 
Q 1428 -91 1123 -41 
Q 819 9 494 109 
L 494 744 
Q 775 591 1075 516 
Q 1375 441 1709 441 
Q 2250 441 2565 725 
Q 2881 1009 2881 1497 
Q 2881 1984 2565 2268 
Q 2250 2553 1709 2553 
Q 1456 2553 1204 2497 
Q 953 2441 691 2322 
L 691 4666 
z
" transform="scale(0.015625)"/>
       </defs>
       <use xlink:href="#DejaVuSans-35"/>
      </g>
     </g>
    </g>
    <g id="xtick_7">
     <g id="line2d_7">
      <g>
       <use xlink:href="#m70c43e0fe5" x="312.405145" y="242.44" style="stroke: #000000; stroke-width: 0.8"/>
      </g>
     </g>
     <g id="text_7">
      <!-- 6 -->
      <g transform="translate(309.223895 257.038437) scale(0.1 -0.1)">
       <defs>
        <path id="DejaVuSans-36" d="M 2113 2584 
Q 1688 2584 1439 2293 
Q 1191 2003 1191 1497 
Q 1191 994 1439 701 
Q 1688 409 2113 409 
Q 2538 409 2786 701 
Q 3034 994 3034 1497 
Q 3034 2003 2786 2293 
Q 2538 2584 2113 2584 
z
M 3366 4563 
L 3366 3988 
Q 3128 4100 2886 4159 
Q 2644 4219 2406 4219 
Q 1781 4219 1451 3797 
Q 1122 3375 1075 2522 
Q 1259 2794 1537 2939 
Q 1816 3084 2150 3084 
Q 2853 3084 3261 2657 
Q 3669 2231 3669 1497 
Q 3669 778 3244 343 
Q 2819 -91 2113 -91 
Q 1303 -91 875 529 
Q 447 1150 447 2328 
Q 447 3434 972 4092 
Q 1497 4750 2381 4750 
Q 2619 4750 2861 4703 
Q 3103 4656 3366 4563 
z
" transform="scale(0.015625)"/>
       </defs>
       <use xlink:href="#DejaVuSans-36"/>
      </g>
     </g>
    </g>
    <g id="text_8">
     <!-- Phaeocystis globosa TPL (Transcripts per Liter) -->
     <g transform="translate(82.750156 270.716562) scale(0.1 -0.1)">
      <defs>
       <path id="DejaVuSans-50" d="M 1259 4147 
L 1259 2394 
L 2053 2394 
Q 2494 2394 2734 2622 
Q 2975 2850 2975 3272 
Q 2975 3691 2734 3919 
Q 2494 4147 2053 4147 
L 1259 4147 
z
M 628 4666 
L 2053 4666 
Q 2838 4666 3239 4311 
Q 3641 3956 3641 3272 
Q 3641 2581 3239 2228 
Q 2838 1875 2053 1875 
L 1259 1875 
L 1259 0 
L 628 0 
L 628 4666 
z
" transform="scale(0.015625)"/>
       <path id="DejaVuSans-68" d="M 3513 2113 
L 3513 0 
L 2938 0 
L 2938 2094 
Q 2938 2591 2744 2837 
Q 2550 3084 2163 3084 
Q 1697 3084 1428 2787 
Q 1159 2491 1159 1978 
L 1159 0 
L 581 0 
L 581 4863 
L 1159 4863 
L 1159 2956 
Q 1366 3272 1645 3428 
Q 1925 3584 2291 3584 
Q 2894 3584 3203 3211 
Q 3513 2838 3513 2113 
z
" transform="scale(0.015625)"/>
       <path id="DejaVuSans-61" d="M 2194 1759 
Q 1497 1759 1228 1600 
Q 959 1441 959 1056 
Q 959 750 1161 570 
Q 1363 391 1709 391 
Q 2188 391 2477 730 
Q 2766 1069 2766 1631 
L 2766 1759 
L 2194 1759 
z
M 3341 1997 
L 3341 0 
L 2766 0 
L 2766 531 
Q 2569 213 2275 61 
Q 1981 -91 1556 -91 
Q 1019 -91 701 211 
Q 384 513 384 1019 
Q 384 1609 779 1909 
Q 1175 2209 1959 2209 
L 2766 2209 
L 2766 2266 
Q 2766 2663 2505 2880 
Q 2244 3097 1772 3097 
Q 1472 3097 1187 3025 
Q 903 2953 641 2809 
L 641 3341 
Q 956 3463 1253 3523 
Q 1550 3584 1831 3584 
Q 2591 3584 2966 3190 
Q 3341 2797 3341 1997 
z
" transform="scale(0.015625)"/>
       <path id="DejaVuSans-65" d="M 3597 1894 
L 3597 1613 
L 953 1613 
Q 991 1019 1311 708 
Q 1631 397 2203 397 
Q 2534 397 2845 478 
Q 3156 559 3463 722 
L 3463 178 
Q 3153 47 2828 -22 
Q 2503 -91 2169 -91 
Q 1331 -91 842 396 
Q 353 884 353 1716 
Q 353 2575 817 3079 
Q 1281 3584 2069 3584 
Q 2775 3584 3186 3129 
Q 3597 2675 3597 1894 
z
M 3022 2063 
Q 3016 2534 2758 2815 
Q 2500 3097 2075 3097 
Q 1594 3097 1305 2825 
Q 1016 2553 972 2059 
L 3022 2063 
z
" transform="scale(0.015625)"/>
       <path id="DejaVuSans-6f" d="M 1959 3097 
Q 1497 3097 1228 2736 
Q 959 2375 959 1747 
Q 959 1119 1226 758 
Q 1494 397 1959 397 
Q 2419 397 2687 759 
Q 2956 1122 2956 1747 
Q 2956 2369 2687 2733 
Q 2419 3097 1959 3097 
z
M 1959 3584 
Q 2709 3584 3137 3096 
Q 3566 2609 3566 1747 
Q 3566 888 3137 398 
Q 2709 -91 1959 -91 
Q 1206 -91 779 398 
Q 353 888 353 1747 
Q 353 2609 779 3096 
Q 1206 3584 1959 3584 
z
" transform="scale(0.015625)"/>
       <path id="DejaVuSans-63" d="M 3122 3366 
L 3122 2828 
Q 2878 2963 2633 3030 
Q 2388 3097 2138 3097 
Q 1578 3097 1268 2742 
Q 959 2388 959 1747 
Q 959 1106 1268 751 
Q 1578 397 2138 397 
Q 2388 397 2633 464 
Q 2878 531 3122 666 
L 3122 134 
Q 2881 22 2623 -34 
Q 2366 -91 2075 -91 
Q 1284 -91 818 406 
Q 353 903 353 1747 
Q 353 2603 823 3093 
Q 1294 3584 2113 3584 
Q 2378 3584 2631 3529 
Q 2884 3475 3122 3366 
z
" transform="scale(0.015625)"/>
       <path id="DejaVuSans-79" d="M 2059 -325 
Q 1816 -950 1584 -1140 
Q 1353 -1331 966 -1331 
L 506 -1331 
L 506 -850 
L 844 -850 
Q 1081 -850 1212 -737 
Q 1344 -625 1503 -206 
L 1606 56 
L 191 3500 
L 800 3500 
L 1894 763 
L 2988 3500 
L 3597 3500 
L 2059 -325 
z
" transform="scale(0.015625)"/>
       <path id="DejaVuSans-73" d="M 2834 3397 
L 2834 2853 
Q 2591 2978 2328 3040 
Q 2066 3103 1784 3103 
Q 1356 3103 1142 2972 
Q 928 2841 928 2578 
Q 928 2378 1081 2264 
Q 1234 2150 1697 2047 
L 1894 2003 
Q 2506 1872 2764 1633 
Q 3022 1394 3022 966 
Q 3022 478 2636 193 
Q 2250 -91 1575 -91 
Q 1294 -91 989 -36 
Q 684 19 347 128 
L 347 722 
Q 666 556 975 473 
Q 1284 391 1588 391 
Q 1994 391 2212 530 
Q 2431 669 2431 922 
Q 2431 1156 2273 1281 
Q 2116 1406 1581 1522 
L 1381 1569 
Q 847 1681 609 1914 
Q 372 2147 372 2553 
Q 372 3047 722 3315 
Q 1072 3584 1716 3584 
Q 2034 3584 2315 3537 
Q 2597 3491 2834 3397 
z
" transform="scale(0.015625)"/>
       <path id="DejaVuSans-74" d="M 1172 4494 
L 1172 3500 
L 2356 3500 
L 2356 3053 
L 1172 3053 
L 1172 1153 
Q 1172 725 1289 603 
Q 1406 481 1766 481 
L 2356 481 
L 2356 0 
L 1766 0 
Q 1100 0 847 248 
Q 594 497 594 1153 
L 594 3053 
L 172 3053 
L 172 3500 
L 594 3500 
L 594 4494 
L 1172 4494 
z
" transform="scale(0.015625)"/>
       <path id="DejaVuSans-69" d="M 603 3500 
L 1178 3500 
L 1178 0 
L 603 0 
L 603 3500 
z
M 603 4863 
L 1178 4863 
L 1178 4134 
L 603 4134 
L 603 4863 
z
" transform="scale(0.015625)"/>
       <path id="DejaVuSans-20" transform="scale(0.015625)"/>
       <path id="DejaVuSans-67" d="M 2906 1791 
Q 2906 2416 2648 2759 
Q 2391 3103 1925 3103 
Q 1463 3103 1205 2759 
Q 947 2416 947 1791 
Q 947 1169 1205 825 
Q 1463 481 1925 481 
Q 2391 481 2648 825 
Q 2906 1169 2906 1791 
z
M 3481 434 
Q 3481 -459 3084 -895 
Q 2688 -1331 1869 -1331 
Q 1566 -1331 1297 -1286 
Q 1028 -1241 775 -1147 
L 775 -588 
Q 1028 -725 1275 -790 
Q 1522 -856 1778 -856 
Q 2344 -856 2625 -561 
Q 2906 -266 2906 331 
L 2906 616 
Q 2728 306 2450 153 
Q 2172 0 1784 0 
Q 1141 0 747 490 
Q 353 981 353 1791 
Q 353 2603 747 3093 
Q 1141 3584 1784 3584 
Q 2172 3584 2450 3431 
Q 2728 3278 2906 2969 
L 2906 3500 
L 3481 3500 
L 3481 434 
z
" transform="scale(0.015625)"/>
       <path id="DejaVuSans-6c" d="M 603 4863 
L 1178 4863 
L 1178 0 
L 603 0 
L 603 4863 
z
" transform="scale(0.015625)"/>
       <path id="DejaVuSans-62" d="M 3116 1747 
Q 3116 2381 2855 2742 
Q 2594 3103 2138 3103 
Q 1681 3103 1420 2742 
Q 1159 2381 1159 1747 
Q 1159 1113 1420 752 
Q 1681 391 2138 391 
Q 2594 391 2855 752 
Q 3116 1113 3116 1747 
z
M 1159 2969 
Q 1341 3281 1617 3432 
Q 1894 3584 2278 3584 
Q 2916 3584 3314 3078 
Q 3713 2572 3713 1747 
Q 3713 922 3314 415 
Q 2916 -91 2278 -91 
Q 1894 -91 1617 61 
Q 1341 213 1159 525 
L 1159 0 
L 581 0 
L 581 4863 
L 1159 4863 
L 1159 2969 
z
" transform="scale(0.015625)"/>
       <path id="DejaVuSans-54" d="M -19 4666 
L 3928 4666 
L 3928 4134 
L 2272 4134 
L 2272 0 
L 1638 0 
L 1638 4134 
L -19 4134 
L -19 4666 
z
" transform="scale(0.015625)"/>
       <path id="DejaVuSans-4c" d="M 628 4666 
L 1259 4666 
L 1259 531 
L 3531 531 
L 3531 0 
L 628 0 
L 628 4666 
z
" transform="scale(0.015625)"/>
       <path id="DejaVuSans-28" d="M 1984 4856 
Q 1566 4138 1362 3434 
Q 1159 2731 1159 2009 
Q 1159 1288 1364 580 
Q 1569 -128 1984 -844 
L 1484 -844 
Q 1016 -109 783 600 
Q 550 1309 550 2009 
Q 550 2706 781 3412 
Q 1013 4119 1484 4856 
L 1984 4856 
z
" transform="scale(0.015625)"/>
       <path id="DejaVuSans-72" d="M 2631 2963 
Q 2534 3019 2420 3045 
Q 2306 3072 2169 3072 
Q 1681 3072 1420 2755 
Q 1159 2438 1159 1844 
L 1159 0 
L 581 0 
L 581 3500 
L 1159 3500 
L 1159 2956 
Q 1341 3275 1631 3429 
Q 1922 3584 2338 3584 
Q 2397 3584 2469 3576 
Q 2541 3569 2628 3553 
L 2631 2963 
z
" transform="scale(0.015625)"/>
       <path id="DejaVuSans-6e" d="M 3513 2113 
L 3513 0 
L 2938 0 
L 2938 2094 
Q 2938 2591 2744 2837 
Q 2550 3084 2163 3084 
Q 1697 3084 1428 2787 
Q 1159 2491 1159 1978 
L 1159 0 
L 581 0 
L 581 3500 
L 1159 3500 
L 1159 2956 
Q 1366 3272 1645 3428 
Q 1925 3584 2291 3584 
Q 2894 3584 3203 3211 
Q 3513 2838 3513 2113 
z
" transform="scale(0.015625)"/>
       <path id="DejaVuSans-70" d="M 1159 525 
L 1159 -1331 
L 581 -1331 
L 581 3500 
L 1159 3500 
L 1159 2969 
Q 1341 3281 1617 3432 
Q 1894 3584 2278 3584 
Q 2916 3584 3314 3078 
Q 3713 2572 3713 1747 
Q 3713 922 3314 415 
Q 2916 -91 2278 -91 
Q 1894 -91 1617 61 
Q 1341 213 1159 525 
z
M 3116 1747 
Q 3116 2381 2855 2742 
Q 2594 3103 2138 3103 
Q 1681 3103 1420 2742 
Q 1159 2381 1159 1747 
Q 1159 1113 1420 752 
Q 1681 391 2138 391 
Q 2594 391 2855 752 
Q 3116 1113 3116 1747 
z
" transform="scale(0.015625)"/>
       <path id="DejaVuSans-29" d="M 513 4856 
L 1013 4856 
Q 1481 4119 1714 3412 
Q 1947 2706 1947 2009 
Q 1947 1309 1714 600 
Q 1481 -109 1013 -844 
L 513 -844 
Q 928 -128 1133 580 
Q 1338 1288 1338 2009 
Q 1338 2731 1133 3434 
Q 928 4138 513 4856 
z
" transform="scale(0.015625)"/>
      </defs>
      <use xlink:href="#DejaVuSans-50"/>
      <use xlink:href="#DejaVuSans-68" x="60.302734"/>
      <use xlink:href="#DejaVuSans-61" x="123.681641"/>
      <use xlink:href="#DejaVuSans-65" x="184.960938"/>
      <use xlink:href="#DejaVuSans-6f" x="246.484375"/>
      <use xlink:href="#DejaVuSans-63" x="307.666016"/>
      <use xlink:href="#DejaVuSans-79" x="362.646484"/>
      <use xlink:href="#DejaVuSans-73" x="421.826172"/>
      <use xlink:href="#DejaVuSans-74" x="473.925781"/>
      <use xlink:href="#DejaVuSans-69" x="513.134766"/>
      <use xlink:href="#DejaVuSans-73" x="540.917969"/>
      <use xlink:href="#DejaVuSans-20" x="593.017578"/>
      <use xlink:href="#DejaVuSans-67" x="624.804688"/>
      <use xlink:href="#DejaVuSans-6c" x="688.28125"/>
      <use xlink:href="#DejaVuSans-6f" x="716.064453"/>
      <use xlink:href="#DejaVuSans-62" x="777.246094"/>
      <use xlink:href="#DejaVuSans-6f" x="840.722656"/>
      <use xlink:href="#DejaVuSans-73" x="901.904297"/>
      <use xlink:href="#DejaVuSans-61" x="954.003906"/>
      <use xlink:href="#DejaVuSans-20" x="1015.283203"/>
      <use xlink:href="#DejaVuSans-54" x="1047.070312"/>
      <use xlink:href="#DejaVuSans-50" x="1108.154297"/>
      <use xlink:href="#DejaVuSans-4c" x="1168.457031"/>
      <use xlink:href="#DejaVuSans-20" x="1224.169922"/>
      <use xlink:href="#DejaVuSans-28" x="1255.957031"/>
      <use xlink:href="#DejaVuSans-54" x="1294.970703"/>
      <use xlink:href="#DejaVuSans-72" x="1341.304688"/>
      <use xlink:href="#DejaVuSans-61" x="1382.417969"/>
      <use xlink:href="#DejaVuSans-6e" x="1443.697266"/>
      <use xlink:href="#DejaVuSans-73" x="1507.076172"/>
      <use xlink:href="#DejaVuSans-63" x="1559.175781"/>
      <use xlink:href="#DejaVuSans-72" x="1614.15625"/>
      <use xlink:href="#DejaVuSans-69" x="1655.269531"/>
      <use xlink:href="#DejaVuSans-70" x="1683.052734"/>
      <use xlink:href="#DejaVuSans-74" x="1746.529297"/>
      <use xlink:href="#DejaVuSans-73" x="1785.738281"/>
      <use xlink:href="#DejaVuSans-20" x="1837.837891"/>
      <use xlink:href="#DejaVuSans-70" x="1869.625"/>
      <use xlink:href="#DejaVuSans-65" x="1933.101562"/>
      <use xlink:href="#DejaVuSans-72" x="1994.625"/>
      <use xlink:href="#DejaVuSans-20" x="2035.738281"/>
      <use xlink:href="#DejaVuSans-4c" x="2067.525391"/>
      <use xlink:href="#DejaVuSans-69" x="2123.238281"/>
      <use xlink:href="#DejaVuSans-74" x="2151.021484"/>
      <use xlink:href="#DejaVuSans-65" x="2190.230469"/>
      <use xlink:href="#DejaVuSans-72" x="2251.753906"/>
      <use xlink:href="#DejaVuSans-29" x="2292.867188"/>
     </g>
    </g>
    <g id="text_9">
     <!-- 1e7 -->
     <g transform="translate(326.48 269.716562) scale(0.1 -0.1)">
      <defs>
       <path id="DejaVuSans-37" d="M 525 4666 
L 3525 4666 
L 3525 4397 
L 1831 0 
L 1172 0 
L 2766 4134 
L 525 4134 
L 525 4666 
z
" transform="scale(0.015625)"/>
      </defs>
      <use xlink:href="#DejaVuSans-31"/>
      <use xlink:href="#DejaVuSans-65" x="63.623047"/>
      <use xlink:href="#DejaVuSans-37" x="125.146484"/>
     </g>
    </g>
   </g>
   <g id="matplotlib.axis_2">
    <g id="ytick_1">
     <g id="line2d_8">
      <defs>
       <path id="m2b1d464356" d="M 0 0 
L -3.5 0 
" style="stroke: #000000; stroke-width: 0.8"/>
      </defs>
      <g>
       <use xlink:href="#m2b1d464356" x="53.328125" y="238.194223" style="stroke: #000000; stroke-width: 0.8"/>
      </g>
     </g>
     <g id="text_10">
      <!-- 0 -->
      <g transform="translate(39.965625 241.993442) scale(0.1 -0.1)">
       <use xlink:href="#DejaVuSans-30"/>
      </g>
     </g>
    </g>
    <g id="ytick_2">
     <g id="line2d_9">
      <g>
       <use xlink:href="#m2b1d464356" x="53.328125" y="189.239959" style="stroke: #000000; stroke-width: 0.8"/>
      </g>
     </g>
     <g id="text_11">
      <!-- 500 -->
      <g transform="translate(27.240625 193.039178) scale(0.1 -0.1)">
       <use xlink:href="#DejaVuSans-35"/>
       <use xlink:href="#DejaVuSans-30" x="63.623047"/>
       <use xlink:href="#DejaVuSans-30" x="127.246094"/>
      </g>
     </g>
    </g>
    <g id="ytick_3">
     <g id="line2d_10">
      <g>
       <use xlink:href="#m2b1d464356" x="53.328125" y="140.285696" style="stroke: #000000; stroke-width: 0.8"/>
      </g>
     </g>
     <g id="text_12">
      <!-- 1000 -->
      <g transform="translate(20.878125 144.084915) scale(0.1 -0.1)">
       <use xlink:href="#DejaVuSans-31"/>
       <use xlink:href="#DejaVuSans-30" x="63.623047"/>
       <use xlink:href="#DejaVuSans-30" x="127.246094"/>
       <use xlink:href="#DejaVuSans-30" x="190.869141"/>
      </g>
     </g>
    </g>
    <g id="ytick_4">
     <g id="line2d_11">
      <g>
       <use xlink:href="#m2b1d464356" x="53.328125" y="91.331433" style="stroke: #000000; stroke-width: 0.8"/>
      </g>
     </g>
     <g id="text_13">
      <!-- 1500 -->
      <g transform="translate(20.878125 95.130652) scale(0.1 -0.1)">
       <use xlink:href="#DejaVuSans-31"/>
       <use xlink:href="#DejaVuSans-35" x="63.623047"/>
       <use xlink:href="#DejaVuSans-30" x="127.246094"/>
       <use xlink:href="#DejaVuSans-30" x="190.869141"/>
      </g>
     </g>
    </g>
    <g id="ytick_5">
     <g id="line2d_12">
      <g>
       <use xlink:href="#m2b1d464356" x="53.328125" y="42.377169" style="stroke: #000000; stroke-width: 0.8"/>
      </g>
     </g>
     <g id="text_14">
      <!-- 2000 -->
      <g transform="translate(20.878125 46.176388) scale(0.1 -0.1)">
       <use xlink:href="#DejaVuSans-32"/>
       <use xlink:href="#DejaVuSans-30" x="63.623047"/>
       <use xlink:href="#DejaVuSans-30" x="127.246094"/>
       <use xlink:href="#DejaVuSans-30" x="190.869141"/>
      </g>
     </g>
    </g>
    <g id="text_15">
     <!-- TEP concentration (µg XG eq. L-1) -->
     <g transform="translate(14.798438 209.702031) rotate(-90) scale(0.1 -0.1)">
      <defs>
       <path id="DejaVuSans-45" d="M 628 4666 
L 3578 4666 
L 3578 4134 
L 1259 4134 
L 1259 2753 
L 3481 2753 
L 3481 2222 
L 1259 2222 
L 1259 531 
L 3634 531 
L 3634 0 
L 628 0 
L 628 4666 
z
" transform="scale(0.015625)"/>
       <path id="DejaVuSans-b5" d="M 544 -1331 
L 544 3500 
L 1119 3500 
L 1119 1325 
Q 1119 872 1334 640 
Q 1550 409 1972 409 
Q 2434 409 2667 671 
Q 2900 934 2900 1459 
L 2900 3500 
L 3475 3500 
L 3475 806 
Q 3475 619 3529 530 
Q 3584 441 3700 441 
Q 3728 441 3778 458 
Q 3828 475 3916 513 
L 3916 50 
Q 3788 -22 3673 -56 
Q 3559 -91 3450 -91 
Q 3234 -91 3106 31 
Q 2978 153 2931 403 
Q 2775 156 2548 32 
Q 2322 -91 2016 -91 
Q 1697 -91 1473 31 
Q 1250 153 1119 397 
L 1119 -1331 
L 544 -1331 
z
" transform="scale(0.015625)"/>
       <path id="DejaVuSans-58" d="M 403 4666 
L 1081 4666 
L 2241 2931 
L 3406 4666 
L 4084 4666 
L 2584 2425 
L 4184 0 
L 3506 0 
L 2194 1984 
L 872 0 
L 191 0 
L 1856 2491 
L 403 4666 
z
" transform="scale(0.015625)"/>
       <path id="DejaVuSans-47" d="M 3809 666 
L 3809 1919 
L 2778 1919 
L 2778 2438 
L 4434 2438 
L 4434 434 
Q 4069 175 3628 42 
Q 3188 -91 2688 -91 
Q 1594 -91 976 548 
Q 359 1188 359 2328 
Q 359 3472 976 4111 
Q 1594 4750 2688 4750 
Q 3144 4750 3555 4637 
Q 3966 4525 4313 4306 
L 4313 3634 
Q 3963 3931 3569 4081 
Q 3175 4231 2741 4231 
Q 1884 4231 1454 3753 
Q 1025 3275 1025 2328 
Q 1025 1384 1454 906 
Q 1884 428 2741 428 
Q 3075 428 3337 486 
Q 3600 544 3809 666 
z
" transform="scale(0.015625)"/>
       <path id="DejaVuSans-71" d="M 947 1747 
Q 947 1113 1208 752 
Q 1469 391 1925 391 
Q 2381 391 2643 752 
Q 2906 1113 2906 1747 
Q 2906 2381 2643 2742 
Q 2381 3103 1925 3103 
Q 1469 3103 1208 2742 
Q 947 2381 947 1747 
z
M 2906 525 
Q 2725 213 2448 61 
Q 2172 -91 1784 -91 
Q 1150 -91 751 415 
Q 353 922 353 1747 
Q 353 2572 751 3078 
Q 1150 3584 1784 3584 
Q 2172 3584 2448 3432 
Q 2725 3281 2906 2969 
L 2906 3500 
L 3481 3500 
L 3481 -1331 
L 2906 -1331 
L 2906 525 
z
" transform="scale(0.015625)"/>
       <path id="DejaVuSans-2e" d="M 684 794 
L 1344 794 
L 1344 0 
L 684 0 
L 684 794 
z
" transform="scale(0.015625)"/>
       <path id="DejaVuSans-2d" d="M 313 2009 
L 1997 2009 
L 1997 1497 
L 313 1497 
L 313 2009 
z
" transform="scale(0.015625)"/>
      </defs>
      <use xlink:href="#DejaVuSans-54"/>
      <use xlink:href="#DejaVuSans-45" x="61.083984"/>
      <use xlink:href="#DejaVuSans-50" x="124.267578"/>
      <use xlink:href="#DejaVuSans-20" x="184.570312"/>
      <use xlink:href="#DejaVuSans-63" x="216.357422"/>
      <use xlink:href="#DejaVuSans-6f" x="271.337891"/>
      <use xlink:href="#DejaVuSans-6e" x="332.519531"/>
      <use xlink:href="#DejaVuSans-63" x="395.898438"/>
      <use xlink:href="#DejaVuSans-65" x="450.878906"/>
      <use xlink:href="#DejaVuSans-6e" x="512.402344"/>
      <use xlink:href="#DejaVuSans-74" x="575.78125"/>
      <use xlink:href="#DejaVuSans-72" x="614.990234"/>
      <use xlink:href="#DejaVuSans-61" x="656.103516"/>
      <use xlink:href="#DejaVuSans-74" x="717.382812"/>
      <use xlink:href="#DejaVuSans-69" x="756.591797"/>
      <use xlink:href="#DejaVuSans-6f" x="784.375"/>
      <use xlink:href="#DejaVuSans-6e" x="845.556641"/>
      <use xlink:href="#DejaVuSans-20" x="908.935547"/>
      <use xlink:href="#DejaVuSans-28" x="940.722656"/>
      <use xlink:href="#DejaVuSans-b5" x="979.736328"/>
      <use xlink:href="#DejaVuSans-67" x="1043.359375"/>
      <use xlink:href="#DejaVuSans-20" x="1106.835938"/>
      <use xlink:href="#DejaVuSans-58" x="1138.623047"/>
      <use xlink:href="#DejaVuSans-47" x="1207.128906"/>
      <use xlink:href="#DejaVuSans-20" x="1284.619141"/>
      <use xlink:href="#DejaVuSans-65" x="1316.40625"/>
      <use xlink:href="#DejaVuSans-71" x="1377.929688"/>
      <use xlink:href="#DejaVuSans-2e" x="1441.40625"/>
      <use xlink:href="#DejaVuSans-20" x="1473.193359"/>
      <use xlink:href="#DejaVuSans-4c" x="1504.980469"/>
      <use xlink:href="#DejaVuSans-2d" x="1558.943359"/>
      <use xlink:href="#DejaVuSans-31" x="1595.027344"/>
      <use xlink:href="#DejaVuSans-29" x="1658.650391"/>
     </g>
    </g>
   </g>
   <g id="line2d_13">
    <path d="M 66.602216 191.270688 
L 69.28385 190.147889 
L 71.965485 189.025089 
L 74.647119 187.90229 
L 77.328754 186.77949 
L 80.010389 185.65669 
L 82.692023 184.533891 
L 85.373658 183.411091 
L 88.055292 182.288292 
L 90.736927 181.165492 
L 93.418561 180.042693 
L 96.100196 178.919893 
L 98.78183 177.797094 
L 101.463465 176.674294 
L 104.145099 175.551494 
L 106.826734 174.428695 
L 109.508368 173.305895 
L 112.190003 172.183096 
L 114.871637 171.060296 
L 117.553272 169.937497 
L 120.234906 168.814697 
L 122.916541 167.691897 
L 125.598176 166.569098 
L 128.27981 165.446298 
L 130.961445 164.323499 
L 133.643079 163.200699 
L 136.324714 162.0779 
L 139.006348 160.9551 
L 141.687983 159.8323 
L 144.369617 158.709501 
L 147.051252 157.586701 
L 149.732886 156.463902 
L 152.414521 155.341102 
L 155.096155 154.218303 
L 157.77779 153.095503 
L 160.459424 151.972703 
L 163.141059 150.849904 
L 165.822693 149.727104 
L 168.504328 148.604305 
L 171.185962 147.481505 
L 173.867597 146.358706 
L 176.549232 145.235906 
L 179.230866 144.113106 
L 181.912501 142.990307 
L 184.594135 141.867507 
L 187.27577 140.744708 
L 189.957404 139.621908 
L 192.639039 138.499109 
L 195.320673 137.376309 
L 198.002308 136.253509 
L 200.683942 135.13071 
L 203.365577 134.00791 
L 206.047211 132.885111 
L 208.728846 131.762311 
L 211.41048 130.639512 
L 214.092115 129.516712 
L 216.773749 128.393912 
L 219.455384 127.271113 
L 222.137018 126.148313 
L 224.818653 125.025514 
L 227.500288 123.902714 
L 230.181922 122.779915 
L 232.863557 121.657115 
L 235.545191 120.534315 
L 238.226826 119.411516 
L 240.90846 118.288716 
L 243.590095 117.165917 
L 246.271729 116.043117 
L 248.953364 114.920318 
L 251.634998 113.797518 
L 254.316633 112.674718 
L 256.998267 111.551919 
L 259.679902 110.429119 
L 262.361536 109.30632 
L 265.043171 108.18352 
L 267.724805 107.060721 
L 270.40644 105.937921 
L 273.088074 104.815121 
L 275.769709 103.692322 
L 278.451344 102.569522 
L 281.132978 101.446723 
L 283.814613 100.323923 
L 286.496247 99.201124 
L 289.177882 98.078324 
L 291.859516 96.955524 
L 294.541151 95.832725 
L 297.222785 94.709925 
L 299.90442 93.587126 
L 302.586054 92.464326 
L 305.267689 91.341527 
L 307.949323 90.218727 
L 310.630958 89.095928 
L 313.312592 87.973128 
L 315.994227 86.850328 
L 318.675861 85.727529 
L 321.357496 84.604729 
L 324.039131 83.48193 
L 326.720765 82.35913 
L 329.4024 81.236331 
L 332.084034 80.113531 
" clip-path="url(#p51c1f6e4ac)" style="fill: none; stroke: #808080; stroke-width: 2.25; stroke-linecap: square"/>
   </g>
   <g id="line2d_14"/>
   <g id="line2d_15"/>
   <g id="patch_3">
    <path d="M 53.328125 242.44 
L 53.328125 7.2 
" style="fill: none; stroke: #000000; stroke-width: 0.8; stroke-linejoin: miter; stroke-linecap: square"/>
   </g>
   <g id="patch_4">
    <path d="M 345.358125 242.44 
L 345.358125 7.2 
" style="fill: none; stroke: #000000; stroke-width: 0.8; stroke-linejoin: miter; stroke-linecap: square"/>
   </g>
   <g id="patch_5">
    <path d="M 53.328125 242.44 
L 345.358125 242.44 
" style="fill: none; stroke: #000000; stroke-width: 0.8; stroke-linejoin: miter; stroke-linecap: square"/>
   </g>
   <g id="patch_6">
    <path d="M 53.328125 7.2 
L 345.358125 7.2 
" style="fill: none; stroke: #000000; stroke-width: 0.8; stroke-linejoin: miter; stroke-linecap: square"/>
   </g>
   <g id="legend_1">
    <g id="patch_7">
     <path d="M 287.270625 237.44 
L 338.358125 237.44 
Q 340.358125 237.44 340.358125 235.44 
L 340.358125 192.405625 
Q 340.358125 190.405625 338.358125 190.405625 
L 287.270625 190.405625 
Q 285.270625 190.405625 285.270625 192.405625 
L 285.270625 235.44 
Q 285.270625 237.44 287.270625 237.44 
z
" style="fill: #ffffff; opacity: 0.8; stroke: #cccccc; stroke-linejoin: miter"/>
    </g>
    <g id="text_16">
     <!-- Station -->
     <g transform="translate(295.038594 202.004062) scale(0.1 -0.1)">
      <defs>
       <path id="DejaVuSans-53" d="M 3425 4513 
L 3425 3897 
Q 3066 4069 2747 4153 
Q 2428 4238 2131 4238 
Q 1616 4238 1336 4038 
Q 1056 3838 1056 3469 
Q 1056 3159 1242 3001 
Q 1428 2844 1947 2747 
L 2328 2669 
Q 3034 2534 3370 2195 
Q 3706 1856 3706 1288 
Q 3706 609 3251 259 
Q 2797 -91 1919 -91 
Q 1588 -91 1214 -16 
Q 841 59 441 206 
L 441 856 
Q 825 641 1194 531 
Q 1563 422 1919 422 
Q 2459 422 2753 634 
Q 3047 847 3047 1241 
Q 3047 1584 2836 1778 
Q 2625 1972 2144 2069 
L 1759 2144 
Q 1053 2284 737 2584 
Q 422 2884 422 3419 
Q 422 4038 858 4394 
Q 1294 4750 2059 4750 
Q 2388 4750 2728 4690 
Q 3069 4631 3425 4513 
z
" transform="scale(0.015625)"/>
      </defs>
      <use xlink:href="#DejaVuSans-53"/>
      <use xlink:href="#DejaVuSans-74" x="63.476562"/>
      <use xlink:href="#DejaVuSans-61" x="102.685547"/>
      <use xlink:href="#DejaVuSans-74" x="163.964844"/>
      <use xlink:href="#DejaVuSans-69" x="203.173828"/>
      <use xlink:href="#DejaVuSans-6f" x="230.957031"/>
      <use xlink:href="#DejaVuSans-6e" x="292.138672"/>
     </g>
    </g>
    <g id="line2d_16">
     <defs>
      <path id="m5297edfdd4" d="M 0 4.472136 
C 1.186024 4.472136 2.323632 4.000923 3.162278 3.162278 
C 4.000923 2.323632 4.472136 1.186024 4.472136 0 
C 4.472136 -1.186024 4.000923 -2.323632 3.162278 -3.162278 
C 2.323632 -4.000923 1.186024 -4.472136 0 -4.472136 
C -1.186024 -4.472136 -2.323632 -4.000923 -3.162278 -3.162278 
C -4.000923 -2.323632 -4.472136 -1.186024 -4.472136 0 
C -4.472136 1.186024 -4.000923 2.323632 -3.162278 3.162278 
C -2.323632 4.000923 -1.186024 4.472136 0 4.472136 
z
" style="stroke: #000000; stroke-width: 0.715542"/>
     </defs>
     <g>
      <use xlink:href="#m5297edfdd4" x="299.270625" y="213.182187" style="fill: #e41a1c; stroke: #000000; stroke-width: 0.715542"/>
     </g>
    </g>
    <g id="text_17">
     <!-- 51 -->
     <g transform="translate(317.270625 216.682187) scale(0.1 -0.1)">
      <use xlink:href="#DejaVuSans-35"/>
      <use xlink:href="#DejaVuSans-31" x="63.623047"/>
     </g>
    </g>
    <g id="line2d_17">
     <defs>
      <path id="m29345fdc0b" d="M 0 4.472136 
C 1.186024 4.472136 2.323632 4.000923 3.162278 3.162278 
C 4.000923 2.323632 4.472136 1.186024 4.472136 0 
C 4.472136 -1.186024 4.000923 -2.323632 3.162278 -3.162278 
C 2.323632 -4.000923 1.186024 -4.472136 0 -4.472136 
C -1.186024 -4.472136 -2.323632 -4.000923 -3.162278 -3.162278 
C -4.000923 -2.323632 -4.472136 -1.186024 -4.472136 0 
C -4.472136 1.186024 -4.000923 2.323632 -3.162278 3.162278 
C -2.323632 4.000923 -1.186024 4.472136 0 4.472136 
z
" style="stroke: #000000; stroke-width: 0.715542"/>
     </defs>
     <g>
      <use xlink:href="#m29345fdc0b" x="299.270625" y="227.860312" style="fill: #377eb8; stroke: #000000; stroke-width: 0.715542"/>
     </g>
    </g>
    <g id="text_18">
     <!-- 130 -->
     <g transform="translate(317.270625 231.360312) scale(0.1 -0.1)">
      <use xlink:href="#DejaVuSans-31"/>
      <use xlink:href="#DejaVuSans-33" x="63.623047"/>
      <use xlink:href="#DejaVuSans-30" x="127.246094"/>
     </g>
    </g>
   </g>
  </g>
 </g>
 <defs>
  <clipPath id="p51c1f6e4ac">
   <rect x="53.328125" y="7.2" width="292.03" height="235.24"/>
  </clipPath>
 </defs>
</svg>
