<?xml version="1.0" encoding="utf-8" standalone="no"?>
<!DOCTYPE svg PUBLIC "-//W3C//DTD SVG 1.1//EN"
  "http://www.w3.org/Graphics/SVG/1.1/DTD/svg11.dtd">
<svg xmlns:xlink="http://www.w3.org/1999/xlink" width="280.391667pt" height="279.99625pt" viewBox="0 0 280.391667 279.99625" xmlns="http://www.w3.org/2000/svg" version="1.1">
 <metadata>
  <rdf:RDF xmlns:dc="http://purl.org/dc/elements/1.1/" xmlns:cc="http://creativecommons.org/ns#" xmlns:rdf="http://www.w3.org/1999/02/22-rdf-syntax-ns#">
   <cc:Work>
    <dc:type rdf:resource="http://purl.org/dc/dcmitype/StillImage"/>
    <dc:date>2025-03-14T22:05:50.514579</dc:date>
    <dc:format>image/svg+xml</dc:format>
    <dc:creator>
     <cc:Agent>
      <dc:title>Matplotlib v3.8.3, https://matplotlib.org/</dc:title>
     </cc:Agent>
    </dc:creator>
   </cc:Work>
  </rdf:RDF>
 </metadata>
 <defs>
  <style type="text/css">*{stroke-linejoin: round; stroke-linecap: butt}</style>
 </defs>
 <g id="figure_1">
  <g id="patch_1">
   <path d="M 0 279.99625 
L 280.391667 279.99625 
L 280.391667 0 
L 0 0 
z
" style="fill: #ffffff"/>
  </g>
  <g id="axes_1">
   <g id="patch_2">
    <path d="M 50.14375 242.44 
L 268.091325 242.44 
L 268.091325 7.2 
L 50.14375 7.2 
z
" style="fill: #ffffff"/>
   </g>
   <g id="PathCollection_1">
    <defs>
     <path id="mc1a72b3571" d="M 0 3.872983 
C 1.027127 3.872983 2.012324 3.464901 2.738613 2.738613 
C 3.464901 2.012324 3.872983 1.027127 3.872983 0 
C 3.872983 -1.027127 3.464901 -2.012324 2.738613 -2.738613 
C 2.012324 -3.464901 1.027127 -3.872983 0 -3.872983 
C -1.027127 -3.872983 -2.012324 -3.464901 -2.738613 -2.738613 
C -3.464901 -2.012324 -3.872983 -1.027127 -3.872983 0 
C -3.872983 1.027127 -3.464901 2.012324 -2.738613 2.738613 
C -2.012324 3.464901 -1.027127 3.872983 0 3.872983 
z
" style="stroke: #000000; stroke-opacity: 0.7"/>
    </defs>
    <g clip-path="url(#p9fd6a09f6c)">
     <use xlink:href="#mc1a72b3571" x="155.804374" y="123.22969" style="fill: #0173b2; fill-opacity: 0.7; stroke: #000000; stroke-opacity: 0.7"/>
     <use xlink:href="#mc1a72b3571" x="223.014267" y="122.700985" style="fill: #0173b2; fill-opacity: 0.7; stroke: #000000; stroke-opacity: 0.7"/>
     <use xlink:href="#mc1a72b3571" x="135.429544" y="121.106479" style="fill: #0173b2; fill-opacity: 0.7; stroke: #000000; stroke-opacity: 0.7"/>
     <use xlink:href="#mc1a72b3571" x="168.110411" y="120.351187" style="fill: #0173b2; fill-opacity: 0.7; stroke: #000000; stroke-opacity: 0.7"/>
     <use xlink:href="#mc1a72b3571" x="174.105659" y="115.693551" style="fill: #0173b2; fill-opacity: 0.7; stroke: #000000; stroke-opacity: 0.7"/>
     <use xlink:href="#mc1a72b3571" x="203.991749" y="115.517316" style="fill: #0173b2; fill-opacity: 0.7; stroke: #000000; stroke-opacity: 0.7"/>
     <use xlink:href="#mc1a72b3571" x="188.981088" y="114.812376" style="fill: #0173b2; fill-opacity: 0.7; stroke: #000000; stroke-opacity: 0.7"/>
     <use xlink:href="#mc1a72b3571" x="189.792475" y="114.703279" style="fill: #0173b2; fill-opacity: 0.7; stroke: #000000; stroke-opacity: 0.7"/>
     <use xlink:href="#mc1a72b3571" x="139.125862" y="114.367593" style="fill: #0173b2; fill-opacity: 0.7; stroke: #000000; stroke-opacity: 0.7"/>
     <use xlink:href="#mc1a72b3571" x="171.626421" y="111.925481" style="fill: #0173b2; fill-opacity: 0.7; stroke: #000000; stroke-opacity: 0.7"/>
     <use xlink:href="#mc1a72b3571" x="164.233784" y="110.876464" style="fill: #0173b2; fill-opacity: 0.7; stroke: #000000; stroke-opacity: 0.7"/>
     <use xlink:href="#mc1a72b3571" x="190.784171" y="109.491761" style="fill: #0173b2; fill-opacity: 0.7; stroke: #000000; stroke-opacity: 0.7"/>
     <use xlink:href="#mc1a72b3571" x="171.220728" y="107.628707" style="fill: #0173b2; fill-opacity: 0.7; stroke: #000000; stroke-opacity: 0.7"/>
     <use xlink:href="#mc1a72b3571" x="169.823339" y="106.655219" style="fill: #0173b2; fill-opacity: 0.7; stroke: #000000; stroke-opacity: 0.7"/>
     <use xlink:href="#mc1a72b3571" x="166.12702" y="106.160083" style="fill: #0173b2; fill-opacity: 0.7; stroke: #000000; stroke-opacity: 0.7"/>
     <use xlink:href="#mc1a72b3571" x="178.613365" y="104.020088" style="fill: #0173b2; fill-opacity: 0.7; stroke: #000000; stroke-opacity: 0.7"/>
     <use xlink:href="#mc1a72b3571" x="159.726078" y="101.82974" style="fill: #0173b2; fill-opacity: 0.7; stroke: #000000; stroke-opacity: 0.7"/>
     <use xlink:href="#mc1a72b3571" x="166.036866" y="101.695466" style="fill: #0173b2; fill-opacity: 0.7; stroke: #000000; stroke-opacity: 0.7"/>
     <use xlink:href="#mc1a72b3571" x="132.995382" y="99.471549" style="fill: #0173b2; fill-opacity: 0.7; stroke: #000000; stroke-opacity: 0.7"/>
     <use xlink:href="#mc1a72b3571" x="118.570724" y="96.794458" style="fill: #0173b2; fill-opacity: 0.7; stroke: #000000; stroke-opacity: 0.7"/>
     <use xlink:href="#mc1a72b3571" x="157.832841" y="96.525909" style="fill: #0173b2; fill-opacity: 0.7; stroke: #000000; stroke-opacity: 0.7"/>
     <use xlink:href="#mc1a72b3571" x="105.949148" y="96.2154" style="fill: #0173b2; fill-opacity: 0.7; stroke: #000000; stroke-opacity: 0.7"/>
     <use xlink:href="#mc1a72b3571" x="139.756941" y="94.830697" style="fill: #0173b2; fill-opacity: 0.7; stroke: #000000; stroke-opacity: 0.7"/>
     <use xlink:href="#mc1a72b3571" x="125.963361" y="92.086469" style="fill: #0173b2; fill-opacity: 0.7; stroke: #000000; stroke-opacity: 0.7"/>
     <use xlink:href="#mc1a72b3571" x="116.18164" y="91.121373" style="fill: #0173b2; fill-opacity: 0.7; stroke: #000000; stroke-opacity: 0.7"/>
    </g>
   </g>
   <g id="PathCollection_2">
    <defs>
     <path id="mcc9a033f78" d="M -3.872983 3.872983 
L 3.872983 3.872983 
L 3.872983 -3.872983 
L -3.872983 -3.872983 
z
" style="stroke: #000000; stroke-opacity: 0.7"/>
    </defs>
    <g clip-path="url(#p9fd6a09f6c)">
     <use xlink:href="#mcc9a033f78" x="115.956255" y="158.518627" style="fill: #de8f05; fill-opacity: 0.7; stroke: #000000; stroke-opacity: 0.7"/>
     <use xlink:href="#mcc9a033f78" x="104.957452" y="158.409529" style="fill: #de8f05; fill-opacity: 0.7; stroke: #000000; stroke-opacity: 0.7"/>
     <use xlink:href="#mcc9a033f78" x="120.509037" y="157.931178" style="fill: #de8f05; fill-opacity: 0.7; stroke: #000000; stroke-opacity: 0.7"/>
     <use xlink:href="#mcc9a033f78" x="109.420081" y="157.906001" style="fill: #de8f05; fill-opacity: 0.7; stroke: #000000; stroke-opacity: 0.7"/>
     <use xlink:href="#mcc9a033f78" x="99.63836" y="157.452826" style="fill: #de8f05; fill-opacity: 0.7; stroke: #000000; stroke-opacity: 0.7"/>
     <use xlink:href="#mcc9a033f78" x="125.287206" y="157.360512" style="fill: #de8f05; fill-opacity: 0.7; stroke: #000000; stroke-opacity: 0.7"/>
     <use xlink:href="#mcc9a033f78" x="113.431939" y="157.35212" style="fill: #de8f05; fill-opacity: 0.7; stroke: #000000; stroke-opacity: 0.7"/>
     <use xlink:href="#mcc9a033f78" x="99.908822" y="155.111419" style="fill: #de8f05; fill-opacity: 0.7; stroke: #000000; stroke-opacity: 0.7"/>
     <use xlink:href="#mcc9a033f78" x="95.220808" y="155.077851" style="fill: #de8f05; fill-opacity: 0.7; stroke: #000000; stroke-opacity: 0.7"/>
     <use xlink:href="#mcc9a033f78" x="109.104542" y="154.985537" style="fill: #de8f05; fill-opacity: 0.7; stroke: #000000; stroke-opacity: 0.7"/>
     <use xlink:href="#mcc9a033f78" x="104.957452" y="154.87644" style="fill: #de8f05; fill-opacity: 0.7; stroke: #000000; stroke-opacity: 0.7"/>
     <use xlink:href="#mcc9a033f78" x="112.169782" y="154.809303" style="fill: #de8f05; fill-opacity: 0.7; stroke: #000000; stroke-opacity: 0.7"/>
     <use xlink:href="#mcc9a033f78" x="100.810363" y="154.339343" style="fill: #de8f05; fill-opacity: 0.7; stroke: #000000; stroke-opacity: 0.7"/>
     <use xlink:href="#mcc9a033f78" x="106.805612" y="154.305774" style="fill: #de8f05; fill-opacity: 0.7; stroke: #000000; stroke-opacity: 0.7"/>
     <use xlink:href="#mcc9a033f78" x="101.802058" y="153.281934" style="fill: #de8f05; fill-opacity: 0.7; stroke: #000000; stroke-opacity: 0.7"/>
     <use xlink:href="#mcc9a033f78" x="108.473463" y="153.046954" style="fill: #de8f05; fill-opacity: 0.7; stroke: #000000; stroke-opacity: 0.7"/>
     <use xlink:href="#mcc9a033f78" x="105.002529" y="152.400759" style="fill: #de8f05; fill-opacity: 0.7; stroke: #000000; stroke-opacity: 0.7"/>
     <use xlink:href="#mcc9a033f78" x="115.235022" y="150.294333" style="fill: #de8f05; fill-opacity: 0.7; stroke: #000000; stroke-opacity: 0.7"/>
     <use xlink:href="#mcc9a033f78" x="114.108095" y="148.422886" style="fill: #de8f05; fill-opacity: 0.7; stroke: #000000; stroke-opacity: 0.7"/>
     <use xlink:href="#mcc9a033f78" x="135.068927" y="146.24093" style="fill: #de8f05; fill-opacity: 0.7; stroke: #000000; stroke-opacity: 0.7"/>
     <use xlink:href="#mcc9a033f78" x="112.936092" y="145.485638" style="fill: #de8f05; fill-opacity: 0.7; stroke: #000000; stroke-opacity: 0.7"/>
    </g>
   </g>
   <g id="matplotlib.axis_1">
    <g id="xtick_1">
     <g id="line2d_1">
      <defs>
       <path id="m1d1bd35805" d="M 0 0 
L 0 3.5 
" style="stroke: #000000; stroke-width: 0.8"/>
      </defs>
      <g>
       <use xlink:href="#m1d1bd35805" x="266.829167" y="242.44" style="stroke: #000000; stroke-width: 0.8"/>
      </g>
     </g>
     <g id="text_1">
      <!-- 29 -->
      <g transform="translate(260.466667 257.038437) scale(0.1 -0.1)">
       <defs>
        <path id="DejaVuSans-32" d="M 1228 531 
L 3431 531 
L 3431 0 
L 469 0 
L 469 531 
Q 828 903 1448 1529 
Q 2069 2156 2228 2338 
Q 2531 2678 2651 2914 
Q 2772 3150 2772 3378 
Q 2772 3750 2511 3984 
Q 2250 4219 1831 4219 
Q 1534 4219 1204 4116 
Q 875 4013 500 3803 
L 500 4441 
Q 881 4594 1212 4672 
Q 1544 4750 1819 4750 
Q 2544 4750 2975 4387 
Q 3406 4025 3406 3419 
Q 3406 3131 3298 2873 
Q 3191 2616 2906 2266 
Q 2828 2175 2409 1742 
Q 1991 1309 1228 531 
z
" transform="scale(0.015625)"/>
        <path id="DejaVuSans-39" d="M 703 97 
L 703 672 
Q 941 559 1184 500 
Q 1428 441 1663 441 
Q 2288 441 2617 861 
Q 2947 1281 2994 2138 
Q 2813 1869 2534 1725 
Q 2256 1581 1919 1581 
Q 1219 1581 811 2004 
Q 403 2428 403 3163 
Q 403 3881 828 4315 
Q 1253 4750 1959 4750 
Q 2769 4750 3195 4129 
Q 3622 3509 3622 2328 
Q 3622 1225 3098 567 
Q 2575 -91 1691 -91 
Q 1453 -91 1209 -44 
Q 966 3 703 97 
z
M 1959 2075 
Q 2384 2075 2632 2365 
Q 2881 2656 2881 3163 
Q 2881 3666 2632 3958 
Q 2384 4250 1959 4250 
Q 1534 4250 1286 3958 
Q 1038 3666 1038 3163 
Q 1038 2656 1286 2365 
Q 1534 2075 1959 2075 
z
" transform="scale(0.015625)"/>
       </defs>
       <use xlink:href="#DejaVuSans-32"/>
       <use xlink:href="#DejaVuSans-39" x="63.623047"/>
      </g>
     </g>
    </g>
    <g id="xtick_2">
     <g id="line2d_2">
      <g>
       <use xlink:href="#m1d1bd35805" x="221.752109" y="242.44" style="stroke: #000000; stroke-width: 0.8"/>
      </g>
     </g>
     <g id="text_2">
      <!-- 30 -->
      <g transform="translate(215.389609 257.038437) scale(0.1 -0.1)">
       <defs>
        <path id="DejaVuSans-33" d="M 2597 2516 
Q 3050 2419 3304 2112 
Q 3559 1806 3559 1356 
Q 3559 666 3084 287 
Q 2609 -91 1734 -91 
Q 1441 -91 1130 -33 
Q 819 25 488 141 
L 488 750 
Q 750 597 1062 519 
Q 1375 441 1716 441 
Q 2309 441 2620 675 
Q 2931 909 2931 1356 
Q 2931 1769 2642 2001 
Q 2353 2234 1838 2234 
L 1294 2234 
L 1294 2753 
L 1863 2753 
Q 2328 2753 2575 2939 
Q 2822 3125 2822 3475 
Q 2822 3834 2567 4026 
Q 2313 4219 1838 4219 
Q 1578 4219 1281 4162 
Q 984 4106 628 3988 
L 628 4550 
Q 988 4650 1302 4700 
Q 1616 4750 1894 4750 
Q 2613 4750 3031 4423 
Q 3450 4097 3450 3541 
Q 3450 3153 3228 2886 
Q 3006 2619 2597 2516 
z
" transform="scale(0.015625)"/>
        <path id="DejaVuSans-30" d="M 2034 4250 
Q 1547 4250 1301 3770 
Q 1056 3291 1056 2328 
Q 1056 1369 1301 889 
Q 1547 409 2034 409 
Q 2525 409 2770 889 
Q 3016 1369 3016 2328 
Q 3016 3291 2770 3770 
Q 2525 4250 2034 4250 
z
M 2034 4750 
Q 2819 4750 3233 4129 
Q 3647 3509 3647 2328 
Q 3647 1150 3233 529 
Q 2819 -91 2034 -91 
Q 1250 -91 836 529 
Q 422 1150 422 2328 
Q 422 3509 836 4129 
Q 1250 4750 2034 4750 
z
" transform="scale(0.015625)"/>
       </defs>
       <use xlink:href="#DejaVuSans-33"/>
       <use xlink:href="#DejaVuSans-30" x="63.623047"/>
      </g>
     </g>
    </g>
    <g id="xtick_3">
     <g id="line2d_3">
      <g>
       <use xlink:href="#m1d1bd35805" x="176.675052" y="242.44" style="stroke: #000000; stroke-width: 0.8"/>
      </g>
     </g>
     <g id="text_3">
      <!-- 31 -->
      <g transform="translate(170.312552 257.038437) scale(0.1 -0.1)">
       <defs>
        <path id="DejaVuSans-31" d="M 794 531 
L 1825 531 
L 1825 4091 
L 703 3866 
L 703 4441 
L 1819 4666 
L 2450 4666 
L 2450 531 
L 3481 531 
L 3481 0 
L 794 0 
L 794 531 
z
" transform="scale(0.015625)"/>
       </defs>
       <use xlink:href="#DejaVuSans-33"/>
       <use xlink:href="#DejaVuSans-31" x="63.623047"/>
      </g>
     </g>
    </g>
    <g id="xtick_4">
     <g id="line2d_4">
      <g>
       <use xlink:href="#m1d1bd35805" x="131.597994" y="242.44" style="stroke: #000000; stroke-width: 0.8"/>
      </g>
     </g>
     <g id="text_4">
      <!-- 32 -->
      <g transform="translate(125.235494 257.038437) scale(0.1 -0.1)">
       <use xlink:href="#DejaVuSans-33"/>
       <use xlink:href="#DejaVuSans-32" x="63.623047"/>
      </g>
     </g>
    </g>
    <g id="xtick_5">
     <g id="line2d_5">
      <g>
       <use xlink:href="#m1d1bd35805" x="86.520936" y="242.44" style="stroke: #000000; stroke-width: 0.8"/>
      </g>
     </g>
     <g id="text_5">
      <!-- 33 -->
      <g transform="translate(80.158436 257.038437) scale(0.1 -0.1)">
       <use xlink:href="#DejaVuSans-33"/>
       <use xlink:href="#DejaVuSans-33" x="63.623047"/>
      </g>
     </g>
    </g>
    <g id="text_6">
     <!-- Salinity (PSU) -->
     <g transform="translate(125.284725 270.716562) scale(0.1 -0.1)">
      <defs>
       <path id="DejaVuSans-53" d="M 3425 4513 
L 3425 3897 
Q 3066 4069 2747 4153 
Q 2428 4238 2131 4238 
Q 1616 4238 1336 4038 
Q 1056 3838 1056 3469 
Q 1056 3159 1242 3001 
Q 1428 2844 1947 2747 
L 2328 2669 
Q 3034 2534 3370 2195 
Q 3706 1856 3706 1288 
Q 3706 609 3251 259 
Q 2797 -91 1919 -91 
Q 1588 -91 1214 -16 
Q 841 59 441 206 
L 441 856 
Q 825 641 1194 531 
Q 1563 422 1919 422 
Q 2459 422 2753 634 
Q 3047 847 3047 1241 
Q 3047 1584 2836 1778 
Q 2625 1972 2144 2069 
L 1759 2144 
Q 1053 2284 737 2584 
Q 422 2884 422 3419 
Q 422 4038 858 4394 
Q 1294 4750 2059 4750 
Q 2388 4750 2728 4690 
Q 3069 4631 3425 4513 
z
" transform="scale(0.015625)"/>
       <path id="DejaVuSans-61" d="M 2194 1759 
Q 1497 1759 1228 1600 
Q 959 1441 959 1056 
Q 959 750 1161 570 
Q 1363 391 1709 391 
Q 2188 391 2477 730 
Q 2766 1069 2766 1631 
L 2766 1759 
L 2194 1759 
z
M 3341 1997 
L 3341 0 
L 2766 0 
L 2766 531 
Q 2569 213 2275 61 
Q 1981 -91 1556 -91 
Q 1019 -91 701 211 
Q 384 513 384 1019 
Q 384 1609 779 1909 
Q 1175 2209 1959 2209 
L 2766 2209 
L 2766 2266 
Q 2766 2663 2505 2880 
Q 2244 3097 1772 3097 
Q 1472 3097 1187 3025 
Q 903 2953 641 2809 
L 641 3341 
Q 956 3463 1253 3523 
Q 1550 3584 1831 3584 
Q 2591 3584 2966 3190 
Q 3341 2797 3341 1997 
z
" transform="scale(0.015625)"/>
       <path id="DejaVuSans-6c" d="M 603 4863 
L 1178 4863 
L 1178 0 
L 603 0 
L 603 4863 
z
" transform="scale(0.015625)"/>
       <path id="DejaVuSans-69" d="M 603 3500 
L 1178 3500 
L 1178 0 
L 603 0 
L 603 3500 
z
M 603 4863 
L 1178 4863 
L 1178 4134 
L 603 4134 
L 603 4863 
z
" transform="scale(0.015625)"/>
       <path id="DejaVuSans-6e" d="M 3513 2113 
L 3513 0 
L 2938 0 
L 2938 2094 
Q 2938 2591 2744 2837 
Q 2550 3084 2163 3084 
Q 1697 3084 1428 2787 
Q 1159 2491 1159 1978 
L 1159 0 
L 581 0 
L 581 3500 
L 1159 3500 
L 1159 2956 
Q 1366 3272 1645 3428 
Q 1925 3584 2291 3584 
Q 2894 3584 3203 3211 
Q 3513 2838 3513 2113 
z
" transform="scale(0.015625)"/>
       <path id="DejaVuSans-74" d="M 1172 4494 
L 1172 3500 
L 2356 3500 
L 2356 3053 
L 1172 3053 
L 1172 1153 
Q 1172 725 1289 603 
Q 1406 481 1766 481 
L 2356 481 
L 2356 0 
L 1766 0 
Q 1100 0 847 248 
Q 594 497 594 1153 
L 594 3053 
L 172 3053 
L 172 3500 
L 594 3500 
L 594 4494 
L 1172 4494 
z
" transform="scale(0.015625)"/>
       <path id="DejaVuSans-79" d="M 2059 -325 
Q 1816 -950 1584 -1140 
Q 1353 -1331 966 -1331 
L 506 -1331 
L 506 -850 
L 844 -850 
Q 1081 -850 1212 -737 
Q 1344 -625 1503 -206 
L 1606 56 
L 191 3500 
L 800 3500 
L 1894 763 
L 2988 3500 
L 3597 3500 
L 2059 -325 
z
" transform="scale(0.015625)"/>
       <path id="DejaVuSans-20" transform="scale(0.015625)"/>
       <path id="DejaVuSans-28" d="M 1984 4856 
Q 1566 4138 1362 3434 
Q 1159 2731 1159 2009 
Q 1159 1288 1364 580 
Q 1569 -128 1984 -844 
L 1484 -844 
Q 1016 -109 783 600 
Q 550 1309 550 2009 
Q 550 2706 781 3412 
Q 1013 4119 1484 4856 
L 1984 4856 
z
" transform="scale(0.015625)"/>
       <path id="DejaVuSans-50" d="M 1259 4147 
L 1259 2394 
L 2053 2394 
Q 2494 2394 2734 2622 
Q 2975 2850 2975 3272 
Q 2975 3691 2734 3919 
Q 2494 4147 2053 4147 
L 1259 4147 
z
M 628 4666 
L 2053 4666 
Q 2838 4666 3239 4311 
Q 3641 3956 3641 3272 
Q 3641 2581 3239 2228 
Q 2838 1875 2053 1875 
L 1259 1875 
L 1259 0 
L 628 0 
L 628 4666 
z
" transform="scale(0.015625)"/>
       <path id="DejaVuSans-55" d="M 556 4666 
L 1191 4666 
L 1191 1831 
Q 1191 1081 1462 751 
Q 1734 422 2344 422 
Q 2950 422 3222 751 
Q 3494 1081 3494 1831 
L 3494 4666 
L 4128 4666 
L 4128 1753 
Q 4128 841 3676 375 
Q 3225 -91 2344 -91 
Q 1459 -91 1007 375 
Q 556 841 556 1753 
L 556 4666 
z
" transform="scale(0.015625)"/>
       <path id="DejaVuSans-29" d="M 513 4856 
L 1013 4856 
Q 1481 4119 1714 3412 
Q 1947 2706 1947 2009 
Q 1947 1309 1714 600 
Q 1481 -109 1013 -844 
L 513 -844 
Q 928 -128 1133 580 
Q 1338 1288 1338 2009 
Q 1338 2731 1133 3434 
Q 928 4138 513 4856 
z
" transform="scale(0.015625)"/>
      </defs>
      <use xlink:href="#DejaVuSans-53"/>
      <use xlink:href="#DejaVuSans-61" x="63.476562"/>
      <use xlink:href="#DejaVuSans-6c" x="124.755859"/>
      <use xlink:href="#DejaVuSans-69" x="152.539062"/>
      <use xlink:href="#DejaVuSans-6e" x="180.322266"/>
      <use xlink:href="#DejaVuSans-69" x="243.701172"/>
      <use xlink:href="#DejaVuSans-74" x="271.484375"/>
      <use xlink:href="#DejaVuSans-79" x="310.693359"/>
      <use xlink:href="#DejaVuSans-20" x="369.873047"/>
      <use xlink:href="#DejaVuSans-28" x="401.660156"/>
      <use xlink:href="#DejaVuSans-50" x="440.673828"/>
      <use xlink:href="#DejaVuSans-53" x="500.976562"/>
      <use xlink:href="#DejaVuSans-55" x="564.453125"/>
      <use xlink:href="#DejaVuSans-29" x="637.646484"/>
     </g>
    </g>
   </g>
   <g id="matplotlib.axis_2">
    <g id="ytick_1">
     <g id="line2d_6">
      <defs>
       <path id="m553f4e3573" d="M 0 0 
L -3.5 0 
" style="stroke: #000000; stroke-width: 0.8"/>
      </defs>
      <g>
       <use xlink:href="#m553f4e3573" x="50.14375" y="213.965478" style="stroke: #000000; stroke-width: 0.8"/>
      </g>
     </g>
     <g id="text_7">
      <!-- 9.2 -->
      <g transform="translate(27.240625 217.764697) scale(0.1 -0.1)">
       <defs>
        <path id="DejaVuSans-2e" d="M 684 794 
L 1344 794 
L 1344 0 
L 684 0 
L 684 794 
z
" transform="scale(0.015625)"/>
       </defs>
       <use xlink:href="#DejaVuSans-39"/>
       <use xlink:href="#DejaVuSans-2e" x="63.623047"/>
       <use xlink:href="#DejaVuSans-32" x="95.410156"/>
      </g>
     </g>
    </g>
    <g id="ytick_2">
     <g id="line2d_7">
      <g>
       <use xlink:href="#m553f4e3573" x="50.14375" y="180.396929" style="stroke: #000000; stroke-width: 0.8"/>
      </g>
     </g>
     <g id="text_8">
      <!-- 9.6 -->
      <g transform="translate(27.240625 184.196148) scale(0.1 -0.1)">
       <defs>
        <path id="DejaVuSans-36" d="M 2113 2584 
Q 1688 2584 1439 2293 
Q 1191 2003 1191 1497 
Q 1191 994 1439 701 
Q 1688 409 2113 409 
Q 2538 409 2786 701 
Q 3034 994 3034 1497 
Q 3034 2003 2786 2293 
Q 2538 2584 2113 2584 
z
M 3366 4563 
L 3366 3988 
Q 3128 4100 2886 4159 
Q 2644 4219 2406 4219 
Q 1781 4219 1451 3797 
Q 1122 3375 1075 2522 
Q 1259 2794 1537 2939 
Q 1816 3084 2150 3084 
Q 2853 3084 3261 2657 
Q 3669 2231 3669 1497 
Q 3669 778 3244 343 
Q 2819 -91 2113 -91 
Q 1303 -91 875 529 
Q 447 1150 447 2328 
Q 447 3434 972 4092 
Q 1497 4750 2381 4750 
Q 2619 4750 2861 4703 
Q 3103 4656 3366 4563 
z
" transform="scale(0.015625)"/>
       </defs>
       <use xlink:href="#DejaVuSans-39"/>
       <use xlink:href="#DejaVuSans-2e" x="63.623047"/>
       <use xlink:href="#DejaVuSans-36" x="95.410156"/>
      </g>
     </g>
    </g>
    <g id="ytick_3">
     <g id="line2d_8">
      <g>
       <use xlink:href="#m553f4e3573" x="50.14375" y="146.82838" style="stroke: #000000; stroke-width: 0.8"/>
      </g>
     </g>
     <g id="text_9">
      <!-- 10.0 -->
      <g transform="translate(20.878125 150.627599) scale(0.1 -0.1)">
       <use xlink:href="#DejaVuSans-31"/>
       <use xlink:href="#DejaVuSans-30" x="63.623047"/>
       <use xlink:href="#DejaVuSans-2e" x="127.246094"/>
       <use xlink:href="#DejaVuSans-30" x="159.033203"/>
      </g>
     </g>
    </g>
    <g id="ytick_4">
     <g id="line2d_9">
      <g>
       <use xlink:href="#m553f4e3573" x="50.14375" y="113.259831" style="stroke: #000000; stroke-width: 0.8"/>
      </g>
     </g>
     <g id="text_10">
      <!-- 10.4 -->
      <g transform="translate(20.878125 117.05905) scale(0.1 -0.1)">
       <defs>
        <path id="DejaVuSans-34" d="M 2419 4116 
L 825 1625 
L 2419 1625 
L 2419 4116 
z
M 2253 4666 
L 3047 4666 
L 3047 1625 
L 3713 1625 
L 3713 1100 
L 3047 1100 
L 3047 0 
L 2419 0 
L 2419 1100 
L 313 1100 
L 313 1709 
L 2253 4666 
z
" transform="scale(0.015625)"/>
       </defs>
       <use xlink:href="#DejaVuSans-31"/>
       <use xlink:href="#DejaVuSans-30" x="63.623047"/>
       <use xlink:href="#DejaVuSans-2e" x="127.246094"/>
       <use xlink:href="#DejaVuSans-34" x="159.033203"/>
      </g>
     </g>
    </g>
    <g id="ytick_5">
     <g id="line2d_10">
      <g>
       <use xlink:href="#m553f4e3573" x="50.14375" y="79.691282" style="stroke: #000000; stroke-width: 0.8"/>
      </g>
     </g>
     <g id="text_11">
      <!-- 10.8 -->
      <g transform="translate(20.878125 83.490501) scale(0.1 -0.1)">
       <defs>
        <path id="DejaVuSans-38" d="M 2034 2216 
Q 1584 2216 1326 1975 
Q 1069 1734 1069 1313 
Q 1069 891 1326 650 
Q 1584 409 2034 409 
Q 2484 409 2743 651 
Q 3003 894 3003 1313 
Q 3003 1734 2745 1975 
Q 2488 2216 2034 2216 
z
M 1403 2484 
Q 997 2584 770 2862 
Q 544 3141 544 3541 
Q 544 4100 942 4425 
Q 1341 4750 2034 4750 
Q 2731 4750 3128 4425 
Q 3525 4100 3525 3541 
Q 3525 3141 3298 2862 
Q 3072 2584 2669 2484 
Q 3125 2378 3379 2068 
Q 3634 1759 3634 1313 
Q 3634 634 3220 271 
Q 2806 -91 2034 -91 
Q 1263 -91 848 271 
Q 434 634 434 1313 
Q 434 1759 690 2068 
Q 947 2378 1403 2484 
z
M 1172 3481 
Q 1172 3119 1398 2916 
Q 1625 2713 2034 2713 
Q 2441 2713 2670 2916 
Q 2900 3119 2900 3481 
Q 2900 3844 2670 4047 
Q 2441 4250 2034 4250 
Q 1625 4250 1398 4047 
Q 1172 3844 1172 3481 
z
" transform="scale(0.015625)"/>
       </defs>
       <use xlink:href="#DejaVuSans-31"/>
       <use xlink:href="#DejaVuSans-30" x="63.623047"/>
       <use xlink:href="#DejaVuSans-2e" x="127.246094"/>
       <use xlink:href="#DejaVuSans-38" x="159.033203"/>
      </g>
     </g>
    </g>
    <g id="ytick_6">
     <g id="line2d_11">
      <g>
       <use xlink:href="#m553f4e3573" x="50.14375" y="46.122733" style="stroke: #000000; stroke-width: 0.8"/>
      </g>
     </g>
     <g id="text_12">
      <!-- 11.2 -->
      <g transform="translate(20.878125 49.921951) scale(0.1 -0.1)">
       <use xlink:href="#DejaVuSans-31"/>
       <use xlink:href="#DejaVuSans-31" x="63.623047"/>
       <use xlink:href="#DejaVuSans-2e" x="127.246094"/>
       <use xlink:href="#DejaVuSans-32" x="159.033203"/>
      </g>
     </g>
    </g>
    <g id="ytick_7">
     <g id="line2d_12">
      <g>
       <use xlink:href="#m553f4e3573" x="50.14375" y="12.554184" style="stroke: #000000; stroke-width: 0.8"/>
      </g>
     </g>
     <g id="text_13">
      <!-- 11.6 -->
      <g transform="translate(20.878125 16.353402) scale(0.1 -0.1)">
       <use xlink:href="#DejaVuSans-31"/>
       <use xlink:href="#DejaVuSans-31" x="63.623047"/>
       <use xlink:href="#DejaVuSans-2e" x="127.246094"/>
       <use xlink:href="#DejaVuSans-36" x="159.033203"/>
      </g>
     </g>
    </g>
    <g id="text_14">
     <!-- Temperature (°C) -->
     <g transform="translate(14.798438 167.971563) rotate(-90) scale(0.1 -0.1)">
      <defs>
       <path id="DejaVuSans-54" d="M -19 4666 
L 3928 4666 
L 3928 4134 
L 2272 4134 
L 2272 0 
L 1638 0 
L 1638 4134 
L -19 4134 
L -19 4666 
z
" transform="scale(0.015625)"/>
       <path id="DejaVuSans-65" d="M 3597 1894 
L 3597 1613 
L 953 1613 
Q 991 1019 1311 708 
Q 1631 397 2203 397 
Q 2534 397 2845 478 
Q 3156 559 3463 722 
L 3463 178 
Q 3153 47 2828 -22 
Q 2503 -91 2169 -91 
Q 1331 -91 842 396 
Q 353 884 353 1716 
Q 353 2575 817 3079 
Q 1281 3584 2069 3584 
Q 2775 3584 3186 3129 
Q 3597 2675 3597 1894 
z
M 3022 2063 
Q 3016 2534 2758 2815 
Q 2500 3097 2075 3097 
Q 1594 3097 1305 2825 
Q 1016 2553 972 2059 
L 3022 2063 
z
" transform="scale(0.015625)"/>
       <path id="DejaVuSans-6d" d="M 3328 2828 
Q 3544 3216 3844 3400 
Q 4144 3584 4550 3584 
Q 5097 3584 5394 3201 
Q 5691 2819 5691 2113 
L 5691 0 
L 5113 0 
L 5113 2094 
Q 5113 2597 4934 2840 
Q 4756 3084 4391 3084 
Q 3944 3084 3684 2787 
Q 3425 2491 3425 1978 
L 3425 0 
L 2847 0 
L 2847 2094 
Q 2847 2600 2669 2842 
Q 2491 3084 2119 3084 
Q 1678 3084 1418 2786 
Q 1159 2488 1159 1978 
L 1159 0 
L 581 0 
L 581 3500 
L 1159 3500 
L 1159 2956 
Q 1356 3278 1631 3431 
Q 1906 3584 2284 3584 
Q 2666 3584 2933 3390 
Q 3200 3197 3328 2828 
z
" transform="scale(0.015625)"/>
       <path id="DejaVuSans-70" d="M 1159 525 
L 1159 -1331 
L 581 -1331 
L 581 3500 
L 1159 3500 
L 1159 2969 
Q 1341 3281 1617 3432 
Q 1894 3584 2278 3584 
Q 2916 3584 3314 3078 
Q 3713 2572 3713 1747 
Q 3713 922 3314 415 
Q 2916 -91 2278 -91 
Q 1894 -91 1617 61 
Q 1341 213 1159 525 
z
M 3116 1747 
Q 3116 2381 2855 2742 
Q 2594 3103 2138 3103 
Q 1681 3103 1420 2742 
Q 1159 2381 1159 1747 
Q 1159 1113 1420 752 
Q 1681 391 2138 391 
Q 2594 391 2855 752 
Q 3116 1113 3116 1747 
z
" transform="scale(0.015625)"/>
       <path id="DejaVuSans-72" d="M 2631 2963 
Q 2534 3019 2420 3045 
Q 2306 3072 2169 3072 
Q 1681 3072 1420 2755 
Q 1159 2438 1159 1844 
L 1159 0 
L 581 0 
L 581 3500 
L 1159 3500 
L 1159 2956 
Q 1341 3275 1631 3429 
Q 1922 3584 2338 3584 
Q 2397 3584 2469 3576 
Q 2541 3569 2628 3553 
L 2631 2963 
z
" transform="scale(0.015625)"/>
       <path id="DejaVuSans-75" d="M 544 1381 
L 544 3500 
L 1119 3500 
L 1119 1403 
Q 1119 906 1312 657 
Q 1506 409 1894 409 
Q 2359 409 2629 706 
Q 2900 1003 2900 1516 
L 2900 3500 
L 3475 3500 
L 3475 0 
L 2900 0 
L 2900 538 
Q 2691 219 2414 64 
Q 2138 -91 1772 -91 
Q 1169 -91 856 284 
Q 544 659 544 1381 
z
M 1991 3584 
L 1991 3584 
z
" transform="scale(0.015625)"/>
       <path id="DejaVuSans-b0" d="M 1600 4347 
Q 1350 4347 1178 4173 
Q 1006 4000 1006 3750 
Q 1006 3503 1178 3333 
Q 1350 3163 1600 3163 
Q 1850 3163 2022 3333 
Q 2194 3503 2194 3750 
Q 2194 3997 2020 4172 
Q 1847 4347 1600 4347 
z
M 1600 4750 
Q 1800 4750 1984 4673 
Q 2169 4597 2303 4453 
Q 2447 4313 2519 4134 
Q 2591 3956 2591 3750 
Q 2591 3338 2302 3052 
Q 2013 2766 1594 2766 
Q 1172 2766 890 3047 
Q 609 3328 609 3750 
Q 609 4169 896 4459 
Q 1184 4750 1600 4750 
z
" transform="scale(0.015625)"/>
       <path id="DejaVuSans-43" d="M 4122 4306 
L 4122 3641 
Q 3803 3938 3442 4084 
Q 3081 4231 2675 4231 
Q 1875 4231 1450 3742 
Q 1025 3253 1025 2328 
Q 1025 1406 1450 917 
Q 1875 428 2675 428 
Q 3081 428 3442 575 
Q 3803 722 4122 1019 
L 4122 359 
Q 3791 134 3420 21 
Q 3050 -91 2638 -91 
Q 1578 -91 968 557 
Q 359 1206 359 2328 
Q 359 3453 968 4101 
Q 1578 4750 2638 4750 
Q 3056 4750 3426 4639 
Q 3797 4528 4122 4306 
z
" transform="scale(0.015625)"/>
      </defs>
      <use xlink:href="#DejaVuSans-54"/>
      <use xlink:href="#DejaVuSans-65" x="44.083984"/>
      <use xlink:href="#DejaVuSans-6d" x="105.607422"/>
      <use xlink:href="#DejaVuSans-70" x="203.019531"/>
      <use xlink:href="#DejaVuSans-65" x="266.496094"/>
      <use xlink:href="#DejaVuSans-72" x="328.019531"/>
      <use xlink:href="#DejaVuSans-61" x="369.132812"/>
      <use xlink:href="#DejaVuSans-74" x="430.412109"/>
      <use xlink:href="#DejaVuSans-75" x="469.621094"/>
      <use xlink:href="#DejaVuSans-72" x="533"/>
      <use xlink:href="#DejaVuSans-65" x="571.863281"/>
      <use xlink:href="#DejaVuSans-20" x="633.386719"/>
      <use xlink:href="#DejaVuSans-28" x="665.173828"/>
      <use xlink:href="#DejaVuSans-b0" x="704.1875"/>
      <use xlink:href="#DejaVuSans-43" x="754.1875"/>
      <use xlink:href="#DejaVuSans-29" x="824.011719"/>
     </g>
    </g>
   </g>
   <g id="QuadContourSet_1">
    <path clip-path="url(#p9fd6a09f6c)" style="fill: none; stroke-dasharray: 0.8,1.32; stroke-dashoffset: 0; stroke: #808080; stroke-width: 0.8"/>
    <path d="M 268.091325 167.593999 
L 267.965356 166.402828 
L 267.713539 164.026667 
L 267.461178 161.650505 
L 267.208272 159.274343 
L 266.954821 156.898182 
L 266.700826 154.52202 
L 266.446288 152.145859 
L 266.191205 149.769697 
L 265.93558 147.393535 
L 265.889834 146.969181 
L 265.679412 145.017374 
L 265.422701 142.641212 
L 265.165448 140.265051 
L 264.907651 137.888889 
L 264.649313 135.512727 
L 264.390432 133.136566 
L 264.131008 130.760404 
L 263.871043 128.384242 
L 263.688344 126.717737 
L 263.610537 126.008081 
L 263.34949 123.631919 
L 263.087903 121.255758 
L 262.825774 118.879596 
L 262.563104 116.503434 
L 262.299893 114.127273 
L 262.036142 111.751111 
L 261.77185 109.374949 
L 261.507019 106.998788 
L 261.486853 106.818204 
L 261.241649 104.622626 
L 260.97574 102.246465 
L 260.709291 99.870303 
L 260.442303 97.494141 
L 260.174776 95.11798 
L 259.906709 92.741818 
L 259.638104 90.365657 
L 259.368961 87.989495 
L 259.285362 87.252861 
L 259.09928 85.613333 
L 258.829062 83.237172 
L 258.558307 80.86101 
L 258.287013 78.484848 
L 258.015182 76.108687 
L 257.742813 73.732525 
L 257.469907 71.356364 
L 257.196465 68.980202 
L 257.083872 68.003655 
L 256.922486 66.60404 
L 256.647972 64.227879 
L 256.372922 61.851717 
L 256.097335 59.475556 
L 255.821213 57.099394 
L 255.544554 54.723232 
L 255.26736 52.347071 
L 254.989631 49.970909 
L 254.882381 49.055025 
L 254.872645 48.971889 
M 251.734955 22.45829 
L 251.61522 21.45697 
L 251.330552 19.080808 
L 251.045351 16.704646 
L 250.759618 14.328485 
L 250.4794 12.002509 
L 250.473353 11.952323 
L 250.186558 9.576162 
L 249.899231 7.2 
" clip-path="url(#p9fd6a09f6c)" style="fill: none; stroke-dasharray: 0.8,1.32; stroke-dashoffset: 0; stroke: #808080; stroke-width: 0.8"/>
    <path d="M 240.889985 242.44 
L 240.65231 240.063838 
L 240.414086 237.687677 
L 240.175311 235.311515 
L 239.935987 232.935354 
L 239.696114 230.559192 
L 239.471946 228.343663 
L 239.455692 228.18303 
L 239.214723 225.806869 
L 238.973205 223.430707 
L 238.731138 221.054545 
L 238.488523 218.678384 
L 238.24536 216.302222 
L 238.00165 213.926061 
L 237.757391 211.549899 
L 237.512586 209.173737 
L 237.270456 206.828787 
L 237.267233 206.797576 
L 237.021335 204.421414 
L 236.77489 202.045253 
L 236.527898 199.669091 
L 236.28036 197.292929 
L 236.032276 194.916768 
L 235.783646 192.540606 
L 235.534471 190.164444 
L 235.284749 187.788283 
L 235.068965 185.739487 
L 235.034483 185.412121 
L 234.783673 183.03596 
L 234.532318 180.659798 
L 234.280419 178.283636 
L 234.027975 175.907475 
L 233.774987 173.531313 
L 233.521454 171.155152 
L 233.267378 168.77899 
L 233.012758 166.402828 
L 232.867474 165.049844 
L 232.757596 164.026667 
L 232.501891 161.650505 
L 232.245643 159.274343 
L 231.988852 156.898182 
L 231.731519 154.52202 
L 231.473643 152.145859 
L 231.215225 149.769697 
L 230.956265 147.393535 
L 230.696763 145.017374 
L 230.665984 144.736101 
L 230.436721 142.641212 
L 230.176138 140.265051 
L 229.915014 137.888889 
L 229.653349 135.512727 
L 229.391143 133.136566 
L 229.128396 130.760404 
L 228.865109 128.384242 
L 228.601281 126.008081 
L 228.464493 124.778558 
L 228.336915 123.631919 
L 228.226648 122.642846 
M 225.235474 96.10927 
L 225.12249 95.11798 
L 224.851124 92.741818 
L 224.579221 90.365657 
L 224.306782 87.989495 
L 224.061512 85.854489 
L 224.033805 85.613333 
L 223.760294 83.237172 
L 223.486247 80.86101 
L 223.211663 78.484848 
L 222.936543 76.108687 
L 222.660887 73.732525 
L 222.384696 71.356364 
L 222.107969 68.980202 
L 221.860021 66.855241 
L 221.830708 66.60404 
L 221.552913 64.227879 
L 221.274583 61.851717 
L 220.995718 59.475556 
L 220.716319 57.099394 
L 220.436386 54.723232 
L 220.155919 52.347071 
L 219.874918 49.970909 
L 219.658531 48.144558 
L 219.593383 47.594747 
L 219.311317 45.218586 
L 219.028717 42.842424 
L 218.745585 40.466263 
L 218.461919 38.090101 
L 218.177721 35.713939 
L 217.89299 33.337778 
L 217.607727 30.961616 
L 217.45704 29.708721 
L 217.321932 28.585455 
L 217.035607 26.209293 
L 216.74875 23.833131 
L 216.461362 21.45697 
L 216.173442 19.080808 
L 215.884991 16.704646 
L 215.596009 14.328485 
L 215.306496 11.952323 
L 215.255549 11.534913 
L 215.016454 9.576162 
L 214.725883 7.2 
" clip-path="url(#p9fd6a09f6c)" style="fill: none; stroke-dasharray: 0.8,1.32; stroke-dashoffset: 0; stroke: #808080; stroke-width: 0.8"/>
    <path d="M 206.048975 242.44 
L 205.807914 240.063838 
L 205.566304 237.687677 
L 205.324146 235.311515 
L 205.08144 232.935354 
L 204.838186 230.559192 
L 204.594385 228.18303 
L 204.350036 225.806869 
L 204.248096 224.817717 
L 204.105141 223.430707 
L 203.8597 221.054545 
L 203.613712 218.678384 
L 203.367177 216.302222 
L 203.120096 213.926061 
L 202.872469 211.549899 
L 202.624297 209.173737 
L 202.375578 206.797576 
L 202.126314 204.421414 
L 202.046605 203.663182 
L 201.876506 202.045253 
L 201.626153 199.669091 
L 201.375256 197.292929 
L 201.123814 194.916768 
L 200.871827 192.540606 
L 200.619297 190.164444 
L 200.366222 187.788283 
L 200.112603 185.412121 
L 199.858441 183.03596 
L 199.845115 182.911624 
L 199.603737 180.659798 
L 199.34849 178.283636 
L 199.0927 175.907475 
L 198.836368 173.531313 
L 198.579492 171.155152 
L 198.322075 168.77899 
L 198.064115 166.402828 
L 197.805613 164.026667 
L 197.643624 162.540713 
L 197.54657 161.650505 
L 197.286987 159.274343 
L 197.026863 156.898182 
L 196.766197 154.52202 
L 196.504991 152.145859 
L 196.243243 149.769697 
L 195.980955 147.393535 
L 195.718127 145.017374 
L 195.454759 142.641212 
L 195.442133 142.527524 
L 195.190853 140.265051 
L 194.926407 137.888889 
L 194.661421 135.512727 
L 194.395896 133.136566 
L 194.129832 130.760404 
L 193.86323 128.384242 
L 193.596088 126.008081 
L 193.328408 123.631919 
L 193.240643 122.85435 
L 193.060191 121.255758 
L 192.791437 118.879596 
L 192.522144 116.503434 
L 192.252314 114.127273 
L 191.981947 111.751111 
L 191.711042 109.374949 
L 191.4396 106.998788 
L 191.167622 104.622626 
L 191.039152 103.502398 
L 190.895107 102.246465 
L 190.622057 99.870303 
L 190.348471 97.494141 
L 190.074349 95.11798 
L 189.79969 92.741818 
L 189.524496 90.365657 
L 189.248767 87.989495 
L 188.972502 85.613333 
L 188.837661 84.455749 
L 188.695703 83.237172 
L 188.418371 80.86101 
L 188.140503 78.484848 
L 188.017893 77.438371 
M 184.889938 51.019669 
L 184.764473 49.970909 
L 184.479674 47.594747 
L 184.43468 47.220021 
L 184.194345 45.218586 
L 183.908485 42.842424 
L 183.622093 40.466263 
L 183.33517 38.090101 
L 183.047715 35.713939 
L 182.75973 33.337778 
L 182.471213 30.961616 
L 182.233189 29.004866 
L 182.182167 28.585455 
L 181.892592 26.209293 
L 181.602486 23.833131 
L 181.311851 21.45697 
L 181.020686 19.080808 
L 180.728991 16.704646 
L 180.436767 14.328485 
L 180.144013 11.952323 
L 180.031699 11.042308 
L 179.850731 9.576162 
L 179.556922 7.2 
" clip-path="url(#p9fd6a09f6c)" style="fill: none; stroke-dasharray: 0.8,1.32; stroke-dashoffset: 0; stroke: #808080; stroke-width: 0.8"/>
    <path d="M 171.211858 242.44 
L 170.967416 240.063838 
L 170.722428 237.687677 
L 170.476893 235.311515 
L 170.230811 232.935354 
L 169.984182 230.559192 
L 169.737008 228.18303 
L 169.489288 225.806869 
L 169.241022 223.430707 
L 169.024245 221.360451 
L 168.992211 221.054545 
L 168.742856 218.678384 
L 168.492957 216.302222 
L 168.242512 213.926061 
L 167.991523 211.549899 
L 167.739989 209.173737 
L 167.487912 206.797576 
L 167.23529 204.421414 
L 166.982124 202.045253 
L 166.822755 200.552593 
L 166.728416 199.669091 
L 166.474165 197.292929 
L 166.219372 194.916768 
L 165.964035 192.540606 
L 165.708156 190.164444 
L 165.451734 187.788283 
L 165.194769 185.412121 
L 164.937263 183.03596 
L 164.679215 180.659798 
L 164.621264 180.127254 
L 164.420626 178.283636 
L 164.161497 175.907475 
L 163.901826 173.531313 
L 163.641614 171.155152 
L 163.380862 168.77899 
L 163.119568 166.402828 
L 162.857735 164.026667 
L 162.595361 161.650505 
L 162.419773 160.063535 
L 162.332447 159.274343 
L 162.068995 156.898182 
L 161.805004 154.52202 
L 161.540473 152.145859 
L 161.275403 149.769697 
L 161.009794 147.393535 
L 160.743646 145.017374 
L 160.476959 142.641212 
L 160.218283 140.34106 
L 160.209734 140.265051 
L 159.941973 137.888889 
L 159.673674 135.512727 
L 159.404837 133.136566 
L 159.135462 130.760404 
L 158.86555 128.384242 
L 158.595101 126.008081 
L 158.324115 123.631919 
L 158.052592 121.255758 
L 158.016792 120.943058 
L 157.780534 118.879596 
L 157.50794 116.503434 
L 157.23481 114.127273 
L 156.961145 111.751111 
L 156.686943 109.374949 
L 156.412205 106.998788 
L 156.136933 104.622626 
L 155.861125 102.246465 
L 155.815302 101.852417 
L 155.584784 99.870303 
L 155.307908 97.494141 
L 155.030498 95.11798 
L 154.752554 92.741818 
L 154.474075 90.365657 
L 154.195062 87.989495 
L 153.915516 85.613333 
L 153.635436 83.237172 
L 153.613811 83.054041 
L 153.354824 80.86101 
L 153.07368 78.484848 
L 152.949331 77.435869 
M 149.785652 51.022188 
L 149.658443 49.970909 
L 149.370387 47.594747 
L 149.21083 46.28093 
L 149.081801 45.218586 
L 148.792687 42.842424 
L 148.503043 40.466263 
L 148.212869 38.090101 
L 147.922165 35.713939 
L 147.630931 33.337778 
L 147.339168 30.961616 
L 147.046877 28.585455 
L 147.009339 28.280821 
L 146.754058 26.209293 
L 146.460711 23.833131 
L 146.166835 21.45697 
L 145.872431 19.080808 
L 145.577499 16.704646 
L 145.282039 14.328485 
L 144.986051 11.952323 
L 144.807848 10.524219 
L 144.689537 9.576162 
L 144.392497 7.2 
" clip-path="url(#p9fd6a09f6c)" style="fill: none; stroke-dasharray: 0.8,1.32; stroke-dashoffset: 0; stroke: #808080; stroke-width: 0.8"/>
    <path d="M 136.378764 242.44 
L 136.130947 240.063838 
L 136.001886 238.829012 
L 135.882585 237.687677 
L 135.633679 235.311515 
L 135.384227 232.935354 
L 135.134231 230.559192 
L 134.883691 228.18303 
L 134.632606 225.806869 
L 134.380976 223.430707 
L 134.128803 221.054545 
L 133.876086 218.678384 
L 133.800395 217.968178 
L 133.622827 216.302222 
L 133.369025 213.926061 
L 133.11468 211.549899 
L 132.859792 209.173737 
L 132.604362 206.797576 
L 132.348389 204.421414 
L 132.091873 202.045253 
L 131.834816 199.669091 
L 131.598904 197.492964 
L 131.577217 197.292929 
L 131.319078 194.916768 
L 131.060398 192.540606 
L 130.801176 190.164444 
L 130.541413 187.788283 
L 130.28111 185.412121 
L 130.020266 183.03596 
L 129.758882 180.659798 
L 129.496957 178.283636 
L 129.397414 177.382389 
L 129.234494 175.907475 
L 128.971491 173.531313 
L 128.70795 171.155152 
L 128.443868 168.77899 
L 128.179248 166.402828 
L 127.914089 164.026667 
L 127.648391 161.650505 
L 127.382154 159.274343 
L 127.195923 157.615534 
L 127.11538 156.898182 
L 126.848069 154.52202 
L 126.58022 152.145859 
L 126.311834 149.769697 
L 126.04291 147.393535 
L 125.773449 145.017374 
L 125.50345 142.641212 
L 125.232915 140.265051 
L 124.994432 138.174538 
L 124.961843 137.888889 
L 124.690237 135.512727 
L 124.418094 133.136566 
L 124.145415 130.760404 
L 123.872201 128.384242 
L 123.598451 126.008081 
L 123.324165 123.631919 
L 123.049344 121.255758 
L 122.792942 119.043142 
L 122.773988 118.879596 
L 122.498099 116.503434 
L 122.221676 114.127273 
L 121.944718 111.751111 
L 121.667226 109.374949 
L 121.3892 106.998788 
L 121.11064 104.622626 
L 120.831546 102.246465 
L 120.591451 100.206206 
L 120.551919 99.870303 
L 120.271761 97.494141 
L 119.99107 95.11798 
L 119.709845 92.741818 
L 119.428089 90.365657 
L 119.145799 87.989495 
L 118.862978 85.613333 
L 118.579624 83.237172 
L 118.38996 81.649609 
L 118.29574 80.86101 
L 118.011325 78.484848 
L 117.88523 77.433346 
M 114.685919 51.02473 
L 114.556961 49.970909 
L 114.265654 47.594747 
L 113.986979 45.325729 
L 113.973819 45.218586 
L 113.681457 42.842424 
L 113.388567 40.466263 
L 113.095148 38.090101 
L 112.801202 35.713939 
L 112.506727 33.337778 
L 112.211725 30.961616 
L 111.916195 28.585455 
L 111.785488 27.536351 
L 111.620138 26.209293 
L 111.323556 23.833131 
L 111.026447 21.45697 
L 110.728811 19.080808 
L 110.430649 16.704646 
L 110.13196 14.328485 
L 109.832744 11.952323 
L 109.583998 9.980384 
L 109.533004 9.576162 
L 109.232739 7.2 
" clip-path="url(#p9fd6a09f6c)" style="fill: none; stroke-dasharray: 0.8,1.32; stroke-dashoffset: 0; stroke: #808080; stroke-width: 0.8"/>
    <path d="M 101.549803 242.44 
L 101.298618 240.063838 
L 101.04689 237.687677 
L 100.794617 235.311515 
L 100.778035 235.155652 
L 100.541803 232.935354 
L 100.288445 230.559192 
L 100.034545 228.18303 
L 99.780101 225.806869 
L 99.525115 223.430707 
L 99.269586 221.054545 
L 99.013515 218.678384 
L 98.756903 216.302222 
L 98.576544 214.635629 
L 98.499748 213.926061 
L 98.242054 211.549899 
L 97.983818 209.173737 
L 97.725041 206.797576 
L 97.465724 204.421414 
L 97.205865 202.045253 
L 96.945466 199.669091 
L 96.684526 197.292929 
L 96.423046 194.916768 
L 96.375054 194.481505 
L 96.161029 192.540606 
L 95.898471 190.164444 
L 95.635375 187.788283 
L 95.371738 185.412121 
L 95.107563 183.03596 
L 94.842849 180.659798 
L 94.577597 178.283636 
L 94.311805 175.907475 
L 94.173563 174.674035 
L 94.045477 173.531313 
L 93.778612 171.155152 
L 93.511209 168.77899 
L 93.243268 166.402828 
L 92.974789 164.026667 
L 92.705774 161.650505 
L 92.436221 159.274343 
L 92.166132 156.898182 
L 91.972072 155.194244 
L 91.895507 154.52202 
L 91.624347 152.145859 
L 91.35265 149.769697 
L 91.080418 147.393535 
L 90.80765 145.017374 
L 90.534346 142.641212 
L 90.260507 140.265051 
L 89.986133 137.888889 
L 89.770582 136.025744 
L 89.711225 135.512727 
L 89.435783 133.136566 
L 89.159807 130.760404 
L 88.883296 128.384242 
L 88.606251 126.008081 
L 88.328672 123.631919 
L 88.05056 121.255758 
L 87.771914 118.879596 
L 87.569091 117.153279 
L 87.492735 116.503434 
L 87.213025 114.127273 
L 86.932782 111.751111 
L 86.652006 109.374949 
L 86.370697 106.998788 
L 86.088857 104.622626 
L 85.806484 102.246465 
L 85.523579 99.870303 
L 85.367601 98.56262 
L 85.240143 97.494141 
L 84.956177 95.11798 
L 84.67168 92.741818 
L 84.386652 90.365657 
L 84.101093 87.989495 
L 83.815003 85.613333 
L 83.528382 83.237172 
L 83.241231 80.86101 
L 83.16611 80.240486 
L 82.953552 78.484848 
L 82.825705 77.4308 
M 79.590856 51.027294 
L 79.460141 49.970909 
L 79.165591 47.594747 
L 78.870513 45.218586 
L 78.763129 44.355346 
L 78.57491 42.842424 
L 78.27878 40.466263 
L 77.982124 38.090101 
L 77.684941 35.713939 
L 77.387232 33.337778 
L 77.088997 30.961616 
L 76.790235 28.585455 
L 76.561638 26.77049 
L 76.490948 26.209293 
L 76.191138 23.833131 
L 75.890802 21.45697 
L 75.589941 19.080808 
L 75.288554 16.704646 
L 74.986643 14.328485 
L 74.684207 11.952323 
L 74.381247 9.576162 
L 74.360147 9.410946 
L 74.077764 7.2 
" clip-path="url(#p9fd6a09f6c)" style="fill: none; stroke-dasharray: 0.8,1.32; stroke-dashoffset: 0; stroke: #808080; stroke-width: 0.8"/>
    <path d="M 66.725069 242.44 
L 66.470523 240.063838 
L 66.215434 237.687677 
L 65.959804 235.311515 
L 65.703631 232.935354 
L 65.554185 231.552012 
L 65.446918 230.559192 
L 65.189664 228.18303 
L 64.931868 225.806869 
L 64.673532 223.430707 
L 64.414654 221.054545 
L 64.155236 218.678384 
L 63.895277 216.302222 
L 63.634778 213.926061 
L 63.373739 211.549899 
L 63.352694 211.358712 
L 63.112162 209.173737 
L 62.850045 206.797576 
L 62.587389 204.421414 
L 62.324193 202.045253 
L 62.060459 199.669091 
L 61.796185 197.292929 
L 61.531374 194.916768 
L 61.266023 192.540606 
L 61.151203 191.514441 
L 61.000136 190.164444 
L 60.733711 187.788283 
L 60.466749 185.412121 
L 60.199249 183.03596 
L 59.931212 180.659798 
L 59.81376 179.620663 
M 56.793236 153.187212 
L 56.748222 152.797503 
L 56.672947 152.145859 
L 56.397947 149.769697 
L 56.122413 147.393535 
L 55.846345 145.017374 
L 55.569743 142.641212 
L 55.292606 140.265051 
L 55.014937 137.888889 
L 54.736733 135.512727 
L 54.546731 133.892957 
L 54.457997 133.136566 
L 54.17873 130.760404 
L 53.89893 128.384242 
L 53.618597 126.008081 
L 53.337732 123.631919 
L 53.056335 121.255758 
L 52.774405 118.879596 
L 52.491944 116.503434 
L 52.345241 115.271575 
L 52.208953 114.127273 
L 51.925431 111.751111 
L 51.641378 109.374949 
L 51.356793 106.998788 
L 51.071678 104.622626 
L 50.786033 102.246465 
L 50.499857 99.870303 
L 50.213151 97.494141 
L 50.14375 96.919983 
" clip-path="url(#p9fd6a09f6c)" style="fill: none; stroke-dasharray: 0.8,1.32; stroke-dashoffset: 0; stroke: #808080; stroke-width: 0.8"/>
    <path clip-path="url(#p9fd6a09f6c)" style="fill: none; stroke-dasharray: 0.8,1.32; stroke-dashoffset: 0; stroke: #808080; stroke-width: 0.8"/>
   </g>
   <g id="patch_3">
    <path d="M 50.14375 242.44 
L 50.14375 7.2 
" style="fill: none; stroke: #000000; stroke-width: 0.8; stroke-linejoin: miter; stroke-linecap: square"/>
   </g>
   <g id="patch_4">
    <path d="M 268.091325 242.44 
L 268.091325 7.2 
" style="fill: none; stroke: #000000; stroke-width: 0.8; stroke-linejoin: miter; stroke-linecap: square"/>
   </g>
   <g id="patch_5">
    <path d="M 50.14375 242.44 
L 268.091325 242.44 
" style="fill: none; stroke: #000000; stroke-width: 0.8; stroke-linejoin: miter; stroke-linecap: square"/>
   </g>
   <g id="patch_6">
    <path d="M 50.14375 7.2 
L 268.091325 7.2 
" style="fill: none; stroke: #000000; stroke-width: 0.8; stroke-linejoin: miter; stroke-linecap: square"/>
   </g>
   <g id="text_15">
    <g clip-path="url(#p9fd6a09f6c)">
     <!-- 22.2 -->
     <g style="fill: #808080" transform="translate(254.365857 44.828971) rotate(-82.674136) scale(0.08 -0.08)">
      <use xlink:href="#DejaVuSans-32"/>
      <use xlink:href="#DejaVuSans-32" x="63.623047"/>
      <use xlink:href="#DejaVuSans-2e" x="127.246094"/>
      <use xlink:href="#DejaVuSans-32" x="159.033203"/>
     </g>
    </g>
   </g>
   <g id="text_16">
    <g clip-path="url(#p9fd6a09f6c)">
     <!-- 22.8 -->
     <g style="fill: #808080" transform="translate(227.847894 118.483493) rotate(-83.017953) scale(0.08 -0.08)">
      <use xlink:href="#DejaVuSans-32"/>
      <use xlink:href="#DejaVuSans-32" x="63.623047"/>
      <use xlink:href="#DejaVuSans-2e" x="127.246094"/>
      <use xlink:href="#DejaVuSans-38" x="159.033203"/>
     </g>
    </g>
   </g>
   <g id="text_17">
    <g clip-path="url(#p9fd6a09f6c)">
     <!-- 23.4 -->
     <g style="fill: #808080" transform="translate(187.515353 73.342974) rotate(-82.670663) scale(0.08 -0.08)">
      <use xlink:href="#DejaVuSans-32"/>
      <use xlink:href="#DejaVuSans-33" x="63.623047"/>
      <use xlink:href="#DejaVuSans-2e" x="127.246094"/>
      <use xlink:href="#DejaVuSans-34" x="159.033203"/>
     </g>
    </g>
   </g>
   <g id="text_18">
    <g clip-path="url(#p9fd6a09f6c)">
     <!-- 24.0 -->
     <g style="fill: #808080" transform="translate(152.415506 73.344512) rotate(-82.586487) scale(0.08 -0.08)">
      <use xlink:href="#DejaVuSans-32"/>
      <use xlink:href="#DejaVuSans-34" x="63.623047"/>
      <use xlink:href="#DejaVuSans-2e" x="127.246094"/>
      <use xlink:href="#DejaVuSans-30" x="159.033203"/>
     </g>
    </g>
   </g>
   <g id="text_19">
    <g clip-path="url(#p9fd6a09f6c)">
     <!-- 24.6 -->
     <g style="fill: #808080" transform="translate(117.320197 73.346026) rotate(-82.502513) scale(0.08 -0.08)">
      <use xlink:href="#DejaVuSans-32"/>
      <use xlink:href="#DejaVuSans-34" x="63.623047"/>
      <use xlink:href="#DejaVuSans-2e" x="127.246094"/>
      <use xlink:href="#DejaVuSans-36" x="159.033203"/>
     </g>
    </g>
   </g>
   <g id="text_20">
    <g clip-path="url(#p9fd6a09f6c)">
     <!-- 25.2 -->
     <g style="fill: #808080" transform="translate(82.229541 73.347517) rotate(-82.418743) scale(0.08 -0.08)">
      <defs>
       <path id="DejaVuSans-35" d="M 691 4666 
L 3169 4666 
L 3169 4134 
L 1269 4134 
L 1269 2991 
Q 1406 3038 1543 3061 
Q 1681 3084 1819 3084 
Q 2600 3084 3056 2656 
Q 3513 2228 3513 1497 
Q 3513 744 3044 326 
Q 2575 -91 1722 -91 
Q 1428 -91 1123 -41 
Q 819 9 494 109 
L 494 744 
Q 775 591 1075 516 
Q 1375 441 1709 441 
Q 2250 441 2565 725 
Q 2881 1009 2881 1497 
Q 2881 1984 2565 2268 
Q 2250 2553 1709 2553 
Q 1456 2553 1204 2497 
Q 953 2441 691 2322 
L 691 4666 
z
" transform="scale(0.015625)"/>
      </defs>
      <use xlink:href="#DejaVuSans-32"/>
      <use xlink:href="#DejaVuSans-35" x="63.623047"/>
      <use xlink:href="#DejaVuSans-2e" x="127.246094"/>
      <use xlink:href="#DejaVuSans-32" x="159.033203"/>
     </g>
    </g>
   </g>
   <g id="text_21">
    <g clip-path="url(#p9fd6a09f6c)">
     <!-- 25.8 -->
     <g style="fill: #808080" transform="translate(59.405236 175.513183) rotate(-82.923694) scale(0.08 -0.08)">
      <use xlink:href="#DejaVuSans-32"/>
      <use xlink:href="#DejaVuSans-35" x="63.623047"/>
      <use xlink:href="#DejaVuSans-2e" x="127.246094"/>
      <use xlink:href="#DejaVuSans-38" x="159.033203"/>
     </g>
    </g>
   </g>
   <g id="legend_1">
    <g id="patch_7">
     <path d="M 210.003825 59.234375 
L 261.091325 59.234375 
Q 263.091325 59.234375 263.091325 57.234375 
L 263.091325 14.2 
Q 263.091325 12.2 261.091325 12.2 
L 210.003825 12.2 
Q 208.003825 12.2 208.003825 14.2 
L 208.003825 57.234375 
Q 208.003825 59.234375 210.003825 59.234375 
z
" style="fill: #ffffff; opacity: 0.8; stroke: #cccccc; stroke-linejoin: miter"/>
    </g>
    <g id="text_22">
     <!-- Station -->
     <g transform="translate(217.771794 23.798437) scale(0.1 -0.1)">
      <defs>
       <path id="DejaVuSans-6f" d="M 1959 3097 
Q 1497 3097 1228 2736 
Q 959 2375 959 1747 
Q 959 1119 1226 758 
Q 1494 397 1959 397 
Q 2419 397 2687 759 
Q 2956 1122 2956 1747 
Q 2956 2369 2687 2733 
Q 2419 3097 1959 3097 
z
M 1959 3584 
Q 2709 3584 3137 3096 
Q 3566 2609 3566 1747 
Q 3566 888 3137 398 
Q 2709 -91 1959 -91 
Q 1206 -91 779 398 
Q 353 888 353 1747 
Q 353 2609 779 3096 
Q 1206 3584 1959 3584 
z
" transform="scale(0.015625)"/>
      </defs>
      <use xlink:href="#DejaVuSans-53"/>
      <use xlink:href="#DejaVuSans-74" x="63.476562"/>
      <use xlink:href="#DejaVuSans-61" x="102.685547"/>
      <use xlink:href="#DejaVuSans-74" x="163.964844"/>
      <use xlink:href="#DejaVuSans-69" x="203.173828"/>
      <use xlink:href="#DejaVuSans-6f" x="230.957031"/>
      <use xlink:href="#DejaVuSans-6e" x="292.138672"/>
     </g>
    </g>
    <g id="PathCollection_3">
     <g>
      <use xlink:href="#mc1a72b3571" x="222.003825" y="35.851562" style="fill: #0173b2; fill-opacity: 0.7; stroke: #000000; stroke-opacity: 0.7"/>
     </g>
    </g>
    <g id="text_23">
     <!-- 130 -->
     <g transform="translate(240.003825 38.476562) scale(0.1 -0.1)">
      <use xlink:href="#DejaVuSans-31"/>
      <use xlink:href="#DejaVuSans-33" x="63.623047"/>
      <use xlink:href="#DejaVuSans-30" x="127.246094"/>
     </g>
    </g>
    <g id="PathCollection_4">
     <g>
      <use xlink:href="#mcc9a033f78" x="222.003825" y="50.529687" style="fill: #de8f05; fill-opacity: 0.7; stroke: #000000; stroke-opacity: 0.7"/>
     </g>
    </g>
    <g id="text_24">
     <!-- 51 -->
     <g transform="translate(240.003825 53.154687) scale(0.1 -0.1)">
      <use xlink:href="#DejaVuSans-35"/>
      <use xlink:href="#DejaVuSans-31" x="63.623047"/>
     </g>
    </g>
   </g>
  </g>
 </g>
 <defs>
  <clipPath id="p9fd6a09f6c">
   <rect x="50.14375" y="7.2" width="217.947575" height="235.24"/>
  </clipPath>
 </defs>
</svg>
